<?xml version="1.0" encoding="UTF-8"?>
<svg id="_レイヤー_2" data-name="レイヤー 2" xmlns="http://www.w3.org/2000/svg" xmlns:xlink="http://www.w3.org/1999/xlink" viewBox="0 0 340.16 374.33">
  <defs>
    <style>
      .cls-1 {
        letter-spacing: -.08em;
      }

      .cls-2 {
        letter-spacing: -.04em;
      }

      .cls-3 {
        letter-spacing: -.08em;
      }

      .cls-4 {
        opacity: .45;
      }

      .cls-4, .cls-5, .cls-6 {
        isolation: isolate;
      }

      .cls-4, .cls-5, .cls-6, .cls-7, .cls-8, .cls-9, .cls-10, .cls-11, .cls-12, .cls-13, .cls-14, .cls-15, .cls-16, .cls-17, .cls-18, .cls-19 {
        stroke-width: 0px;
      }

      .cls-4, .cls-5, .cls-6, .cls-19 {
        fill: #040000;
      }

      .cls-20 {
        letter-spacing: -.09em;
      }

      .cls-21 {
        letter-spacing: -.02em;
      }

      .cls-22 {
        letter-spacing: -.04em;
      }

      .cls-23 {
        letter-spacing: -.04em;
      }

      .cls-24 {
        letter-spacing: .01em;
      }

      .cls-25 {
        letter-spacing: -.02em;
      }

      .cls-26 {
        letter-spacing: -.04em;
      }

      .cls-27 {
        letter-spacing: -.04em;
      }

      .cls-28 {
        letter-spacing: -.09em;
      }

      .cls-5 {
        opacity: .6;
      }

      .cls-29 {
        letter-spacing: -.08em;
      }

      .cls-30 {
        letter-spacing: -.09em;
      }

      .cls-31 {
        letter-spacing: -.13em;
      }

      .cls-32 {
        letter-spacing: 0em;
      }

      .cls-33 {
        font-family: Courier, Courier;
        font-size: 8px;
        letter-spacing: .1em;
      }

      .cls-33, .cls-34, .cls-35, .cls-10 {
        fill: #1b82bd;
      }

      .cls-36 {
        letter-spacing: -.06em;
      }

      .cls-37 {
        letter-spacing: -.12em;
      }

      .cls-38 {
        letter-spacing: -.09em;
      }

      .cls-39 {
        letter-spacing: -.01em;
      }

      .cls-40 {
        letter-spacing: -.11em;
      }

      .cls-6 {
        opacity: .8;
      }

      .cls-41 {
        letter-spacing: -.1em;
      }

      .cls-34 {
        font-family: NotoSansJP-Bold-83pv-RKSJ-H, 'Noto Sans JP';
        font-weight: 700;
      }

      .cls-34, .cls-35 {
        font-size: 14.86px;
      }

      .cls-42 {
        letter-spacing: -.07em;
      }

      .cls-43 {
        letter-spacing: -.07em;
      }

      .cls-44 {
        letter-spacing: -.06em;
      }

      .cls-45 {
        letter-spacing: -.06em;
      }

      .cls-46 {
        letter-spacing: 0em;
      }

      .cls-47 {
        letter-spacing: -.02em;
      }

      .cls-48 {
        letter-spacing: -.11em;
      }

      .cls-49 {
        letter-spacing: 0em;
      }

      .cls-50 {
        letter-spacing: -.11em;
      }

      .cls-51 {
        letter-spacing: -.1em;
      }

      .cls-52 {
        letter-spacing: -.12em;
      }

      .cls-53 {
        opacity: .6;
      }

      .cls-54 {
        opacity: .9;
      }

      .cls-55 {
        letter-spacing: -.05em;
      }

      .cls-56 {
        opacity: .8;
      }

      .cls-57 {
        letter-spacing: -.15em;
      }

      .cls-58 {
        letter-spacing: -.14em;
      }

      .cls-59 {
        fill: none;
        stroke: #e3e6d7;
        stroke-miterlimit: 10;
        stroke-width: 2.83px;
      }

      .cls-60 {
        letter-spacing: 0em;
      }

      .cls-61 {
        letter-spacing: -.08em;
      }

      .cls-62 {
        letter-spacing: -.08em;
      }

      .cls-63 {
        letter-spacing: -.07em;
      }

      .cls-64 {
        font-family: NotoSansJP-Regular-83pv-RKSJ-H, 'Noto Sans JP';
        font-size: 6.86px;
      }

      .cls-64, .cls-15 {
        fill: #fff;
      }

      .cls-65 {
        letter-spacing: -.25em;
      }

      .cls-66 {
        letter-spacing: -.07em;
      }

      .cls-35 {
        font-family: NotoSansJP-Medium-83pv-RKSJ-H, 'Noto Sans JP';
        font-weight: 500;
      }

      .cls-67 {
        letter-spacing: -.03em;
      }

      .cls-68 {
        letter-spacing: -.51em;
      }

      .cls-7 {
        fill: #f2e6bf;
      }

      .cls-8 {
        fill: #634b21;
      }

      .cls-9 {
        fill: #58595b;
      }

      .cls-11 {
        fill: #3e80b5;
      }

      .cls-12 {
        fill: #201513;
      }

      .cls-13 {
        fill: #cae9f8;
      }

      .cls-14 {
        fill: #dcaa2d;
      }

      .cls-16 {
        fill: #e3e6d7;
      }

      .cls-17 {
        fill: #e7b21d;
      }

      .cls-18 {
        fill: #efb76b;
      }

      .cls-69 {
        letter-spacing: -.02em;
      }

      .cls-70 {
        letter-spacing: -.13em;
      }

      .cls-71 {
        letter-spacing: -.1em;
      }

      .cls-72 {
        letter-spacing: -.05em;
      }
    </style>
  </defs>
  <g id="Working">
    <g>
      <path class="cls-16" d="m217.12,48.59c0,13.42-5.44,25.57-14.23,34.36-8.79,8.79-20.94,14.23-34.36,14.23s-25.57-5.44-34.36-14.23c-8.79-8.79-14.23-20.94-14.23-34.36s5.44-25.57,14.23-34.36c8.79-8.79,20.94-14.23,34.36-14.23s25.57,5.44,34.36,14.23c8.79,8.79,14.23,20.94,14.23,34.36Z"/>
      <circle class="cls-16" cx="83.73" cy="181.42" r="48.59"/>
      <circle class="cls-16" cx="244.94" cy="181.42" r="48.59"/>
      <text class="cls-34" transform="translate(33.55 232.15)"><tspan class="cls-50" x="0" y="0">ア</tspan><tspan class="cls-3" x="13.21" y="0">ド</tspan><tspan class="cls-61" x="26.91" y="0">レ</tspan><tspan class="cls-47" x="40.64" y="0">ス</tspan><tspan x="55.26" y="0">匿名化</tspan></text>
      <text class="cls-34" transform="translate(202.59 232.15)"><tspan class="cls-72" x="0" y="0">マ</tspan><tspan class="cls-37" x="14.07" y="0">イ</tspan><tspan class="cls-38" x="27.16" y="0">ナ</tspan><tspan class="cls-55" x="40.64" y="0">ン</tspan><tspan class="cls-69" x="54.74" y="0">バー</tspan></text>
      <g>
        <g class="cls-53">
          <g>
            <circle class="cls-13" cx="146.89" cy="63.92" r="15.48"/>
            <g>
              <path class="cls-5" d="m145.46,59.02l-10.03,8.61,13.54,3.48,9.58-10.19-13.09-1.9Z"/>
              <path class="cls-4" d="m135.43,67.63l13.54,3.48-3.51-12.09-4.04-13.93-5.99,22.54Z"/>
              <path class="cls-6" d="m141.42,45.09l4.04,13.93,3.51,12.09,9.58-10.19-17.13-15.82Z"/>
              <path class="cls-4" d="m136.06,69.82l16.29,12.93-2.75-9.46-13.54-3.47Z"/>
              <path class="cls-6" d="m149.6,73.3l2.75,9.46,6.84-19.65-9.59,10.19Z"/>
            </g>
          </g>
          <g>
            <circle class="cls-13" cx="201.93" cy="47.95" r="15.48"/>
            <g>
              <path class="cls-5" d="m200.5,43.04l-10.03,8.61,13.54,3.48,9.58-10.19-13.09-1.9Z"/>
              <path class="cls-4" d="m190.47,51.65l13.54,3.48-3.51-12.09-4.04-13.93-5.99,22.54Z"/>
              <path class="cls-6" d="m196.46,29.11l4.04,13.93,3.51,12.09,9.58-10.19-17.13-15.82Z"/>
              <path class="cls-4" d="m191.1,53.84l16.29,12.93-2.75-9.46-13.54-3.47Z"/>
              <path class="cls-6" d="m204.64,57.32l2.75,9.46,6.84-19.65-9.59,10.19Z"/>
            </g>
            <g>
              <g>
                <path class="cls-13" d="m166.01,59.42c-.13-.07-.24-.2-.28-.35-.43-1.47.42-3.01,1.89-3.43l2.96-.86c.71-.21,1.46-.12,2.11.23s1.12.94,1.33,1.65c.43,1.47-.42,3.01-1.89,3.43l-1.35.39c-.31.09-.64-.09-.73-.4-.09-.31.09-.64.4-.73l1.35-.39c.84-.24,1.33-1.13,1.08-1.97-.12-.41-.39-.74-.76-.95s-.8-.25-1.21-.13l-2.96.86c-.84.24-1.33,1.13-1.08,1.97.09.31-.09.64-.4.73-.16.05-.32.02-.45-.05h0Z"/>
                <path class="cls-13" d="m162.12,62.16c-.65-.36-1.12-.94-1.33-1.65-.43-1.47.42-3.01,1.89-3.43l1.35-.39c.31-.09.64.09.73.4.09.31-.09.64-.4.73l-1.35.39c-.84.24-1.33,1.13-1.08,1.97.12.41.39.74.76.95s.8.25,1.21.13l2.96-.86c.84-.24,1.33-1.13,1.08-1.97-.09-.31.09-.64.4-.73.31-.09.64.09.73.4.43,1.47-.42,3.01-1.89,3.43l-2.96.86c-.71.21-1.46.12-2.11-.23h0Z"/>
              </g>
              <g>
                <path class="cls-13" d="m179.23,55.59c-.13-.07-.24-.2-.28-.35-.43-1.47.42-3.01,1.89-3.43l2.96-.86c.71-.21,1.46-.12,2.11.23.65.36,1.12.94,1.33,1.65.43,1.47-.42,3.01-1.89,3.43l-1.35.39c-.31.09-.64-.09-.73-.4-.09-.31.09-.64.4-.73l1.35-.39c.84-.24,1.33-1.13,1.08-1.97-.12-.41-.39-.74-.76-.95s-.8-.25-1.21-.13l-2.96.86c-.84.24-1.33,1.13-1.08,1.97.09.31-.09.64-.4.73-.16.05-.32.02-.45-.05h0Z"/>
                <path class="cls-13" d="m175.33,58.32c-.65-.36-1.12-.94-1.33-1.65-.43-1.47.42-3.01,1.89-3.43l1.35-.39c.31-.09.64.09.73.4.09.31-.09.64-.4.73l-1.35.39c-.84.24-1.33,1.13-1.08,1.97.12.41.39.74.76.95s.8.25,1.21.13l2.96-.86c.84-.24,1.33-1.13,1.08-1.97-.09-.31.09-.64.4-.73.31-.09.64.09.73.4.43,1.47-.42,3.01-1.89,3.43l-2.96.86c-.71.21-1.46.12-2.11-.23h0Z"/>
              </g>
            </g>
          </g>
          <g>
            <g>
              <path class="cls-13" d="m222.18,43.12c-.13-.07-.24-.2-.28-.35-.43-1.47.42-3.01,1.89-3.43l2.96-.86c.71-.21,1.46-.12,2.11.23s1.12.94,1.33,1.65c.43,1.47-.42,3.01-1.89,3.43l-1.35.39c-.31.09-.64-.09-.73-.4-.09-.31.09-.64.4-.73l1.35-.39c.84-.24,1.33-1.13,1.08-1.97-.12-.41-.39-.74-.76-.95s-.8-.25-1.21-.13l-2.96.86c-.84.24-1.33,1.13-1.08,1.97.09.31-.09.64-.4.73-.16.05-.32.02-.45-.05h0Z"/>
              <path class="cls-13" d="m218.28,45.85c-.65-.36-1.12-.94-1.33-1.65-.43-1.47.42-3.01,1.89-3.43l1.35-.39c.31-.09.64.09.73.4.09.31-.09.64-.4.73l-1.35.39c-.84.24-1.33,1.13-1.08,1.97.12.41.39.74.76.95s.8.25,1.21.13l2.96-.86c.84-.24,1.33-1.13,1.08-1.97-.09-.31.09-.64.4-.73.31-.09.64.09.73.4.43,1.47-.42,3.01-1.89,3.43l-2.96.86c-.71.21-1.46.12-2.11-.23h0Z"/>
            </g>
            <g>
              <path class="cls-13" d="m235.39,39.28c-.13-.07-.24-.2-.28-.35-.43-1.47.42-3.01,1.89-3.43l2.96-.86c.71-.21,1.46-.12,2.11.23.65.36,1.12.94,1.33,1.65.43,1.47-.42,3.01-1.89,3.43l-1.35.39c-.31.09-.64-.09-.73-.4-.09-.31.09-.64.4-.73l1.35-.39c.84-.24,1.33-1.13,1.08-1.97-.12-.41-.39-.74-.76-.95s-.8-.25-1.21-.13l-2.96.86c-.84.24-1.33,1.13-1.08,1.97.09.31-.09.64-.4.73-.16.05-.32.02-.45-.05h0Z"/>
              <path class="cls-13" d="m231.5,42.02c-.65-.36-1.12-.94-1.33-1.65-.43-1.47.42-3.01,1.89-3.43l1.35-.39c.31-.09.64.09.73.4.09.31-.09.64-.4.73l-1.35.39c-.84.24-1.33,1.13-1.08,1.97.12.41.39.74.76.95s.8.25,1.21.13l2.96-.86c.84-.24,1.33-1.13,1.08-1.97-.09-.31.09-.64.4-.73.31-.09.64.09.73.4.43,1.47-.42,3.01-1.89,3.43l-2.96.86c-.71.21-1.46.12-2.11-.23h0Z"/>
            </g>
          </g>
          <g>
            <path class="cls-13" d="m124.91,71.36c-.13-.07-.24-.2-.28-.35-.43-1.47.42-3.01,1.89-3.43l2.96-.86c.71-.21,1.46-.12,2.11.23s1.12.94,1.33,1.65c.43,1.47-.42,3.01-1.89,3.43l-1.35.39c-.31.09-.64-.09-.73-.4-.09-.31.09-.64.4-.73l1.35-.39c.84-.24,1.33-1.13,1.08-1.97-.12-.41-.39-.74-.76-.95s-.8-.25-1.21-.13l-2.96.86c-.84.24-1.33,1.13-1.08,1.97.09.31-.09.64-.4.73-.16.05-.32.02-.45-.05h0Z"/>
            <path class="cls-13" d="m121.02,74.09c-.65-.36-1.12-.94-1.33-1.65-.43-1.47.42-3.01,1.89-3.43l1.35-.39c.31-.09.64.09.73.4.09.31-.09.64-.4.73l-1.35.39c-.84.24-1.33,1.13-1.08,1.97.12.41.39.74.76.95s.8.25,1.21.13l2.96-.86c.84-.24,1.33-1.13,1.08-1.97-.09-.31.09-.64.4-.73.31-.09.64.09.73.4.43,1.47-.42,3.01-1.89,3.43l-2.96.86c-.71.21-1.46.12-2.11-.23h0Z"/>
          </g>
        </g>
        <g class="cls-54">
          <g>
            <circle class="cls-7" cx="113.96" cy="27.06" r="18"/>
            <g>
              <g>
                <polygon class="cls-19" points="116.13 18.09 110.24 19.83 111.66 13.85 117.57 12.12 116.13 18.09 116.13 18.09"/>
                <polygon class="cls-19" points="120.58 22.32 116.13 18.09 117.57 12.12 122.04 16.34 120.58 22.32 120.58 22.32"/>
                <polygon class="cls-8" points="110.24 19.83 114.69 24.08 116.13 18.09 111.66 13.85 110.24 19.83 110.24 19.83"/>
                <polygon class="cls-17" points="116.13 18.09 122.04 16.34 117.57 12.12 111.66 13.85 116.13 18.09 116.13 18.09"/>
                <polygon class="cls-8" points="120.58 22.32 114.69 24.08 110.24 19.83 116.13 18.09 120.58 22.32 120.58 22.32"/>
                <polygon class="cls-14" points="114.69 24.08 120.58 22.32 122.04 16.34 116.13 18.09 114.69 24.08 114.69 24.08"/>
              </g>
              <g>
                <polygon class="cls-19" points="108.81 25.67 102.93 27.41 104.35 21.42 110.25 19.7 108.81 25.67 108.81 25.67"/>
                <polygon class="cls-19" points="113.27 29.9 108.81 25.67 110.25 19.7 114.72 23.92 113.27 29.9 113.27 29.9"/>
                <polygon class="cls-8" points="102.93 27.41 107.37 31.66 108.81 25.67 104.35 21.42 102.93 27.41 102.93 27.41"/>
                <polygon class="cls-17" points="108.81 25.67 114.72 23.92 110.25 19.7 104.35 21.42 108.81 25.67 108.81 25.67"/>
                <polygon class="cls-8" points="113.27 29.9 107.37 31.66 102.93 27.41 108.81 25.67 113.27 29.9 113.27 29.9"/>
                <polygon class="cls-14" points="107.37 31.66 113.27 29.9 114.72 23.92 108.81 25.67 107.37 31.66 107.37 31.66"/>
              </g>
              <g>
                <polygon class="cls-19" points="122.18 38.5 116.29 40.24 117.71 34.25 123.61 32.53 122.18 38.5 122.18 38.5"/>
                <polygon class="cls-19" points="126.63 42.73 122.18 38.5 123.61 32.53 128.09 36.75 126.63 42.73 126.63 42.73"/>
                <polygon class="cls-8" points="116.29 40.24 120.73 44.49 122.18 38.5 117.71 34.25 116.29 40.24 116.29 40.24"/>
                <polygon class="cls-17" points="122.18 38.5 128.09 36.75 123.61 32.53 117.71 34.25 122.18 38.5 122.18 38.5"/>
                <polygon class="cls-8" points="126.63 42.73 120.73 44.49 116.29 40.24 122.18 38.5 126.63 42.73 126.63 42.73"/>
                <polygon class="cls-14" points="120.73 44.49 126.63 42.73 128.09 36.75 122.18 38.5 120.73 44.49 120.73 44.49"/>
              </g>
              <g>
                <polygon class="cls-19" points="111.84 36 105.95 37.74 107.37 31.75 113.27 30.03 111.84 36 111.84 36"/>
                <polygon class="cls-19" points="116.29 40.23 111.84 36 113.27 30.03 117.75 34.25 116.29 40.23 116.29 40.23"/>
                <polygon class="cls-8" points="105.95 37.74 110.39 41.99 111.84 36 107.37 31.75 105.95 37.74 105.95 37.74"/>
                <polygon class="cls-17" points="111.84 36 117.75 34.25 113.27 30.03 107.37 31.75 111.84 36 111.84 36"/>
                <polygon class="cls-8" points="116.29 40.23 110.39 41.99 105.95 37.74 111.84 36 116.29 40.23 116.29 40.23"/>
                <polygon class="cls-14" points="110.39 41.99 116.29 40.23 117.75 34.25 111.84 36 110.39 41.99 110.39 41.99"/>
              </g>
              <g>
                <polygon class="cls-19" points="101.44 33.49 95.55 35.23 96.97 29.25 102.88 27.52 101.44 33.49 101.44 33.49"/>
                <polygon class="cls-19" points="105.89 37.72 101.44 33.49 102.88 27.52 107.35 31.75 105.89 37.72 105.89 37.72"/>
                <polygon class="cls-8" points="95.55 35.23 100 39.49 101.44 33.49 96.97 29.25 95.55 35.23 95.55 35.23"/>
                <polygon class="cls-17" points="101.44 33.49 107.35 31.75 102.88 27.52 96.97 29.25 101.44 33.49 101.44 33.49"/>
                <polygon class="cls-8" points="105.89 37.72 100 39.49 95.55 35.23 101.44 33.49 105.89 37.72 105.89 37.72"/>
                <polygon class="cls-14" points="100 39.49 105.89 37.72 107.35 31.75 101.44 33.49 100 39.49 100 39.49"/>
              </g>
              <g>
                <polygon class="cls-19" points="119.16 28.3 113.27 30.04 114.69 24.05 120.6 22.33 119.16 28.3 119.16 28.3"/>
                <polygon class="cls-19" points="123.61 32.53 119.16 28.3 120.6 22.33 125.07 26.55 123.61 32.53 123.61 32.53"/>
                <polygon class="cls-8" points="113.27 30.04 117.72 34.29 119.16 28.3 114.69 24.05 113.27 30.04 113.27 30.04"/>
                <polygon class="cls-17" points="119.16 28.3 125.07 26.55 120.6 22.33 114.69 24.05 119.16 28.3 119.16 28.3"/>
                <polygon class="cls-8" points="123.61 32.53 117.72 34.29 113.27 30.04 119.16 28.3 123.61 32.53 123.61 32.53"/>
                <polygon class="cls-14" points="117.72 34.29 123.61 32.53 125.07 26.55 119.16 28.3 117.72 34.29 117.72 34.29"/>
              </g>
            </g>
          </g>
          <g>
            <g>
              <circle class="cls-7" cx="178.37" cy="42.56" r="18"/>
              <g>
                <g>
                  <polygon class="cls-19" points="180.54 33.6 174.65 35.34 176.07 29.35 181.97 27.63 180.54 33.6 180.54 33.6"/>
                  <polygon class="cls-19" points="184.99 37.83 180.54 33.6 181.97 27.63 186.45 31.85 184.99 37.83 184.99 37.83"/>
                  <polygon class="cls-8" points="174.65 35.34 179.09 39.59 180.54 33.6 176.07 29.35 174.65 35.34 174.65 35.34"/>
                  <polygon class="cls-17" points="180.54 33.6 186.45 31.85 181.97 27.63 176.07 29.35 180.54 33.6 180.54 33.6"/>
                  <polygon class="cls-8" points="184.99 37.83 179.09 39.59 174.65 35.34 180.54 33.6 184.99 37.83 184.99 37.83"/>
                  <polygon class="cls-14" points="179.09 39.59 184.99 37.83 186.45 31.85 180.54 33.6 179.09 39.59 179.09 39.59"/>
                </g>
                <g>
                  <polygon class="cls-19" points="173.22 41.17 167.33 42.92 168.75 36.93 174.66 35.2 173.22 41.17 173.22 41.17"/>
                  <polygon class="cls-19" points="177.67 45.4 173.22 41.17 174.66 35.2 179.13 39.43 177.67 45.4 177.67 45.4"/>
                  <polygon class="cls-8" points="167.33 42.92 171.78 47.17 173.22 41.17 168.75 36.93 167.33 42.92 167.33 42.92"/>
                  <polygon class="cls-17" points="173.22 41.17 179.13 39.43 174.66 35.2 168.75 36.93 173.22 41.17 173.22 41.17"/>
                  <polygon class="cls-8" points="177.67 45.4 171.78 47.17 167.33 42.92 173.22 41.17 177.67 45.4 177.67 45.4"/>
                  <polygon class="cls-14" points="171.78 47.17 177.67 45.4 179.13 39.43 173.22 41.17 171.78 47.17 171.78 47.17"/>
                </g>
                <g>
                  <polygon class="cls-19" points="186.58 54 180.69 55.74 182.11 49.76 188.02 48.03 186.58 54 186.58 54"/>
                  <polygon class="cls-19" points="191.03 58.23 186.58 54 188.02 48.03 192.49 52.26 191.03 58.23 191.03 58.23"/>
                  <polygon class="cls-8" points="180.69 55.74 185.14 60 186.58 54 182.11 49.76 180.69 55.74 180.69 55.74"/>
                  <polygon class="cls-17" points="186.58 54 192.49 52.26 188.02 48.03 182.11 49.76 186.58 54 186.58 54"/>
                  <polygon class="cls-8" points="191.03 58.23 185.14 60 180.69 55.74 186.58 54 191.03 58.23 191.03 58.23"/>
                  <polygon class="cls-14" points="185.14 60 191.03 58.23 192.49 52.26 186.58 54 185.14 60 185.14 60"/>
                </g>
                <g>
                  <polygon class="cls-19" points="176.24 51.5 170.35 53.24 171.78 47.26 177.68 45.53 176.24 51.5 176.24 51.5"/>
                  <polygon class="cls-19" points="180.7 55.73 176.24 51.5 177.68 45.53 182.15 49.76 180.7 55.73 180.7 55.73"/>
                  <polygon class="cls-8" points="170.35 53.24 174.8 57.5 176.24 51.5 171.78 47.26 170.35 53.24 170.35 53.24"/>
                  <polygon class="cls-17" points="176.24 51.5 182.15 49.76 177.68 45.53 171.78 47.26 176.24 51.5 176.24 51.5"/>
                  <polygon class="cls-8" points="180.7 55.73 174.8 57.5 170.35 53.24 176.24 51.5 180.7 55.73 180.7 55.73"/>
                  <polygon class="cls-14" points="174.8 57.5 180.7 55.73 182.15 49.76 176.24 51.5 174.8 57.5 174.8 57.5"/>
                </g>
                <g>
                  <polygon class="cls-19" points="165.85 49 159.96 50.74 161.38 44.76 167.28 43.03 165.85 49 165.85 49"/>
                  <polygon class="cls-19" points="170.3 53.23 165.85 49 167.28 43.03 171.76 47.25 170.3 53.23 170.3 53.23"/>
                  <polygon class="cls-8" points="159.96 50.74 164.4 54.99 165.85 49 161.38 44.76 159.96 50.74 159.96 50.74"/>
                  <polygon class="cls-17" points="165.85 49 171.76 47.25 167.28 43.03 161.38 44.76 165.85 49 165.85 49"/>
                  <polygon class="cls-8" points="170.3 53.23 164.4 54.99 159.96 50.74 165.85 49 170.3 53.23 170.3 53.23"/>
                  <polygon class="cls-14" points="164.4 54.99 170.3 53.23 171.76 47.25 165.85 49 164.4 54.99 164.4 54.99"/>
                </g>
                <g>
                  <polygon class="cls-19" points="183.57 43.8 177.68 45.54 179.1 39.56 185.01 37.83 183.57 43.8 183.57 43.8"/>
                  <polygon class="cls-19" points="188.02 48.03 183.57 43.8 185.01 37.83 189.48 42.06 188.02 48.03 188.02 48.03"/>
                  <polygon class="cls-8" points="177.68 45.54 182.13 49.79 183.57 43.8 179.1 39.56 177.68 45.54 177.68 45.54"/>
                  <polygon class="cls-17" points="183.57 43.8 189.48 42.06 185.01 37.83 179.1 39.56 183.57 43.8 183.57 43.8"/>
                  <polygon class="cls-8" points="188.02 48.03 182.13 49.79 177.68 45.54 183.57 43.8 188.02 48.03 188.02 48.03"/>
                  <polygon class="cls-14" points="182.13 49.79 188.02 48.03 189.48 42.06 183.57 43.8 182.13 49.79 182.13 49.79"/>
                </g>
              </g>
            </g>
            <g>
              <g>
                <path class="cls-7" d="m135.98,33.09c-.09-.15-.13-.33-.08-.52.42-1.73,2.16-2.79,3.89-2.38l3.49.84c.84.2,1.54.72,1.99,1.45s.59,1.6.38,2.44c-.42,1.73-2.16,2.79-3.89,2.38l-1.59-.38c-.37-.09-.6-.46-.51-.83.09-.37.46-.6.83-.51l1.59.38c.99.24,1.99-.37,2.23-1.36.12-.48.04-.98-.22-1.4s-.66-.72-1.14-.83l-3.49-.84c-.99-.24-1.99.37-2.23,1.36-.09.37-.46.6-.83.51-.18-.04-.33-.16-.42-.31h0Z"/>
                <path class="cls-7" d="m130.47,33.61c-.45-.73-.59-1.6-.38-2.44.42-1.73,2.16-2.79,3.89-2.38l1.59.38c.37.09.6.46.51.83-.09.37-.46.6-.83.51l-1.59-.38c-.99-.24-1.99.37-2.23,1.36-.12.48-.04.98.22,1.4s.66.72,1.14.83l3.49.84c.99.24,1.99-.37,2.23-1.36.09-.37.46-.6.83-.51.37.09.6.46.51.83-.42,1.73-2.16,2.79-3.89,2.38l-3.49-.84c-.84-.2-1.54-.72-1.99-1.45h0Z"/>
              </g>
              <g>
                <path class="cls-7" d="m151.53,36.84c-.09-.15-.13-.33-.08-.52.42-1.73,2.16-2.79,3.89-2.38l3.49.84c.84.2,1.54.72,1.99,1.45.45.73.59,1.6.38,2.44-.42,1.73-2.16,2.79-3.89,2.38l-1.59-.38c-.37-.09-.6-.46-.51-.83.09-.37.46-.6.83-.51l1.59.38c.99.24,1.99-.37,2.23-1.36.12-.48.04-.98-.22-1.4-.26-.42-.66-.72-1.14-.83l-3.49-.84c-.99-.24-1.99.37-2.23,1.36-.09.37-.46.6-.83.51-.18-.04-.33-.16-.42-.31h0Z"/>
                <path class="cls-7" d="m146.03,37.35c-.45-.73-.59-1.6-.38-2.44.42-1.73,2.16-2.79,3.89-2.38l1.59.38c.37.09.6.46.51.83-.09.37-.46.6-.83.51l-1.59-.38c-.99-.24-1.99.37-2.23,1.36-.12.48-.04.98.22,1.4s.66.72,1.14.83l3.49.84c.99.24,1.99-.37,2.23-1.36.09-.37.46-.6.83-.51.37.09.6.46.51.83-.42,1.73-2.16,2.79-3.89,2.38l-3.49-.84c-.84-.2-1.54-.72-1.99-1.45h0Z"/>
              </g>
            </g>
          </g>
          <g>
            <g>
              <circle class="cls-7" cx="244.68" cy="58.53" r="18"/>
              <g>
                <g>
                  <polygon class="cls-19" points="246.85 49.56 240.96 51.3 242.38 45.32 248.29 43.59 246.85 49.56 246.85 49.56"/>
                  <polygon class="cls-19" points="251.3 53.79 246.85 49.56 248.29 43.59 252.76 47.82 251.3 53.79 251.3 53.79"/>
                  <polygon class="cls-8" points="240.96 51.3 245.41 55.56 246.85 49.56 242.38 45.32 240.96 51.3 240.96 51.3"/>
                  <polygon class="cls-17" points="246.85 49.56 252.76 47.82 248.29 43.59 242.38 45.32 246.85 49.56 246.85 49.56"/>
                  <polygon class="cls-8" points="251.3 53.79 245.41 55.56 240.96 51.3 246.85 49.56 251.3 53.79 251.3 53.79"/>
                  <polygon class="cls-14" points="245.41 55.56 251.3 53.79 252.76 47.82 246.85 49.56 245.41 55.56 245.41 55.56"/>
                </g>
                <g>
                  <polygon class="cls-19" points="239.54 57.14 233.65 58.88 235.07 52.9 240.97 51.17 239.54 57.14 239.54 57.14"/>
                  <polygon class="cls-19" points="243.99 61.37 239.54 57.14 240.97 51.17 245.45 55.39 243.99 61.37 243.99 61.37"/>
                  <polygon class="cls-8" points="233.65 58.88 238.09 63.13 239.54 57.14 235.07 52.9 233.65 58.88 233.65 58.88"/>
                  <polygon class="cls-17" points="239.54 57.14 245.45 55.39 240.97 51.17 235.07 52.9 239.54 57.14 239.54 57.14"/>
                  <polygon class="cls-8" points="243.99 61.37 238.09 63.13 233.65 58.88 239.54 57.14 243.99 61.37 243.99 61.37"/>
                  <polygon class="cls-14" points="238.09 63.13 243.99 61.37 245.45 55.39 239.54 57.14 238.09 63.13 238.09 63.13"/>
                </g>
                <g>
                  <polygon class="cls-19" points="252.9 69.97 247.01 71.71 248.43 65.72 254.33 64 252.9 69.97 252.9 69.97"/>
                  <polygon class="cls-19" points="257.35 74.2 252.9 69.97 254.33 64 258.81 68.22 257.35 74.2 257.35 74.2"/>
                  <polygon class="cls-8" points="247.01 71.71 251.45 75.96 252.9 69.97 248.43 65.72 247.01 71.71 247.01 71.71"/>
                  <polygon class="cls-17" points="252.9 69.97 258.81 68.22 254.33 64 248.43 65.72 252.9 69.97 252.9 69.97"/>
                  <polygon class="cls-8" points="257.35 74.2 251.45 75.96 247.01 71.71 252.9 69.97 257.35 74.2 257.35 74.2"/>
                  <polygon class="cls-14" points="251.45 75.96 257.35 74.2 258.81 68.22 252.9 69.97 251.45 75.96 251.45 75.96"/>
                </g>
                <g>
                  <polygon class="cls-19" points="242.56 67.47 236.67 69.21 238.09 63.22 244 61.5 242.56 67.47 242.56 67.47"/>
                  <polygon class="cls-19" points="247.01 71.7 242.56 67.47 244 61.5 248.47 65.72 247.01 71.7 247.01 71.7"/>
                  <polygon class="cls-8" points="236.67 69.21 241.12 73.46 242.56 67.47 238.09 63.22 236.67 69.21 236.67 69.21"/>
                  <polygon class="cls-17" points="242.56 67.47 248.47 65.72 244 61.5 238.09 63.22 242.56 67.47 242.56 67.47"/>
                  <polygon class="cls-8" points="247.01 71.7 241.12 73.46 236.67 69.21 242.56 67.47 247.01 71.7 247.01 71.7"/>
                  <polygon class="cls-14" points="241.12 73.46 247.01 71.7 248.47 65.72 242.56 67.47 241.12 73.46 241.12 73.46"/>
                </g>
                <g>
                  <polygon class="cls-19" points="232.16 64.97 226.27 66.71 227.69 60.72 233.6 59 232.16 64.97 232.16 64.97"/>
                  <polygon class="cls-19" points="236.61 69.2 232.16 64.97 233.6 59 238.07 63.22 236.61 69.2 236.61 69.2"/>
                  <polygon class="cls-8" points="226.27 66.71 230.72 70.96 232.16 64.97 227.69 60.72 226.27 66.71 226.27 66.71"/>
                  <polygon class="cls-17" points="232.16 64.97 238.07 63.22 233.6 59 227.69 60.72 232.16 64.97 232.16 64.97"/>
                  <polygon class="cls-8" points="236.61 69.2 230.72 70.96 226.27 66.71 232.16 64.97 236.61 69.2 236.61 69.2"/>
                  <polygon class="cls-14" points="230.72 70.96 236.61 69.2 238.07 63.22 232.16 64.97 230.72 70.96 230.72 70.96"/>
                </g>
                <g>
                  <polygon class="cls-19" points="249.88 59.77 243.99 61.51 245.42 55.52 251.32 53.8 249.88 59.77 249.88 59.77"/>
                  <polygon class="cls-19" points="254.33 64 249.88 59.77 251.32 53.8 255.79 58.02 254.33 64 254.33 64"/>
                  <polygon class="cls-8" points="243.99 61.51 248.44 65.76 249.88 59.77 245.42 55.52 243.99 61.51 243.99 61.51"/>
                  <polygon class="cls-17" points="249.88 59.77 255.79 58.02 251.32 53.8 245.42 55.52 249.88 59.77 249.88 59.77"/>
                  <polygon class="cls-8" points="254.33 64 248.44 65.76 243.99 61.51 249.88 59.77 254.33 64 254.33 64"/>
                  <polygon class="cls-14" points="248.44 65.76 254.33 64 255.79 58.02 249.88 59.77 248.44 65.76 248.44 65.76"/>
                </g>
              </g>
            </g>
            <g>
              <g>
                <path class="cls-7" d="m202.29,49.06c-.09-.15-.13-.33-.08-.52.42-1.73,2.16-2.79,3.89-2.38l3.49.84c.84.2,1.54.72,1.99,1.45s.59,1.6.38,2.44c-.42,1.73-2.16,2.79-3.89,2.38l-1.59-.38c-.37-.09-.6-.46-.51-.83.09-.37.46-.6.83-.51l1.59.38c.99.24,1.99-.37,2.23-1.36.12-.48.04-.98-.22-1.4s-.66-.72-1.14-.83l-3.49-.84c-.99-.24-1.99.37-2.23,1.36-.09.37-.46.6-.83.51-.18-.04-.33-.16-.42-.31h0Z"/>
                <path class="cls-7" d="m196.78,49.58c-.45-.73-.59-1.6-.38-2.44.42-1.73,2.16-2.79,3.89-2.38l1.59.38c.37.09.6.46.51.83-.09.37-.46.6-.83.51l-1.59-.38c-.99-.24-1.99.37-2.23,1.36-.12.48-.04.98.22,1.4s.66.72,1.14.83l3.49.84c.99.24,1.99-.37,2.23-1.36.09-.37.46-.6.83-.51.37.09.6.46.51.83-.42,1.73-2.16,2.79-3.89,2.38l-3.49-.84c-.84-.2-1.54-.72-1.99-1.45h0Z"/>
              </g>
              <g>
                <path class="cls-7" d="m217.85,52.8c-.09-.15-.13-.33-.08-.52.42-1.73,2.16-2.79,3.89-2.38l3.49.84c.84.2,1.54.72,1.99,1.45s.59,1.6.38,2.44c-.42,1.73-2.16,2.79-3.89,2.38l-1.59-.38c-.37-.09-.6-.46-.51-.83.09-.37.46-.6.83-.51l1.59.38c.99.24,1.99-.37,2.23-1.36.12-.48.04-.98-.22-1.4s-.66-.72-1.14-.83l-3.49-.84c-.99-.24-1.99.37-2.23,1.36-.09.37-.46.6-.83.51-.18-.04-.33-.16-.42-.31h0Z"/>
                <path class="cls-7" d="m212.34,53.32c-.45-.73-.59-1.6-.38-2.44.42-1.73,2.16-2.79,3.89-2.38l1.59.38c.37.09.6.46.51.83-.09.37-.46.6-.83.51l-1.59-.38c-.99-.24-1.99.37-2.23,1.36-.12.48-.04.98.22,1.4s.66.72,1.14.83l3.49.84c.99.24,1.99-.37,2.23-1.36.09-.37.46-.6.83-.51.37.09.6.46.51.83-.42,1.73-2.16,2.79-3.89,2.38l-3.49-.84c-.84-.2-1.54-.72-1.99-1.45h0Z"/>
              </g>
            </g>
          </g>
          <g>
            <path class="cls-7" d="m87.47,21.93c-.09-.15-.13-.33-.08-.52.42-1.73,2.16-2.79,3.89-2.38l3.49.84c.84.2,1.54.72,1.99,1.45s.59,1.6.38,2.44c-.42,1.73-2.16,2.79-3.89,2.38l-1.59-.38c-.37-.09-.6-.46-.51-.83.09-.37.46-.6.83-.51l1.59.38c.99.24,1.99-.37,2.23-1.36.12-.48.04-.98-.22-1.4s-.66-.72-1.14-.83l-3.49-.84c-.99-.24-1.99.37-2.23,1.36-.09.37-.46.6-.83.51-.18-.04-.33-.16-.42-.31h0Z"/>
            <path class="cls-7" d="m81.96,22.45c-.45-.73-.59-1.6-.38-2.44.42-1.73,2.16-2.79,3.89-2.38l1.59.38c.37.09.6.46.51.83-.09.37-.46.6-.83.51l-1.59-.38c-.99-.24-1.99.37-2.23,1.36-.12.48-.04.98.22,1.4s.66.72,1.14.83l3.49.84c.99.24,1.99-.37,2.23-1.36.09-.37.46-.6.83-.51.37.09.6.46.51.83-.42,1.73-2.16,2.79-3.89,2.38l-3.49-.84c-.84-.2-1.54-.72-1.99-1.45h0Z"/>
          </g>
          <g>
            <path class="cls-7" d="m266.58,65.74c-.09-.14-.12-.32-.07-.49.41-1.64,2.08-2.64,3.72-2.24l3.31.83c.8.2,1.47.69,1.89,1.4s.55,1.53.35,2.32c-.41,1.64-2.08,2.64-3.72,2.24l-1.51-.38c-.35-.09-.56-.44-.48-.79.09-.35.44-.56.79-.48l1.51.38c.94.23,1.9-.34,2.13-1.28.11-.46.04-.93-.2-1.33s-.63-.69-1.08-.8l-3.31-.83c-.94-.23-1.9.34-2.13,1.28-.09.35-.44.56-.79.48-.18-.04-.32-.15-.4-.3h0Z"/>
            <path class="cls-7" d="m261.33,66.19c-.42-.7-.55-1.53-.35-2.32.41-1.64,2.08-2.64,3.72-2.24l1.51.38c.35.09.56.44.48.79-.09.35-.44.56-.79.48l-1.51-.38c-.94-.23-1.9.34-2.13,1.28-.11.46-.04.93.2,1.33.24.4.63.69,1.08.8l3.31.83c.94.23,1.9-.34,2.13-1.28.09-.35.44-.56.79-.48.35.09.56.44.48.79-.41,1.64-2.08,2.64-3.72,2.24l-3.31-.83c-.8-.2-1.47-.69-1.89-1.4h0Z"/>
          </g>
        </g>
      </g>
      <image class="cls-56" width="5308" height="3320" transform="translate(203.72 123.39) rotate(14.17) scale(.02)" xlink:href="../../References/s_01.png"/>
      <line class="cls-59" x1="132.33" y1="181.42" x2="196.34" y2="181.42"/>
      <line class="cls-59" x1="202.89" y1="82.96" x2="244.94" y2="132.83"/>
      <line class="cls-59" x1="134.17" y1="82.96" x2="83.73" y2="132.83"/>
      <text class="cls-34" transform="translate(115.2 99.33)"><tspan class="cls-27" x="0" y="0">ブ</tspan><tspan class="cls-62" x="14.22" y="0">ロ</tspan><tspan class="cls-41" x="27.95" y="0">ッ</tspan><tspan class="cls-40" x="41.38" y="0">ク</tspan><tspan class="cls-20" x="54.65" y="0">チ</tspan><tspan class="cls-42" x="68.15" y="0">ェ</tspan><tspan class="cls-48" x="81.91" y="0">ー</tspan><tspan class="cls-23" x="95.09" y="0">ン</tspan></text>
      <text class="cls-35" transform="translate(34.08 329.54)"><tspan class="cls-44" x="0" y="0">こ</tspan><tspan class="cls-28" x="14.04" y="0">れ</tspan><tspan class="cls-43" x="27.62" y="0">ら</tspan><tspan class="cls-25" x="41.41" y="0">の</tspan><tspan x="55.97" y="0">技</tspan><tspan class="cls-39" x="70.83" y="0">術</tspan><tspan class="cls-66" x="85.51" y="0">を</tspan><tspan class="cls-49" x="99.4" y="0">掛</tspan><tspan class="cls-25" x="114.19" y="0">け</tspan><tspan class="cls-46" x="128.75" y="0">合</tspan><tspan class="cls-60" x="143.76" y="0">わ</tspan><tspan class="cls-45" x="158.54" y="0">せ</tspan><tspan class="cls-44" x="172.48" y="0">た</tspan><tspan class="cls-38" x="186.52" y="0">ア</tspan><tspan class="cls-67" x="200" y="0">プ</tspan><tspan class="cls-69" x="214.33" y="0">ロ</tspan><tspan class="cls-26" x="228.94" y="0">ー</tspan><tspan class="cls-30" x="243.16" y="0">チ</tspan><tspan class="cls-22" x="256.72" y="0">で</tspan><tspan class="cls-70" x="-12.86" y="26.29">ネ</tspan><tspan class="cls-65" x=".04" y="26.29">ッ</tspan><tspan class="cls-29" x="11.15" y="26.29">ト</tspan><tspan x="24.81" y="26.29">投</tspan><tspan class="cls-47" x="39.66" y="26.29">票</tspan><tspan class="cls-25" x="54.28" y="26.29">の</tspan><tspan x="68.84" y="26.29">実</tspan><tspan class="cls-32" x="83.7" y="26.29">現</tspan><tspan class="cls-24" x="98.62" y="26.29">へ</tspan><tspan class="cls-49" x="113.64" y="26.29">向</tspan><tspan class="cls-36" x="128.44" y="26.29">け</tspan><tspan class="cls-2" x="142.39" y="26.29">て</tspan><tspan x="156.67" y="26.29">検</tspan><tspan class="cls-1" x="171.52" y="26.29">証</tspan><tspan class="cls-57" x="185.22" y="26.29">し</tspan><tspan class="cls-52" x="197.88" y="26.29">て</tspan><tspan class="cls-63" x="211" y="26.29">ま</tspan><tspan class="cls-51" x="224.86" y="26.29">い</tspan><tspan class="cls-58" x="238.23" y="26.29">り</tspan><tspan class="cls-71" x="251.09" y="26.29">ま</tspan><tspan class="cls-31" x="264.4" y="26.29">す</tspan><tspan class="cls-68" x="277.32" y="26.29">。</tspan></text>
      <text class="cls-33" transform="translate(59.29 197.4)"><tspan x="0" y="0">TornadoCash</tspan><tspan x="-8.4" y="8">Smart Contract</tspan></text>
      <g>
        <rect class="cls-9" x="84.96" y="164.84" width="38.88" height="12.96"/>
        <text class="cls-64" transform="translate(88.25 173.64)"><tspan x="0" y="0">0</tspan><tspan class="cls-21" x="3.81" y="0">x</tspan><tspan x="7.09" y="0">d…8ki3</tspan></text>
      </g>
      <g>
        <rect class="cls-9" x="18.13" y="190.74" width="38.88" height="12.96"/>
        <text class="cls-64" transform="translate(20.39 199.53)"><tspan x="0" y="0">0x2…34d2</tspan></text>
      </g>
      <g>
        <path class="cls-15" d="m90.46,131.33c0-2.53-2.05-4.59-4.59-4.59h0s-31.43,0-31.43,0c-2.53,0-4.59,2.05-4.59,4.59h0v4.36h40.61v-4.36Z"/>
        <path class="cls-15" d="m90.46,190.3c0,2.53-2.05,4.59-4.59,4.59h0s-31.43,0-31.43,0c-2.53,0-4.59-2.05-4.59-4.59h0v-4.36h40.61v4.36Z"/>
        <path class="cls-11" d="m88.29,135.69c-11.71,0-27.05,0-38.27.01h-.17v50.26h.17c11.93,0,28.52,0,40.45-.01v-50.26h-2.17Z"/>
        <path class="cls-12" d="m90.46,134.93h-10.95s-10,0-10,0h-10.29s-8.54,0-8.54,0h-.84c-.97,0-.97,1.5,0,1.5,2.72,0,5.44,0,8.16,0h10.18s10.15,0,10.15,0h8.07c1.31,0,2.64.03,3.95,0h.1c.97,0,.97-1.5,0-1.5h0Z"/>
        <path class="cls-12" d="m85.87,194.15h-30.62c-.26,0-.52,0-.78,0-2.12.02-3.86-1.68-3.88-3.8,0-.02,0-.05,0-.07v-58.26c0-.85.01-1.66.42-2.44.67-1.27,1.98-2.07,3.42-2.08.18,0,.36,0,.54,0h28.51c.79,0,1.57,0,2.36,0,2.14,0,3.87,1.74,3.87,3.88.01,1.59,0,3.19,0,4.78v48.97c0,1.7,0,3.4,0,5.1.02,2.14-1.7,3.9-3.84,3.92-.96.01-.97,1.51,0,1.5,2.95-.04,5.32-2.43,5.34-5.38,0-.51,0-1.01,0-1.52v-56.07c0-.44,0-.89,0-1.33-.03-2.94-2.41-5.32-5.35-5.35-2.48-.02-4.95,0-7.43,0h-23.52c-.23,0-.46,0-.7,0-1.74.08-3.34,1-4.28,2.46-.68,1.05-.84,2.22-.84,3.43v58.01c0,1.54.42,3.01,1.53,4.14,1.01,1.02,2.39,1.6,3.83,1.6.23,0,.47,0,.71,0h30.71c.97,0,.97-1.5,0-1.5Z"/>
        <path class="cls-15" d="m83.63,144.55h-26.94v32.54h26.94v-32.54Z"/>
        <path class="cls-12" d="m83.63,143.8h-26.94c-.41,0-.74.34-.75.75v32.54c0,.41.34.74.75.75h26.94c.41,0,.74-.34.75-.75v-28.55c0-1.31.05-2.63,0-3.93v-.06c0-.97-1.5-.97-1.5,0v31.17c0,.43-.04.88,0,1.31v.06l.75-.75h-26.94l.75.75v-32.54l-.75.75h26.94c.96,0,.97-1.5,0-1.5Z"/>
        <path class="cls-12" d="m60.24,156.28h11.6c.97,0,.97-1.5,0-1.5h-11.6c-.96,0-.97,1.5,0,1.5Z"/>
        <path class="cls-18" d="m60.62,159.53h-.38v4.33h19.83v-4.33h-19.45Z"/>
        <path class="cls-12" d="m73.45,159.53v12.98h1.5v-.33c0-.96-1.5-.97-1.5,0v.33c0,.97,1.5.97,1.5,0v-12.98c0-.97-1.5-.97-1.5,0Z"/>
        <path class="cls-12" d="m60.35,164.61h19.71c.96,0,.97-1.5,0-1.5h-19.71c-.96,0-.97,1.5,0,1.5Z"/>
        <path class="cls-12" d="m60.42,168.94h19.64c.97,0,.97-1.5,0-1.5h-19.64c-.97,0-.97,1.5,0,1.5Z"/>
        <path class="cls-12" d="m80.82,172.51v-12.98c0-.97-1.5-.97-1.5,0,0,4.33,0,8.65,0,12.98,0,.97,1.5.97,1.5,0Z"/>
        <path class="cls-12" d="m60.24,173.26h19.83c.97,0,.97-1.5,0-1.5h-19.83c-.96,0-.97,1.5,0,1.5Z"/>
        <path class="cls-12" d="m59.49,159.53v12.98c0,.97,1.5.97,1.5,0v-12.98c0-.97-1.5-.97-1.5,0Z"/>
        <path class="cls-12" d="m80.07,158.78h-19.83c-.96,0-.97,1.5,0,1.5h19.83c.96,0,.97-1.5,0-1.5Z"/>
        <path class="cls-12" d="m73.27,149.97h6.49c.96,0,.97-1.5,0-1.5h-6.49c-.97,0-.97,1.5,0,1.5Z"/>
      </g>
      <g>
        <polygon class="cls-10" points="182.87 273.99 150.27 273.99 166.57 290.29 182.87 273.99"/>
        <rect class="cls-10" x="161.29" y="260.66" width="10.56" height="16.1" transform="translate(435.28 102.15) rotate(90)"/>
      </g>
    </g>
  </g>
</svg>