<?xml version="1.0" encoding="UTF-8"?>
<svg id="_レイヤー_2" data-name="レイヤー 2" xmlns="http://www.w3.org/2000/svg" viewBox="0 0 297.89 192.76">
  <defs>
    <style>
      .cls-1 {
        font-size: 7px;
      }

      .cls-1, .cls-2 {
        fill: #221e1f;
      }

      .cls-1, .cls-2, .cls-3 {
        font-family: NotoSansJP-Bold-83pv-RKSJ-H, 'Noto Sans JP';
        font-weight: 700;
      }

      .cls-4 {
        letter-spacing: -.16em;
      }

      .cls-2 {
        font-size: 6.42px;
      }

      .cls-5 {
        letter-spacing: -.06em;
      }

      .cls-6 {
        letter-spacing: -.05em;
      }

      .cls-7 {
        letter-spacing: -.05em;
      }

      .cls-8 {
        letter-spacing: -.05em;
      }

      .cls-9 {
        letter-spacing: -.02em;
      }

      .cls-10 {
        letter-spacing: -.02em;
      }

      .cls-11 {
        letter-spacing: -.07em;
      }

      .cls-12 {
        letter-spacing: -.06em;
      }

      .cls-13 {
        letter-spacing: -.06em;
      }

      .cls-14 {
        fill: #6d6e70;
        font-family: NotoSansJP-Regular-83pv-RKSJ-H, 'Noto Sans JP';
        font-size: 6px;
      }

      .cls-15 {
        letter-spacing: -.12em;
      }

      .cls-16 {
        letter-spacing: -.12em;
      }

      .cls-17 {
        letter-spacing: -.02em;
      }

      .cls-18 {
        letter-spacing: 0em;
      }

      .cls-19 {
        letter-spacing: -.01em;
      }

      .cls-3 {
        font-size: 10px;
      }

      .cls-3, .cls-20 {
        fill: #1b82bd;
      }

      .cls-21 {
        letter-spacing: 0em;
      }

      .cls-22 {
        letter-spacing: -.15em;
      }

      .cls-23 {
        letter-spacing: -.01em;
      }

      .cls-20, .cls-24, .cls-25, .cls-26 {
        stroke-width: 0px;
      }

      .cls-24 {
        fill: #f1f2f3;
      }

      .cls-25 {
        fill: #fff;
      }

      .cls-26 {
        fill: #e7e7e8;
      }

      .cls-27 {
        letter-spacing: -.03em;
      }

      .cls-28 {
        letter-spacing: -.02em;
      }

      .cls-29 {
        letter-spacing: -.03em;
      }
    </style>
  </defs>
  <g id="Working">
    <rect class="cls-25" x=".06" width="297.64" height="192.76"/>
    <g>
      <rect class="cls-26" x="130.52" y="28.39" width="132.38" height="20.2"/>
      <g>
        <rect class="cls-26" x=".06" y="29.05" width="85.61" height="20.2"/>
        <rect class="cls-25" x=".06" y="50.31" width="85.61" height="20.2"/>
        <rect class="cls-24" x=".06" y="71.57" width="85.61" height="20.2"/>
        <rect class="cls-25" x=".06" y="92.83" width="85.61" height="20.2"/>
        <rect class="cls-24" x=".06" y="114.09" width="85.61" height="20.2"/>
        <rect class="cls-25" x=".06" y="135.35" width="85.61" height="20.2"/>
        <rect class="cls-24" x=".06" y="156.61" width="85.61" height="20.2"/>
      </g>
      <g>
        <rect class="cls-26" x="86.87" y="28.92" width="42.52" height="20.2"/>
        <rect class="cls-25" x="86.87" y="50.18" width="42.52" height="20.2"/>
        <rect class="cls-24" x="86.87" y="71.44" width="42.52" height="20.2"/>
        <rect class="cls-25" x="86.87" y="92.7" width="42.52" height="20.2"/>
        <rect class="cls-24" x="86.87" y="113.96" width="42.52" height="20.2"/>
        <rect class="cls-25" x="86.87" y="135.22" width="42.52" height="20.2"/>
        <rect class="cls-24" x="86.87" y="156.48" width="42.52" height="20.2"/>
      </g>
      <rect class="cls-25" x="132.73" y="50.18" width="107.16" height="20.2"/>
      <rect class="cls-24" x="130.52" y="71.44" width="132.38" height="20.2"/>
      <rect class="cls-25" x="130.52" y="92.7" width="132.38" height="20.2"/>
      <rect class="cls-24" x="130.52" y="113.96" width="132.38" height="20.2"/>
      <rect class="cls-25" x="130.52" y="135.22" width="132.38" height="20.2"/>
      <rect class="cls-24" x="130.52" y="156.48" width="132.38" height="20.2"/>
      <g>
        <rect class="cls-26" x="263.87" y="28.92" width="34.02" height="20.2"/>
        <rect class="cls-25" x="263.87" y="50.18" width="34.02" height="20.2"/>
        <rect class="cls-24" x="263.87" y="71.44" width="34.02" height="20.2"/>
        <rect class="cls-25" x="263.87" y="92.7" width="34.02" height="20.2"/>
        <rect class="cls-24" x="263.87" y="113.96" width="34.02" height="20.2"/>
        <rect class="cls-25" x="263.87" y="135.22" width="34.02" height="20.2"/>
        <rect class="cls-24" x="263.87" y="156.48" width="34.02" height="20.2"/>
      </g>
      <text class="cls-1" transform="translate(4.68 41.81)"><tspan x="0" y="0">政</tspan><tspan class="cls-8" x="7" y="0">党</tspan><tspan class="cls-11" x="13.66" y="0">ま</tspan><tspan class="cls-9" x="20.15" y="0">た</tspan><tspan class="cls-19" x="27" y="0">は</tspan><tspan x="33.9" y="0">個</tspan><tspan class="cls-18" x="40.9" y="0">人</tspan><tspan class="cls-23" x="47.89" y="0">の</tspan><tspan x="54.8" y="0">候補者</tspan></text>
      <text class="cls-1" transform="translate(97.63 41.81)"><tspan x="0" y="0">得票数</tspan></text>
      <text class="cls-1" transform="translate(186.21 41.81)"><tspan x="0" y="0">得票率</tspan></text>
      <text class="cls-1" transform="translate(266.69 41.81)"><tspan x="0" y="0">獲得議席</tspan></text>
      <text class="cls-2" transform="translate(17.9 62.84)"><tspan class="cls-13" x="0" y="0">エ</tspan><tspan class="cls-15" x="6.02" y="0">ス</tspan><tspan class="cls-6" x="11.64" y="0">トニ</tspan><tspan class="cls-27" x="23.78" y="0">ア</tspan><tspan x="29.98" y="0">改革党</tspan></text>
      <text class="cls-1" transform="translate(95.76 63.07)"><tspan x="0" y="0">190632</tspan></text>
      <text class="cls-1" transform="translate(236.79 63.07)"><tspan x="0" y="0">31.2%</tspan></text>
      <text class="cls-1" transform="translate(269.01 63.07)"><tspan x="0" y="0">37 (+0)</tspan></text>
      <text class="cls-2" transform="translate(11.49 84.1)"><tspan class="cls-13" x="0" y="0">エ</tspan><tspan class="cls-15" x="6.02" y="0">ス</tspan><tspan class="cls-6" x="11.64" y="0">トニ</tspan><tspan class="cls-27" x="23.78" y="0">ア</tspan><tspan x="29.98" y="0">保守人民党</tspan></text>
      <text class="cls-1" transform="translate(97.82 84.33)"><tspan x="0" y="0">97966</tspan></text>
      <text class="cls-1" transform="translate(236.79 84.33)"><tspan x="0" y="0">16.1% </tspan></text>
      <text class="cls-1" transform="translate(269.01 84.33)"><tspan x="0" y="0">17 (+0)</tspan></text>
      <text class="cls-2" transform="translate(17.9 105.36)"><tspan class="cls-13" x="0" y="0">エ</tspan><tspan class="cls-15" x="6.02" y="0">ス</tspan><tspan class="cls-6" x="11.64" y="0">トニ</tspan><tspan class="cls-27" x="23.78" y="0">ア</tspan><tspan x="29.98" y="0">中央党</tspan></text>
      <text class="cls-1" transform="translate(97.82 105.59)"><tspan x="0" y="0">93254</tspan></text>
      <text class="cls-1" transform="translate(236.79 105.59)"><tspan x="0" y="0">15.3%</tspan></text>
      <text class="cls-1" transform="translate(269.01 105.59)"><tspan x="0" y="0">16 (+0)</tspan></text>
      <text class="cls-2" transform="translate(15.56 126.62)"><tspan x="0" y="0">政</tspan><tspan class="cls-10" x="6.42" y="0">党</tspan><tspan class="cls-13" x="12.71" y="0">エ</tspan><tspan class="cls-15" x="18.73" y="0">ス</tspan><tspan class="cls-6" x="24.35" y="0">トニ</tspan><tspan class="cls-27" x="36.49" y="0">ア</tspan><tspan x="42.7" y="0">200</tspan></text>
      <text class="cls-1" transform="translate(97.82 126.85)"><tspan x="0" y="0">81329</tspan></text>
      <text class="cls-1" transform="translate(236.79 126.85)"><tspan x="0" y="0">13.3%</tspan></text>
      <text class="cls-1" transform="translate(269.01 126.85)"><tspan x="0" y="0">14 (+0)</tspan></text>
      <text class="cls-2" transform="translate(26.54 147.88)"><tspan x="0" y="0">社会民主党</tspan></text>
      <text class="cls-1" transform="translate(97.82 148.11)"><tspan x="0" y="0">56584</tspan></text>
      <text class="cls-1" transform="translate(240.91 148.11)"><tspan x="0" y="0">9.3%</tspan></text>
      <text class="cls-1" transform="translate(271.07 148.11)"><tspan x="0" y="0">9 (+0)</tspan></text>
      <text class="cls-2" transform="translate(21.43 169.14)"><tspan x="0" y="0">祖</tspan><tspan class="cls-21" x="6.42" y="0">国</tspan><tspan class="cls-17" x="12.77" y="0">パ</tspan><tspan class="cls-5" x="19.08" y="0">ー</tspan><tspan class="cls-22" x="25.11" y="0">テ</tspan><tspan class="cls-4" x="30.59" y="0">ィ</tspan><tspan class="cls-28" x="36" y="0">ー</tspan></text>
      <text class="cls-1" transform="translate(97.82 169.37)"><tspan x="0" y="0">50118</tspan></text>
      <text class="cls-1" transform="translate(240.91 169.37)"><tspan x="0" y="0">8.2% </tspan></text>
      <text class="cls-1" transform="translate(271.07 169.37)"><tspan x="0" y="0">8 (+0)</tspan></text>
    </g>
    <rect class="cls-20" x="130.52" y="56.26" width="88.44" height="8.6"/>
    <rect class="cls-20" x="130.52" y="77.37" width="45.64" height="8.6"/>
    <rect class="cls-20" x="130.52" y="98.48" width="43.37" height="8.6"/>
    <rect class="cls-20" x="130.52" y="119.59" width="37.7" height="8.6"/>
    <rect class="cls-20" x="130.52" y="141.14" width="26.36" height="8.6"/>
    <rect class="cls-20" x="130.52" y="162.28" width="23.24" height="8.6"/>
    <text class="cls-3" transform="translate(-.19 20.06)"><tspan class="cls-12" x="0" y="0">エ</tspan><tspan class="cls-16" x="9.38" y="0">ス</tspan><tspan class="cls-7" x="18.14" y="0">トニ</tspan><tspan class="cls-29" x="37.06" y="0">ア</tspan><tspan x="46.73" y="0">共和国 選挙結果</tspan></text>
    <text class="cls-14" transform="translate(244.33 25.34)"><tspan x="0" y="0">2023年4月20日時点</tspan></text>
  </g>
</svg>