<?xml version="1.0" encoding="UTF-8"?>
<svg id="_レイヤー_2" data-name="レイヤー 2" xmlns="http://www.w3.org/2000/svg" viewBox="0 0 284.56 126.52">
  <defs>
    <style>
      .cls-1 {
        opacity: .45;
      }

      .cls-1, .cls-2, .cls-3 {
        isolation: isolate;
      }

      .cls-1, .cls-2, .cls-3, .cls-4, .cls-5, .cls-6, .cls-7, .cls-8, .cls-9, .cls-10, .cls-11 {
        stroke-width: 0px;
      }

      .cls-1, .cls-2, .cls-3, .cls-11 {
        fill: #030000;
      }

      .cls-12, .cls-13, .cls-14, .cls-15, .cls-5 {
        fill: #3e80b8;
      }

      .cls-12, .cls-14 {
        font-family: NotoSansJP-Bold-83pv-RKSJ-H, 'Noto Sans JP';
        font-weight: 700;
      }

      .cls-12, .cls-16 {
        font-size: 6px;
      }

      .cls-17 {
        letter-spacing: -.15em;
      }

      .cls-18 {
        letter-spacing: 0em;
      }

      .cls-2 {
        opacity: .6;
      }

      .cls-13, .cls-19 {
        font-size: 8px;
      }

      .cls-13, .cls-15 {
        font-family: NotoSansJP-Medium-83pv-RKSJ-H, 'Noto Sans JP';
        font-weight: 500;
      }

      .cls-20 {
        letter-spacing: -.07em;
      }

      .cls-21 {
        letter-spacing: -.06em;
      }

      .cls-22 {
        letter-spacing: -.06em;
      }

      .cls-23 {
        letter-spacing: -.02em;
      }

      .cls-24 {
        letter-spacing: -.01em;
      }

      .cls-25 {
        fill: #ab883f;
        font-family: NotoSansJP-Regular-83pv-RKSJ-H, 'Noto Sans JP';
        font-size: 5px;
      }

      .cls-3 {
        opacity: .8;
      }

      .cls-14 {
        font-size: 9px;
      }

      .cls-26 {
        letter-spacing: -.18em;
      }

      .cls-27 {
        letter-spacing: 0em;
      }

      .cls-28 {
        letter-spacing: -.08em;
      }

      .cls-29 {
        letter-spacing: -.01em;
      }

      .cls-30 {
        letter-spacing: -.03em;
      }

      .cls-31 {
        letter-spacing: -.06em;
      }

      .cls-32 {
        letter-spacing: -.12em;
      }

      .cls-33 {
        letter-spacing: -.19em;
      }

      .cls-34 {
        letter-spacing: 0em;
      }

      .cls-35 {
        letter-spacing: -.06em;
      }

      .cls-4 {
        fill: #604c28;
      }

      .cls-6 {
        fill: #dfb443;
      }

      .cls-7 {
        fill: #d0e8f6;
      }

      .cls-8 {
        fill: #d4ac48;
      }

      .cls-9 {
        fill: #ecf3df;
      }

      .cls-10 {
        fill: #f0e7c4;
      }
    </style>
  </defs>
  <g id="Working">
    <rect class="cls-9" x="148.48" y="13.13" width="34.02" height="113.39"/>
    <text class="cls-25" transform="translate(52.16 56.16)"><tspan class="cls-17" x="0" y="0">ト</tspan><tspan class="cls-32" x="4.23" y="0">ラ</tspan><tspan class="cls-21" x="8.64" y="0">ン</tspan><tspan class="cls-35" x="13.34" y="0">ザ</tspan><tspan class="cls-28" x="18.02" y="0">ク</tspan><tspan class="cls-33" x="22.6" y="0">シ</tspan><tspan class="cls-26" x="26.62" y="0">ョ</tspan><tspan class="cls-31" x="30.71" y="0">ン</tspan></text>
    <text class="cls-12" transform="translate(188.8 62.94)"><tspan x="0" y="0">O</tspan><tspan class="cls-30" x="4.62" y="0">p</tspan><tspan x="8.32" y="0">timi</tspan><tspan class="cls-23" x="20.27" y="0">s</tspan><tspan class="cls-27" x="23.1" y="0">tic </tspan><tspan class="cls-24" x="31.97" y="0">R</tspan><tspan x="35.99" y="0">ollup</tspan><tspan x="0" y="8">zk</tspan><tspan class="cls-24" x="6.7" y="8">R</tspan><tspan x="10.72" y="8">ollup　</tspan><tspan class="cls-22" x="31.94" y="8">な</tspan><tspan class="cls-20" x="37.58" y="8">ど</tspan></text>
    <text class="cls-14" transform="translate(156.25 7.92)"><tspan x="0" y="0">EVM</tspan></text>
    <text class="cls-15" transform="translate(.01 102.25)"><tspan class="cls-19"><tspan x="0" y="0">La</tspan><tspan class="cls-18" x="9.06" y="0">y</tspan><tspan class="cls-34" x="13.36" y="0">er1</tspan></tspan><tspan class="cls-16"><tspan x="0" y="9">(</tspan><tspan class="cls-29" x="2.13" y="9">e</tspan><tspan x="5.45" y="9">the</tspan><tspan class="cls-29" x="14.95" y="9">r</tspan><tspan x="17.33" y="9">eum)</tspan></tspan></text>
    <text class="cls-13" transform="translate(0 37.17)"><tspan x="0" y="0">La</tspan><tspan class="cls-18" x="9.06" y="0">y</tspan><tspan class="cls-34" x="13.36" y="0">er1</tspan><tspan x="0" y="9">外部</tspan></text>
    <g>
      <circle class="cls-10" cx="70.23" cy="34.23" r="12.76"/>
      <g>
        <g>
          <polygon class="cls-11" points="70.23 27.7 66.47 29.87 66.45 25.52 70.23 23.35 70.23 27.7 70.23 27.7"/>
          <polygon class="cls-11" points="74 29.87 70.23 27.7 70.23 23.35 74.02 25.52 74 29.87 74 29.87"/>
          <polygon class="cls-4" points="66.47 29.87 70.23 32.07 70.23 27.7 66.45 25.52 66.47 29.87 66.47 29.87"/>
          <polygon class="cls-6" points="70.23 27.7 74.02 25.52 70.23 23.35 66.45 25.52 70.23 27.7 70.23 27.7"/>
          <polygon class="cls-4" points="74 29.87 70.23 32.07 66.47 29.87 70.23 27.7 74 29.87 74 29.87"/>
          <polygon class="cls-8" points="70.23 32.07 74 29.87 74.02 25.52 70.23 27.7 70.23 32.07 70.23 32.07"/>
        </g>
        <g>
          <polygon class="cls-11" points="66.45 34.13 62.68 36.31 62.67 31.95 66.45 29.78 66.45 34.13 66.45 34.13"/>
          <polygon class="cls-11" points="70.22 36.31 66.45 34.13 66.45 29.78 70.23 31.95 70.22 36.31 70.22 36.31"/>
          <polygon class="cls-4" points="62.68 36.31 66.45 38.5 66.45 34.13 62.67 31.95 62.68 36.31 62.68 36.31"/>
          <polygon class="cls-6" points="66.45 34.13 70.23 31.95 66.45 29.78 62.67 31.95 66.45 34.13 66.45 34.13"/>
          <polygon class="cls-4" points="70.22 36.31 66.45 38.5 62.68 36.31 66.45 34.13 70.22 36.31 70.22 36.31"/>
          <polygon class="cls-8" points="66.45 38.5 70.22 36.31 70.23 31.95 66.45 34.13 66.45 38.5 66.45 38.5"/>
        </g>
        <g>
          <polygon class="cls-11" points="77.78 40.75 74.02 42.93 74 38.57 77.78 36.4 77.78 40.75 77.78 40.75"/>
          <polygon class="cls-11" points="81.55 42.93 77.78 40.75 77.78 36.4 81.57 38.57 81.55 42.93 81.55 42.93"/>
          <polygon class="cls-4" points="74.02 42.93 77.78 45.12 77.78 40.75 74 38.57 74.02 42.93 74.02 42.93"/>
          <polygon class="cls-6" points="77.78 40.75 81.57 38.57 77.78 36.4 74 38.57 77.78 40.75 77.78 40.75"/>
          <polygon class="cls-4" points="81.55 42.93 77.78 45.12 74.02 42.93 77.78 40.75 81.55 42.93 81.55 42.93"/>
          <polygon class="cls-8" points="77.78 45.12 81.55 42.93 81.57 38.57 77.78 40.75 77.78 45.12 77.78 45.12"/>
        </g>
        <g>
          <polygon class="cls-11" points="70.25 40.74 66.48 42.92 66.47 38.56 70.25 36.39 70.25 40.74 70.25 40.74"/>
          <polygon class="cls-11" points="74.02 42.92 70.25 40.74 70.25 36.39 74.03 38.56 74.02 42.92 74.02 42.92"/>
          <polygon class="cls-4" points="66.48 42.92 70.25 45.11 70.25 40.74 66.47 38.56 66.48 42.92 66.48 42.92"/>
          <polygon class="cls-6" points="70.25 40.74 74.03 38.56 70.25 36.39 66.47 38.56 70.25 40.74 70.25 40.74"/>
          <polygon class="cls-4" points="74.02 42.92 70.25 45.11 66.48 42.92 70.25 40.74 74.02 42.92 74.02 42.92"/>
          <polygon class="cls-8" points="70.25 45.11 74.02 42.92 74.03 38.56 70.25 40.74 70.25 45.11 70.25 45.11"/>
        </g>
        <g>
          <polygon class="cls-11" points="62.67 40.74 58.9 42.92 58.89 38.56 62.67 36.39 62.67 40.74 62.67 40.74"/>
          <polygon class="cls-11" points="66.44 42.92 62.67 40.74 62.67 36.39 66.45 38.56 66.44 42.92 66.44 42.92"/>
          <polygon class="cls-4" points="58.9 42.92 62.67 45.11 62.67 40.74 58.89 38.56 58.9 42.92 58.9 42.92"/>
          <polygon class="cls-6" points="62.67 40.74 66.45 38.56 62.67 36.39 58.89 38.56 62.67 40.74 62.67 40.74"/>
          <polygon class="cls-4" points="66.44 42.92 62.67 45.11 58.9 42.92 62.67 40.74 66.44 42.92 66.44 42.92"/>
          <polygon class="cls-8" points="62.67 45.11 66.44 42.92 66.45 38.56 62.67 40.74 62.67 45.11 62.67 45.11"/>
        </g>
        <g>
          <polygon class="cls-11" points="74.02 34.23 70.25 36.4 70.23 32.04 74.02 29.87 74.02 34.23 74.02 34.23"/>
          <polygon class="cls-11" points="77.78 36.4 74.02 34.23 74.02 29.87 77.8 32.04 77.78 36.4 77.78 36.4"/>
          <polygon class="cls-4" points="70.25 36.4 74.02 38.59 74.02 34.23 70.23 32.04 70.25 36.4 70.25 36.4"/>
          <polygon class="cls-6" points="74.02 34.23 77.8 32.04 74.02 29.87 70.23 32.04 74.02 34.23 74.02 34.23"/>
          <polygon class="cls-4" points="77.78 36.4 74.02 38.59 70.25 36.4 74.02 34.23 77.78 36.4 77.78 36.4"/>
          <polygon class="cls-8" points="74.02 38.59 77.78 36.4 77.8 32.04 74.02 34.23 74.02 38.59 74.02 38.59"/>
        </g>
      </g>
    </g>
    <g>
      <polygon class="cls-5" points="176.98 64.15 154.3 64.15 165.64 75.49 176.98 64.15"/>
      <rect class="cls-5" x="161.97" y="54.88" width="7.34" height="11.2" transform="translate(226.12 -105.16) rotate(90)"/>
    </g>
    <g>
      <circle class="cls-7" cx="70.23" cy="102.74" r="12.76"/>
      <g>
        <path class="cls-2" d="m70.22,98.53l-9.92,4.51,9.92,5.86,9.92-5.86-9.92-4.51Z"/>
        <path class="cls-1" d="m60.31,103.04l9.92,5.86v-22.32l-9.92,16.46Z"/>
        <path class="cls-3" d="m70.23,86.59v22.32l9.92-5.86-9.92-16.46Z"/>
        <path class="cls-1" d="m60.31,104.92l9.92,13.98v-8.12l-9.92-5.86Z"/>
        <path class="cls-3" d="m70.22,110.78v8.12l9.92-13.98-9.92,5.86Z"/>
      </g>
    </g>
    <g>
      <circle class="cls-7" cx="117.45" cy="102.74" r="12.76"/>
      <g>
        <path class="cls-2" d="m117.45,98.53l-9.92,4.51,9.92,5.86,9.92-5.86-9.92-4.51Z"/>
        <path class="cls-1" d="m107.53,103.04l9.92,5.86v-22.32l-9.92,16.46Z"/>
        <path class="cls-3" d="m117.45,86.59v22.32l9.92-5.86-9.92-16.46Z"/>
        <path class="cls-1" d="m107.53,104.92l9.92,13.98v-8.12l-9.92-5.86Z"/>
        <path class="cls-3" d="m117.45,110.78v8.12l9.92-13.98-9.92,5.86Z"/>
      </g>
      <g>
        <g>
          <path class="cls-7" d="m86.39,103.57c-.09-.09-.14-.21-.14-.34,0-1.26,1.02-2.28,2.28-2.28h2.54c.61,0,1.18.24,1.61.67s.67,1,.67,1.61c0,1.26-1.02,2.28-2.28,2.28h-1.16c-.27,0-.49-.22-.49-.49,0-.27.22-.49.49-.49h1.16c.72,0,1.31-.59,1.31-1.31,0-.35-.14-.68-.38-.93s-.58-.38-.93-.38h-2.54c-.72,0-1.31.59-1.31,1.31,0,.27-.22.49-.49.49-.13,0-.26-.05-.34-.14h0Z"/>
          <path class="cls-7" d="m82.69,104.84c-.43-.43-.67-1-.67-1.61,0-1.26,1.02-2.28,2.28-2.28h1.16c.27,0,.49.22.49.49,0,.27-.22.49-.49.49h-1.16c-.72,0-1.31.59-1.31,1.31,0,.35.14.68.38.93s.58.38.93.38h2.54c.72,0,1.31-.59,1.31-1.31,0-.27.22-.49.49-.49.27,0,.49.22.49.49,0,1.26-1.02,2.28-2.28,2.28h-2.54c-.61,0-1.18-.24-1.61-.67h0Z"/>
        </g>
        <g>
          <path class="cls-7" d="m97.73,103.57c-.09-.09-.14-.21-.14-.34,0-1.26,1.02-2.28,2.28-2.28h2.54c.61,0,1.18.24,1.61.67s.67,1,.67,1.61c0,1.26-1.02,2.28-2.28,2.28h-1.16c-.27,0-.49-.22-.49-.49,0-.27.22-.49.49-.49h1.16c.72,0,1.31-.59,1.31-1.31,0-.35-.14-.68-.38-.93s-.58-.38-.93-.38h-2.54c-.72,0-1.31.59-1.31,1.31,0,.27-.22.49-.49.49-.13,0-.26-.05-.34-.14h0Z"/>
          <path class="cls-7" d="m94.03,104.84c-.43-.43-.67-1-.67-1.61,0-1.26,1.02-2.28,2.28-2.28h1.16c.27,0,.49.22.49.49,0,.27-.22.49-.49.49h-1.16c-.72,0-1.31.59-1.31,1.31,0,.35.14.68.38.93s.58.38.93.38h2.54c.72,0,1.31-.59,1.31-1.31,0-.27.22-.49.49-.49.27,0,.49.22.49.49,0,1.26-1.02,2.28-2.28,2.28h-2.54c-.61,0-1.18-.24-1.61-.67h0Z"/>
        </g>
      </g>
    </g>
    <g>
      <g>
        <circle class="cls-10" cx="117.17" cy="34.23" r="12.76"/>
        <g>
          <g>
            <polygon class="cls-11" points="117.17 27.7 113.41 29.87 113.39 25.52 117.17 23.35 117.17 27.7 117.17 27.7"/>
            <polygon class="cls-11" points="120.94 29.87 117.17 27.7 117.17 23.35 120.96 25.52 120.94 29.87 120.94 29.87"/>
            <polygon class="cls-4" points="113.41 29.87 117.17 32.07 117.17 27.7 113.39 25.52 113.41 29.87 113.41 29.87"/>
            <polygon class="cls-6" points="117.17 27.7 120.96 25.52 117.17 23.35 113.39 25.52 117.17 27.7 117.17 27.7"/>
            <polygon class="cls-4" points="120.94 29.87 117.17 32.07 113.41 29.87 117.17 27.7 120.94 29.87 120.94 29.87"/>
            <polygon class="cls-8" points="117.17 32.07 120.94 29.87 120.96 25.52 117.17 27.7 117.17 32.07 117.17 32.07"/>
          </g>
          <g>
            <polygon class="cls-11" points="113.39 34.13 109.62 36.31 109.61 31.95 113.39 29.78 113.39 34.13 113.39 34.13"/>
            <polygon class="cls-11" points="117.16 36.31 113.39 34.13 113.39 29.78 117.17 31.95 117.16 36.31 117.16 36.31"/>
            <polygon class="cls-4" points="109.62 36.31 113.39 38.5 113.39 34.13 109.61 31.95 109.62 36.31 109.62 36.31"/>
            <polygon class="cls-6" points="113.39 34.13 117.17 31.95 113.39 29.78 109.61 31.95 113.39 34.13 113.39 34.13"/>
            <polygon class="cls-4" points="117.16 36.31 113.39 38.5 109.62 36.31 113.39 34.13 117.16 36.31 117.16 36.31"/>
            <polygon class="cls-8" points="113.39 38.5 117.16 36.31 117.17 31.95 113.39 34.13 113.39 38.5 113.39 38.5"/>
          </g>
          <g>
            <polygon class="cls-11" points="124.72 40.75 120.96 42.93 120.94 38.57 124.72 36.4 124.72 40.75 124.72 40.75"/>
            <polygon class="cls-11" points="128.49 42.93 124.72 40.75 124.72 36.4 128.51 38.57 128.49 42.93 128.49 42.93"/>
            <polygon class="cls-4" points="120.96 42.93 124.72 45.12 124.72 40.75 120.94 38.57 120.96 42.93 120.96 42.93"/>
            <polygon class="cls-6" points="124.72 40.75 128.51 38.57 124.72 36.4 120.94 38.57 124.72 40.75 124.72 40.75"/>
            <polygon class="cls-4" points="128.49 42.93 124.72 45.12 120.96 42.93 124.72 40.75 128.49 42.93 128.49 42.93"/>
            <polygon class="cls-8" points="124.72 45.12 128.49 42.93 128.51 38.57 124.72 40.75 124.72 45.12 124.72 45.12"/>
          </g>
          <g>
            <polygon class="cls-11" points="117.19 40.74 113.42 42.92 113.41 38.56 117.19 36.39 117.19 40.74 117.19 40.74"/>
            <polygon class="cls-11" points="120.96 42.92 117.19 40.74 117.19 36.39 120.97 38.56 120.96 42.92 120.96 42.92"/>
            <polygon class="cls-4" points="113.42 42.92 117.19 45.11 117.19 40.74 113.41 38.56 113.42 42.92 113.42 42.92"/>
            <polygon class="cls-6" points="117.19 40.74 120.97 38.56 117.19 36.39 113.41 38.56 117.19 40.74 117.19 40.74"/>
            <polygon class="cls-4" points="120.96 42.92 117.19 45.11 113.42 42.92 117.19 40.74 120.96 42.92 120.96 42.92"/>
            <polygon class="cls-8" points="117.19 45.11 120.96 42.92 120.97 38.56 117.19 40.74 117.19 45.11 117.19 45.11"/>
          </g>
          <g>
            <polygon class="cls-11" points="109.61 40.74 105.84 42.92 105.83 38.56 109.61 36.39 109.61 40.74 109.61 40.74"/>
            <polygon class="cls-11" points="113.38 42.92 109.61 40.74 109.61 36.39 113.39 38.56 113.38 42.92 113.38 42.92"/>
            <polygon class="cls-4" points="105.84 42.92 109.61 45.11 109.61 40.74 105.83 38.56 105.84 42.92 105.84 42.92"/>
            <polygon class="cls-6" points="109.61 40.74 113.39 38.56 109.61 36.39 105.83 38.56 109.61 40.74 109.61 40.74"/>
            <polygon class="cls-4" points="113.38 42.92 109.61 45.11 105.84 42.92 109.61 40.74 113.38 42.92 113.38 42.92"/>
            <polygon class="cls-8" points="109.61 45.11 113.38 42.92 113.39 38.56 109.61 40.74 109.61 45.11 109.61 45.11"/>
          </g>
          <g>
            <polygon class="cls-11" points="120.96 34.23 117.19 36.4 117.17 32.04 120.96 29.87 120.96 34.23 120.96 34.23"/>
            <polygon class="cls-11" points="124.72 36.4 120.96 34.23 120.96 29.87 124.74 32.04 124.72 36.4 124.72 36.4"/>
            <polygon class="cls-4" points="117.19 36.4 120.96 38.59 120.96 34.23 117.17 32.04 117.19 36.4 117.19 36.4"/>
            <polygon class="cls-6" points="120.96 34.23 124.74 32.04 120.96 29.87 117.17 32.04 120.96 34.23 120.96 34.23"/>
            <polygon class="cls-4" points="124.72 36.4 120.96 38.59 117.19 36.4 120.96 34.23 124.72 36.4 124.72 36.4"/>
            <polygon class="cls-8" points="120.96 38.59 124.72 36.4 124.74 32.04 120.96 34.23 120.96 38.59 120.96 38.59"/>
          </g>
        </g>
      </g>
      <g>
        <g>
          <path class="cls-10" d="m86.39,34.74c-.09-.09-.14-.21-.14-.34,0-1.26,1.02-2.28,2.28-2.28h2.54c.61,0,1.18.24,1.61.67s.67,1,.67,1.61c0,1.26-1.02,2.28-2.28,2.28h-1.16c-.27,0-.49-.22-.49-.49,0-.27.22-.49.49-.49h1.16c.72,0,1.31-.59,1.31-1.31,0-.35-.14-.68-.38-.93s-.58-.38-.93-.38h-2.54c-.72,0-1.31.59-1.31,1.31,0,.27-.22.49-.49.49-.13,0-.26-.05-.34-.14h0Z"/>
          <path class="cls-10" d="m82.69,36.01c-.43-.43-.67-1-.67-1.61,0-1.26,1.02-2.28,2.28-2.28h1.16c.27,0,.49.22.49.49,0,.27-.22.49-.49.49h-1.16c-.72,0-1.31.59-1.31,1.31,0,.35.14.68.38.93s.58.38.93.38h2.54c.72,0,1.31-.59,1.31-1.31,0-.27.22-.49.49-.49.27,0,.49.22.49.49,0,1.26-1.02,2.28-2.28,2.28h-2.54c-.61,0-1.18-.24-1.61-.67h0Z"/>
        </g>
        <g>
          <path class="cls-10" d="m97.73,34.74c-.09-.09-.14-.21-.14-.34,0-1.26,1.02-2.28,2.28-2.28h2.54c.61,0,1.18.24,1.61.67s.67,1,.67,1.61c0,1.26-1.02,2.28-2.28,2.28h-1.16c-.27,0-.49-.22-.49-.49,0-.27.22-.49.49-.49h1.16c.72,0,1.31-.59,1.31-1.31,0-.35-.14-.68-.38-.93s-.58-.38-.93-.38h-2.54c-.72,0-1.31.59-1.31,1.31,0,.27-.22.49-.49.49-.13,0-.26-.05-.34-.14h0Z"/>
          <path class="cls-10" d="m94.03,36.01c-.43-.43-.67-1-.67-1.61,0-1.26,1.02-2.28,2.28-2.28h1.16c.27,0,.49.22.49.49,0,.27-.22.49-.49.49h-1.16c-.72,0-1.31.59-1.31,1.31,0,.35.14.68.38.93s.58.38.93.38h2.54c.72,0,1.31-.59,1.31-1.31,0-.27.22-.49.49-.49.27,0,.49.22.49.49,0,1.26-1.02,2.28-2.28,2.28h-2.54c-.61,0-1.18-.24-1.61-.67h0Z"/>
        </g>
      </g>
    </g>
    <g>
      <g>
        <circle class="cls-10" cx="165.5" cy="34.23" r="12.76"/>
        <g>
          <g>
            <polygon class="cls-11" points="165.5 27.7 161.74 29.87 161.72 25.52 165.5 23.35 165.5 27.7 165.5 27.7"/>
            <polygon class="cls-11" points="169.27 29.87 165.5 27.7 165.5 23.35 169.29 25.52 169.27 29.87 169.27 29.87"/>
            <polygon class="cls-4" points="161.74 29.87 165.5 32.07 165.5 27.7 161.72 25.52 161.74 29.87 161.74 29.87"/>
            <polygon class="cls-6" points="165.5 27.7 169.29 25.52 165.5 23.35 161.72 25.52 165.5 27.7 165.5 27.7"/>
            <polygon class="cls-4" points="169.27 29.87 165.5 32.07 161.74 29.87 165.5 27.7 169.27 29.87 169.27 29.87"/>
            <polygon class="cls-8" points="165.5 32.07 169.27 29.87 169.29 25.52 165.5 27.7 165.5 32.07 165.5 32.07"/>
          </g>
          <g>
            <polygon class="cls-11" points="161.72 34.13 157.95 36.31 157.94 31.95 161.72 29.78 161.72 34.13 161.72 34.13"/>
            <polygon class="cls-11" points="165.49 36.31 161.72 34.13 161.72 29.78 165.5 31.95 165.49 36.31 165.49 36.31"/>
            <polygon class="cls-4" points="157.95 36.31 161.72 38.5 161.72 34.13 157.94 31.95 157.95 36.31 157.95 36.31"/>
            <polygon class="cls-6" points="161.72 34.13 165.5 31.95 161.72 29.78 157.94 31.95 161.72 34.13 161.72 34.13"/>
            <polygon class="cls-4" points="165.49 36.31 161.72 38.5 157.95 36.31 161.72 34.13 165.49 36.31 165.49 36.31"/>
            <polygon class="cls-8" points="161.72 38.5 165.49 36.31 165.5 31.95 161.72 34.13 161.72 38.5 161.72 38.5"/>
          </g>
          <g>
            <polygon class="cls-11" points="173.06 40.75 169.29 42.93 169.27 38.57 173.06 36.4 173.06 40.75 173.06 40.75"/>
            <polygon class="cls-11" points="176.82 42.93 173.06 40.75 173.06 36.4 176.84 38.57 176.82 42.93 176.82 42.93"/>
            <polygon class="cls-4" points="169.29 42.93 173.06 45.12 173.06 40.75 169.27 38.57 169.29 42.93 169.29 42.93"/>
            <polygon class="cls-6" points="173.06 40.75 176.84 38.57 173.06 36.4 169.27 38.57 173.06 40.75 173.06 40.75"/>
            <polygon class="cls-4" points="176.82 42.93 173.06 45.12 169.29 42.93 173.06 40.75 176.82 42.93 176.82 42.93"/>
            <polygon class="cls-8" points="173.06 45.12 176.82 42.93 176.84 38.57 173.06 40.75 173.06 45.12 173.06 45.12"/>
          </g>
          <g>
            <polygon class="cls-11" points="165.52 40.74 161.75 42.92 161.74 38.56 165.52 36.39 165.52 40.74 165.52 40.74"/>
            <polygon class="cls-11" points="169.29 42.92 165.52 40.74 165.52 36.39 169.3 38.56 169.29 42.92 169.29 42.92"/>
            <polygon class="cls-4" points="161.75 42.92 165.52 45.11 165.52 40.74 161.74 38.56 161.75 42.92 161.75 42.92"/>
            <polygon class="cls-6" points="165.52 40.74 169.3 38.56 165.52 36.39 161.74 38.56 165.52 40.74 165.52 40.74"/>
            <polygon class="cls-4" points="169.29 42.92 165.52 45.11 161.75 42.92 165.52 40.74 169.29 42.92 169.29 42.92"/>
            <polygon class="cls-8" points="165.52 45.11 169.29 42.92 169.3 38.56 165.52 40.74 165.52 45.11 165.52 45.11"/>
          </g>
          <g>
            <polygon class="cls-11" points="157.94 40.74 154.17 42.92 154.16 38.56 157.94 36.39 157.94 40.74 157.94 40.74"/>
            <polygon class="cls-11" points="161.71 42.92 157.94 40.74 157.94 36.39 161.72 38.56 161.71 42.92 161.71 42.92"/>
            <polygon class="cls-4" points="154.17 42.92 157.94 45.11 157.94 40.74 154.16 38.56 154.17 42.92 154.17 42.92"/>
            <polygon class="cls-6" points="157.94 40.74 161.72 38.56 157.94 36.39 154.16 38.56 157.94 40.74 157.94 40.74"/>
            <polygon class="cls-4" points="161.71 42.92 157.94 45.11 154.17 42.92 157.94 40.74 161.71 42.92 161.71 42.92"/>
            <polygon class="cls-8" points="157.94 45.11 161.71 42.92 161.72 38.56 157.94 40.74 157.94 45.11 157.94 45.11"/>
          </g>
          <g>
            <polygon class="cls-11" points="169.29 34.23 165.52 36.4 165.5 32.04 169.29 29.87 169.29 34.23 169.29 34.23"/>
            <polygon class="cls-11" points="173.06 36.4 169.29 34.23 169.29 29.87 173.07 32.04 173.06 36.4 173.06 36.4"/>
            <polygon class="cls-4" points="165.52 36.4 169.29 38.59 169.29 34.23 165.5 32.04 165.52 36.4 165.52 36.4"/>
            <polygon class="cls-6" points="169.29 34.23 173.07 32.04 169.29 29.87 165.5 32.04 169.29 34.23 169.29 34.23"/>
            <polygon class="cls-4" points="173.06 36.4 169.29 38.59 165.52 36.4 169.29 34.23 173.06 36.4 173.06 36.4"/>
            <polygon class="cls-8" points="169.29 38.59 173.06 36.4 173.07 32.04 169.29 34.23 169.29 38.59 169.29 38.59"/>
          </g>
        </g>
      </g>
      <g>
        <g>
          <path class="cls-10" d="m134.72,34.74c-.09-.09-.14-.21-.14-.34,0-1.26,1.02-2.28,2.28-2.28h2.54c.61,0,1.18.24,1.61.67s.67,1,.67,1.61c0,1.26-1.02,2.28-2.28,2.28h-1.16c-.27,0-.49-.22-.49-.49,0-.27.22-.49.49-.49h1.16c.72,0,1.31-.59,1.31-1.31,0-.35-.14-.68-.38-.93s-.58-.38-.93-.38h-2.54c-.72,0-1.31.59-1.31,1.31,0,.27-.22.49-.49.49-.13,0-.26-.05-.34-.14h0Z"/>
          <path class="cls-10" d="m131.02,36.01c-.43-.43-.67-1-.67-1.61,0-1.26,1.02-2.28,2.28-2.28h1.16c.27,0,.49.22.49.49,0,.27-.22.49-.49.49h-1.16c-.72,0-1.31.59-1.31,1.31,0,.35.14.68.38.93s.58.38.93.38h2.54c.72,0,1.31-.59,1.31-1.31,0-.27.22-.49.49-.49.27,0,.49.22.49.49,0,1.26-1.02,2.28-2.28,2.28h-2.54c-.61,0-1.18-.24-1.61-.67h0Z"/>
        </g>
        <g>
          <path class="cls-10" d="m146.06,34.74c-.09-.09-.14-.21-.14-.34,0-1.26,1.02-2.28,2.28-2.28h2.54c.61,0,1.18.24,1.61.67s.67,1,.67,1.61c0,1.26-1.02,2.28-2.28,2.28h-1.16c-.27,0-.49-.22-.49-.49,0-.27.22-.49.49-.49h1.16c.72,0,1.31-.59,1.31-1.31,0-.35-.14-.68-.38-.93s-.58-.38-.93-.38h-2.54c-.72,0-1.31.59-1.31,1.31,0,.27-.22.49-.49.49-.13,0-.26-.05-.34-.14h0Z"/>
          <path class="cls-10" d="m142.36,36.01c-.43-.43-.67-1-.67-1.61,0-1.26,1.02-2.28,2.28-2.28h1.16c.27,0,.49.22.49.49,0,.27-.22.49-.49.49h-1.16c-.72,0-1.31.59-1.31,1.31,0,.35.14.68.38.93s.58.38.93.38h2.54c.72,0,1.31-.59,1.31-1.31,0-.27.22-.49.49-.49.27,0,.49.22.49.49,0,1.26-1.02,2.28-2.28,2.28h-2.54c-.61,0-1.18-.24-1.61-.67h0Z"/>
        </g>
      </g>
    </g>
    <g>
      <g>
        <circle class="cls-10" cx="213.55" cy="34.23" r="12.76"/>
        <g>
          <g>
            <polygon class="cls-11" points="213.56 27.7 209.79 29.87 209.78 25.52 213.56 23.35 213.56 27.7 213.56 27.7"/>
            <polygon class="cls-11" points="217.33 29.87 213.56 27.7 213.56 23.35 217.34 25.52 217.33 29.87 217.33 29.87"/>
            <polygon class="cls-4" points="209.79 29.87 213.56 32.07 213.56 27.7 209.78 25.52 209.79 29.87 209.79 29.87"/>
            <polygon class="cls-6" points="213.56 27.7 217.34 25.52 213.56 23.35 209.78 25.52 213.56 27.7 213.56 27.7"/>
            <polygon class="cls-4" points="217.33 29.87 213.56 32.07 209.79 29.87 213.56 27.7 217.33 29.87 217.33 29.87"/>
            <polygon class="cls-8" points="213.56 32.07 217.33 29.87 217.34 25.52 213.56 27.7 213.56 32.07 213.56 32.07"/>
          </g>
          <g>
            <polygon class="cls-11" points="209.78 34.13 206.01 36.31 206 31.95 209.78 29.78 209.78 34.13 209.78 34.13"/>
            <polygon class="cls-11" points="213.55 36.31 209.78 34.13 209.78 29.78 213.56 31.95 213.55 36.31 213.55 36.31"/>
            <polygon class="cls-4" points="206.01 36.31 209.78 38.5 209.78 34.13 206 31.95 206.01 36.31 206.01 36.31"/>
            <polygon class="cls-6" points="209.78 34.13 213.56 31.95 209.78 29.78 206 31.95 209.78 34.13 209.78 34.13"/>
            <polygon class="cls-4" points="213.55 36.31 209.78 38.5 206.01 36.31 209.78 34.13 213.55 36.31 213.55 36.31"/>
            <polygon class="cls-8" points="209.78 38.5 213.55 36.31 213.56 31.95 209.78 34.13 209.78 38.5 209.78 38.5"/>
          </g>
          <g>
            <polygon class="cls-11" points="221.11 40.75 217.34 42.93 217.33 38.57 221.11 36.4 221.11 40.75 221.11 40.75"/>
            <polygon class="cls-11" points="224.88 42.93 221.11 40.75 221.11 36.4 224.89 38.57 224.88 42.93 224.88 42.93"/>
            <polygon class="cls-4" points="217.34 42.93 221.11 45.12 221.11 40.75 217.33 38.57 217.34 42.93 217.34 42.93"/>
            <polygon class="cls-6" points="221.11 40.75 224.89 38.57 221.11 36.4 217.33 38.57 221.11 40.75 221.11 40.75"/>
            <polygon class="cls-4" points="224.88 42.93 221.11 45.12 217.34 42.93 221.11 40.75 224.88 42.93 224.88 42.93"/>
            <polygon class="cls-8" points="221.11 45.12 224.88 42.93 224.89 38.57 221.11 40.75 221.11 45.12 221.11 45.12"/>
          </g>
          <g>
            <polygon class="cls-11" points="213.57 40.74 209.8 42.92 209.79 38.56 213.57 36.39 213.57 40.74 213.57 40.74"/>
            <polygon class="cls-11" points="217.34 42.92 213.57 40.74 213.57 36.39 217.35 38.56 217.34 42.92 217.34 42.92"/>
            <polygon class="cls-4" points="209.8 42.92 213.57 45.11 213.57 40.74 209.79 38.56 209.8 42.92 209.8 42.92"/>
            <polygon class="cls-6" points="213.57 40.74 217.35 38.56 213.57 36.39 209.79 38.56 213.57 40.74 213.57 40.74"/>
            <polygon class="cls-4" points="217.34 42.92 213.57 45.11 209.8 42.92 213.57 40.74 217.34 42.92 217.34 42.92"/>
            <polygon class="cls-8" points="213.57 45.11 217.34 42.92 217.35 38.56 213.57 40.74 213.57 45.11 213.57 45.11"/>
          </g>
          <g>
            <polygon class="cls-11" points="206 40.74 202.23 42.92 202.21 38.56 206 36.39 206 40.74 206 40.74"/>
            <polygon class="cls-11" points="209.76 42.92 206 40.74 206 36.39 209.78 38.56 209.76 42.92 209.76 42.92"/>
            <polygon class="cls-4" points="202.23 42.92 206 45.11 206 40.74 202.21 38.56 202.23 42.92 202.23 42.92"/>
            <polygon class="cls-6" points="206 40.74 209.78 38.56 206 36.39 202.21 38.56 206 40.74 206 40.74"/>
            <polygon class="cls-4" points="209.76 42.92 206 45.11 202.23 42.92 206 40.74 209.76 42.92 209.76 42.92"/>
            <polygon class="cls-8" points="206 45.11 209.76 42.92 209.78 38.56 206 40.74 206 45.11 206 45.11"/>
          </g>
          <g>
            <polygon class="cls-11" points="217.34 34.23 213.57 36.4 213.56 32.04 217.34 29.87 217.34 34.23 217.34 34.23"/>
            <polygon class="cls-11" points="221.11 36.4 217.34 34.23 217.34 29.87 221.12 32.04 221.11 36.4 221.11 36.4"/>
            <polygon class="cls-4" points="213.57 36.4 217.34 38.59 217.34 34.23 213.56 32.04 213.57 36.4 213.57 36.4"/>
            <polygon class="cls-6" points="217.34 34.23 221.12 32.04 217.34 29.87 213.56 32.04 217.34 34.23 217.34 34.23"/>
            <polygon class="cls-4" points="221.11 36.4 217.34 38.59 213.57 36.4 217.34 34.23 221.11 36.4 221.11 36.4"/>
            <polygon class="cls-8" points="217.34 38.59 221.11 36.4 221.12 32.04 217.34 34.23 217.34 38.59 217.34 38.59"/>
          </g>
        </g>
      </g>
      <g>
        <g>
          <path class="cls-10" d="m182.78,34.74c-.09-.09-.14-.21-.14-.34,0-1.26,1.02-2.28,2.28-2.28h2.54c.61,0,1.18.24,1.61.67s.67,1,.67,1.61c0,1.26-1.02,2.28-2.28,2.28h-1.16c-.27,0-.49-.22-.49-.49,0-.27.22-.49.49-.49h1.16c.72,0,1.31-.59,1.31-1.31,0-.35-.14-.68-.38-.93s-.58-.38-.93-.38h-2.54c-.72,0-1.31.59-1.31,1.31,0,.27-.22.49-.49.49-.13,0-.26-.05-.34-.14h0Z"/>
          <path class="cls-10" d="m179.07,36.01c-.43-.43-.67-1-.67-1.61,0-1.26,1.02-2.28,2.28-2.28h1.16c.27,0,.49.22.49.49,0,.27-.22.49-.49.49h-1.16c-.72,0-1.31.59-1.31,1.31,0,.35.14.68.38.93s.58.38.93.38h2.54c.72,0,1.31-.59,1.31-1.31,0-.27.22-.49.49-.49.27,0,.49.22.49.49,0,1.26-1.02,2.28-2.28,2.28h-2.54c-.61,0-1.18-.24-1.61-.67h0Z"/>
        </g>
        <g>
          <path class="cls-10" d="m194.12,34.74c-.09-.09-.14-.21-.14-.34,0-1.26,1.02-2.28,2.28-2.28h2.54c.61,0,1.18.24,1.61.67s.67,1,.67,1.61c0,1.26-1.02,2.28-2.28,2.28h-1.16c-.27,0-.49-.22-.49-.49,0-.27.22-.49.49-.49h1.16c.72,0,1.31-.59,1.31-1.31,0-.35-.14-.68-.38-.93s-.58-.38-.93-.38h-2.54c-.72,0-1.31.59-1.31,1.31,0,.27-.22.49-.49.49-.13,0-.26-.05-.34-.14h0Z"/>
          <path class="cls-10" d="m190.41,36.01c-.43-.43-.67-1-.67-1.61,0-1.26,1.02-2.28,2.28-2.28h1.16c.27,0,.49.22.49.49,0,.27-.22.49-.49.49h-1.16c-.72,0-1.31.59-1.31,1.31,0,.35.14.68.38.93s.58.38.93.38h2.54c.72,0,1.31-.59,1.31-1.31,0-.27.22-.49.49-.49.27,0,.49.22.49.49,0,1.26-1.02,2.28-2.28,2.28h-2.54c-.61,0-1.18-.24-1.61-.67h0Z"/>
        </g>
      </g>
    </g>
    <g>
      <g>
        <circle class="cls-10" cx="261.46" cy="34.23" r="12.76"/>
        <g>
          <g>
            <polygon class="cls-11" points="261.47 27.7 257.7 29.87 257.68 25.52 261.47 23.35 261.47 27.7 261.47 27.7"/>
            <polygon class="cls-11" points="265.23 29.87 261.47 27.7 261.47 23.35 265.25 25.52 265.23 29.87 265.23 29.87"/>
            <polygon class="cls-4" points="257.7 29.87 261.47 32.07 261.47 27.7 257.68 25.52 257.7 29.87 257.7 29.87"/>
            <polygon class="cls-6" points="261.47 27.7 265.25 25.52 261.47 23.35 257.68 25.52 261.47 27.7 261.47 27.7"/>
            <polygon class="cls-4" points="265.23 29.87 261.47 32.07 257.7 29.87 261.47 27.7 265.23 29.87 265.23 29.87"/>
            <polygon class="cls-8" points="261.47 32.07 265.23 29.87 265.25 25.52 261.47 27.7 261.47 32.07 261.47 32.07"/>
          </g>
          <g>
            <polygon class="cls-11" points="257.68 34.13 253.92 36.31 253.9 31.95 257.68 29.78 257.68 34.13 257.68 34.13"/>
            <polygon class="cls-11" points="261.45 36.31 257.68 34.13 257.68 29.78 261.47 31.95 261.45 36.31 261.45 36.31"/>
            <polygon class="cls-4" points="253.92 36.31 257.68 38.5 257.68 34.13 253.9 31.95 253.92 36.31 253.92 36.31"/>
            <polygon class="cls-6" points="257.68 34.13 261.47 31.95 257.68 29.78 253.9 31.95 257.68 34.13 257.68 34.13"/>
            <polygon class="cls-4" points="261.45 36.31 257.68 38.5 253.92 36.31 257.68 34.13 261.45 36.31 261.45 36.31"/>
            <polygon class="cls-8" points="257.68 38.5 261.45 36.31 261.47 31.95 257.68 34.13 257.68 38.5 257.68 38.5"/>
          </g>
          <g>
            <polygon class="cls-11" points="269.02 40.75 265.25 42.93 265.23 38.57 269.02 36.4 269.02 40.75 269.02 40.75"/>
            <polygon class="cls-11" points="272.78 42.93 269.02 40.75 269.02 36.4 272.8 38.57 272.78 42.93 272.78 42.93"/>
            <polygon class="cls-4" points="265.25 42.93 269.02 45.12 269.02 40.75 265.23 38.57 265.25 42.93 265.25 42.93"/>
            <polygon class="cls-6" points="269.02 40.75 272.8 38.57 269.02 36.4 265.23 38.57 269.02 40.75 269.02 40.75"/>
            <polygon class="cls-4" points="272.78 42.93 269.02 45.12 265.25 42.93 269.02 40.75 272.78 42.93 272.78 42.93"/>
            <polygon class="cls-8" points="269.02 45.12 272.78 42.93 272.8 38.57 269.02 40.75 269.02 45.12 269.02 45.12"/>
          </g>
          <g>
            <polygon class="cls-11" points="261.48 40.74 257.71 42.92 257.7 38.56 261.48 36.39 261.48 40.74 261.48 40.74"/>
            <polygon class="cls-11" points="265.25 42.92 261.48 40.74 261.48 36.39 265.26 38.56 265.25 42.92 265.25 42.92"/>
            <polygon class="cls-4" points="257.71 42.92 261.48 45.11 261.48 40.74 257.7 38.56 257.71 42.92 257.71 42.92"/>
            <polygon class="cls-6" points="261.48 40.74 265.26 38.56 261.48 36.39 257.7 38.56 261.48 40.74 261.48 40.74"/>
            <polygon class="cls-4" points="265.25 42.92 261.48 45.11 257.71 42.92 261.48 40.74 265.25 42.92 265.25 42.92"/>
            <polygon class="cls-8" points="261.48 45.11 265.25 42.92 265.26 38.56 261.48 40.74 261.48 45.11 261.48 45.11"/>
          </g>
          <g>
            <polygon class="cls-11" points="253.9 40.74 250.13 42.92 250.12 38.56 253.9 36.39 253.9 40.74 253.9 40.74"/>
            <polygon class="cls-11" points="257.67 42.92 253.9 40.74 253.9 36.39 257.68 38.56 257.67 42.92 257.67 42.92"/>
            <polygon class="cls-4" points="250.13 42.92 253.9 45.11 253.9 40.74 250.12 38.56 250.13 42.92 250.13 42.92"/>
            <polygon class="cls-6" points="253.9 40.74 257.68 38.56 253.9 36.39 250.12 38.56 253.9 40.74 253.9 40.74"/>
            <polygon class="cls-4" points="257.67 42.92 253.9 45.11 250.13 42.92 253.9 40.74 257.67 42.92 257.67 42.92"/>
            <polygon class="cls-8" points="253.9 45.11 257.67 42.92 257.68 38.56 253.9 40.74 253.9 45.11 253.9 45.11"/>
          </g>
          <g>
            <polygon class="cls-11" points="265.25 34.23 261.48 36.4 261.47 32.04 265.25 29.87 265.25 34.23 265.25 34.23"/>
            <polygon class="cls-11" points="269.02 36.4 265.25 34.23 265.25 29.87 269.03 32.04 269.02 36.4 269.02 36.4"/>
            <polygon class="cls-4" points="261.48 36.4 265.25 38.59 265.25 34.23 261.47 32.04 261.48 36.4 261.48 36.4"/>
            <polygon class="cls-6" points="265.25 34.23 269.03 32.04 265.25 29.87 261.47 32.04 265.25 34.23 265.25 34.23"/>
            <polygon class="cls-4" points="269.02 36.4 265.25 38.59 261.48 36.4 265.25 34.23 269.02 36.4 269.02 36.4"/>
            <polygon class="cls-8" points="265.25 38.59 269.02 36.4 269.03 32.04 265.25 34.23 265.25 38.59 265.25 38.59"/>
          </g>
        </g>
      </g>
      <g>
        <g>
          <path class="cls-10" d="m230.69,34.74c-.09-.09-.14-.21-.14-.34,0-1.26,1.02-2.28,2.28-2.28h2.54c.61,0,1.18.24,1.61.67s.67,1,.67,1.61c0,1.26-1.02,2.28-2.28,2.28h-1.16c-.27,0-.49-.22-.49-.49,0-.27.22-.49.49-.49h1.16c.72,0,1.31-.59,1.31-1.31,0-.35-.14-.68-.38-.93s-.58-.38-.93-.38h-2.54c-.72,0-1.31.59-1.31,1.31,0,.27-.22.49-.49.49-.13,0-.26-.05-.34-.14h0Z"/>
          <path class="cls-10" d="m226.98,36.01c-.43-.43-.67-1-.67-1.61,0-1.26,1.02-2.28,2.28-2.28h1.16c.27,0,.49.22.49.49,0,.27-.22.49-.49.49h-1.16c-.72,0-1.31.59-1.31,1.31,0,.35.14.68.38.93s.58.38.93.38h2.54c.72,0,1.31-.59,1.31-1.31,0-.27.22-.49.49-.49.27,0,.49.22.49.49,0,1.26-1.02,2.28-2.28,2.28h-2.54c-.61,0-1.18-.24-1.61-.67h0Z"/>
        </g>
        <g>
          <path class="cls-10" d="m242.02,34.74c-.09-.09-.14-.21-.14-.34,0-1.26,1.02-2.28,2.28-2.28h2.54c.61,0,1.18.24,1.61.67s.67,1,.67,1.61c0,1.26-1.02,2.28-2.28,2.28h-1.16c-.27,0-.49-.22-.49-.49,0-.27.22-.49.49-.49h1.16c.72,0,1.31-.59,1.31-1.31,0-.35-.14-.68-.38-.93s-.58-.38-.93-.38h-2.54c-.72,0-1.31.59-1.31,1.31,0,.27-.22.49-.49.49-.13,0-.26-.05-.34-.14h0Z"/>
          <path class="cls-10" d="m238.32,36.01c-.43-.43-.67-1-.67-1.61,0-1.26,1.02-2.28,2.28-2.28h1.16c.27,0,.49.22.49.49,0,.27-.22.49-.49.49h-1.16c-.72,0-1.31.59-1.31,1.31,0,.35.14.68.38.93s.58.38.93.38h2.54c.72,0,1.31-.59,1.31-1.31,0-.27.22-.49.49-.49.27,0,.49.22.49.49,0,1.26-1.02,2.28-2.28,2.28h-2.54c-.61,0-1.18-.24-1.61-.67h0Z"/>
        </g>
      </g>
    </g>
    <circle class="cls-7" cx="165.64" cy="102.74" r="12.76"/>
    <g>
      <path class="cls-2" d="m165.64,98.53l-9.92,4.51,9.92,5.86,9.92-5.86-9.92-4.51Z"/>
      <path class="cls-1" d="m155.72,103.04l9.92,5.86v-22.32l-9.92,16.46Z"/>
      <path class="cls-3" d="m165.64,86.59v22.32l9.92-5.86-9.92-16.46Z"/>
      <path class="cls-1" d="m155.72,104.92l9.92,13.98v-8.12l-9.92-5.86Z"/>
      <path class="cls-3" d="m165.64,110.78v8.12l9.92-13.98-9.92,5.86Z"/>
    </g>
    <g>
      <g>
        <path class="cls-7" d="m134.58,103.57c-.09-.09-.14-.21-.14-.34,0-1.26,1.02-2.28,2.28-2.28h2.54c.61,0,1.18.24,1.61.67s.67,1,.67,1.61c0,1.26-1.02,2.28-2.28,2.28h-1.16c-.27,0-.49-.22-.49-.49,0-.27.22-.49.49-.49h1.16c.72,0,1.31-.59,1.31-1.31,0-.35-.14-.68-.38-.93s-.58-.38-.93-.38h-2.54c-.72,0-1.31.59-1.31,1.31,0,.27-.22.49-.49.49-.13,0-.26-.05-.34-.14h0Z"/>
        <path class="cls-7" d="m130.88,104.84c-.43-.43-.67-1-.67-1.61,0-1.26,1.02-2.28,2.28-2.28h1.16c.27,0,.49.22.49.49,0,.27-.22.49-.49.49h-1.16c-.72,0-1.31.59-1.31,1.31,0,.35.14.68.38.93s.58.38.93.38h2.54c.72,0,1.31-.59,1.31-1.31,0-.27.22-.49.49-.49.27,0,.49.22.49.49,0,1.26-1.02,2.28-2.28,2.28h-2.54c-.61,0-1.18-.24-1.61-.67h0Z"/>
      </g>
      <g>
        <path class="cls-7" d="m145.92,103.57c-.09-.09-.14-.21-.14-.34,0-1.26,1.02-2.28,2.28-2.28h2.54c.61,0,1.18.24,1.61.67s.67,1,.67,1.61c0,1.26-1.02,2.28-2.28,2.28h-1.16c-.27,0-.49-.22-.49-.49,0-.27.22-.49.49-.49h1.16c.72,0,1.31-.59,1.31-1.31,0-.35-.14-.68-.38-.93s-.58-.38-.93-.38h-2.54c-.72,0-1.31.59-1.31,1.31,0,.27-.22.49-.49.49-.13,0-.26-.05-.34-.14h0Z"/>
        <path class="cls-7" d="m142.21,104.84c-.43-.43-.67-1-.67-1.61,0-1.26,1.02-2.28,2.28-2.28h1.16c.27,0,.49.22.49.49,0,.27-.22.49-.49.49h-1.16c-.72,0-1.31.59-1.31,1.31,0,.35.14.68.38.93s.58.38.93.38h2.54c.72,0,1.31-.59,1.31-1.31,0-.27.22-.49.49-.49.27,0,.49.22.49.49,0,1.26-1.02,2.28-2.28,2.28h-2.54c-.61,0-1.18-.24-1.61-.67h0Z"/>
      </g>
    </g>
    <g>
      <circle class="cls-7" cx="212.28" cy="102.74" r="12.76"/>
      <g>
        <path class="cls-2" d="m212.27,98.53l-9.92,4.51,9.92,5.86,9.92-5.86-9.92-4.51Z"/>
        <path class="cls-1" d="m202.36,103.04l9.92,5.86v-22.32l-9.92,16.46Z"/>
        <path class="cls-3" d="m212.28,86.59v22.32l9.92-5.86-9.92-16.46Z"/>
        <path class="cls-1" d="m202.36,104.92l9.92,13.98v-8.12l-9.92-5.86Z"/>
        <path class="cls-3" d="m212.27,110.78v8.12l9.92-13.98-9.92,5.86Z"/>
      </g>
      <g>
        <g>
          <path class="cls-7" d="m181.22,103.57c-.09-.09-.14-.21-.14-.34,0-1.26,1.02-2.28,2.28-2.28h2.54c.61,0,1.18.24,1.61.67s.67,1,.67,1.61c0,1.26-1.02,2.28-2.28,2.28h-1.16c-.27,0-.49-.22-.49-.49,0-.27.22-.49.49-.49h1.16c.72,0,1.31-.59,1.31-1.31,0-.35-.14-.68-.38-.93s-.58-.38-.93-.38h-2.54c-.72,0-1.31.59-1.31,1.31,0,.27-.22.49-.49.49-.13,0-.26-.05-.34-.14h0Z"/>
          <path class="cls-7" d="m177.51,104.84c-.43-.43-.67-1-.67-1.61,0-1.26,1.02-2.28,2.28-2.28h1.16c.27,0,.49.22.49.49,0,.27-.22.49-.49.49h-1.16c-.72,0-1.31.59-1.31,1.31,0,.35.14.68.38.93s.58.38.93.38h2.54c.72,0,1.31-.59,1.31-1.31,0-.27.22-.49.49-.49.27,0,.49.22.49.49,0,1.26-1.02,2.28-2.28,2.28h-2.54c-.61,0-1.18-.24-1.61-.67h0Z"/>
        </g>
        <g>
          <path class="cls-7" d="m192.56,103.57c-.09-.09-.14-.21-.14-.34,0-1.26,1.02-2.28,2.28-2.28h2.54c.61,0,1.18.24,1.61.67s.67,1,.67,1.61c0,1.26-1.02,2.28-2.28,2.28h-1.16c-.27,0-.49-.22-.49-.49,0-.27.22-.49.49-.49h1.16c.72,0,1.31-.59,1.31-1.31,0-.35-.14-.68-.38-.93s-.58-.38-.93-.38h-2.54c-.72,0-1.31.59-1.31,1.31,0,.27-.22.49-.49.49-.13,0-.26-.05-.34-.14h0Z"/>
          <path class="cls-7" d="m188.85,104.84c-.43-.43-.67-1-.67-1.61,0-1.26,1.02-2.28,2.28-2.28h1.16c.27,0,.49.22.49.49,0,.27-.22.49-.49.49h-1.16c-.72,0-1.31.59-1.31,1.31,0,.35.14.68.38.93s.58.38.93.38h2.54c.72,0,1.31-.59,1.31-1.31,0-.27.22-.49.49-.49.27,0,.49.22.49.49,0,1.26-1.02,2.28-2.28,2.28h-2.54c-.61,0-1.18-.24-1.61-.67h0Z"/>
        </g>
      </g>
    </g>
    <g>
      <circle class="cls-7" cx="260.47" cy="102.74" r="12.76"/>
      <g>
        <path class="cls-2" d="m260.46,98.53l-9.92,4.51,9.92,5.86,9.92-5.86-9.92-4.51Z"/>
        <path class="cls-1" d="m250.55,103.04l9.92,5.86v-22.32l-9.92,16.46Z"/>
        <path class="cls-3" d="m260.47,86.59v22.32l9.92-5.86-9.92-16.46Z"/>
        <path class="cls-1" d="m250.54,104.92l9.92,13.98v-8.12l-9.92-5.86Z"/>
        <path class="cls-3" d="m260.46,110.78v8.12l9.92-13.98-9.92,5.86Z"/>
      </g>
      <g>
        <g>
          <path class="cls-7" d="m229.41,103.57c-.09-.09-.14-.21-.14-.34,0-1.26,1.02-2.28,2.28-2.28h2.54c.61,0,1.18.24,1.61.67s.67,1,.67,1.61c0,1.26-1.02,2.28-2.28,2.28h-1.16c-.27,0-.49-.22-.49-.49,0-.27.22-.49.49-.49h1.16c.72,0,1.31-.59,1.31-1.31,0-.35-.14-.68-.38-.93s-.58-.38-.93-.38h-2.54c-.72,0-1.31.59-1.31,1.31,0,.27-.22.49-.49.49-.13,0-.26-.05-.34-.14h0Z"/>
          <path class="cls-7" d="m225.7,104.84c-.43-.43-.67-1-.67-1.61,0-1.26,1.02-2.28,2.28-2.28h1.16c.27,0,.49.22.49.49,0,.27-.22.49-.49.49h-1.16c-.72,0-1.31.59-1.31,1.31,0,.35.14.68.38.93s.58.38.93.38h2.54c.72,0,1.31-.59,1.31-1.31,0-.27.22-.49.49-.49.27,0,.49.22.49.49,0,1.26-1.02,2.28-2.28,2.28h-2.54c-.61,0-1.18-.24-1.61-.67h0Z"/>
        </g>
        <g>
          <path class="cls-7" d="m240.75,103.57c-.09-.09-.14-.21-.14-.34,0-1.26,1.02-2.28,2.28-2.28h2.54c.61,0,1.18.24,1.61.67s.67,1,.67,1.61c0,1.26-1.02,2.28-2.28,2.28h-1.16c-.27,0-.49-.22-.49-.49,0-.27.22-.49.49-.49h1.16c.72,0,1.31-.59,1.31-1.31,0-.35-.14-.68-.38-.93s-.58-.38-.93-.38h-2.54c-.72,0-1.31.59-1.31,1.31,0,.27-.22.49-.49.49-.13,0-.26-.05-.34-.14h0Z"/>
          <path class="cls-7" d="m237.04,104.84c-.43-.43-.67-1-.67-1.61,0-1.26,1.02-2.28,2.28-2.28h1.16c.27,0,.49.22.49.49,0,.27-.22.49-.49.49h-1.16c-.72,0-1.31.59-1.31,1.31,0,.35.14.68.38.93s.58.38.93.38h2.54c.72,0,1.31-.59,1.31-1.31,0-.27.22-.49.49-.49.27,0,.49.22.49.49,0,1.26-1.02,2.28-2.28,2.28h-2.54c-.61,0-1.18-.24-1.61-.67h0Z"/>
        </g>
      </g>
    </g>
    <g>
      <path class="cls-7" d="m51.13,103.57c-.09-.09-.14-.21-.14-.34,0-1.26,1.02-2.28,2.28-2.28h2.54c.61,0,1.18.24,1.61.67s.67,1,.67,1.61c0,1.26-1.02,2.28-2.28,2.28h-1.16c-.27,0-.49-.22-.49-.49,0-.27.22-.49.49-.49h1.16c.72,0,1.31-.59,1.31-1.31,0-.35-.14-.68-.38-.93s-.58-.38-.93-.38h-2.54c-.72,0-1.31.59-1.31,1.31,0,.27-.22.49-.49.49-.13,0-.26-.05-.34-.14h0Z"/>
      <path class="cls-7" d="m47.42,104.84c-.43-.43-.67-1-.67-1.61,0-1.26,1.02-2.28,2.28-2.28h1.16c.27,0,.49.22.49.49,0,.27-.22.49-.49.49h-1.16c-.72,0-1.31.59-1.31,1.31,0,.35.14.68.38.93s.58.38.93.38h2.54c.72,0,1.31-.59,1.31-1.31,0-.27.22-.49.49-.49.27,0,.49.22.49.49,0,1.26-1.02,2.28-2.28,2.28h-2.54c-.61,0-1.18-.24-1.61-.67h0Z"/>
    </g>
    <g>
      <path class="cls-10" d="m51.13,35.1c-.09-.09-.14-.21-.14-.34,0-1.26,1.02-2.28,2.28-2.28h2.54c.61,0,1.18.24,1.61.67s.67,1,.67,1.61c0,1.26-1.02,2.28-2.28,2.28h-1.16c-.27,0-.49-.22-.49-.49,0-.27.22-.49.49-.49h1.16c.72,0,1.31-.59,1.31-1.31,0-.35-.14-.68-.38-.93s-.58-.38-.93-.38h-2.54c-.72,0-1.31.59-1.31,1.31,0,.27-.22.49-.49.49-.13,0-.26-.05-.34-.14h0Z"/>
      <path class="cls-10" d="m47.42,36.37c-.43-.43-.67-1-.67-1.61,0-1.26,1.02-2.28,2.28-2.28h1.16c.27,0,.49.22.49.49,0,.27-.22.49-.49.49h-1.16c-.72,0-1.31.59-1.31,1.31,0,.35.14.68.38.93s.58.38.93.38h2.54c.72,0,1.31-.59,1.31-1.31,0-.27.22-.49.49-.49.27,0,.49.22.49.49,0,1.26-1.02,2.28-2.28,2.28h-2.54c-.61,0-1.18-.24-1.61-.67h0Z"/>
    </g>
    <g>
      <path class="cls-10" d="m277.6,34.27c-.09-.09-.14-.21-.14-.34,0-1.26,1.02-2.28,2.28-2.28h2.54c.61,0,1.18.24,1.61.67s.67,1,.67,1.61c0,1.26-1.02,2.28-2.28,2.28h-1.16c-.27,0-.49-.22-.49-.49,0-.27.22-.49.49-.49h1.16c.72,0,1.31-.59,1.31-1.31,0-.35-.14-.68-.38-.93s-.58-.38-.93-.38h-2.54c-.72,0-1.31.59-1.31,1.31,0,.27-.22.49-.49.49-.13,0-.26-.05-.34-.14h0Z"/>
      <path class="cls-10" d="m273.89,35.54c-.43-.43-.67-1-.67-1.61,0-1.26,1.02-2.28,2.28-2.28h1.16c.27,0,.49.22.49.49,0,.27-.22.49-.49.49h-1.16c-.72,0-1.31.59-1.31,1.31,0,.35.14.68.38.93s.58.38.93.38h2.54c.72,0,1.31-.59,1.31-1.31,0-.27.22-.49.49-.49.27,0,.49.22.49.49,0,1.26-1.02,2.28-2.28,2.28h-2.54c-.61,0-1.18-.24-1.61-.67h0Z"/>
    </g>
    <g>
      <path class="cls-7" d="m277.6,103.57c-.09-.09-.14-.21-.14-.34,0-1.26,1.02-2.28,2.28-2.28h2.54c.61,0,1.18.24,1.61.67s.67,1,.67,1.61c0,1.26-1.02,2.28-2.28,2.28h-1.16c-.27,0-.49-.22-.49-.49,0-.27.22-.49.49-.49h1.16c.72,0,1.31-.59,1.31-1.31,0-.35-.14-.68-.38-.93s-.58-.38-.93-.38h-2.54c-.72,0-1.31.59-1.31,1.31,0,.27-.22.49-.49.49-.13,0-.26-.05-.34-.14h0Z"/>
      <path class="cls-7" d="m273.89,104.84c-.43-.43-.67-1-.67-1.61,0-1.26,1.02-2.28,2.28-2.28h1.16c.27,0,.49.22.49.49,0,.27-.22.49-.49.49h-1.16c-.72,0-1.31.59-1.31,1.31,0,.35.14.68.38.93s.58.38.93.38h2.54c.72,0,1.31-.59,1.31-1.31,0-.27.22-.49.49-.49.27,0,.49.22.49.49,0,1.26-1.02,2.28-2.28,2.28h-2.54c-.61,0-1.18-.24-1.61-.67h0Z"/>
    </g>
  </g>
</svg>