<?xml version="1.0" encoding="UTF-8"?>
<svg id="_レイヤー_2" data-name="レイヤー 2" xmlns="http://www.w3.org/2000/svg" xmlns:xlink="http://www.w3.org/1999/xlink" viewBox="0 0 297.64 118.9">
  <defs>
    <style>
      .cls-1 {
        letter-spacing: -.16em;
      }

      .cls-2 {
        letter-spacing: -.08em;
      }

      .cls-3 {
        letter-spacing: -.16em;
      }

      .cls-4 {
        letter-spacing: -.16em;
      }

      .cls-5 {
        letter-spacing: -.09em;
      }

      .cls-6 {
        letter-spacing: -.09em;
      }

      .cls-7 {
        letter-spacing: -.13em;
      }

      .cls-8 {
        letter-spacing: -.03em;
      }

      .cls-9 {
        letter-spacing: -.14em;
      }

      .cls-10 {
        letter-spacing: -.12em;
      }

      .cls-11 {
        letter-spacing: -.18em;
      }

      .cls-12 {
        fill: #3e80b8;
        font-family: NotoSansJP-Medium-83pv-RKSJ-H, 'Noto Sans JP';
        font-size: 9px;
        font-weight: 500;
      }

      .cls-13 {
        letter-spacing: -.17em;
      }

      .cls-14 {
        letter-spacing: -.17em;
      }

      .cls-15 {
        letter-spacing: -.03em;
      }

      .cls-16 {
        letter-spacing: -.06em;
      }

      .cls-17 {
        letter-spacing: -.06em;
      }

      .cls-18 {
        letter-spacing: -.2em;
      }

      .cls-19 {
        letter-spacing: -.09em;
      }

      .cls-20 {
        letter-spacing: -.08em;
      }

      .cls-21 {
        letter-spacing: -.25em;
      }

      .cls-22 {
        fill: #93bc55;
      }

      .cls-22, .cls-23, .cls-24, .cls-25 {
        stroke-width: 0px;
      }

      .cls-23 {
        fill: #cae9f8;
      }

      .cls-24 {
        fill: #fff;
      }

      .cls-25 {
        fill: #e7b21d;
      }
    </style>
  </defs>
  <g id="Working">
    <g>
      <rect class="cls-24" width="297.64" height="113.39"/>
      <g>
        <path class="cls-22" d="m286.23,53.42c-.39,0-.76,0-1.13,0-2.22.01-4.45-.08-6.66.07-4.14.28-7.1,3.63-6.99,7.73.1,4.02,3.36,7.22,7.48,7.3,2.1.04,4.2,0,6.29,0,.33,0,.67,0,.94,0,0,1.99.24,3.89-.05,5.71-.51,3.18-3.63,5.33-7.34,5.34-5.48.02-10.96,0-16.44,0-6.45,0-12.9,0-19.35,0-1.77,0-3.42-.39-4.87-1.44-1.84-1.33-2.83-3.13-2.83-5.43,0-10.87,0-21.73,0-32.6,0-2.07,1.02-3.59,2.8-4.42,1.27-.59,2.74-1.04,4.12-1.05,12.12-.08,24.23-.05,36.35-.04,1.83,0,3.54.46,4.99,1.62,1.24.99,1.97,2.24,1.91,3.88-.03.81,0,1.63,0,2.44,0,.58.05,1.24-.75,1.25-.87.01-.81-.69-.81-1.3,0-.66-.04-1.32,0-1.97.13-1.83-.81-3.01-2.37-3.66-.93-.38-1.99-.63-3-.63-12.12-.04-24.23-.03-36.35-.03-1.45,0-2.8.35-3.95,1.26-1.74,1.36-1.75,3.23,0,4.57,1.35,1.04,2.92,1.37,4.59,1.37,5.35,0,10.71,0,16.06,0,6.7,0,13.4-.01,20.1,0,3.67,0,6.75,2.38,7.23,5.71.2,1.37.03,2.79.03,4.3Z"/>
        <path class="cls-22" d="m286.19,55.08v11.83c-.78,0-1.52,0-2.25,0-1.69,0-3.38.02-5.06,0-3.1-.05-5.66-2.49-5.83-5.5-.17-3.2,2.04-6.04,5.18-6.28,2.6-.2,5.23-.04,7.96-.04Zm-4.66,5.85c0-1.83-1.53-3.34-3.36-3.33-1.8.01-3.28,1.49-3.3,3.3-.02,1.85,1.47,3.36,3.31,3.37,1.84,0,3.35-1.5,3.35-3.34Z"/>
        <path class="cls-22" d="m260.05,40.49c-6.29,0-12.59,0-18.88,0-.34,0-.73.09-1.02-.04-.31-.14-.73-.49-.73-.75,0-.26.41-.59.7-.78.18-.12.49-.04.74-.04,12.87,0,25.73,0,38.6,0,.22,0,.5-.08.64.03.29.22.66.51.71.81.03.21-.39.58-.68.72-.25.13-.61.04-.93.04-6.39,0-12.77,0-19.16,0Z"/>
        <path class="cls-24" d="m281.53,60.93c0,1.84-1.51,3.35-3.35,3.34-1.84,0-3.33-1.52-3.31-3.37.02-1.81,1.49-3.29,3.3-3.3,1.84-.01,3.36,1.5,3.36,3.33Z"/>
      </g>
      <text class="cls-12" transform="translate(10.64 109.48)"><tspan class="cls-6" x="0" y="0">マ</tspan><tspan class="cls-7" x="8.23" y="0">イ</tspan><tspan class="cls-20" x="16.08" y="0">ナ</tspan><tspan class="cls-5" x="24.4" y="0">ン</tspan><tspan class="cls-8" x="32.62" y="0">バ</tspan><tspan class="cls-15" x="41.34" y="0">ー</tspan><tspan class="cls-16" x="50.05" y="0">カ</tspan><tspan class="cls-10" x="58.54" y="0">ー</tspan><tspan class="cls-19" x="66.41" y="0">ド</tspan></text>
      <text class="cls-12" transform="translate(131.83 109.48)"><tspan class="cls-9" x="0" y="0">ス</tspan><tspan class="cls-17" x="7.77" y="0">マ</tspan><tspan class="cls-1" x="16.26" y="0">ー</tspan><tspan class="cls-3" x="23.85" y="0">ト</tspan><tspan class="cls-18" x="31.45" y="0">フ</tspan><tspan class="cls-4" x="38.64" y="0">ォ</tspan><tspan class="cls-17" x="46.16" y="0">ン</tspan></text>
      <text class="cls-12" transform="translate(243.71 109.48)"><tspan class="cls-11" x="0" y="0">ウ</tspan><tspan class="cls-14" x="7.42" y="0">ォ</tspan><tspan class="cls-13" x="14.89" y="0">レ</tspan><tspan class="cls-21" x="22.39" y="0">ッ</tspan><tspan class="cls-2" x="29.12" y="0">ト</tspan></text>
      <image width="5120" height="2880" transform="translate(82.2 4.62) scale(.03)" xlink:href="../../References/m_01_white.png"/>
      <image width="5308" height="3320" transform="translate(8.5 31.87) scale(.01)" xlink:href="../../References/s_01.png"/>
      <g>
        <polygon class="cls-23" points="209.08 46.03 209.08 74.55 223.34 60.29 209.08 46.03"/>
        <rect class="cls-23" x="199.84" y="53.25" width="9.24" height="14.09"/>
      </g>
      <g>
        <polygon class="cls-23" points="104.2 45.3 104.2 73.82 118.46 59.56 104.2 45.3"/>
        <rect class="cls-23" x="94.96" y="52.51" width="9.24" height="14.09"/>
      </g>
      <g>
        <path class="cls-25" d="m243.71,88.85h-1.51c-.28-.03-.55-.06-.83-.11-2.67-.4-4.95-1.57-6.76-3.57-2.38-2.63-3.34-5.74-2.88-9.25.35-2.68,1.56-4.95,3.55-6.77,2.63-2.39,5.73-3.33,9.24-2.89,1.89.24,3.61.95,5.14,2.09,2.49,1.87,4,4.34,4.49,7.42.05.32.09.64.13.96v1.51c-.03.27-.06.54-.1.8-.32,2.21-1.2,4.18-2.67,5.86-1.83,2.09-4.12,3.36-6.87,3.79-.31.05-.62.09-.93.13Zm-10.2-11.33c.01,5.23,4.23,9.44,9.44,9.44,5.22,0,9.45-4.24,9.44-9.46,0-5.2-4.26-9.44-9.46-9.43-5.22.01-9.44,4.25-9.43,9.45Z"/>
        <path class="cls-24" d="m233.51,77.52c-.01-5.21,4.21-9.44,9.43-9.45,5.2-.01,9.45,4.22,9.46,9.43,0,5.22-4.22,9.46-9.44,9.46-5.22,0-9.43-4.21-9.44-9.44Zm4.78-3.37c.33,0,.64,0,.96,0,.45.02.57.15.57.6,0,.75,0,1.51,0,2.26,0,1.02,0,2.04,0,3.06,0,.44-.17.6-.6.6-.26,0-.53,0-.8,0v1.31h2.38v1.99h1.24v-1.98h.83v1.98h1.21v-1.97c.42-.03.82-.05,1.21-.1.66-.09,1.27-.32,1.74-.82.49-.53.65-1.18.67-1.87.02-.67-.19-1.26-.7-1.7-.26-.23-.59-.39-.89-.57.09-.08.23-.18.35-.3.85-.83.88-2.39-.28-3.09-.59-.36-1.24-.54-1.92-.62-.16-.02-.22-.06-.21-.23,0-.46,0-.92,0-1.37,0-.14,0-.27,0-.41h-1.25v1.95h-.82v-1.95h-1.24v1.97h-2.46v1.27Z"/>
        <path class="cls-25" d="m238.29,74.14v-1.27h2.46v-1.97h1.24v1.95h.82v-1.95h1.25c0,.14,0,.28,0,.41,0,.46,0,.92,0,1.37,0,.16.05.21.21.23.68.08,1.32.26,1.92.62,1.16.7,1.13,2.27.28,3.09-.12.12-.26.22-.35.3.3.19.63.34.89.57.51.44.72,1.03.7,1.7-.02.69-.18,1.34-.67,1.87-.47.5-1.08.73-1.74.82-.39.06-.79.07-1.21.1v1.97h-1.21v-1.98h-.83v1.98h-1.24v-1.99h-2.38v-1.31c.27,0,.53,0,.8,0,.43,0,.6-.16.6-.6,0-1.02,0-2.04,0-3.06,0-.75,0-1.51,0-2.26,0-.45-.12-.58-.57-.6-.31-.01-.63,0-.96,0Zm3.71,3.75v2.62c.59,0,1.16.03,1.73,0,.47-.03.91-.16,1.25-.53.47-.51.43-1.35-.08-1.72-.14-.1-.3-.17-.45-.22-.8-.25-1.62-.1-2.45-.15Zm0-1.27c.54,0,1.06.02,1.57,0,.19-.01.41-.09.57-.2.44-.28.6-.71.54-1.22-.06-.49-.4-.71-.83-.84-.6-.19-1.22-.11-1.85-.13v2.4Z"/>
        <path class="cls-24" d="m242,77.89c.82.05,1.65-.1,2.45.15.16.05.32.12.45.22.52.36.55,1.2.08,1.72-.34.37-.78.5-1.25.53-.57.03-1.15,0-1.73,0v-2.62Z"/>
        <path class="cls-24" d="m242,76.62v-2.4c.63.02,1.25-.06,1.85.13.43.13.77.35.83.84.06.51-.1.94-.54,1.22-.17.11-.38.19-.57.2-.51.03-1.03,0-1.57,0Z"/>
      </g>
    </g>
  </g>
</svg>