<?xml version="1.0" encoding="UTF-8"?>
<svg id="_レイヤー_2" data-name="レイヤー 2" xmlns="http://www.w3.org/2000/svg" viewBox="0 0 279.38 111.8">
  <defs>
    <style>
      .cls-1 {
        letter-spacing: -.03em;
      }

      .cls-2 {
        letter-spacing: -.03em;
      }

      .cls-3 {
        font-size: 10.66px;
      }

      .cls-3, .cls-4, .cls-5, .cls-6 {
        font-family: NotoSansJP-Bold-83pv-RKSJ-H, 'Noto Sans JP';
        font-weight: 700;
      }

      .cls-3, .cls-7, .cls-6 {
        fill: #fff;
      }

      .cls-8 {
        letter-spacing: 0em;
      }

      .cls-4 {
        font-size: 12.8px;
      }

      .cls-4, .cls-5, .cls-9 {
        fill: #231815;
      }

      .cls-10 {
        letter-spacing: -.03em;
      }

      .cls-5 {
        font-size: 7.47px;
      }

      .cls-11 {
        letter-spacing: 0em;
      }

      .cls-12 {
        letter-spacing: 0em;
      }

      .cls-13 {
        fill: none;
      }

      .cls-13, .cls-14 {
        stroke: #231815;
        stroke-miterlimit: 10;
      }

      .cls-14 {
        fill: #1b82bd;
        stroke-width: 1.5px;
      }

      .cls-15 {
        letter-spacing: 0em;
      }

      .cls-16 {
        letter-spacing: -.01em;
      }

      .cls-17 {
        fill: #f7c263;
      }

      .cls-17, .cls-18, .cls-9, .cls-19, .cls-7, .cls-20 {
        stroke-width: 0px;
      }

      .cls-18 {
        fill: #3c84c1;
      }

      .cls-19 {
        fill: #241412;
      }

      .cls-20 {
        fill: #efdbbc;
      }

      .cls-6 {
        font-size: 6.4px;
      }
    </style>
  </defs>
  <g id="Working">
    <ellipse class="cls-20" cx="44.55" cy="59.99" rx="44.55" ry="51.81"/>
    <path class="cls-7" d="m23.37,72.33c0,2.71,2.2,4.9,4.9,4.9h33.59c2.71,0,4.9-2.2,4.9-4.9v-4.66H23.37s0,4.66,0,4.66Z"/>
    <path class="cls-7" d="m66.77,9.3c0-2.71-2.2-4.9-4.9-4.9h0s-33.59,0-33.59,0c-2.71,0-4.9,2.2-4.9,4.9h0v4.66h43.4v-4.66Z"/>
    <path class="cls-18" d="m64.45,13.95c-12.51,0-28.91,0-40.9.01h-.18v53.71h.18c12.75,0,30.48,0,43.23-.01V13.95h-2.32Z"/>
    <path class="cls-19" d="m66.77,13.15h-11.71s-10.69,0-10.69,0h-11s-9.12,0-9.12,0h-.89c-1.03,0-1.03,1.6,0,1.6,2.91,0,5.81,0,8.72,0h10.88s10.85,0,10.85,0h8.63c1.41,0,2.82.03,4.22,0h.11c1.03,0,1.03-1.6,0-1.6h0Z"/>
    <path class="cls-19" d="m23.37,68.48c5.5-.01,11-.01,16.5,0h17.76s9.14,0,9.14,0c1.03,0,1.03-1.6,0-1.6h-16.75s-17.74.01-17.74.01c-2.97,0-5.94,0-8.91,0-1.03,0-1.03,1.6,0,1.6h0Z"/>
    <path class="cls-19" d="m61.87,76.43H29.14c-.28,0-.55,0-.83,0-2.27.02-4.12-1.8-4.14-4.06,0-.03,0-.05,0-.08V10.03c0-.91.01-1.77.45-2.61.71-1.36,2.12-2.22,3.65-2.23.19,0,.38,0,.58,0h30.47c.84,0,1.68,0,2.52,0,2.28,0,4.13,1.86,4.14,4.15.01,1.7,0,3.41,0,5.11v52.34c0,1.82,0,3.63,0,5.45.02,2.29-1.81,4.17-4.1,4.19-1.03.01-1.03,1.61,0,1.6,3.15-.04,5.69-2.6,5.71-5.75,0-.54,0-1.08,0-1.62V10.74c0-.48,0-.95,0-1.43-.03-3.15-2.57-5.69-5.72-5.72-2.65-.02-5.29,0-7.94,0h-25.13c-.25,0-.5,0-.74,0-1.86.09-3.56,1.07-4.58,2.63-.72,1.12-.89,2.37-.89,3.66v62c0,1.65.45,3.21,1.63,4.43,1.08,1.09,2.55,1.71,4.09,1.71.25,0,.5,0,.75,0h32.82c1.03,0,1.03-1.6,0-1.6Z"/>
    <path class="cls-7" d="m59.47,23.42h-28.79v34.78h28.79V23.42Z"/>
    <path class="cls-19" d="m59.47,22.62h-28.79c-.44,0-.8.36-.8.8v34.78c0,.44.36.8.8.8h28.79c.44,0,.8-.36.8-.8v-30.52c0-1.4.05-2.81,0-4.2v-.06c0-1.03-1.6-1.03-1.6,0v33.31c0,.46-.04.94,0,1.4v.07l.8-.8h-28.79l.8.8V23.42l-.8.8h28.79c1.03,0,1.03-1.6,0-1.6Z"/>
    <path class="cls-19" d="m34.47,35.96h12.4c1.03,0,1.03-1.6,0-1.6h-12.4c-1.03,0-1.03,1.6,0,1.6Z"/>
    <path class="cls-17" d="m34.88,39.43h-.4v4.62h21.19v-4.62h-20.78Z"/>
    <path class="cls-19" d="m48.59,39.43v13.87h1.6v-.35c0-1.03-1.6-1.03-1.6,0v.35c0,1.03,1.6,1.03,1.6,0v-13.87c0-1.03-1.6-1.03-1.6,0Z"/>
    <path class="cls-19" d="m34.59,44.86h21.07c1.03,0,1.03-1.6,0-1.6h-21.07c-1.03,0-1.03,1.6,0,1.6Z"/>
    <path class="cls-19" d="m34.67,49.49h20.99c1.03,0,1.03-1.6,0-1.6h-20.99c-1.03,0-1.03,1.6,0,1.6Z"/>
    <path class="cls-19" d="m56.46,53.31v-13.87c0-1.03-1.6-1.03-1.6,0,0,4.62,0,9.25,0,13.87,0,1.03,1.6,1.03,1.6,0Z"/>
    <path class="cls-19" d="m34.47,54.11h21.19c1.03,0,1.03-1.6,0-1.6h-21.19c-1.03,0-1.03,1.6,0,1.6Z"/>
    <path class="cls-19" d="m33.67,39.43v13.87c0,1.03,1.6,1.03,1.6,0v-13.87c0-1.03-1.6-1.03-1.6,0Z"/>
    <path class="cls-19" d="m55.66,38.63h-21.19c-1.03,0-1.03,1.6,0,1.6h21.19c1.03,0,1.03-1.6,0-1.6Z"/>
    <path class="cls-19" d="m48.39,29.22h6.94c1.03,0,1.03-1.6,0-1.6h-6.94c-1.03,0-1.03,1.6,0,1.6Z"/>
    <text class="cls-4" transform="translate(12.35 92.77)"><tspan x="0" y="0">0x8...34</tspan><tspan class="cls-11" x="49.82" y="0">f</tspan><tspan class="cls-8" x="54.48" y="0">s</tspan></text>
    <ellipse class="cls-20" cx="234.83" cy="56.41" rx="44.55" ry="51.81"/>
    <path class="cls-7" d="m213.64,68.75c0,2.71,2.2,4.9,4.9,4.9h33.59c2.71,0,4.9-2.2,4.9-4.9v-4.66h-43.4s0,4.66,0,4.66Z"/>
    <path class="cls-7" d="m257.05,5.72c0-2.71-2.2-4.9-4.9-4.9h0s-33.59,0-33.59,0c-2.71,0-4.9,2.2-4.9,4.9h0v4.66h43.4v-4.66Z"/>
    <path class="cls-18" d="m254.72,10.37c-12.51,0-28.91,0-40.9.01h-.18v53.71h.18c12.75,0,30.48,0,43.23-.01V10.37h-2.32Z"/>
    <path class="cls-19" d="m257.05,9.57h-11.71s-10.69,0-10.69,0h-11s-9.12,0-9.12,0h-.89c-1.03,0-1.03,1.6,0,1.6,2.91,0,5.81,0,8.72,0h10.88s10.85,0,10.85,0h8.63c1.41,0,2.82.03,4.22,0h.11c1.03,0,1.03-1.6,0-1.6h0Z"/>
    <path class="cls-19" d="m213.64,64.9c5.5-.01,11-.01,16.5,0h17.76s9.14,0,9.14,0c1.03,0,1.03-1.6,0-1.6h-16.75s-17.74.01-17.74.01c-2.97,0-5.94,0-8.91,0-1.03,0-1.03,1.6,0,1.6h0Z"/>
    <path class="cls-19" d="m252.14,72.85h-32.72c-.28,0-.55,0-.83,0-2.27.02-4.12-1.8-4.14-4.06,0-.03,0-.05,0-.08V6.45c0-.91.01-1.77.45-2.61.71-1.36,2.12-2.22,3.65-2.23.19,0,.38,0,.58,0h30.47c.84,0,1.68,0,2.52,0,2.28,0,4.13,1.86,4.14,4.15.01,1.7,0,3.41,0,5.11v52.34c0,1.82,0,3.63,0,5.45.02,2.29-1.81,4.17-4.1,4.19-1.03.01-1.03,1.61,0,1.6,3.15-.04,5.69-2.6,5.71-5.75,0-.54,0-1.08,0-1.62V7.16c0-.48,0-.95,0-1.43-.03-3.15-2.57-5.69-5.72-5.72-2.65-.02-5.29,0-7.94,0h-25.13c-.25,0-.5,0-.74,0-1.86.09-3.56,1.07-4.58,2.63-.72,1.12-.89,2.37-.89,3.66v62c0,1.65.45,3.21,1.63,4.43,1.08,1.09,2.55,1.71,4.09,1.71.25,0,.5,0,.75,0h32.82c1.03,0,1.03-1.6,0-1.6Z"/>
    <path class="cls-7" d="m249.74,19.84h-28.79v34.78h28.79V19.84Z"/>
    <path class="cls-19" d="m249.74,19.04h-28.79c-.44,0-.8.36-.8.8v34.78c0,.44.36.8.8.8h28.79c.44,0,.8-.36.8-.8v-30.52c0-1.4.05-2.81,0-4.2v-.06c0-1.03-1.6-1.03-1.6,0v33.31c0,.46-.04.94,0,1.4v.07l.8-.8h-28.79l.8.8V19.84l-.8.8h28.79c1.03,0,1.03-1.6,0-1.6Z"/>
    <path class="cls-19" d="m224.75,32.38h12.4c1.03,0,1.03-1.6,0-1.6h-12.4c-1.03,0-1.03,1.6,0,1.6Z"/>
    <path class="cls-17" d="m225.15,35.85h-.4v4.62h21.19v-4.62h-20.78Z"/>
    <path class="cls-19" d="m238.87,35.85v13.87h1.6v-.35c0-1.03-1.6-1.03-1.6,0v.35c0,1.03,1.6,1.03,1.6,0v-13.87c0-1.03-1.6-1.03-1.6,0Z"/>
    <path class="cls-19" d="m224.87,41.28h21.07c1.03,0,1.03-1.6,0-1.6h-21.07c-1.03,0-1.03,1.6,0,1.6Z"/>
    <path class="cls-19" d="m224.94,45.9h20.99c1.03,0,1.03-1.6,0-1.6h-20.99c-1.03,0-1.03,1.6,0,1.6Z"/>
    <path class="cls-19" d="m246.74,49.73v-13.87c0-1.03-1.6-1.03-1.6,0,0,4.62,0,9.25,0,13.87,0,1.03,1.6,1.03,1.6,0Z"/>
    <path class="cls-19" d="m224.75,50.53h21.19c1.03,0,1.03-1.6,0-1.6h-21.19c-1.03,0-1.03,1.6,0,1.6Z"/>
    <path class="cls-19" d="m223.95,35.85v13.87c0,1.03,1.6,1.03,1.6,0v-13.87c0-1.03-1.6-1.03-1.6,0Z"/>
    <path class="cls-19" d="m245.94,35.05h-21.19c-1.03,0-1.03,1.6,0,1.6h21.19c1.03,0,1.03-1.6,0-1.6Z"/>
    <path class="cls-19" d="m238.67,25.64h6.94c1.03,0,1.03-1.6,0-1.6h-6.94c-1.03,0-1.03,1.6,0,1.6Z"/>
    <text class="cls-4" transform="translate(203.93 88.64)"><tspan x="0" y="0">0x0...5z3s</tspan></text>
    <g>
      <line class="cls-13" x1="127.28" y1="59.99" x2="174" y2="59.99"/>
      <polygon class="cls-9" points="172.54 64.98 181.18 59.99 172.54 55.01 172.54 64.98"/>
    </g>
    <polygon class="cls-14" points="113.74 81.96 88.23 82.21 75.26 60.24 87.8 38.02 113.32 37.77 126.29 59.75 113.74 81.96"/>
    <text class="cls-3" transform="translate(87.12 56.69)"><tspan x="0" y="0">1</tspan><tspan class="cls-1" x="6.28" y="0">BT</tspan><tspan x="19.55" y="0">C</tspan></text>
    <text class="cls-6" transform="translate(83.92 67.79)"><tspan x="0" y="0">秘密鍵署名</tspan></text>
    <text class="cls-5" transform="translate(129.8 39.19)"><tspan x="0" y="0">0x0...5z3</tspan><tspan class="cls-12" x="32.88" y="0">s</tspan><tspan class="cls-10" x="36.54" y="0">に</tspan><tspan x="1.46" y="8.96">1</tspan><tspan class="cls-2" x="5.85" y="8.96">BT</tspan><tspan class="cls-15" x="15.14" y="8.96">C</tspan><tspan class="cls-16" x="20.04" y="8.96">の</tspan><tspan x="27.4" y="8.96">送付</tspan></text>
  </g>
</svg>