<?xml version="1.0" encoding="UTF-8"?>
<svg id="_レイヤー_2" data-name="レイヤー 2" xmlns="http://www.w3.org/2000/svg" viewBox="0 0 297.64 163.31">
  <defs>
    <style>
      .cls-1 {
        font-size: 8.03px;
      }

      .cls-1, .cls-2, .cls-3 {
        font-weight: 700;
      }

      .cls-1, .cls-4 {
        fill: #1b82bd;
      }

      .cls-1, .cls-3 {
        font-family: Helvetica-Bold, Helvetica;
      }

      .cls-5, .cls-6, .cls-7, .cls-8, .cls-9, .cls-10 {
        fill: none;
        stroke-miterlimit: 10;
      }

      .cls-5, .cls-9 {
        stroke-width: .99px;
      }

      .cls-5, .cls-9, .cls-10 {
        stroke-linecap: round;
      }

      .cls-5, .cls-10 {
        stroke: #00a1da;
      }

      .cls-11 {
        letter-spacing: -.46em;
      }

      .cls-6 {
        stroke: #000;
      }

      .cls-7 {
        stroke: #808284;
      }

      .cls-8 {
        stroke: #6d6e70;
      }

      .cls-2 {
        font-family: NotoSansJP-Bold-83pv-RKSJ-H, 'Noto Sans JP';
      }

      .cls-2, .cls-3 {
        fill: #221e1f;
        font-size: 6.69px;
      }

      .cls-12 {
        letter-spacing: -.04em;
      }

      .cls-9 {
        stroke: #1b82bd;
      }

      .cls-4 {
        stroke-width: 0px;
      }

      .cls-10 {
        stroke-width: .71px;
      }
    </style>
  </defs>
  <g id="Working">
    <g>
      <g>
        <line class="cls-8" x1="11.58" y1="144.81" x2="276.59" y2="144.81"/>
        <g>
          <line class="cls-6" x1="11.58" y1="144.81" x2="11.58" y2="138.18"/>
          <line class="cls-8" x1="35.68" y1="144.81" x2="35.68" y2="138.18"/>
          <line class="cls-8" x1="59.77" y1="144.81" x2="59.77" y2="138.18"/>
          <line class="cls-8" x1="83.86" y1="144.81" x2="83.86" y2="138.18"/>
          <line class="cls-8" x1="107.95" y1="144.81" x2="107.95" y2="138.18"/>
          <line class="cls-8" x1="132.04" y1="144.81" x2="132.04" y2="138.18"/>
          <line class="cls-8" x1="156.13" y1="144.81" x2="156.13" y2="138.18"/>
          <line class="cls-8" x1="180.23" y1="144.81" x2="180.23" y2="138.18"/>
          <line class="cls-8" x1="204.32" y1="144.81" x2="204.32" y2="138.18"/>
          <line class="cls-8" x1="228.41" y1="144.81" x2="228.41" y2="138.18"/>
          <line class="cls-8" x1="252.5" y1="144.81" x2="252.5" y2="138.18"/>
          <line class="cls-8" x1="276.59" y1="144.81" x2="276.59" y2="138.18"/>
        </g>
      </g>
      <g>
        <g>
          <text class="cls-3" transform="translate(0 146.5)"><tspan x="0" y="0">50</tspan></text>
          <text class="cls-3" transform="translate(0 103.97)"><tspan x="0" y="0">60</tspan></text>
          <text class="cls-3" transform="translate(0 61.43)"><tspan x="0" y="0">70</tspan></text>
          <text class="cls-3" transform="translate(0 18.9)"><tspan x="0" y="0">80</tspan></text>
        </g>
        <line class="cls-7" x1="11.58" y1="144.81" x2="11.58" y2="17.2"/>
        <g>
          <line class="cls-8" x1="11.58" y1="144.81" x2="18.21" y2="144.81"/>
          <line class="cls-7" x1="11.58" y1="102.27" x2="18.21" y2="102.27"/>
          <line class="cls-7" x1="11.58" y1="59.74" x2="18.21" y2="59.74"/>
          <line class="cls-7" x1="11.58" y1="17.2" x2="18.21" y2="17.2"/>
        </g>
      </g>
      <g>
        <text class="cls-3" transform="translate(264.55 156.18)"><tspan x="0" y="0">2021</tspan></text>
        <text class="cls-3" transform="translate(240.46 156.18)"><tspan x="0" y="0">2017</tspan></text>
        <text class="cls-3" transform="translate(216.36 156.18)"><tspan x="0" y="0">2014</tspan></text>
        <text class="cls-3" transform="translate(192.27 156.18)"><tspan x="0" y="0">2012</tspan></text>
        <text class="cls-3" transform="translate(168.18 156.18)"><tspan x="0" y="0">2009</tspan></text>
        <text class="cls-3" transform="translate(144.09 156.18)"><tspan x="0" y="0">2005</tspan></text>
        <text class="cls-3" transform="translate(120 156.18)"><tspan x="0" y="0">2003</tspan></text>
        <text class="cls-3" transform="translate(95.91 156.18)"><tspan x="0" y="0">2000</tspan></text>
        <text class="cls-3" transform="translate(71.81 156.18)"><tspan x="0" y="0">1996</tspan></text>
        <text class="cls-3" transform="translate(47.72 156.18)"><tspan x="0" y="0">1993</tspan></text>
        <text class="cls-3" transform="translate(23.63 156.18)"><tspan x="0" y="0">1990</tspan></text>
      </g>
      <g>
        <g>
          <g>
            <line class="cls-5" x1="58.53" y1="69.53" x2="34.44" y2="43.41"/>
            <line class="cls-10" x1="82.63" y1="102.39" x2="58.53" y2="69.53"/>
            <line class="cls-5" x1="106.72" y1="90.12" x2="82.63" y2="102.39"/>
            <line class="cls-5" x1="130.81" y1="101.48" x2="106.72" y2="90.12"/>
            <line class="cls-5" x1="154.9" y1="68.45" x2="130.81" y2="101.48"/>
            <line class="cls-5" x1="178.99" y1="60.81" x2="154.9" y2="68.45"/>
            <line class="cls-5" x1="203.09" y1="103.81" x2="178.99" y2="60.81"/>
            <line class="cls-9" x1="227.18" y1="132.57" x2="203.09" y2="103.81"/>
            <line class="cls-5" x1="251.27" y1="128.16" x2="227.18" y2="132.57"/>
            <line class="cls-5" x1="275.36" y1="118.45" x2="251.27" y2="128.16"/>
          </g>
          <rect class="cls-4" x="32.84" y="41.8" width="3.21" height="3.21"/>
          <rect class="cls-4" x="56.93" y="68.45" width="3.21" height="3.21"/>
          <rect class="cls-4" x="81.02" y="100.67" width="3.21" height="3.21"/>
          <rect class="cls-4" x="105.11" y="88.52" width="3.21" height="3.21"/>
          <rect class="cls-4" x="129.2" y="99.87" width="3.21" height="3.21"/>
          <rect class="cls-4" x="153.3" y="66.84" width="3.21" height="3.21"/>
          <rect class="cls-4" x="177.39" y="59.2" width="3.21" height="3.21"/>
          <rect class="cls-4" x="201.48" y="102.49" width="3.21" height="3.21"/>
          <rect class="cls-4" x="225.57" y="130.96" width="3.21" height="3.21"/>
          <rect class="cls-4" x="249.66" y="126.55" width="3.21" height="3.21"/>
          <rect class="cls-4" x="273.75" y="116.84" width="3.21" height="3.21"/>
        </g>
        <text class="cls-1" transform="translate(259.62 111.05)"><tspan x="0" y="0">55.93%</tspan></text>
        <text class="cls-1" transform="translate(32.84 35.84)"><tspan x="0" y="0">73.31%</tspan></text>
      </g>
      <text class="cls-2" transform="translate(-2.88 5.89)"><tspan class="cls-12" x="0" y="0">（%</tspan><tspan class="cls-11" x="12.54" y="0">）</tspan></text>
      <text class="cls-2" transform="translate(281.2 156.31)"><tspan class="cls-12" x="0" y="0">（年</tspan><tspan class="cls-11" x="12.8" y="0">）</tspan></text>
    </g>
  </g>
</svg>