<?xml version="1.0" encoding="UTF-8"?>
<svg id="_レイヤー_2" data-name="レイヤー 2" xmlns="http://www.w3.org/2000/svg" viewBox="0 0 287.4 89.45">
  <defs>
    <style>
      .cls-1 {
        font-size: 7px;
      }

      .cls-1, .cls-2 {
        fill: #231815;
      }

      .cls-1, .cls-2, .cls-3 {
        font-family: NotoSansJP-Bold-83pv-RKSJ-H, 'Noto Sans JP';
        font-weight: 700;
      }

      .cls-4 {
        letter-spacing: -.08em;
      }

      .cls-5 {
        letter-spacing: -.05em;
      }

      .cls-6 {
        letter-spacing: 0em;
      }

      .cls-7 {
        letter-spacing: -.08em;
      }

      .cls-8 {
        letter-spacing: -.01em;
      }

      .cls-9 {
        letter-spacing: -.04em;
      }

      .cls-10 {
        letter-spacing: -.06em;
      }

      .cls-11 {
        letter-spacing: -.03em;
      }

      .cls-12 {
        letter-spacing: -.06em;
      }

      .cls-13 {
        letter-spacing: -.03em;
      }

      .cls-14 {
        letter-spacing: -.12em;
      }

      .cls-15 {
        letter-spacing: -.05em;
      }

      .cls-16 {
        letter-spacing: 0em;
      }

      .cls-2, .cls-3 {
        font-size: 5.06px;
      }

      .cls-3, .cls-17 {
        fill: #fff;
      }

      .cls-18 {
        letter-spacing: -.11em;
      }

      .cls-19 {
        letter-spacing: -.01em;
      }

      .cls-20 {
        letter-spacing: -.05em;
      }

      .cls-21 {
        letter-spacing: -.05em;
      }

      .cls-22 {
        letter-spacing: -.07em;
      }

      .cls-23 {
        letter-spacing: -.04em;
      }

      .cls-24 {
        letter-spacing: -.24em;
      }

      .cls-25 {
        letter-spacing: -.03em;
      }

      .cls-26 {
        letter-spacing: -.12em;
      }

      .cls-27 {
        letter-spacing: -.03em;
      }

      .cls-28 {
        letter-spacing: -.02em;
      }

      .cls-29 {
        letter-spacing: -.11em;
      }

      .cls-30 {
        letter-spacing: -.06em;
      }

      .cls-31 {
        letter-spacing: -.06em;
      }

      .cls-32 {
        letter-spacing: -.11em;
      }

      .cls-33 {
        letter-spacing: 0em;
      }

      .cls-34 {
        letter-spacing: -.05em;
      }

      .cls-35 {
        letter-spacing: -.03em;
      }

      .cls-36 {
        letter-spacing: -.08em;
      }

      .cls-37 {
        letter-spacing: -.5em;
      }

      .cls-38 {
        letter-spacing: -.25em;
      }

      .cls-39 {
        letter-spacing: -.5em;
      }

      .cls-40 {
        letter-spacing: -.04em;
      }

      .cls-41 {
        letter-spacing: -.08em;
      }

      .cls-42 {
        letter-spacing: 0em;
      }

      .cls-43 {
        fill: none;
        stroke: #040000;
        stroke-miterlimit: 2;
      }

      .cls-44 {
        letter-spacing: -.06em;
      }

      .cls-45 {
        letter-spacing: -.01em;
      }

      .cls-46 {
        letter-spacing: -.06em;
      }

      .cls-47 {
        fill: #f7c263;
      }

      .cls-47, .cls-48, .cls-49, .cls-50, .cls-51, .cls-52, .cls-17, .cls-53 {
        stroke-width: 0px;
      }

      .cls-48 {
        fill: #3c84c1;
      }

      .cls-49 {
        fill: #1b82bd;
      }

      .cls-50 {
        fill: #241412;
      }

      .cls-51 {
        fill: #8b8580;
      }

      .cls-52 {
        fill: #807873;
      }

      .cls-53 {
        fill: #040000;
      }

      .cls-54 {
        letter-spacing: -.07em;
      }

      .cls-55 {
        letter-spacing: -.23em;
      }

      .cls-56 {
        letter-spacing: -.03em;
      }

      .cls-57 {
        letter-spacing: -.05em;
      }
    </style>
  </defs>
  <g id="Working">
    <path class="cls-17" d="m32.23,24.19c.29-.27.67-.41,1.07-.39.5-.02.98.25,1.23.68.42.73.4,2.06.12,2.89-.2.59-.52,1.48-1.31,2.12-.35.29-.8.42-1.25.36l-.12-.02c-.12.4-.26.79-.43,1.17-.34.92-2.3,4.28-4.72,5.28v1.34c-1.15.91-3.42,2.7-3.64,2.85h-.67c-.22-.15-2.41-1.88-3.58-2.8v-1.35c-1.18-.47-2.21-1.31-3.19-2.48-.98-1.18-1.7-2.55-2.13-4.02-.48.1-.98-.02-1.36-.34-.78-.64-1.11-1.54-1.31-2.12-.28-.83-.3-2.16.12-2.89.25-.44.73-.7,1.23-.68.39-.02.78.12,1.07.39,0,0-1.87-9.02,9.44-9.02,11.56,0,9.44,9.02,9.44,9.02Z"/>
    <path class="cls-52" d="m22.62,59.88c-1.33-3.27-1.67-4.35-2.7-7.54-1.4-4.3-2.7-9.02-3.7-13.44-.45.29-1.01.68-1.58,1.13l-.44.17-1.46.57c-3.54,1.49-6.87,3.03-8.5,5.51-1.16,1.77-2.17,5.68-2.49,8.74-.51,4.78-.59,6.65-1.29,16.12h44.73c-.69-9.47-.78-11.34-1.29-16.12-.32-3.06-1.33-6.97-2.49-8.74-1.63-2.48-4.96-4.02-8.5-5.51l-1.46-.57-.44-.17c-.57-.45-1.13-.84-1.58-1.13-1,4.42-2.3,9.15-3.7,13.44-1.04,3.18-1.38,4.26-2.7,7.54"/>
    <path class="cls-51" d="m10.8,18.01c-.03.23-.05.45-.06.62-.17,2.11.31,3.79.96,5.29.19-.07.38-.11.58-.12.39-.02.78.12,1.07.39l.46.45.02-.2c.06-.73.16-1.45.32-2.16.17-.79.38-1.61,1.09-2.26l1.55-1.09c.41-.02.89-.09,1.22-.07,2.95.1,5.95-.46,8.23-1.53l1.82,1.06c1.16,1,2.12,2.2,2.83,3.55.23.44.76,1.92,1.15,2.51.28-.42.76-.67,1.27-.64.21,0,.41.05.61.13.74-3.88.9-6.23-.6-9.26-.31-.58-.68-1.13-1.11-1.64-.77-.85-1.72-1.5-2.79-1.92l-2.04-.89c-2.05-2-5.75-2-8.29-1.05-2.39.88-3.68,2.13-5.23,3.3-.55.44-1.18.76-1.87.94l-.58,2.07c-.28.5-.48,1.66-.59,2.53Z"/>
    <path class="cls-50" d="m21.04,32.16c.57.29,1.2.44,1.85.43.66.03,1.32-.16,1.86-.55.18-.18.18-.48,0-.66-.18-.18-.48-.18-.66,0,.14-.11.03-.02,0,0s-.08.05-.11.07c-.03.02-.17.07-.05.03-.05.02-.1.04-.16.06-.14.05-.29.08-.44.1.07,0-.02,0-.05,0-.04,0-.09,0-.13.01-.1,0-.21,0-.31,0-.09,0-.19,0-.28-.01-.04,0-.09,0-.13-.01,0,0-.16-.02-.07,0-.14-.02-.28-.05-.41-.09-.06-.02-.11-.04-.17-.06-.02,0-.04-.01-.06-.02.09.06.05.02.01,0-.07-.03-.14-.07-.21-.1-.22-.12-.5-.05-.64.17-.13.22-.05.51.17.64h0Z"/>
    <path class="cls-50" d="m22.66,27.8c.09.31.15.62.2.94l-.02-.12s0,.09,0,.13l.02-.12s0,.04-.01.06l.05-.11s-.01.03-.02.04l.07-.09s-.02.02-.03.03l.09-.07s-.05.03-.07.04l.11-.05s-.08.03-.12.04l.12-.02s-.08,0-.12,0l.12.02s-.09-.02-.13-.02c-.12-.03-.25-.01-.36.05-.22.13-.3.41-.17.64,0,0,0,0,0,0,.06.11.16.18.28.21.1.01.2.04.3.04.15,0,.3-.03.44-.1.17-.08.3-.23.35-.41.03-.15.03-.3,0-.45-.05-.3-.12-.6-.2-.9-.07-.25-.32-.39-.57-.33-.25.07-.39.32-.33.57h0Z"/>
    <path class="cls-50" d="m17.68,25.15c-.16.51-.05,1.68.91,1.78,1.27,0,1.34-1.42.91-2.09-.35-.54-1.38-.77-1.82.31Z"/>
    <path class="cls-50" d="m27.9,25.15c.16.51.05,1.68-.91,1.78-1.27,0-1.34-1.42-.91-2.09.35-.54,1.38-.77,1.82.31Z"/>
    <path class="cls-50" d="m13.68,23.86c-.63-.56-1.53-.68-2.29-.32-.53.29-.9.8-1.01,1.39-.3,1.4-.02,2.86.78,4.05.57.85,1.39,1.47,2.45,1.32.25-.07.39-.33.33-.57-.07-.24-.33-.39-.57-.33-.74.1-1.32-.69-1.62-1.26-.3-.55-.49-1.16-.55-1.79-.03-.35-.02-.7.05-1.04.05-.25.14-.48.26-.7-.03.04.06-.07.08-.08.03-.03.06-.06.1-.09.12-.08.26-.14.4-.16.33-.07.67.02.93.24.44.4,1.1-.26.66-.66h0Z"/>
    <path class="cls-50" d="m32.56,24.52c.45-.38,1.12-.33,1.52.11-.06-.08.02.04.03.06.04.06.07.12.1.18.05.14.1.29.12.44.06.34.08.69.05,1.04-.06.62-.24,1.21-.53,1.76-.3.58-.88,1.4-1.64,1.29-.25-.06-.5.08-.57.33-.07.25.08.5.33.57,1.72.23,2.71-1.46,3.16-2.87.22-.73.26-1.49.13-2.24-.06-.6-.37-1.15-.85-1.53-.78-.52-1.81-.44-2.5.19-.45.4.21,1.06.66.66h0Z"/>
    <path class="cls-50" d="m31.69,29.02c-.09.41-.21.82-.35,1.22-.04.13-.12.33-.16.41s-.07.16-.1.23c0,.02-.05.13-.02.06.03-.08-.02.05-.03.06-.02.04-.04.08-.05.12-.05.1-.1.2-.15.3-.12.22-.24.44-.37.65-.67,1.14-1.53,2.15-2.54,3.01-.54.47-1.19.8-1.88.98-.58.13-.34,1.03.25.9,1.43-.33,2.61-1.37,3.55-2.45.8-.9,1.47-1.92,2-3.01.05-.11.09-.22.14-.33-.06.15.08-.18.08-.19.04-.09.08-.19.11-.28.18-.46.32-.93.42-1.42.06-.25-.08-.5-.33-.57-.25-.07-.5.08-.57.33h0Z"/>
    <path class="cls-50" d="m12.96,29.24c.31,1.4.88,2.73,1.67,3.93.85,1.28,1.97,2.47,3.33,3.23.69.39,1.45.64,2.23.76.25.06.5-.08.57-.33.07-.25-.08-.5-.33-.57-2.8-.41-4.9-2.84-5.96-5.34-.26-.62-.47-1.27-.62-1.93-.13-.58-1.03-.34-.9.25h0Z"/>
    <path class="cls-50" d="m29.28,11.57c1.52.62,2.77,1.75,3.54,3.2.75,1.4,1.15,2.97,1.16,4.56,0,.98-.09,1.95-.25,2.91-.06.25.08.5.33.57.25.07.5-.08.57-.33.28-1.8.44-3.63.03-5.43-.39-1.71-1.2-3.44-2.46-4.69-.77-.74-1.68-1.31-2.67-1.7-.25-.07-.5.08-.57.33-.06.25.08.5.33.57h0Z"/>
    <path class="cls-50" d="m27.69,9.9c-1.65-1.58-4.11-1.98-6.3-1.73-1.19.14-2.35.47-3.44.97-1.08.52-2.1,1.16-3.03,1.91-.48.37-.94.75-1.43,1.11-.49.36-1.05.63-1.63.8-.57.17-.33,1.07.25.9.54-.15,1.05-.37,1.52-.67.46-.3.88-.65,1.31-.98.85-.7,1.75-1.33,2.7-1.88,1.91-1.05,4.16-1.57,6.34-1.2,1.13.19,2.23.62,3.07,1.42.43.42,1.09-.24.66-.66h0Z"/>
    <path class="cls-50" d="m10.99,15.25c-.3.55-.42,1.21-.52,1.82-.12.67-.19,1.34-.22,2.01-.04,1.61.26,3.22.89,4.71.08.24.33.39.57.33.25-.07.39-.33.33-.57-.59-1.38-.89-2.87-.86-4.37.02-.62.09-1.24.19-1.86.09-.53.2-1.18.42-1.6.29-.53-.52-1-.8-.47h0Z"/>
    <path class="cls-50" d="m26,16.92c-1.41.63-2.91,1.06-4.44,1.27-.81.12-1.62.19-2.44.2-.41,0-.81,0-1.21,0-.37,0-.75.05-1.12.08-.6.04-.6.97,0,.93.38-.02.77-.08,1.16-.08.41,0,.82.02,1.23,0,.88-.02,1.77-.1,2.64-.23,1.61-.23,3.19-.69,4.67-1.37.22-.13.29-.41.17-.64-.13-.22-.41-.29-.64-.17Z"/>
    <path class="cls-50" d="m14.91,19.69c-.67.63-.99,1.46-1.18,2.34-.17.8-.29,1.6-.36,2.42,0,.26.21.46.47.47.25,0,.46-.21.47-.47.06-.71.17-1.41.31-2.1.16-.75.38-1.45.96-1.99.44-.41-.22-1.07-.66-.66h0Z"/>
    <path class="cls-50" d="m27.73,18.71c.92.8,1.72,1.74,2.37,2.78.54.88.86,1.86,1.31,2.78.13.22.41.29.64.17.22-.13.29-.41.17-.64-.46-.95-.79-1.95-1.35-2.85-.68-1.08-1.51-2.06-2.47-2.9-.45-.39-1.11.26-.66.66h0Z"/>
    <path class="cls-17" d="m23.05,59.88c1.33-3.27,1.67-4.35,2.7-7.54,1.28-3.95,2.49-8.25,3.44-12.35.07-.41-.04-.84-.32-1.16-.43-.5-.97-1.22-1.42-1.72-.19.15-4.01,3.16-4.3,3.37h-.67c-.29-.21-4.11-3.22-4.3-3.37-.44.49-.98,1.22-1.42,1.72-.27.32-.39.74-.32,1.16.96,4.1,2.16,8.41,3.44,12.35,1.04,3.18,1.38,4.26,2.7,7.54h.43Z"/>
    <path class="cls-48" d="m24.2,56.93c-.31.83-.66,1.74-1.15,2.95h-.43c-1.22-3.01-1.61-4.17-2.47-6.82.42-3.59.97-7.85.97-7.98,0-.23-.04-.45-.1-.67-.03-.1-.05-.2-.07-.3-.11-.5-.13-.75-.26-1.28v-.03c.61-.83,1.35-1.82,1.81-2.33h.67c.45.51,1.19,1.48,1.8,2.3-.03.1-.06.16-.06.16-.13.33-.24.67-.31,1.02-.14.38-.22.78-.25,1.19,0,.21.58,4.26,1.12,8.06-.49,1.5-.83,2.52-1.27,3.71Z"/>
    <path class="cls-50" d="m9.96,71.14c-.01-2.29-.03-4.57-.06-6.86-.03-2.98-.06-5.96-.1-8.95-.02-1.28-.04-2.56-.06-3.84-.01-.6-.94-.6-.93,0,.05,2.55.08,5.11.11,7.66.03,2.91.06,5.81.09,8.72,0,1.09.02,2.17.02,3.26,0,.6.93.6.93,0h0Z"/>
    <path class="cls-50" d="m19.74,59.79c-2.38-4.13-4.74-8.28-6.93-12.51-.15-.28-.31-.57-.44-.86-.05-.12-.06-.1.04-.21.11-.13.23-.25.35-.37.49-.5.99-.98,1.5-1.46.18-.19.18-.48,0-.66-.03-.03-.06-.05-.09-.07l-.94-.54-.45-.26c-.08-.05-.16-.09-.25-.14l-.08-.05c-.07-.04-.06-.04.02.01l.06.24c-.03.05-.03.06-.01.02.01-.02.02-.05.04-.07.02-.04.04-.08.07-.12.05-.09.11-.17.17-.26.12-.16.24-.32.37-.47.33-.37.69-.72,1.07-1.05.7-.61,1.45-1.17,2.23-1.68l-.68-.28c.69,3.05,1.47,6.07,2.35,9.08.78,2.66,1.61,5.31,2.53,7.93.47,1.34.99,2.66,1.52,3.98.07.24.33.39.57.33.25-.07.39-.33.33-.57-.92-2.28-1.74-4.58-2.5-6.91-.96-2.96-1.85-5.94-2.65-8.95-.45-1.7-.86-3.4-1.25-5.12-.07-.25-.33-.39-.58-.32-.04.01-.07.03-.1.04-1.19.74-2.28,1.63-3.27,2.63-.24.25-.47.52-.68.8-.2.24-.35.51-.44.8-.12.54.4.76.78.98l1.31.75-.09-.73c-.48.45-.95.89-1.4,1.36-.45.46-1.01.94-.71,1.64.23.55.55,1.09.83,1.62.29.56.59,1.11.88,1.67,1.18,2.21,2.4,4.4,3.64,6.58.7,1.23,1.4,2.45,2.1,3.67.3.52,1.1.05.8-.47h0Z"/>
    <path class="cls-50" d="m.93,71.14c.2-2.79.4-5.57.6-8.36.12-1.7.26-3.41.42-5.11.22-2.35.47-4.68,1.07-6.97.33-1.27.72-2.57,1.35-3.73.61-1.12,1.56-2.01,2.59-2.74,2.14-1.51,4.63-2.51,7.05-3.46l.31-.12c.24-.07.39-.33.33-.57-.07-.25-.33-.39-.57-.33-2.28.89-4.57,1.81-6.67,3.08-1.24.75-2.4,1.65-3.28,2.81-.78,1.03-1.24,2.27-1.63,3.49-.8,2.53-1.15,5.14-1.41,7.77-.17,1.68-.3,3.37-.43,5.06-.19,2.6-.37,5.2-.56,7.79-.03.46-.07.93-.1,1.39,0,.26.21.46.47.47.26,0,.46-.21.47-.47h0Z"/>
    <path class="cls-50" d="m36.63,71.14c.01-2.29.03-4.57.06-6.86.03-2.98.06-5.96.1-8.95.02-1.28.04-2.56.06-3.84.01-.6-.92-.6-.93,0-.05,2.55-.08,5.11-.11,7.66-.03,2.91-.06,5.81-.09,8.72,0,1.09-.02,2.17-.02,3.26,0,.6.93.6.93,0h0Z"/>
    <path class="cls-50" d="m21.27,45.16c1,0,1.99-.02,2.99-.02.26,0,.47-.21.47-.47s-.21-.47-.47-.47c-1,0-1.99.02-2.99.02-.26,0-.47.21-.47.47s.21.47.47.47h0Z"/>
    <path class="cls-50" d="m20.24,42.96c.09.4.16.8.24,1.2.1.31.15.63.17.95-.01.28-.07.56-.1.84-.17,1.39-.35,2.79-.52,4.18-.12.98-.24,1.96-.35,2.95,0,.26.21.46.47.47.25,0,.46-.21.47-.47.2-1.7.4-3.39.62-5.08.12-.95.29-1.91.35-2.86,0-.35-.06-.69-.16-1.02-.1-.46-.17-.93-.28-1.39-.14-.58-1.04-.34-.9.25h0Z"/>
    <path class="cls-50" d="m25.89,52.91c-.23-1.65-.47-3.29-.7-4.93-.09-.62-.17-1.23-.26-1.85,0-.03-.02-.15-.02-.13l-.02-.12c-.01-.09-.02-.18-.04-.27-.02-.12-.03-.24-.04-.37,0-.26.03-.52.11-.77.09-.44.22-.87.38-1.29.12-.22.05-.5-.17-.64-.22-.13-.51-.05-.64.17-.16.4-.29.8-.39,1.22-.14.4-.23.81-.24,1.23.02.26.05.52.09.77.18,1.39.38,2.77.58,4.15.15,1.02.29,2.04.44,3.07.07.25.33.39.57.33.24-.07.39-.33.33-.57h0Z"/>
    <path class="cls-50" d="m26.72,60.26c2.49-4.32,4.96-8.66,7.24-13.1.17-.33.38-.67.28-1.06-.08-.33-.36-.58-.58-.82-.52-.54-1.06-1.05-1.6-1.56l-.09.73,1.31-.75c.38-.22.9-.44.78-.98-.09-.29-.24-.56-.44-.8-.21-.28-.43-.55-.68-.8-.98-1-2.08-1.88-3.27-2.63-.23-.13-.51-.05-.64.17-.02.03-.03.07-.04.1-.69,3.05-1.47,6.07-2.35,9.08-.78,2.66-1.61,5.31-2.53,7.93-.47,1.34-.99,2.66-1.52,3.98-.07.25.08.5.33.57.25.06.5-.08.57-.33.92-2.28,1.74-4.58,2.5-6.91.96-2.96,1.85-5.94,2.65-8.95.45-1.7.86-3.4,1.25-5.12l-.68.28c.78.5,1.53,1.06,2.23,1.68.37.32.72.66,1.05,1.03.14.16.27.32.39.49.05.08.11.16.15.24.03.05.05.09.08.14l.02.05c.03.06.03.06,0,0l.06-.24c.07-.05.08-.06.04-.03-.03.02-.07.04-.11.06-.08.05-.16.09-.25.14l-.45.26-.94.54c-.22.13-.29.42-.16.64.02.03.04.06.07.09.45.42.9.85,1.34,1.29.11.11.22.22.32.33.07.08.22.17.25.27.05.13-.19.46-.26.61-.54,1.05-1.09,2.09-1.65,3.13-1.14,2.11-2.3,4.21-3.5,6.3-.66,1.16-1.32,2.32-1.99,3.47-.3.52.5.99.8.47h0Z"/>
    <path class="cls-50" d="m27.13,37.44c.26.29.5.59.74.89.22.28.47.55.68.83.09.12.15.26.18.4.01.05.02.1.02.16,0,.03-.03.2,0,.11-.05.1-.1.19-.16.28-.51.85-1.09,1.67-1.72,2.44-.2.24-.41.48-.63.7-.1.1-.2.19-.3.28-.07.07-.16.13-.24.18l.64.17c-.93-1.25-1.81-2.55-2.85-3.72l-.09.73c.54-.39,1.06-.82,1.58-1.23.74-.58,1.48-1.17,2.22-1.75.19-.15.39-.31.58-.46.18-.18.18-.48,0-.66-.18-.18-.47-.18-.66,0-1.2.97-2.43,1.92-3.64,2.87l-.22.17-.1.08c-.06.05.08-.06-.01.01-.07.06-.15.11-.22.17-.22.14-.29.43-.15.65.02.03.04.05.06.08.98,1.11,1.82,2.35,2.7,3.53.13.22.41.29.64.17,1-.66,1.75-1.74,2.42-2.7.28-.4.55-.81.81-1.23.07-.11.14-.23.19-.35.14-.4.11-.85-.08-1.23-.18-.42-.53-.75-.81-1.1-.3-.38-.6-.75-.92-1.12-.4-.45-1.06.21-.66.66Z"/>
    <path class="cls-50" d="m17.87,36.78c-.28.32-.55.65-.82.99-.25.31-.55.62-.77.95-.36.51-.4,1.19-.1,1.74.56.94,1.19,1.84,1.89,2.69.4.52.87.98,1.4,1.36.22.12.5.05.64-.17.89-1.18,1.72-2.42,2.7-3.53.18-.19.17-.49-.02-.67-.02-.02-.05-.04-.08-.06-.06-.04-.12-.09-.17-.13l-.07-.05c-.06-.04.08.06,0,0-.06-.05-.13-.1-.19-.15-.34-.26-.68-.53-1.01-.79-.73-.57-1.45-1.14-2.18-1.71-.19-.15-.38-.3-.57-.45-.18-.17-.47-.17-.66,0-.18.18-.18.48,0,.66,1.22.98,2.46,1.94,3.69,2.9.23.18.46.37.7.54l-.09-.73c-1.03,1.17-1.91,2.47-2.85,3.72l.64-.17s-.08-.05-.12-.08,0,0,0,0c-.02-.02-.05-.04-.07-.06-.1-.08-.19-.16-.28-.25-.2-.19-.38-.39-.56-.59-.36-.42-.69-.86-1.01-1.32-.27-.39-.54-.78-.79-1.19-.07-.11-.14-.23-.21-.34,0-.02-.02-.03-.03-.05.02.05,0,0,0-.04,0-.13.02-.26.07-.39.14-.35.48-.65.71-.94.28-.34.55-.69.84-1.02.4-.45-.26-1.11-.66-.66Z"/>
    <path class="cls-50" d="m18.45,36.67v.74c0,.12.05.24.14.33.18.18.48.18.66,0,.09-.09.13-.21.14-.33v-.74c0-.12-.05-.24-.14-.33-.18-.18-.48-.18-.66,0-.09.09-.13.21-.14.33Z"/>
    <path class="cls-50" d="m26.35,36.62v.77c0,.12.05.24.14.33.18.18.48.18.66,0h0c.09-.09.13-.21.14-.33v-.04c0-.12-.05-.24-.14-.33-.18-.18-.48-.18-.66,0h0c-.09.09-.13.21-.14.33v.04h.93v-.77c0-.12-.05-.24-.14-.33-.18-.18-.48-.18-.66,0h0c-.09.09-.13.21-.14.33h0Z"/>
    <path class="cls-50" d="m45.67,71.14c-.21-2.82-.4-5.64-.61-8.46-.13-1.73-.26-3.45-.42-5.17-.23-2.47-.51-4.91-1.16-7.31-.35-1.31-.78-2.65-1.46-3.84-.69-1.2-1.73-2.14-2.85-2.93-2.2-1.55-4.76-2.57-7.26-3.55l-.33-.13c-.25-.07-.5.08-.57.33-.06.25.08.5.33.57,2.2.86,4.42,1.76,6.45,2.99,1.15.7,2.27,1.53,3.07,2.63.73,1.01,1.14,2.22,1.5,3.39.44,1.45.76,2.94.98,4.44.14.99.23,1.99.33,2.98.16,1.65.29,3.31.42,4.96.19,2.58.37,5.16.56,7.74.03.45.07.9.1,1.35,0,.25.21.46.47.47.26,0,.46-.21.47-.47Z"/>
    <path class="cls-47" d="m30.78,45.82c-.55-.01-1.01.43-1.02.98,0,.01,0,.02,0,.03-.03.54.39,1,.93,1.03.03,0,.06,0,.09,0,.54.03.99-.39,1.02-.92,0-.04,0-.07,0-.11,0-.55-.43-1-.98-1.01-.01,0-.02,0-.04,0Z"/>
    <path class="cls-50" d="m30.78,45.36c-.65,0-1.22.42-1.42,1.04-.18.59.01,1.23.49,1.62.5.37,1.17.42,1.71.12.53-.33.8-.96.68-1.57-.13-.7-.74-1.21-1.46-1.21-.26,0-.47.21-.47.47s.21.47.47.47c.03,0,.06,0,.09,0,.1,0-.11-.03-.01,0,.05.01.09.02.13.03.02,0,.03.01.05.02l-.06-.03s.03.02.05.02c.05.02.09.06.13.08-.1-.05-.05-.04-.01,0,.01.01.02.02.04.04.02.02.03.04.05.06-.07-.04-.05-.07-.02-.02.03.04.05.08.07.12.02.03,0,.06-.01-.04,0,.03.02.07.03.1.01.04.01.09.03.13-.04-.1,0-.08,0-.03,0,.02,0,.05,0,.07,0,.05,0,.09,0,.14-.02-.1.01-.08,0-.02,0,.03-.01.06-.02.09,0,.02-.01.04-.02.06-.02.06-.05.06,0-.02-.02.03-.04.07-.06.11-.01.02-.02.03-.03.05-.03.05.08-.09.02-.03-.03.03-.07.06-.1.1.07-.08.06-.05.02-.02-.01,0-.03.02-.04.03-.02.01-.04.02-.06.03-.08.04.09-.03.03-.01-.05.01-.09.03-.13.04-.02,0-.03,0-.05.01-.05,0-.04,0,.04,0-.02,0-.04,0-.06,0-.05,0-.09,0-.14,0-.03,0-.05,0-.08,0,0,0,.12.02.04,0-.05-.01-.09-.02-.14-.04-.02,0-.04-.02-.06-.02.12.03.05.02,0,0s-.07-.05-.11-.07c.1.06.06.05.04.03-.02-.02-.04-.03-.05-.05-.01-.01-.03-.03-.04-.05-.04-.04.07.1.02.03-.03-.04-.05-.08-.08-.13-.05-.08.04.11,0,.02,0-.02-.01-.03-.02-.05,0-.05-.02-.1-.04-.16,0,0,.01.12,0,.04,0-.03,0-.06,0-.08v-.07c0-.05.04-.12,0,0,.02-.05.02-.1.04-.15.01-.02.02-.05.03-.07,0,.05-.04.09,0,.02.02-.05.06-.09.08-.13-.05.1-.04.05,0,.01.02-.02.04-.04.05-.05.04-.03.08-.04-.01,0,.02-.01.04-.03.06-.04.02-.01.05-.03.07-.04.02,0,.03-.02.05-.02l-.06.03c.05-.01.11-.03.16-.05h.03c.05-.01.04-.01-.04,0,.04,0,.08,0,.12,0,.26,0,.47-.21.47-.47s-.21-.47-.47-.47h0Z"/>
    <path class="cls-51" d="m272.5,36.45c1.26-.14,2.44-.69,3.36-1.55,1.39-1.33,1.97-3.01,2.42-5.45v-.06s.21-1.63.21-1.63c.31-2.63.32-5.36-.53-7.88-.68-1.96-1.81-3.73-3.3-5.17-.96-.93-2.1-1.64-3.36-2.09-1.41-.55-3.45-.81-4.97-.35l-1.95.59-.23-.05c-2.32-.52-5.04,1.57-6.35,3.13-1.29,1.55-2.09,3.43-2.55,5.35-.64,2.68-.67,5.47-.08,8.16.52,2.4,2.82,5.39,1.72,7.18h5.19l10.44-.18Z"/>
    <path class="cls-17" d="m257.79,26.78c-.27-.26-.63-.39-1.01-.38-.48-.02-.93.23-1.16.65-.4.69-.39,1.96-.12,2.75.19.56.49,1.41,1.23,2.03.35.3.83.42,1.28.33.4,1.4,1.08,2.71,2,3.84.88,1.07,1.81,1.85,2.86,2.31,0,.37,0,.54-.03,1.05,0,.25-.05.5-.13.75-.11.31-.3.58-.54.8-.36.28-.75.5-1.17.67.24,1.05.51,2.13.78,3.2,1.54.72,3.23,1.07,4.92,1.01,1.7.06,3.39-.29,4.93-1.01.28-1.11.55-2.2.8-3.29-.35-.15-.68-.35-.98-.59-.25-.21-.44-.49-.55-.8-.08-.24-.12-.49-.13-.75-.04-.59-.03-.72-.03-1.25,1.02-.49,1.92-1.21,2.61-2.11,1.07-1.32,1.81-2.87,2.17-4.53,0,0,.06-.26.14-.63-2.65-3.69-6.5-8.15-10.4-11.08-.89.4-2.4,1.08-3.36,1.8-1.81,1.35-2.48,2.73-3.01,4.19l-1.11,1.03Z"/>
    <path class="cls-52" d="m286.93,70.74c-.82-10.41-.98-12.02-1.5-16.62-.29-2.54-.96-4.76-2.03-6.4-1.81-2.75-4.88-4.03-8.45-5.78l-2.39-1.06c-.88,3.92-2.04,8.11-3.28,11.92-.92,2.82-1.22,3.78-2.4,6.69h-.38c-1.18-2.9-1.48-3.86-2.4-6.69-1.24-3.81-2.39-8-3.28-11.92l-2.39,1.06c-3.57,1.75-6.64,3.03-8.45,5.78-1.08,1.64-1.75,3.86-2.03,6.4-.52,4.59-.68,6.21-1.5,16.62h40.47Z"/>
    <path class="cls-50" d="m257.27,36.86c.86-1.43.02-3.22-.56-4.59-.36-.78-.68-1.58-.96-2.39-.29-1.02-.46-2.08-.51-3.14-.16-2.22.11-4.45.79-6.56.59-1.81,1.53-3.49,2.93-4.8.71-.68,1.52-1.24,2.41-1.67.81-.39,1.75-.64,2.65-.45.58.12.83-.77.25-.9-1.86-.39-3.7.55-5.13,1.66-1.52,1.19-2.71,2.75-3.47,4.52-.88,2.09-1.35,4.32-1.39,6.59-.05,2.12.22,4.27,1.04,6.24.39.94.84,1.85,1.15,2.82.13.39.21.79.24,1.2.03.35-.06.7-.23,1-.31.51.5.98.8.47h0Z"/>
    <path class="cls-50" d="m273.17,36.81c1.32-.29,2.52-.99,3.42-2.01.75-.88,1.3-1.91,1.62-3.02.22-.73.39-1.47.52-2.22.06-.25-.08-.5-.33-.57-.25-.07-.5.08-.57.32-.26,1.43-.59,2.9-1.39,4.14-.8,1.26-2.07,2.14-3.52,2.46-.59.13-.34,1.02.25.9h0Z"/>
    <path class="cls-50" d="m263.79,19.94c-1.33.65-2.6,1.42-3.58,2.55-.78.93-1.37,2-1.76,3.14-.07.25.08.5.32.57.25.06.5-.08.57-.33.34-1.02.87-1.97,1.57-2.79.93-1.04,2.1-1.74,3.34-2.35.22-.13.29-.41.17-.64-.13-.22-.41-.29-.64-.17Z"/>
    <path class="cls-50" d="m265.08,20.2c3.38,2.56,6.28,5.78,8.87,9.12.66.86,1.3,1.73,1.92,2.62.13.22.41.29.64.17.22-.13.29-.41.17-.64-2.41-3.53-5.2-6.79-8.32-9.71-.9-.83-1.83-1.62-2.81-2.36-.22-.13-.51-.05-.64.17-.12.22-.05.5.17.64Z"/>
    <path class="cls-50" d="m266.44,12.72c1.3-.38,2.75-.25,4.05.12,1.25.35,2.4.96,3.39,1.8,2.27,1.98,3.76,4.72,4.18,7.7.26,1.79.17,3.62-.04,5.41,0,.26.21.46.47.47.25,0,.46-.21.47-.47.39-3.32.25-6.73-1.3-9.76-.71-1.41-1.66-2.68-2.82-3.75-1.06-.97-2.32-1.71-3.68-2.16-1.55-.53-3.37-.72-4.96-.25-.57.17-.33,1.07.25.9Z"/>
    <path class="cls-17" d="m271.52,44.82l.08.02c-.7,2.69-1.49,5.41-2.32,7.96-.92,2.82-1.22,3.78-2.4,6.68h-.38c-1.18-2.9-1.48-3.86-2.4-6.68-.83-2.55-1.62-5.27-2.32-7.96l.08-.02c1.51.69,3.16,1.02,4.82.97,1.66.05,3.31-.28,4.83-.97Z"/>
    <path class="cls-50" d="m265.04,34.22c.54.28,1.14.42,1.75.41.63.03,1.26-.16,1.77-.52.18-.18.18-.48,0-.66-.18-.17-.47-.17-.66,0,.14-.11.03-.03,0,0s-.07.04-.11.06c-.02.01-.04.02-.06.03-.07.03-.01-.02.02,0-.02,0-.12.05-.15.05-.14.04-.28.07-.42.1.07-.01,0,0-.04,0-.04,0-.08,0-.12.01-.1,0-.2,0-.3,0-.09,0-.18,0-.27,0-.04,0-.08,0-.12-.01,0,0-.15-.02-.06,0-.13-.02-.26-.05-.39-.09-.05-.02-.11-.04-.16-.05-.12-.04.07.04-.04-.01-.07-.03-.13-.06-.2-.1-.22-.13-.51-.05-.64.17s-.05.51.17.64h0Z"/>
    <path class="cls-50" d="m266.55,30.1c.08.29.15.59.19.88l-.02-.12s0,.08,0,.12l.02-.12s0,.04-.01.05l.05-.11s-.01.02-.02.04l.07-.09s-.02.02-.03.03l.09-.07s-.05.03-.07.04l.11-.05s-.08.03-.12.03l.12-.02s-.07,0-.11,0l.12.02s-.08-.02-.12-.02c-.06-.02-.12-.02-.19,0-.06,0-.12.02-.17.06-.22.13-.3.41-.17.64,0,0,0,0,0,0,.06.11.16.18.28.21.1.01.19.04.29.04.15,0,.29-.03.42-.1.17-.08.29-.23.34-.41.03-.14.03-.29,0-.44-.05-.28-.11-.57-.19-.85-.07-.25-.32-.39-.57-.33s-.39.32-.33.57h0Z"/>
    <path class="cls-50" d="m261.89,27.59c-.15.48-.05,1.58.86,1.68,1.2,0,1.26-1.34.86-1.97-.33-.51-1.3-.73-1.72.29Z"/>
    <path class="cls-50" d="m271.5,27.59c.15.48.05,1.58-.86,1.68-1.2,0-1.26-1.34-.86-1.97.33-.51,1.3-.73,1.72.29Z"/>
    <path class="cls-50" d="m257.38,31.6c.29,1.34.82,2.61,1.57,3.75.8,1.22,1.85,2.36,3.13,3.09.66.37,1.38.63,2.12.74.25.06.5-.08.57-.32.07-.25-.08-.5-.33-.57-2.64-.4-4.6-2.71-5.58-5.06-.25-.6-.45-1.23-.59-1.87-.13-.58-1.03-.34-.9.25h0Z"/>
    <path class="cls-50" d="m275.08,31.35c-.32,1.52-.99,2.95-1.94,4.18-.46.61-1.01,1.15-1.63,1.6-.6.41-1.25.72-1.93.93-.57.18-.32,1.08.25.9,1.19-.37,2.28-1.01,3.17-1.87,1.03-1.04,1.85-2.27,2.4-3.63.25-.61.45-1.23.59-1.87.13-.58-.77-.83-.9-.25h0Z"/>
    <path class="cls-50" d="m258.12,26.46c-.6-.54-1.46-.66-2.18-.31-.5.27-.85.75-.97,1.3-.33,1.29-.02,2.76.69,3.87.49.76,1.28,1.46,2.25,1.34.25,0,.46-.21.47-.47,0-.26-.21-.46-.47-.47-.78.1-1.3-.57-1.62-1.19-.28-.52-.45-1.09-.5-1.67-.04-.55-.03-1.22.31-1.69-.06.08.14-.14.12-.12.11-.08.25-.14.39-.16.31-.07.62.02.86.22.44.4,1.1-.25.66-.66h0Z"/>
    <path class="cls-50" d="m261.05,42.05c.73-.3,1.53-.69,1.92-1.42.36-.66.35-1.43.36-2.16,0-.26-.21-.47-.47-.47-.26,0-.47.21-.47.47h0c0,.26,0,.51-.02.77,0,.16-.02.32-.05.47-.02.08-.04.16-.06.24,0,.02-.04.11-.02.05-.02.04-.03.07-.05.11-.12.25-.32.45-.55.59-.27.17-.55.32-.84.44-.24.07-.38.33-.32.57.07.25.32.39.57.32h0Z"/>
    <path class="cls-50" d="m270.28,38.48c0,.68,0,1.39.29,2.02.31.68.97,1.1,1.63,1.4.22.12.5.05.64-.17.13-.22.05-.5-.17-.64-.29-.13-.57-.29-.83-.47-.21-.15-.37-.35-.47-.59-.03-.07.02.05,0-.02-.02-.04-.03-.08-.04-.13-.02-.08-.04-.16-.05-.24,0-.02,0-.04,0-.07,0-.04,0-.07,0-.11,0-.09-.01-.18-.02-.27-.01-.24-.02-.48-.02-.72,0-.26-.21-.47-.47-.47-.26,0-.47.21-.47.47h0Z"/>
    <path class="cls-50" d="m274.72,42.35c1.28.63,2.58,1.22,3.83,1.91,1.11.57,2.14,1.27,3.07,2.1,1.98,1.83,2.85,4.41,3.25,7.02.22,1.46.35,2.94.5,4.41s.28,2.94.41,4.41c.21,2.43.4,4.86.59,7.29.03.42.07.84.1,1.26,0,.25.21.46.47.47.26,0,.46-.21.47-.47-.21-2.64-.41-5.28-.64-7.91-.13-1.56-.27-3.11-.42-4.67-.14-1.36-.28-2.72-.44-4.08-.32-2.77-1.08-5.63-2.99-7.75-1.8-1.99-4.33-3.14-6.7-4.29-.34-.16-.68-.33-1.02-.49-.22-.12-.5-.05-.64.17-.13.22-.05.51.17.64h0Z"/>
    <path class="cls-50" d="m278.88,52.83c-.04,2.44-.12,4.88-.23,7.32-.1,2.29-.21,4.58-.3,6.87-.05,1.24-.1,2.48-.16,3.72-.02.6.91.6.93,0,.09-2.31.19-4.63.29-6.94.1-2.18.21-4.37.29-6.55.05-1.47.09-2.95.11-4.42,0-.6-.92-.6-.93,0h0Z"/>
    <path class="cls-50" d="m261.64,45.23c1.59.71,3.32,1.06,5.06,1.03,1.74.03,3.47-.32,5.06-1.03.22-.13.29-.41.17-.64-.13-.22-.41-.29-.64-.17-1.45.67-3,.9-4.59.9s-3.13-.23-4.59-.9c-.22-.12-.5-.05-.64.17-.13.22-.05.51.17.64h0Z"/>
    <path class="cls-50" d="m270.19,59.85c2.23-3.87,4.44-7.76,6.48-11.74.15-.29.28-.56.19-.89-.09-.31-.34-.53-.56-.75-.45-.46-.91-.91-1.38-1.35l-.09.73,1.13-.64c.35-.2.79-.37.76-.85-.02-.3-.25-.6-.42-.83-.18-.25-.38-.48-.6-.71-.87-.89-1.85-1.67-2.9-2.34-.22-.13-.51-.05-.64.17-.02.03-.03.07-.04.1-1.15,5.11-2.6,10.15-4.33,15.09-.42,1.19-.88,2.36-1.35,3.52-.07.25.08.5.32.57.25.06.5-.08.57-.32,1.86-4.59,3.32-9.34,4.58-14.12.39-1.49.76-2.99,1.1-4.49l-.68.28c.68.44,1.33.93,1.94,1.46.33.28.64.59.93.91.12.13.22.26.33.39.06.08.11.16.16.24.02.03.04.06.06.09,0,.01.05.12.05.07l.06-.23c.04-.08-.04.01-.09.04l-.2.11-.4.23-.8.46c-.22.13-.29.42-.16.64.02.03.04.06.07.09.4.38.8.76,1.19,1.15.09.09.17.18.26.26.07.08.21.17.25.27,0,.02.02-.03-.01.02-.06.13-.13.26-.2.39-.48.93-.97,1.85-1.46,2.77-1.01,1.88-2.05,3.76-3.11,5.61-.59,1.04-1.19,2.08-1.79,3.12-.3.52.5.99.8.47h0Z"/>
    <path class="cls-50" d="m258.21,41.55c-2.44,1.19-5.04,2.27-7.06,4.13-2.05,1.88-3.03,4.51-3.48,7.2-.26,1.59-.4,3.2-.56,4.8-.15,1.48-.29,2.96-.41,4.44-.21,2.45-.4,4.91-.6,7.36-.03.42-.07.84-.1,1.26,0,.26.21.46.47.47.25,0,.46-.21.47-.47.21-2.61.42-5.22.63-7.83.13-1.55.27-3.09.42-4.64.13-1.32.28-2.64.43-3.96.29-2.58.95-5.32,2.72-7.3,1.74-1.95,4.22-3.05,6.53-4.17.34-.16.68-.33,1.02-.49.22-.13.29-.41.17-.64-.13-.22-.41-.29-.64-.17Z"/>
    <path class="cls-50" d="m253.58,52.83c.04,2.44.12,4.88.23,7.32.1,2.29.21,4.58.3,6.87.05,1.24.1,2.48.16,3.72.02.6.95.6.93,0-.09-2.31-.19-4.63-.29-6.94-.1-2.18-.21-4.37-.29-6.55-.05-1.47-.09-2.95-.11-4.42,0-.6-.94-.6-.93,0h0Z"/>
    <path class="cls-50" d="m264,59.38c-2.12-3.67-4.21-7.35-6.16-11.11-.14-.26-.27-.52-.4-.78,0-.01-.01-.03-.01-.04,0,.05,0,.03.07-.05.1-.11.21-.22.32-.33.43-.44.87-.86,1.32-1.28.18-.19.18-.48,0-.66-.03-.03-.06-.05-.09-.07l-.8-.46-.36-.21-.2-.11-.08-.05c-.09-.06-.11-.06-.05-.01l.06.23c0,.06.02-.03.03-.05.02-.04.04-.08.07-.12.04-.07.09-.14.14-.21.1-.14.21-.27.32-.39.3-.33.62-.64.95-.93.61-.53,1.26-1.02,1.94-1.46l-.68-.28c1.15,5.11,2.6,10.15,4.33,15.09.42,1.19.88,2.36,1.35,3.52.07.24.33.39.57.32.25-.07.39-.32.32-.57-1.86-4.58-3.32-9.34-4.58-14.12-.39-1.49-.76-2.99-1.1-4.49-.07-.25-.33-.39-.58-.32-.04.01-.07.03-.1.04-1.06.66-2.03,1.45-2.9,2.34-.21.22-.41.46-.6.71-.19.22-.33.49-.41.77-.09.51.39.71.76.91l1.13.64-.09-.73c-.43.4-.85.8-1.26,1.22-.37.38-.85.78-.68,1.37.09.25.21.49.34.71.14.26.27.52.41.79.25.48.5.95.76,1.43,1.07,1.99,2.17,3.97,3.28,5.93.62,1.09,1.25,2.19,1.88,3.28.3.52,1.1.05.8-.47h0Z"/>
    <path class="cls-47" d="m273.46,47.1c-.54-.01-.98.41-.99.95,0,.01,0,.02,0,.03-.03.53.38.97.9,1,.03,0,.06,0,.08,0,.52.03.96-.37.99-.9,0-.04,0-.07,0-.11,0-.54-.42-.98-.96-.98-.01,0-.02,0-.03,0Z"/>
    <path class="cls-50" d="m273.46,46.64c-.64,0-1.2.41-1.39,1.02-.18.58.01,1.21.48,1.59.49.36,1.14.41,1.67.11.52-.33.79-.94.67-1.54-.13-.69-.73-1.18-1.43-1.18-.26,0-.47.21-.47.47s.21.47.47.47c.03,0,.06,0,.09,0,.1,0-.11-.03-.01,0,.04.01.09.02.13.03.02,0,.03.01.05.02l-.06-.03s.03.01.05.02c.04.02.08.06.13.08-.1-.05-.05-.04-.02,0,.01.01.02.02.04.03.02.02.03.04.05.06-.07-.05-.05-.07-.02-.02.02.04.05.08.07.12.02.03,0,.06-.02-.04,0,.03.02.06.03.1.01.04.01.09.03.13-.03-.11,0-.08,0-.03,0,.02,0,.04,0,.07,0,.04,0,.09,0,.13-.01-.11.01-.08,0-.02,0,.03-.01.06-.02.09,0,.02-.01.04-.02.06-.02.05-.05.06.01-.02-.02.03-.04.07-.06.1-.01.02-.02.03-.03.05-.03.05.08-.09.02-.03-.03.03-.07.06-.1.1.07-.08.06-.05.02-.02-.01,0-.03.02-.04.02-.02.01-.04.02-.06.03-.08.04.09-.03.03-.01-.04.01-.09.03-.13.04-.02,0-.03,0-.05.01-.08.02.12,0,0,0-.05,0-.09,0-.14,0-.03,0-.05,0-.08,0,0,0,.12.02.05,0-.05-.01-.09-.02-.13-.03-.02,0-.04-.02-.06-.02.13.03.05.02.01,0s-.07-.05-.11-.07c.12.07.02.02-.01-.02-.01-.01-.03-.03-.04-.04-.04-.04.07.1.02.03-.03-.04-.05-.08-.07-.12-.04-.08.04.11,0,.02,0-.02-.01-.03-.02-.05,0-.05-.02-.1-.04-.15,0,0,.01.12,0,.04,0-.03,0-.05,0-.08v-.07c0-.05.03-.12,0,0,.02-.05.02-.1.03-.15,0-.02.02-.05.03-.07,0,.05-.04.09,0,.02.02-.04.06-.08.08-.13-.05.1-.04.05,0,.02.02-.02.03-.04.05-.05.04-.03.08-.04-.02,0,.02-.01.04-.03.06-.04s.04-.03.07-.04c.02,0,.03-.02.05-.02l-.06.03c.05-.01.1-.03.15-.05h.03s.04-.01-.04,0c.04,0,.08,0,.11,0,.26,0,.47-.21.47-.47s-.21-.47-.47-.47h0Z"/>
    <ellipse class="cls-49" cx="144.79" cy="33.05" rx="27.02" ry="13.48"/>
    <ellipse class="cls-49" cx="145.66" cy="64.84" rx="27.02" ry="13.48"/>
    <text class="cls-2" transform="translate(124.8 4.45)"><tspan x="0" y="0">①公開</tspan><tspan class="cls-42" x="15.18" y="0">鍵</tspan><tspan class="cls-11" x="20.19" y="0">を</tspan><tspan class="cls-6" x="25.09" y="0">送付</tspan></text>
    <text class="cls-2" transform="translate(172.68 25.66)"><tspan x="0" y="0">②秘密鍵</tspan><tspan class="cls-38" x="20.24" y="0" xml:space="preserve"> ・</tspan><tspan class="cls-9" x="23.91" y="0"> </tspan><tspan class="cls-30" x="24.84" y="0">ス</tspan><tspan class="cls-15" x="29.6" y="0">テ</tspan><tspan class="cls-20" x="34.43" y="0">ル</tspan><tspan class="cls-57" x="39.21" y="0">ス</tspan><tspan class="cls-32" x="44.01" y="0">ア</tspan><tspan class="cls-7" x="48.5" y="0">ド</tspan><tspan class="cls-36" x="53.17" y="0">レ</tspan><tspan class="cls-25" x="57.84" y="0">ス</tspan><tspan class="cls-35" x="62.77" y="0">を</tspan><tspan x="67.67" y="0">作成</tspan></text>
    <text class="cls-2" transform="translate(191.94 77.69)"><tspan x="0" y="0">③公開</tspan><tspan class="cls-42" x="15.18" y="0">鍵</tspan><tspan class="cls-11" x="20.19" y="0">を</tspan><tspan class="cls-6" x="25.09" y="0">作</tspan><tspan class="cls-10" x="30.15" y="0">成</tspan><tspan class="cls-44" x="34.9" y="0">し</tspan><tspan class="cls-39" x="39.63" y="0">、</tspan><tspan x="-.68" y="6.07">公開</tspan><tspan class="cls-30" x="9.44" y="6.07">鍵</tspan><tspan class="cls-26" x="14.2" y="6.07">リス</tspan><tspan class="cls-46" x="23.06" y="6.07">ト</tspan><tspan class="cls-56" x="27.83" y="6.07">に</tspan><tspan x="32.74" y="6.07">登録</tspan></text>
    <text class="cls-2" transform="translate(185.3 33.97)"><tspan x="0" y="0">④ER</tspan><tspan class="cls-40" x="11.62" y="0">C</tspan><tspan class="cls-16" x="14.75" y="0">-2</tspan><tspan class="cls-18" x="19.6" y="0">0</tspan><tspan class="cls-54" x="22.04" y="0">ト</tspan><tspan class="cls-5" x="26.74" y="0">ー</tspan><tspan class="cls-14" x="31.57" y="0">ク</tspan><tspan class="cls-34" x="36.01" y="0">ン</tspan><tspan class="cls-35" x="40.82" y="0">を</tspan><tspan x="45.72" y="0">送付</tspan></text>
    <text class="cls-2" transform="translate(62.46 78.09)"><tspan x="0" y="0">⑤公</tspan><tspan class="cls-30" x="10.12" y="0">開</tspan><tspan class="cls-26" x="14.88" y="0">リス</tspan><tspan class="cls-21" x="23.74" y="0">ト</tspan><tspan class="cls-22" x="28.53" y="0">か</tspan><tspan class="cls-12" x="33.21" y="0">ら</tspan><tspan class="cls-37" x="37.96" y="0">、</tspan><tspan x="5.18" y="6.07">公開</tspan><tspan class="cls-8" x="15.3" y="6.07">鍵</tspan><tspan class="cls-35" x="20.31" y="6.07">を</tspan><tspan x="25.21" y="6.07">検索</tspan></text>
    <text class="cls-2" transform="translate(54.17 31.64)"><tspan x="0" y="0">⑥ER</tspan><tspan class="cls-40" x="11.62" y="0">C</tspan><tspan class="cls-29" x="14.75" y="0">-</tspan><tspan class="cls-24" x="16.06" y="0">２</tspan><tspan class="cls-55" x="19.89" y="0">０</tspan><tspan class="cls-54" x="23.77" y="0">ト</tspan><tspan class="cls-5" x="28.47" y="0">ー</tspan><tspan class="cls-14" x="33.3" y="0">ク</tspan><tspan class="cls-23" x="37.75" y="0">ン</tspan><tspan class="cls-45" x="42.59" y="0">の</tspan><tspan x="47.58" y="0">引出</tspan></text>
    <text class="cls-3" transform="translate(126.33 34.68)"><tspan class="cls-31" x="0" y="0">ス</tspan><tspan class="cls-15" x="4.76" y="0">テ</tspan><tspan class="cls-20" x="9.58" y="0">ル</tspan><tspan class="cls-57" x="14.37" y="0">ス</tspan><tspan class="cls-32" x="19.16" y="0">ア</tspan><tspan class="cls-4" x="23.66" y="0">ド</tspan><tspan class="cls-41" x="28.33" y="0">レ</tspan><tspan class="cls-28" x="33" y="0">ス</tspan></text>
    <text class="cls-3" transform="translate(131.61 66.57)"><tspan x="0" y="0">公開</tspan><tspan class="cls-30" x="10.12" y="0">鍵</tspan><tspan class="cls-26" x="14.88" y="0">リス</tspan><tspan class="cls-21" x="23.74" y="0">ト</tspan></text>
    <g>
      <line class="cls-43" x1="186.12" y1="41.25" x2="231.75" y2="48.26"/>
      <polygon class="cls-53" points="186.8 46.4 179.02 40.16 188.32 36.54 186.8 46.4"/>
    </g>
    <g>
      <line class="cls-43" x1="51.18" y1="12.61" x2="224.57" y2="12.61"/>
      <polygon class="cls-53" points="223.11 17.6 231.75 12.61 223.11 7.63 223.11 17.6"/>
    </g>
    <g>
      <line class="cls-43" x1="192.47" y1="64.84" x2="231.75" y2="64.84"/>
      <polygon class="cls-53" points="193.93 69.83 185.29 64.84 193.93 59.85 193.93 69.83"/>
    </g>
    <g>
      <line class="cls-43" x1="61.25" y1="64.84" x2="100.53" y2="64.84"/>
      <polygon class="cls-53" points="99.07 69.83 107.7 64.84 99.07 59.85 99.07 69.83"/>
    </g>
    <g>
      <line class="cls-43" x1="58.34" y1="49.89" x2="103.67" y2="41.36"/>
      <polygon class="cls-53" points="103.16 46.53 110.72 40.03 101.31 36.73 103.16 46.53"/>
    </g>
    <text class="cls-1" transform="translate(253.99 79.7)"><tspan class="cls-13" x="0" y="0">ユ</tspan><tspan class="cls-27" x="6.78" y="0">ー</tspan><tspan class="cls-19" x="13.58" y="0">ザ</tspan><tspan class="cls-33" x="20.5" y="0">B</tspan></text>
    <text class="cls-1" transform="translate(9.31 79.62)"><tspan class="cls-13" x="0" y="0">ユ</tspan><tspan class="cls-27" x="6.78" y="0">ー</tspan><tspan class="cls-19" x="13.58" y="0">ザ</tspan><tspan x="20.5" y="0">A</tspan></text>
  </g>
</svg>