<?xml version="1.0" encoding="UTF-8"?>
<svg id="_レイヤー_2" data-name="レイヤー 2" xmlns="http://www.w3.org/2000/svg" viewBox="0 0 294.99 82.71">
  <defs>
    <style>
      .cls-1 {
        letter-spacing: -.05em;
      }

      .cls-2 {
        stroke-dasharray: 0 0 3.97 7.94;
      }

      .cls-2, .cls-3 {
        stroke: #e2e1e0;
        stroke-linecap: round;
        stroke-linejoin: round;
        stroke-width: 4px;
      }

      .cls-2, .cls-3, .cls-4 {
        fill: none;
      }

      .cls-5 {
        font-size: 6.43px;
      }

      .cls-5, .cls-6 {
        font-family: NotoSansJP-Bold-83pv-RKSJ-H, 'Noto Sans JP';
        font-weight: 700;
      }

      .cls-5, .cls-7 {
        fill: #fff;
      }

      .cls-8 {
        letter-spacing: -.09em;
      }

      .cls-9 {
        letter-spacing: -.12em;
      }

      .cls-6 {
        fill: #231815;
        font-size: 7.12px;
      }

      .cls-10 {
        letter-spacing: -.05em;
      }

      .cls-11 {
        letter-spacing: -.05em;
      }

      .cls-4 {
        stroke: #040000;
        stroke-miterlimit: 10;
        stroke-width: 2px;
      }

      .cls-12 {
        letter-spacing: -.03em;
      }

      .cls-13 {
        letter-spacing: -.07em;
      }

      .cls-14 {
        fill: #f7c263;
      }

      .cls-14, .cls-15, .cls-16, .cls-17, .cls-18, .cls-19, .cls-20, .cls-21, .cls-22, .cls-23, .cls-7, .cls-24, .cls-25, .cls-26 {
        stroke-width: 0px;
      }

      .cls-15 {
        fill: #524644;
      }

      .cls-16 {
        fill: #3c84c1;
      }

      .cls-17 {
        fill: #1b82bd;
      }

      .cls-18 {
        fill: #a8a7a3;
      }

      .cls-19 {
        fill: #241412;
      }

      .cls-20 {
        fill: #96c5e6;
      }

      .cls-21 {
        fill: #6bb65f;
      }

      .cls-22 {
        fill: #8b8580;
      }

      .cls-23 {
        fill: #807873;
      }

      .cls-24 {
        fill: #e2e1e0;
      }

      .cls-25 {
        fill: #eaeaea;
      }

      .cls-26 {
        fill: #040000;
      }
    </style>
  </defs>
  <g id="Working">
    <path class="cls-7" d="m158.59,19.58c.34-.32.8-.48,1.27-.46.6-.02,1.16.29,1.46.81.5.86.48,2.45.14,3.43-.24.7-.62,1.76-1.56,2.52-.42.35-.96.5-1.49.43l-.14-.02c-.14.47-.31.94-.51,1.39-.4,1.09-2.73,5.08-5.61,6.27v1.59c-1.37,1.08-4.07,3.2-4.33,3.39h-.8c-.26-.18-2.86-2.23-4.25-3.33v-1.6c-1.4-.56-2.63-1.55-3.79-2.95-1.16-1.4-2.02-3.03-2.53-4.78-.57.12-1.17-.03-1.61-.4-.93-.76-1.32-1.83-1.56-2.52-.33-.98-.35-2.57.14-3.43.3-.52.86-.83,1.46-.81.47-.02.92.15,1.27.46,0,0-2.22-10.72,11.22-10.72,13.73,0,11.22,10.72,11.22,10.72Z"/>
    <path class="cls-23" d="m147.17,61.99c-1.58-3.89-1.98-5.17-3.21-8.96-1.66-5.11-3.21-10.72-4.39-15.98-.53.34-1.2.81-1.88,1.34l-.52.2-1.74.68c-4.21,1.77-8.16,3.6-10.1,6.55-1.38,2.1-2.58,6.75-2.96,10.38-.61,5.67-.7,7.9-1.53,19.16h53.16c-.82-11.25-.92-13.48-1.53-19.16-.39-3.63-1.58-8.28-2.96-10.38-1.94-2.95-5.89-4.78-10.1-6.55l-1.74-.68-.52-.2c-.68-.53-1.34-1-1.88-1.34-1.18,5.25-2.73,10.87-4.39,15.98-1.23,3.78-1.64,5.07-3.21,8.96"/>
    <path class="cls-22" d="m133.13,12.23c-.03.28-.06.53-.08.74-.2,2.5.37,4.5,1.14,6.28.22-.09.45-.13.69-.14.47-.02.92.15,1.27.46l.55.53.02-.23c.07-.87.19-1.72.38-2.57.2-.94.45-1.91,1.3-2.69l1.84-1.29c.49-.03,1.06-.1,1.45-.09,3.51.12,7.07-.55,9.79-1.82l2.16,1.26c1.37,1.19,2.52,2.62,3.36,4.22.28.52.91,2.28,1.36,2.98.33-.5.9-.79,1.51-.76.25,0,.49.06.72.15.88-4.61,1.07-7.4-.72-11-.37-.69-.81-1.35-1.32-1.94-.91-1.01-2.05-1.79-3.31-2.28l-2.43-1.06c-2.43-2.37-6.83-2.37-9.86-1.25-2.84,1.05-4.37,2.53-6.22,3.92-.65.52-1.41.91-2.22,1.12l-.69,2.46c-.34.59-.57,1.97-.7,3.01Z"/>
    <path class="cls-19" d="m145.3,29.04c.68.35,1.43.52,2.19.51.79.03,1.56-.19,2.21-.65.21-.22.21-.57,0-.78-.22-.21-.56-.21-.78,0,.17-.13.03-.03,0,0s-.09.05-.14.08c-.04.02-.2.09-.05.03-.06.02-.12.05-.19.07-.17.05-.35.09-.53.12.08-.01-.03,0-.05,0-.05,0-.1,0-.15.01-.12,0-.25.01-.37.01-.11,0-.22,0-.33-.01-.05,0-.1,0-.15-.01,0,0-.18-.03-.08,0-.17-.03-.33-.06-.49-.11-.07-.02-.14-.05-.2-.07-.02,0-.04-.01-.07-.03.11.08.06.03.01,0-.08-.04-.17-.08-.25-.12-.26-.15-.6-.06-.76.2-.15.26-.06.6.2.76h0Z"/>
    <path class="cls-19" d="m147.22,23.86c.1.37.18.74.24,1.11l-.02-.15c0,.05,0,.1,0,.15l.02-.15s0,.05-.02.07l.06-.13s-.01.03-.02.04l.09-.11s-.02.03-.04.04l.11-.09s-.06.03-.09.05l.13-.06s-.1.03-.15.04l.15-.02s-.09,0-.14,0l.15.02c-.05,0-.1-.02-.16-.03-.14-.03-.3-.01-.43.06-.26.15-.35.49-.2.76,0,0,0,0,0,0,.07.13.19.22.33.25.12.02.23.05.35.05.18,0,.36-.04.52-.12.21-.09.36-.27.41-.49.04-.18.03-.36,0-.53-.06-.36-.14-.71-.24-1.07-.08-.29-.39-.47-.68-.39-.29.08-.47.39-.39.68h0Z"/>
    <path class="cls-19" d="m141.3,20.72c-.19.6-.06,1.99,1.08,2.11,1.51,0,1.59-1.69,1.08-2.48-.42-.65-1.64-.92-2.16.37Z"/>
    <path class="cls-19" d="m153.45,20.72c.19.6.06,1.99-1.08,2.11-1.51,0-1.59-1.69-1.08-2.48.42-.65,1.64-.92,2.16.37Z"/>
    <path class="cls-19" d="m136.54,19.19c-.75-.67-1.82-.81-2.72-.37-.63.34-1.07.95-1.2,1.65-.36,1.66-.02,3.4.93,4.81.67,1.01,1.65,1.74,2.91,1.57.29-.08.47-.39.39-.68-.09-.29-.39-.46-.68-.39-.88.12-1.57-.83-1.92-1.5-.36-.66-.58-1.38-.65-2.13-.04-.41-.02-.83.05-1.24.05-.29.16-.57.31-.83-.04.05.08-.08.09-.1.03-.04.07-.08.12-.1.14-.1.31-.16.48-.19.39-.08.8.02,1.1.28.53.48,1.31-.3.78-.78h0Z"/>
    <path class="cls-19" d="m158.99,19.97c.54-.45,1.34-.39,1.8.13-.08-.1.03.05.04.07.04.07.08.14.11.22.06.17.11.34.14.52.07.41.09.83.05,1.24-.07.73-.28,1.44-.63,2.09-.36.68-1.05,1.66-1.94,1.54-.29-.07-.59.1-.68.39-.08.29.09.6.39.68,2.04.28,3.22-1.73,3.75-3.41.26-.86.31-1.77.16-2.66-.08-.72-.44-1.37-1.01-1.82-.93-.61-2.15-.52-2.97.22-.53.48.26,1.26.78.78h0Z"/>
    <path class="cls-19" d="m157.96,25.32c-.11.49-.25.98-.42,1.45-.05.15-.15.4-.18.49s-.08.18-.12.28c0,.02-.06.16-.02.07.04-.09-.02.05-.03.07-.02.05-.04.09-.06.14-.06.12-.12.24-.18.35-.14.26-.29.52-.44.77-.8,1.35-1.82,2.56-3.01,3.57-.65.55-1.41.95-2.24,1.16-.69.16-.4,1.23.29,1.07,1.7-.39,3.11-1.63,4.22-2.91.95-1.07,1.75-2.28,2.37-3.57.06-.13.11-.26.17-.4-.07.17.09-.22.1-.23.05-.11.09-.22.13-.33.21-.55.38-1.11.5-1.68.07-.29-.1-.59-.39-.68-.29-.08-.6.09-.68.39h0Z"/>
    <path class="cls-19" d="m135.69,25.57c.37,1.67,1.05,3.25,1.99,4.67,1.01,1.52,2.34,2.94,3.95,3.83.82.46,1.72.76,2.65.9.29.07.59-.1.68-.39.08-.29-.09-.6-.39-.68-3.33-.49-5.82-3.38-7.09-6.34-.31-.74-.56-1.51-.73-2.29-.16-.69-1.22-.4-1.07.29h0Z"/>
    <path class="cls-19" d="m155.09,4.57c1.81.73,3.3,2.08,4.21,3.8.89,1.67,1.37,3.53,1.38,5.42,0,1.16-.11,2.32-.3,3.46-.07.29.1.59.39.68.29.08.6-.09.68-.39.34-2.14.52-4.32.04-6.46-.46-2.04-1.42-4.09-2.92-5.57-.92-.87-2-1.56-3.18-2.02-.29-.08-.6.09-.68.39-.07.29.1.59.39.68h0Z"/>
    <path class="cls-19" d="m153.2,2.59c-1.95-1.88-4.88-2.36-7.49-2.06-1.42.17-2.8.56-4.09,1.16-1.29.62-2.5,1.38-3.61,2.27-.57.44-1.12.89-1.7,1.32-.59.43-1.24.75-1.94.96-.68.21-.39,1.28.29,1.07.64-.18,1.25-.45,1.81-.79.54-.35,1.05-.77,1.55-1.17,1.01-.83,2.08-1.58,3.21-2.23,2.27-1.24,4.95-1.86,7.53-1.43,1.34.23,2.65.73,3.65,1.69.51.49,1.3-.29.78-.78h0Z"/>
    <path class="cls-19" d="m133.35,8.95c-.36.66-.49,1.44-.61,2.16-.14.79-.23,1.59-.27,2.39-.05,1.92.31,3.83,1.06,5.59.09.29.39.46.68.39.29-.08.47-.39.39-.68-.71-1.64-1.06-3.41-1.03-5.19.03-.74.1-1.48.23-2.21.1-.63.23-1.41.5-1.9.34-.63-.61-1.18-.96-.56h0Z"/>
    <path class="cls-19" d="m151.19,10.93c-1.68.75-3.46,1.26-5.28,1.51-.96.14-1.93.22-2.9.24-.48.01-.96-.01-1.44,0-.45,0-.89.06-1.33.09-.71.04-.71,1.15,0,1.11.46-.03.91-.09,1.37-.09.49,0,.97.02,1.46,0,1.05-.03,2.1-.12,3.14-.28,1.92-.27,3.79-.82,5.55-1.63.26-.16.35-.49.2-.76-.16-.26-.49-.35-.76-.2Z"/>
    <path class="cls-19" d="m138.01,14.22c-.79.75-1.18,1.74-1.41,2.78-.2.95-.35,1.91-.43,2.87,0,.3.25.55.55.55.3,0,.55-.25.55-.55.07-.84.2-1.68.37-2.5.19-.89.46-1.73,1.14-2.37.52-.49-.26-1.27-.78-.78h0Z"/>
    <path class="cls-19" d="m153.24,13.06c1.1.95,2.05,2.07,2.81,3.3.64,1.05,1.02,2.21,1.56,3.31.16.26.49.35.76.2.26-.16.35-.49.2-.76-.55-1.13-.94-2.31-1.61-3.39-.81-1.29-1.79-2.45-2.94-3.45-.53-.47-1.32.31-.78.78h0Z"/>
    <path class="cls-7" d="m147.68,61.99c1.58-3.89,1.98-5.17,3.21-8.96,1.53-4.69,2.95-9.81,4.09-14.68.09-.49-.05-1-.38-1.38-.51-.59-1.16-1.45-1.68-2.04-.22.18-4.76,3.76-5.1,4h-.8c-.34-.24-4.88-3.82-5.1-4-.52.59-1.17,1.44-1.68,2.04-.33.38-.46.89-.38,1.38,1.14,4.87,2.57,9.99,4.09,14.68,1.23,3.78,1.64,5.07,3.21,8.96h.51Z"/>
    <path class="cls-16" d="m149.05,58.48c-.36.98-.79,2.07-1.37,3.51h-.51c-1.45-3.58-1.91-4.95-2.94-8.1.5-4.26,1.15-9.33,1.15-9.48-.01-.27-.05-.54-.12-.8-.03-.12-.06-.24-.08-.36-.13-.59-.16-.89-.31-1.52v-.03c.72-.99,1.61-2.16,2.15-2.76h.8c.54.6,1.41,1.76,2.14,2.74-.04.12-.07.19-.07.19-.16.39-.28.8-.37,1.22-.17.45-.26.93-.3,1.41,0,.25.69,5.06,1.33,9.58-.58,1.78-.98,2.99-1.5,4.41Z"/>
    <path class="cls-19" d="m132.13,75.36c-.01-2.72-.04-5.43-.07-8.15-.04-3.54-.08-7.09-.12-10.63-.02-1.52-.04-3.04-.07-4.57-.01-.71-1.12-.71-1.11,0,.06,3.04.1,6.07.13,9.11.04,3.45.08,6.91.1,10.36.01,1.29.02,2.58.03,3.88,0,.71,1.11.71,1.11,0h0Z"/>
    <path class="cls-19" d="m143.75,61.87c-2.83-4.91-5.63-9.84-8.24-14.87-.18-.34-.37-.67-.53-1.02-.07-.15-.07-.12.05-.24.13-.15.28-.3.42-.44.58-.6,1.18-1.17,1.78-1.73.22-.22.21-.57,0-.79-.03-.03-.07-.06-.1-.08l-1.12-.64-.54-.31c-.1-.06-.2-.11-.29-.17l-.1-.06c-.08-.05-.08-.05.02.02l.08.28c-.03.06-.04.07-.01.03.01-.03.03-.05.04-.08.02-.05.05-.09.08-.14.06-.11.13-.21.2-.31.14-.19.28-.38.44-.55.4-.44.82-.86,1.27-1.25.83-.73,1.72-1.39,2.65-1.99l-.81-.33c.82,3.62,1.75,7.22,2.79,10.78.92,3.16,1.91,6.31,3,9.42.56,1.59,1.18,3.16,1.81,4.73.09.29.39.46.68.39.29-.08.47-.39.39-.68-1.1-2.71-2.07-5.44-2.97-8.22-1.14-3.52-2.2-7.06-3.14-10.63-.53-2.02-1.03-4.05-1.49-6.08-.08-.3-.39-.47-.69-.38-.04.01-.08.03-.12.05-1.41.88-2.71,1.93-3.88,3.12-.29.3-.56.62-.8.96-.23.28-.41.6-.52.95-.14.64.48.9.93,1.16l1.56.89-.11-.87c-.56.53-1.13,1.06-1.67,1.61-.53.54-1.2,1.11-.85,1.95.28.66.65,1.29.99,1.92.35.66.7,1.32,1.05,1.98,1.41,2.63,2.86,5.23,4.33,7.82.83,1.46,1.66,2.91,2.5,4.36.36.62,1.31.06.96-.56h0Z"/>
    <path class="cls-19" d="m121.4,75.36c.24-3.31.48-6.62.72-9.93.15-2.03.3-4.05.49-6.07.26-2.79.56-5.56,1.27-8.28.39-1.51.86-3.06,1.61-4.44.72-1.33,1.85-2.39,3.08-3.26,2.55-1.79,5.5-2.98,8.38-4.11l.37-.14c.29-.09.46-.39.39-.68-.08-.29-.39-.47-.68-.39-2.7,1.06-5.44,2.15-7.93,3.66-1.47.89-2.85,1.96-3.9,3.34-.93,1.22-1.47,2.7-1.93,4.15-.95,3.01-1.37,6.1-1.68,9.23-.2,2-.36,4-.51,6.01-.23,3.09-.44,6.17-.67,9.26-.04.55-.08,1.1-.12,1.65,0,.3.25.55.55.55.3,0,.55-.25.55-.55h0Z"/>
    <path class="cls-19" d="m163.82,75.36c.02-2.72.04-5.43.07-8.15.04-3.54.08-7.09.12-10.63.02-1.52.04-3.04.07-4.57.01-.71-1.09-.71-1.11,0-.06,3.04-.1,6.07-.13,9.11-.04,3.45-.08,6.91-.1,10.36-.01,1.29-.02,2.58-.03,3.88,0,.71,1.1.71,1.11,0h0Z"/>
    <path class="cls-19" d="m145.56,44.5c1.18,0,2.37-.02,3.55-.03.31,0,.55-.25.55-.55s-.25-.55-.55-.55c-1.18,0-2.37.02-3.55.03-.31,0-.55.25-.55.55s.25.55.55.55h0Z"/>
    <path class="cls-19" d="m144.34,41.88c.11.47.19.95.29,1.42.11.37.18.75.21,1.13-.01.33-.08.67-.12,1-.2,1.66-.41,3.31-.62,4.97-.14,1.17-.28,2.33-.42,3.5,0,.3.25.55.55.55.3,0,.55-.25.55-.55.24-2.02.48-4.03.73-6.04.14-1.13.35-2.27.42-3.4,0-.41-.07-.82-.19-1.22-.12-.55-.21-1.11-.34-1.66-.17-.69-1.23-.4-1.07.29h0Z"/>
    <path class="cls-19" d="m151.05,53.7c-.28-1.95-.56-3.91-.83-5.86-.1-.73-.21-1.47-.31-2.2,0-.04-.02-.18-.02-.16l-.02-.14c-.01-.11-.03-.21-.04-.32-.02-.14-.04-.29-.05-.44,0-.31.04-.62.14-.91.11-.52.26-1.03.45-1.53.14-.27.06-.6-.2-.76-.26-.15-.6-.06-.76.2-.19.47-.34.96-.46,1.45-.17.47-.27.97-.28,1.47.02.31.06.62.11.92.22,1.65.46,3.29.69,4.93.17,1.21.35,2.43.52,3.64.08.29.39.47.68.39.29-.09.46-.39.39-.68h0Z"/>
    <path class="cls-19" d="m152.05,62.43c2.96-5.13,5.89-10.29,8.6-15.56.2-.4.45-.79.34-1.26-.09-.4-.42-.69-.69-.97-.61-.64-1.25-1.25-1.9-1.85l-.11.87,1.56-.89c.45-.26,1.07-.52.93-1.16-.11-.35-.29-.67-.52-.95-.25-.34-.52-.65-.8-.96-1.17-1.19-2.47-2.24-3.88-3.12-.27-.15-.61-.06-.76.21-.02.04-.04.08-.05.12-.82,3.62-1.75,7.22-2.79,10.78-.92,3.16-1.91,6.31-3,9.42-.56,1.59-1.18,3.16-1.81,4.73-.08.29.09.6.39.68.29.07.59-.1.68-.39,1.1-2.71,2.07-5.44,2.97-8.22,1.14-3.52,2.2-7.06,3.14-10.63.53-2.02,1.03-4.05,1.49-6.08l-.81.33c.93.6,1.82,1.26,2.65,1.99.44.38.86.79,1.25,1.22.17.18.32.38.47.58.06.09.13.18.18.28.03.05.06.11.09.17l.03.05c.04.07.04.07,0,0l.08-.28c.09-.06.1-.07.05-.03-.04.03-.08.05-.13.07-.1.06-.2.11-.29.17l-.54.31-1.12.64c-.26.16-.35.5-.19.77.02.04.05.07.08.1.54.5,1.07,1.01,1.59,1.54.13.13.26.26.39.4.09.09.26.21.3.32.06.15-.22.54-.31.72-.64,1.25-1.3,2.49-1.96,3.72-1.35,2.51-2.74,5.01-4.15,7.49-.78,1.38-1.57,2.75-2.36,4.12-.36.62.6,1.18.96.56h0Z"/>
    <path class="cls-19" d="m152.54,35.32c.3.34.59.7.88,1.06.27.33.56.65.81.99.1.14.18.3.22.47.02.06.02.12.03.19,0,.04-.03.24.01.13-.05.12-.12.23-.19.33-.61,1.01-1.29,1.98-2.04,2.9-.24.29-.49.57-.75.84-.12.11-.23.22-.36.33-.09.08-.19.15-.29.22l.76.2c-1.11-1.48-2.16-3.03-3.39-4.42l-.11.87c.65-.46,1.26-.97,1.88-1.46.88-.69,1.76-1.38,2.64-2.08.23-.18.46-.36.69-.55.21-.22.21-.57,0-.78-.22-.21-.56-.21-.78,0-1.43,1.15-2.88,2.28-4.33,3.41l-.27.21-.12.09c-.07.06.09-.07-.02.01-.09.07-.17.14-.26.2-.27.16-.35.51-.18.78.02.03.04.06.07.09,1.17,1.32,2.16,2.79,3.21,4.2.16.26.49.35.76.2,1.19-.78,2.08-2.07,2.88-3.21.33-.48.66-.96.96-1.46.09-.13.16-.27.23-.41.17-.48.13-1.01-.09-1.46-.21-.5-.62-.89-.96-1.31-.36-.45-.71-.9-1.09-1.33-.47-.53-1.25.25-.78.78Z"/>
    <path class="cls-19" d="m141.53,34.54c-.34.38-.65.78-.97,1.17-.3.37-.65.73-.91,1.13-.43.61-.48,1.41-.12,2.07.67,1.12,1.42,2.19,2.25,3.2.47.62,1.03,1.16,1.67,1.61.26.15.6.06.76-.2,1.05-1.41,2.05-2.88,3.21-4.2.22-.23.21-.58-.02-.8-.03-.03-.06-.05-.09-.07-.07-.05-.14-.1-.21-.16l-.08-.06c-.07-.05.09.07,0,0-.08-.06-.15-.12-.23-.18-.4-.31-.8-.63-1.2-.94-.86-.68-1.73-1.36-2.59-2.04-.23-.18-.45-.35-.68-.53-.22-.21-.56-.21-.78,0-.21.22-.21.57,0,.78,1.45,1.17,2.92,2.31,4.38,3.45.28.21.55.44.83.64l-.11-.87c-1.23,1.39-2.27,2.94-3.39,4.42l.76-.2s-.1-.07-.14-.1,0,0,0,0c-.03-.02-.06-.05-.09-.07-.11-.09-.22-.19-.33-.3-.23-.22-.45-.46-.66-.71-.43-.5-.83-1.03-1.2-1.57-.32-.46-.64-.93-.93-1.41-.08-.13-.17-.27-.24-.41-.01-.02-.02-.04-.03-.06.02.06,0,.01,0-.05,0-.16.03-.31.08-.46.17-.42.57-.77.85-1.12.33-.41.65-.82,1-1.21.47-.53-.31-1.32-.78-.78Z"/>
    <path class="cls-19" d="m142.22,34.4v.88c0,.15.06.29.16.39.22.22.57.22.78,0,.1-.11.16-.25.16-.39v-.88c0-.15-.06-.29-.16-.39-.22-.22-.57-.22-.78,0-.1.11-.16.25-.16.39Z"/>
    <path class="cls-19" d="m151.6,34.35v.91c0,.15.06.29.16.39.22.22.57.22.78,0h0c.1-.11.16-.25.16-.39v-.05c0-.15-.06-.29-.16-.39-.22-.22-.57-.22-.78,0h0c-.1.11-.16.25-.16.39v.05h1.11v-.91c0-.15-.06-.29-.16-.39-.22-.22-.57-.22-.78,0h0c-.1.11-.16.25-.16.39h0Z"/>
    <path class="cls-19" d="m174.56,75.36c-.25-3.35-.48-6.7-.73-10.05-.15-2.05-.31-4.1-.5-6.15-.28-2.93-.61-5.84-1.38-8.69-.42-1.56-.93-3.15-1.73-4.56-.81-1.42-2.05-2.55-3.38-3.48-2.62-1.84-5.66-3.05-8.62-4.22l-.39-.15c-.29-.08-.6.09-.68.39-.07.29.1.59.39.68,2.62,1.03,5.25,2.09,7.66,3.55,1.36.83,2.7,1.82,3.64,3.13.86,1.2,1.36,2.63,1.78,4.03.52,1.73.91,3.49,1.17,5.27.17,1.18.27,2.36.39,3.55.19,1.96.35,3.93.5,5.9.23,3.07.44,6.13.66,9.2.04.53.08,1.07.12,1.6,0,.3.25.55.55.55.3,0,.55-.25.55-.55Z"/>
    <path class="cls-14" d="m156.86,45.28c-.66-.01-1.2.51-1.21,1.16,0,.01,0,.03,0,.04-.03.64.46,1.19,1.11,1.23.03,0,.07,0,.1,0,.64.03,1.18-.46,1.21-1.1,0-.04,0-.09,0-.13,0-.65-.51-1.19-1.17-1.2-.01,0-.03,0-.04,0Z"/>
    <path class="cls-19" d="m156.86,44.73c-.77,0-1.45.5-1.69,1.24-.22.7.01,1.46.58,1.93.59.44,1.39.5,2.03.14.63-.39.95-1.14.81-1.87-.15-.83-.88-1.44-1.73-1.43-.31,0-.55.25-.55.55s.25.55.55.55c.04,0,.07,0,.11,0,.12,0-.13-.03-.01,0,.05.01.11.02.16.04.02,0,.04.02.06.02l-.07-.03s.04.02.06.03c.05.03.1.07.16.1-.12-.05-.06-.05-.02,0,.01.01.03.03.04.04.02.02.04.05.06.07-.08-.05-.06-.08-.02-.03.03.05.06.1.09.15.02.04,0,.07-.02-.05,0,.04.03.08.04.12.01.05.02.11.03.15-.04-.12,0-.09,0-.04,0,.03,0,.05,0,.08,0,.05,0,.11,0,.17-.02-.12.01-.09,0-.02,0,.04-.02.07-.03.1,0,.02-.01.05-.02.07-.02.07-.06.07.01-.02-.03.04-.04.09-.07.13-.01.02-.03.04-.04.06-.04.06.1-.11.02-.03-.04.04-.09.08-.12.12.08-.1.07-.05.02-.02-.02.01-.03.02-.05.03-.03.01-.05.03-.08.04-.09.05.11-.03.04-.01-.05.01-.11.04-.16.05-.02,0-.04,0-.06.01-.06,0-.04,0,.05,0-.02,0-.04,0-.07,0-.06,0-.11,0-.17,0-.03,0-.06,0-.1,0,.01,0,.14.03.05,0-.06-.01-.11-.02-.16-.04-.02,0-.05-.02-.07-.03.15.04.06.02.01,0s-.09-.06-.14-.09c.12.07.07.06.04.03-.02-.02-.04-.04-.06-.06-.02-.02-.03-.04-.05-.05-.05-.05.08.12.02.03-.03-.05-.06-.1-.09-.15-.05-.1.04.13,0,.02,0-.02-.01-.04-.02-.06,0-.06-.02-.12-.04-.18,0,0,.01.14,0,.05,0-.03,0-.07,0-.1v-.08c0-.06.04-.14,0,0,.02-.06.02-.12.04-.18.01-.03.02-.06.03-.09,0,.06-.05.11,0,.02.03-.05.07-.1.1-.16-.06.12-.05.06,0,.02.02-.02.04-.04.06-.07.04-.04.1-.05-.02,0,.03-.02.05-.03.08-.05.03-.02.05-.03.08-.05.02,0,.04-.02.06-.03l-.07.03c.06-.01.13-.03.19-.06h.03c.06-.02.04-.01-.05,0,.05,0,.09,0,.14,0,.31,0,.55-.25.55-.55s-.25-.55-.55-.55h0Z"/>
    <g>
      <circle class="cls-17" cx="167.32" cy="69.46" r="13.25"/>
      <path class="cls-7" d="m174.72,68.91v-2.24c0-1.06-.73-1.94-1.72-2.17-.09-1.15-1.05-2.05-2.23-2.05h-8.03c-1.68,0-3.07,1.24-3.31,2.85h-.04v7.83c0,1.85,1.5,3.35,3.35,3.35h9.74c1.24,0,2.24-1,2.24-2.24v-1.42c.31-.09.54-.38.55-.72v-2.48c0-.34-.23-.63-.55-.72Zm-.75,5.33c0,.41-.17.78-.44,1.05-.27.27-.64.44-1.05.44h-9.74c-.72,0-1.37-.29-1.84-.76-.47-.47-.76-1.12-.76-1.84v-7.44c.07-1.38,1.2-2.49,2.6-2.49h8.03c.74,0,1.34.53,1.46,1.24h-10.81c-.21,0-.38.17-.38.38s.17.38.38.38h11.17c.76.07,1.36.71,1.36,1.49v2.21h-3.47c-.55,0-1.05.22-1.41.58h0c-.36.36-.58.86-.58,1.41,0,.55.22,1.05.58,1.41h0c.36.36.86.58,1.41.58h3.47v1.38h0Zm.54-2.14h-4.01c-.35,0-.65-.14-.88-.36-.23-.23-.36-.53-.36-.88,0-.35.14-.65.36-.88h0s0,0,0,0h0c.23-.23.53-.36.88-.36h4.01v2.48Z"/>
      <path class="cls-7" d="m169.99,70.87c0,.3.24.54.54.54s.54-.24.54-.54-.24-.54-.54-.54c-.3,0-.54.24-.54.54Z"/>
    </g>
    <path class="cls-24" d="m238.78,51.19c.34-.46.65-.95.92-1.45.27-.54.42-1.15.41-1.75,0-.58-.07-1.17-.11-1.75-.04-.57-.07-1.15-.1-1.73-.06-1.09-.09-2.18-.09-3.27,0-.46.01-.92.04-1.38.01-.19.02-.38.04-.57.02-.2.03-.28.06-.45.04-.26.12-.51.21-.75.14-.38.26-.77.36-1.17.23-.94.41-1.89.55-2.86.14-.93.25-1.86.34-2.8.02-.18.04-.37.05-.55,0-.02,0-.04,0-.06,0,0,0,.05,0,0,0-.04.02-.09.03-.13.03-.1.06-.19.1-.29.2-.48.51-.89.74-1.36.48-1.06.83-2.18,1.05-3.32.12-.56.19-1.15.39-1.69.14-.38.48-.83.94-.78.21.04.41.14.55.3.35.34.89-.2.54-.54-.41-.4-.97-.64-1.54-.47-.55.17-.95.63-1.16,1.15-.23.56-.3,1.17-.43,1.75-.12.57-.26,1.15-.43,1.71-.16.55-.37,1.09-.62,1.61-.24.48-.54.91-.75,1.41-.14.39-.21.8-.23,1.21-.04.45-.09.91-.15,1.36-.22,1.83-.48,3.71-1.14,5.44-.24.63-.26,1.37-.29,2.04-.05,1.03-.03,2.06,0,3.09.04,1.18.11,2.35.19,3.53.04.6.15,1.24.04,1.84-.13.56-.36,1.08-.69,1.54-.16.25-.33.48-.5.72-.1.18-.04.41.14.52.18.1.41.04.52-.14h0Z"/>
    <path class="cls-24" d="m251.05,57.74s.04-.03.06-.05c-.08.06,0,0,.01,0,.04-.03.09-.06.13-.1.12-.08.24-.16.37-.24.3-.19.6-.37.91-.55.53-.32,1.08-.62,1.6-.95,1.54-.96,3.01-2.04,4.39-3.22.62-.54,1.2-1.11,1.75-1.72.33-.36-.21-.9-.54-.54-2.11,2.32-4.73,4.08-7.41,5.66-.61.36-1.26.71-1.81,1.17-.15.15-.15.39,0,.54.15.14.39.14.54,0h0Z"/>
    <path class="cls-24" d="m268.11,18.64c.33-.25.67-.48,1.02-.69.27-.15.58-.21.89-.2.27-.02.53.06.73.24.19.19.32.44.36.7.13.68-.26,1.38-.61,1.94-.42.66-.88,1.29-1.37,1.9-.43.58-.93,1.1-1.49,1.56-.15.15-.15.39,0,.54.15.14.39.14.54,0,.56-.46,1.05-.99,1.49-1.56.57-.7,1.1-1.43,1.58-2.2.44-.71.77-1.56.59-2.4-.14-.75-.74-1.34-1.49-1.45-.44-.06-.89-.01-1.3.14-.47.18-.92.53-1.32.83-.18.11-.24.34-.14.52.11.18.34.24.52.14Z"/>
    <path class="cls-24" d="m268.11,25.68c.28-.21.57-.41.87-.59.25-.14.53-.22.82-.21.23-.02.46.04.65.18.19.17.31.39.35.64.13.61-.21,1.25-.53,1.75-.39.61-.8,1.19-1.25,1.75-.4.53-.86,1.02-1.37,1.45-.15.15-.15.39,0,.54.15.14.39.14.54,0,.52-.44.99-.93,1.39-1.48.52-.64,1.01-1.32,1.44-2.02.4-.66.7-1.46.5-2.24-.15-.7-.74-1.23-1.45-1.31-.4-.05-.8,0-1.18.15-.42.2-.81.44-1.17.74-.18.11-.24.34-.14.52.11.18.34.24.52.14h0Z"/>
    <path class="cls-24" d="m268.11,32.34c.26-.19.53-.37.8-.54.24-.14.51-.2.78-.19.21-.02.42.05.58.18.16.16.27.37.31.6.1.55-.21,1.13-.5,1.58-.36.56-.74,1.1-1.16,1.61-.37.5-.8.96-1.28,1.36-.15.15-.15.39,0,.54.15.14.39.14.54,0,.48-.41.92-.88,1.3-1.39.49-.6.94-1.23,1.34-1.89.37-.61.64-1.35.47-2.07-.13-.66-.67-1.17-1.34-1.26-.38-.05-.77,0-1.14.13-.4.18-.77.41-1.1.69-.18.11-.24.34-.14.52.11.18.34.24.52.14h0Z"/>
    <path class="cls-7" d="m249.28,5.95h14.92c2.05,0,3.72,1.67,3.72,3.72h0v37.26c0,2.05-1.67,3.72-3.72,3.72h-14.92c-2.05,0-3.72-1.67-3.72-3.72V9.67c0-2.05,1.66-3.72,3.72-3.72Z"/>
    <path class="cls-19" d="m263.7,5.95s-.39.13-.39.51v.58c0,.84-.68,1.51-1.51,1.52-1.44,0-3.6,0-5.06,0-1.46,0-3.62,0-5.06,0-.84,0-1.51-.68-1.51-1.52v-.58c-.01-.23-.15-.43-.36-.51"/>
    <path class="cls-19" d="m263.51,5.62c-.15.08-.28.19-.4.31-.19.25-.18.52-.18.82.02.26-.01.53-.11.78-.1.21-.26.38-.46.5-.21.11-.44.17-.68.16h-.89s-1.95,0-1.95,0c-1.21,0-2.41,0-3.62,0h-1.97s-.92,0-.92,0c-.28.02-.56.01-.83-.01-.52-.08-.92-.51-.96-1.04-.02-.33.06-.7-.07-1.01-.05-.13-.14-.25-.25-.34-.05-.04-.1-.08-.15-.11-.04-.02-.13-.09,0,.02-.15-.14-.39-.14-.54,0-.15.15-.15.39,0,.54.05.04.11.08.17.11.04.03-.05-.04,0,0,.02.02.04.03.05.05.02.02.03.05.03.08.04.28-.02.57.02.86.09.61.46,1.13,1,1.42.55.27,1.17.21,1.77.21h2.01c1.26,0,2.52,0,3.78,0h2.04s.93,0,.93,0c.3.02.6,0,.89-.05.68-.16,1.21-.67,1.4-1.34.09-.34.05-.69.07-1.04,0-.04,0-.07.02-.1,0,0,.07-.07.04-.04.05-.03.11-.05.15-.09.18-.11.23-.34.14-.52-.11-.18-.34-.24-.52-.14h0Z"/>
    <path class="cls-19" d="m264.19,50.27h-14.78c-.42,0-.83-.05-1.23-.18-.85-.3-1.54-.93-1.93-1.74-.45-.94-.31-2.14-.31-3.16V9.83c-.03-.96.34-1.89,1.02-2.56.62-.6,1.45-.94,2.32-.94.13,0,.27,0,.4,0h13.64c.71,0,1.41-.04,2.09.22,1.29.51,2.14,1.76,2.13,3.15v34.95c0,.78.01,1.56,0,2.33-.05,1.81-1.53,3.26-3.34,3.28-.49,0-.49.76,0,.76,2.06-.02,3.8-1.56,4.07-3.6.03-.34.04-.68.03-1.02V12.37c0-.89,0-1.79,0-2.68-.01-1.72-1.08-3.26-2.69-3.86-.73-.28-1.48-.25-2.25-.25h-13.73c-.16,0-.32,0-.48,0-1,.03-1.96.43-2.69,1.12-.84.81-1.31,1.93-1.29,3.1v36.88c-.03.8.16,1.59.54,2.29.76,1.3,2.17,2.09,3.68,2.07h14.8c.49,0,.49-.76,0-.76Z"/>
    <path class="cls-15" d="m254.42,7.69c.98,0,1.95,0,2.93,0,.49,0,.49-.76,0-.76-.98,0-1.95,0-2.93,0-.49,0-.49.76,0,.76Z"/>
    <path class="cls-15" d="m259.05,7.75c.57,0,.57-.89,0-.89s-.57.89,0,.89Z"/>
    <path class="cls-3" d="m248.26,22.46h.32"/>
    <path class="cls-2" d="m249.83,22.46h14.43"/>
    <path class="cls-3" d="m264.89,22.46h.32"/>
    <path class="cls-3" d="m248.26,36.26h.32"/>
    <path class="cls-2" d="m249.83,36.26c3.47,0,11.6,0,14.43,0"/>
    <path class="cls-3" d="m264.89,36.26h.32"/>
    <path class="cls-25" d="m247.84,10.92c.01,2.1.07,7.12.08,9.37.02.39.34.69.73.67,2.11,0,6.98.02,9.22.02.39.01.71-.29.73-.68,0,0,0,0,0,0,0-2.36-.05-7.35-.06-9.4-.02-.39-.34-.69-.73-.67-2.1,0-7.09,0-9.24.01-.39-.01-.71.29-.73.68,0,0,0,0,0,0Z"/>
    <path class="cls-25" d="m247.83,24.63c.01,2.1.07,7.12.08,9.37.02.39.34.69.73.67,2.11,0,6.98.02,9.22.02.39.01.71-.29.73-.68,0,0,0,0,0,0,0-2.36-.05-7.35-.06-9.4-.02-.39-.34-.69-.73-.67-2.1,0-7.09,0-9.24.01-.39-.01-.71.29-.73.68,0,0,0,0,0,0Z"/>
    <path class="cls-24" d="m260,25.62c1.63,0,3.26,0,4.89,0,.49,0,.49-.76,0-.76-1.63,0-3.26,0-4.89,0-.49,0-.49.76,0,.76h0Z"/>
    <path class="cls-24" d="m260,27.6c.93,0,1.86-.02,2.79-.02.49,0,.49-.76,0-.76-.93,0-1.86.02-2.79.02-.49,0-.49.76,0,.76Z"/>
    <path class="cls-21" d="m260,39.39c1.63,0,3.26,0,4.89,0,.49,0,.49-.76,0-.76-1.63,0-3.26,0-4.89,0-.49,0-.49.76,0,.76h0Z"/>
    <path class="cls-21" d="m260,41.37c.93,0,1.86-.02,2.79-.02.49,0,.49-.76,0-.76-.93,0-1.86.02-2.79.02-.49,0-.49.76,0,.76Z"/>
    <path class="cls-24" d="m260,11.78c1.63,0,3.26,0,4.89,0,.49,0,.49-.76,0-.76-1.63,0-3.26,0-4.89,0-.49,0-.49.76,0,.76h0Z"/>
    <path class="cls-24" d="m260,13.75c.96,0,1.92-.02,2.88-.02.49,0,.49-.76,0-.76-.96,0-1.92.02-2.88.02-.49,0-.49.76,0,.76Z"/>
    <path class="cls-25" d="m247.84,38.64c.01,2.1.07,7.12.08,9.37.02.39.34.69.73.67,2.11,0,6.98.02,9.22.02.39.01.71-.29.73-.68,0,0,0,0,0,0,0-2.36-.05-7.35-.06-9.4-.02-.39-.34-.69-.73-.67-2.1,0-7.09,0-9.24.01-.39-.01-.71.29-.73.68,0,0,0,0,0,0Z"/>
    <path class="cls-24" d="m260.03,34.11c1.16.02,2.31,0,3.47,0,.21,0,.38-.17.38-.38v-3.45c0-.21-.17-.38-.38-.38-1.16,0-2.31.02-3.47,0-.21,0-.38.17-.38.38v3.45c0,.49.76.49.76,0v-3.45l-.38.38c1.16.02,2.31,0,3.47,0l-.38-.38v3.45l.38-.38c-1.16,0-2.31.02-3.47,0-.49,0-.49.75,0,.76Z"/>
    <path class="cls-24" d="m260,20.41c1.19.02,2.39,0,3.58,0,.21,0,.38-.17.38-.38v-3.57c0-.21-.17-.38-.38-.38-1.19,0-2.39.02-3.58,0-.21,0-.38.17-.38.38v3.57c0,.49.76.49.76,0v-3.57l-.38.38c1.19.02,2.39,0,3.58,0l-.38-.38v3.57l.38-.38c-1.19,0-2.39.02-3.58,0-.49,0-.49.75,0,.76Z"/>
    <path class="cls-21" d="m263.45,44.3c-1.46,0-2.84,0-3.42,0v3.45c.58,0,2.12,0,3.58,0-.39-1.06-.54-2.5-.16-3.45Z"/>
    <path class="cls-21" d="m263.45,43.92c-1.14,0-2.28,0-3.42,0-.21,0-.38.17-.38.38v3.45c0,.21.17.38.38.38,1.19,0,2.39,0,3.58,0,.21,0,.38-.18.38-.39,0-.03,0-.06-.01-.09-.36-1-.56-2.23-.16-3.25.05-.2-.06-.41-.26-.47-.2-.05-.41.07-.47.26-.2.57-.27,1.18-.22,1.78.04.64.17,1.27.38,1.87l.37-.48c-1.19,0-2.39,0-3.58,0l.38.38v-3.45l-.38.38c1.14,0,2.28,0,3.42,0,.49,0,.49-.76,0-.76Z"/>
    <path class="cls-7" d="m260.32,46.35c.2.2.39.4.59.6.15.14.39.14.54,0,.41-.4.81-.81,1.22-1.22.15-.15.15-.39,0-.54-.15-.15-.39-.15-.54,0-.4.41-.81.82-1.22,1.22h.54c-.2-.2-.39-.4-.59-.6-.15-.15-.39-.15-.54,0s-.15.39,0,.54h0Z"/>
    <path class="cls-18" d="m256.55,19.38c0-1.25-.8-2.43-2.15-2.47.22-.06,1.21-1.03,1.21-2.22,0-.84-.7-2.23-2.44-2.23-1.75,0-2.44,1.39-2.44,2.23,0,1.18.99,2.16,1.21,2.22-.92-.02-2.03,1.22-2.03,2.47h6.66Z"/>
    <path class="cls-18" d="m249.88,33.08h0c0-1.25,1.12-2.49,2.03-2.47-.22-.06-1.21-1.03-1.21-2.22,0-.84.7-2.23,2.44-2.23s2.44,1.39,2.44,2.23c0,1.18-.99,2.16-1.21,2.22,1.35.04,2.15,1.22,2.15,2.47h-6.66Z"/>
    <path class="cls-18" d="m249.88,47.1c0-1.25,1.12-2.49,2.03-2.47-.22-.06-1.21-1.03-1.21-2.22,0-.84.7-2.23,2.44-2.23,1.75,0,2.44,1.39,2.44,2.23,0,1.18-.99,2.16-1.21,2.22,1.35.04,2.15,1.22,2.15,2.47h-6.66Z"/>
    <path class="cls-7" d="m283.61,79.21c-2.66-3.08-5.42-3.13-8.34-4.59-2.69-1.34-3.99-4.12-5.11-6.91-.46-1.15-.93-2.34-.89-3.58s.96-3.03,2.07-3.93l.08-.07c-2-3.72-3.35-6.76-5.38-11.14-.36-.78-.96-2.17-1.03-3.02-.11-1.46.5-2.07,1.4-2.16.27-.03,1.52.16,2.36,1.57,2.05,3.41,3.78,6.44,5.3,8.99-.26-2.05,1.61-1.96,2.51-1.72.78.21,1.3.72,1.77,1.38.41.58.8,1.15,1.19,1.72-.14-1.42.46-2.09,1.52-2.3.57-.11,1.4.02,1.85.54.26.3.51.59.74.88.68-.74,1.86-.8,2.78-.41.91.38,1.62,1.12,2.28,1.86,1.77,1.98,3.42,4.2,4.02,6.79.78,3.39-.13,8.03,1.88,10.86l-11,5.26Z"/>
    <path class="cls-19" d="m273.38,65.29c-.19-1.61-.63-3.17-1.29-4.65-.3-.67-.67-1.31-1.01-1.96-.36-.7-.72-1.4-1.06-2.1-.7-1.42-1.37-2.86-2.04-4.29-.37-.8-.73-1.59-1.1-2.39-.32-.7-.66-1.4-.95-2.11-.25-.62-.52-1.31-.55-1.96-.02-.31,0-.62.09-.92.06-.2.18-.38.34-.51.05-.04-.07.05.03-.02.02-.01.04-.03.06-.04.03-.02.13-.07.12-.06.11-.04.21-.07.32-.09.06-.01,0,0,.07,0,.02,0,.05,0,.07,0s.05,0,.08,0c.08,0-.07-.01-.02,0,.02,0,.04,0,.06.01.47.09.9.31,1.24.64.27.26.5.56.69.89.25.41.49.82.74,1.23.47.78.93,1.57,1.39,2.36.83,1.41,1.65,2.82,2.48,4.22,1.28,2.16,2.55,4.35,4.08,6.35.15.2.31.4.47.6.15.15.39.15.54,0,.14-.15.14-.39,0-.54-1.51-1.85-2.8-4.05-4.05-6.14-.84-1.41-1.66-2.82-2.49-4.24-.46-.78-.92-1.57-1.38-2.35-.25-.42-.49-.83-.74-1.25-.22-.41-.47-.8-.74-1.18-.61-.8-1.68-1.54-2.74-1.33-.54.1-1.01.46-1.25.95-.3.64-.3,1.4-.15,2.08.18.72.42,1.43.74,2.11.33.77.7,1.53,1.05,2.3.71,1.53,1.41,3.07,2.14,4.6.7,1.47,1.43,2.92,2.19,4.35.34.61.63,1.23.89,1.88.29.77.52,1.56.7,2.37.09.4.16.8.21,1.2,0,.21.17.37.38.38.21,0,.38-.17.38-.38h0Z"/>
    <path class="cls-19" d="m274.45,53.72c.02-.13.06-.26.13-.37.05-.08.12-.16.19-.22.09-.06.18-.11.28-.15.05-.02.1-.03.16-.04.03,0,.07-.01.1-.02.02,0,.04,0,.06,0,.52-.07,1.05.02,1.52.25.68.34,1.09.98,1.51,1.58.47.68.94,1.37,1.41,2.06.58.86,1.16,1.71,1.75,2.56.11.18.34.24.52.14.18-.11.24-.34.14-.52-1.09-1.57-2.14-3.16-3.24-4.73-.49-.71-1-1.43-1.81-1.8-.58-.26-1.23-.37-1.86-.3-.79.1-1.44.55-1.6,1.36-.05.2.07.41.26.47.2.05.41-.06.47-.26h0Z"/>
    <path class="cls-19" d="m279.92,54.98c.09-.49.32-.86.78-1.06.47-.21,1.01-.21,1.49-.02.25.13.47.31.63.54.22.26.45.52.67.79.42.51.83,1.02,1.23,1.54.51.67.99,1.35,1.46,2.04.27.4.93.02.66-.38-.89-1.3-1.83-2.55-2.83-3.76-.47-.57-.9-1.22-1.61-1.5-.61-.23-1.28-.22-1.89.02-.69.25-1.19.86-1.31,1.59-.05.2.07.41.27.47.2.05.41-.06.47-.27h0Z"/>
    <path class="cls-19" d="m283.94,55.09c.5-.51,1.26-.6,1.93-.44.81.19,1.47.75,2.04,1.33,1.22,1.23,2.28,2.59,3.17,4.07.82,1.38,1.34,2.93,1.52,4.53.17,1.58.15,3.17.28,4.75.14,1.67.43,3.41,1.41,4.81.11.18.34.24.52.14.18-.11.24-.34.14-.52-.87-1.24-1.15-2.77-1.29-4.25-.15-1.63-.12-3.27-.29-4.9-.08-.81-.23-1.61-.47-2.39-.28-.86-.65-1.69-1.1-2.47-.46-.79-.98-1.54-1.55-2.25-.56-.72-1.16-1.41-1.79-2.06-.68-.69-1.49-1.34-2.46-1.54-.91-.19-1.91-.02-2.58.66-.34.35.19.89.54.54h0Z"/>
    <path class="cls-19" d="m283.88,78.94c-.63-.73-1.36-1.38-2.17-1.92-.69-.44-1.42-.82-2.18-1.12-1.47-.6-3.04-1-4.42-1.79-1.44-.82-2.47-2.15-3.26-3.59-.4-.75-.77-1.52-1.09-2.31-.38-.92-.78-1.84-.99-2.81-.12-.5-.16-1.02-.11-1.53.06-.4.17-.78.33-1.15.35-.87.9-1.64,1.61-2.25.15-.15.15-.39,0-.54-.15-.14-.39-.14-.54,0-.66.58-1.2,1.28-1.58,2.08-.37.75-.63,1.57-.6,2.41.03,1.09.4,2.12.8,3.12.33.84.68,1.68,1.07,2.5.75,1.55,1.71,3.05,3.08,4.12,1.35,1.05,3.03,1.55,4.62,2.13.86.3,1.68.68,2.47,1.13.91.55,1.72,1.25,2.42,2.06.32.37.86-.17.54-.54h0Z"/>
    <g>
      <line class="cls-4" x1="62.77" y1="42.94" x2="101.83" y2="42.51"/>
      <polygon class="cls-26" points="99.78 49.82 112.3 42.4 99.62 35.26 99.78 49.82"/>
    </g>
    <g>
      <line class="cls-4" x1="182.83" y1="44.17" x2="221.89" y2="43.74"/>
      <polygon class="cls-26" points="219.84 51.05 232.37 43.63 219.68 36.49 219.84 51.05"/>
    </g>
    <path class="cls-7" d="m49.31.73v-.11H.62c0,.98.08,61.02.08,72.87h48.9c0-5.86-.29-65.13-.29-72.77Z"/>
    <path class="cls-19" d="m49.06,60.67H1.15c-.8,0-.8,1.24,0,1.24h47.91c.8,0,.8-1.24,0-1.24h0Z"/>
    <path class="cls-19" d="m49.06,55.19H1.15c-.8,0-.8,1.24,0,1.24h47.91c.8,0,.8-1.24,0-1.24h0Z"/>
    <path class="cls-19" d="m49.06,41.44H1.15c-.8,0-.8,1.24,0,1.24h47.91c.8,0,.8-1.24,0-1.24h0Z"/>
    <path class="cls-19" d="m49.06,35.96H1.15c-.8,0-.8,1.24,0,1.24h47.91c.8,0,.8-1.24,0-1.24h0Z"/>
    <path class="cls-20" d="m22.72,10.33c-.67,0-14.41.01-15.53.01v7.01h15.5c0-1.11.03-6.71.03-7.02Z"/>
    <path class="cls-19" d="m22.72,9.71c-1.75,0-3.49,0-5.24,0h-7.99c-.77,0-1.53,0-2.3,0-.34,0-.61.28-.62.62v7.01c0,.34.28.61.62.62h15.5c.34,0,.61-.28.62-.62,0-2.05.02-4.1.03-6.14,0-.29,0-.59,0-.88,0-.8-1.24-.8-1.24,0,0,1.91-.02,3.82-.03,5.73,0,.43,0,.86,0,1.29l.62-.62H7.19l.62.62v-7.01l-.62.62c1.85,0,3.71,0,5.56,0h7.9c.69,0,1.38,0,2.07,0,.8,0,.8-1.24,0-1.24Z"/>
    <path class="cls-20" d="m43.61,10.33c-.67,0-14.42.01-15.53.01v7.01h15.5c0-1.11.03-6.71.03-7.02Z"/>
    <path class="cls-19" d="m43.61,9.71c-1.75,0-3.49,0-5.24,0h-7.99c-.77,0-1.53,0-2.3,0-.34,0-.61.28-.62.62v7.01c0,.34.28.61.62.62h15.5c.34,0,.61-.28.62-.62,0-2.05.02-4.1.03-6.14,0-.29,0-.59,0-.88,0-.8-1.24-.8-1.24,0,0,1.91-.02,3.82-.03,5.73,0,.43,0,.86,0,1.29l.62-.62h-15.5l.62.62v-7.01l-.62.62c1.85,0,3.71,0,5.56,0h7.9c.69,0,1.38,0,2.07,0,.8,0,.8-1.24,0-1.24Z"/>
    <path class="cls-20" d="m22.72,29.31c-.67,0-14.41.01-15.53.01v7.01h15.5c0-1.11.03-6.71.03-7.02Z"/>
    <path class="cls-19" d="m22.72,28.7c-1.75,0-3.49,0-5.24,0h-7.99c-.77,0-1.53,0-2.3,0-.34,0-.61.28-.62.62v7.01c0,.34.28.61.62.62h15.5c.34,0,.61-.28.62-.62,0-2.05.02-4.1.03-6.14,0-.29,0-.59,0-.88,0-.8-1.24-.8-1.24,0,0,1.91-.02,3.82-.03,5.73,0,.43,0,.86,0,1.29l.62-.62H7.19l.62.62v-7.01l-.62.62c1.85,0,3.71,0,5.56,0h7.9c.69,0,1.38,0,2.07,0,.8,0,.8-1.24,0-1.24Z"/>
    <path class="cls-20" d="m43.61,29.31c-.67,0-14.42.01-15.53.01v7.01h15.5c0-1.11.03-6.71.03-7.02Z"/>
    <path class="cls-19" d="m43.61,28.7c-1.75,0-3.49,0-5.24,0h-7.99c-.77,0-1.53,0-2.3,0-.34,0-.61.28-.62.62v7.01c0,.34.28.61.62.62h15.5c.34,0,.61-.28.62-.62,0-2.05.02-4.1.03-6.14,0-.29,0-.59,0-.88,0-.8-1.24-.8-1.24,0,0,1.91-.02,3.82-.03,5.73,0,.43,0,.86,0,1.29l.62-.62h-15.5l.62.62v-7.01l-.62.62c1.85,0,3.71,0,5.56,0h7.9c.69,0,1.38,0,2.07,0,.8,0,.8-1.24,0-1.24Z"/>
    <path class="cls-20" d="m22.72,48.83c-.67,0-14.41.01-15.53.01v7.01h15.5c0-1.11.03-6.71.03-7.02Z"/>
    <path class="cls-19" d="m22.72,48.21c-1.75,0-3.49,0-5.24,0h-7.99c-.77,0-1.53,0-2.3,0-.34,0-.61.28-.62.62v7.01c0,.34.28.61.62.62h15.5c.34,0,.61-.28.62-.62,0-2.05.02-4.1.03-6.14,0-.29,0-.59,0-.88,0-.8-1.24-.8-1.24,0,0,1.91-.02,3.82-.03,5.73,0,.43,0,.86,0,1.29l.62-.62H7.19l.62.62v-7.01l-.62.62c1.85,0,3.71,0,5.56,0h7.9c.69,0,1.38,0,2.07,0,.8,0,.8-1.24,0-1.24Z"/>
    <path class="cls-20" d="m43.61,48.83c-.67,0-14.42.01-15.53.01v7.01h15.5c0-1.11.03-6.71.03-7.02Z"/>
    <path class="cls-19" d="m43.61,48.21c-1.75,0-3.49,0-5.24,0h-7.99c-.77,0-1.53,0-2.3,0-.34,0-.61.28-.62.62v7.01c0,.34.28.61.62.62h15.5c.34,0,.61-.28.62-.62,0-2.05.02-4.1.03-6.14,0-.29,0-.59,0-.88,0-.8-1.24-.8-1.24,0,0,1.91-.02,3.82-.03,5.73,0,.43,0,.86,0,1.29l.62-.62h-15.5l.62.62v-7.01l-.62.62c1.85,0,3.71,0,5.56,0h7.9c.69,0,1.38,0,2.07,0,.8,0,.8-1.24,0-1.24Z"/>
    <path class="cls-19" d="m49.06,22.21H1.15c-.8,0-.8,1.24,0,1.24h47.91c.8,0,.8-1.24,0-1.24h0Z"/>
    <path class="cls-19" d="m49.06,16.73H1.15c-.8,0-.8,1.24,0,1.24h47.91c.8,0,.8-1.24,0-1.24h0Z"/>
    <path class="cls-19" d="m49.06,3.01H1.15c-.8,0-.8,1.24,0,1.24h47.91c.8,0,.8-1.24,0-1.24h0Z"/>
    <path class="cls-19" d="m49.92.73v-.11c0-.34-.28-.61-.62-.62H.62C.28,0,0,.28,0,.62c0,.63,0,1.26,0,1.88,0,1.55,0,3.1,0,4.65v6.83c.01,2.8.02,5.6.02,8.4v9.42s.02,9.77.02,9.77c0,3.18,0,6.37.01,9.55,0,2.91,0,5.83,0,8.74,0,2.45,0,4.91,0,7.36,0,1.77,0,3.55,0,5.32v.93c0,.34.28.61.62.62h48.9c.34,0,.61-.28.62-.62,0-1.05,0-2.09,0-3.14,0-1.88-.01-3.75-.02-5.63,0-2.49-.02-4.99-.03-7.48-.01-2.94-.03-5.88-.04-8.81-.01-3.16-.03-6.32-.04-9.48-.01-3.2-.03-6.4-.04-9.6-.01-3.06-.03-6.12-.04-9.18-.01-2.7-.02-5.39-.03-8.09,0-2.16-.02-4.32-.03-6.48,0-1.41,0-2.82-.01-4.24v-.63c0-.8-1.24-.8-1.24,0,0,1.2,0,2.4,0,3.61,0,2,.01,4,.02,6,0,2.58.02,5.17.03,7.75.01,2.99.03,5.98.04,8.98l.04,9.55.04,9.57c.01,3.01.03,6.03.04,9.04.01,2.62.02,5.23.03,7.85,0,2.05.02,4.09.02,6.14,0,1.26,0,2.53.01,3.79v.51l.62-.62H.7l.62.62c0-1.59,0-3.18,0-4.77,0-2.3,0-4.6,0-6.9v-8.45c-.01-3.14-.02-6.27-.02-9.41,0-3.27,0-6.54-.01-9.81v-9.53s-.02-8.7-.02-8.7c0-2.42,0-4.84,0-7.27,0-1.75,0-3.51,0-5.26,0-.87,0-1.74,0-2.6v-.17l-.62.62h48.69l-.62-.62v.11c0,.8,1.24.8,1.24,0Z"/>
    <path class="cls-19" d="m35.22,11.26v6.09c0,.8,1.24.8,1.24,0v-6.09c0-.8-1.24-.8-1.24,0Z"/>
    <path class="cls-19" d="m35.22,29.72v6.09c0,.8,1.24.8,1.24,0v-6.09c0-.8-1.24-.8-1.24,0Z"/>
    <path class="cls-19" d="m35.22,49.24v6.09c0,.8,1.24.8,1.24,0v-6.09c0-.8-1.24-.8-1.24,0Z"/>
    <path class="cls-19" d="m14.12,11.26v6.09c0,.8,1.24.8,1.24,0v-6.09c0-.8-1.24-.8-1.24,0Z"/>
    <path class="cls-19" d="m14.12,29.72v6.09c0,.8,1.24.8,1.24,0v-6.09c0-.8-1.24-.8-1.24,0Z"/>
    <path class="cls-19" d="m14.12,49.24v6.09c0,.8,1.24.8,1.24,0v-6.09c0-.8-1.24-.8-1.24,0Z"/>
    <text class="cls-6" transform="translate(69.84 21.09)"><tspan x="0" y="0">個人認証</tspan><tspan class="cls-13" x="-9.93" y="8.54">ト</tspan><tspan class="cls-1" x="-3.31" y="8.54">ー</tspan><tspan class="cls-9" x="3.48" y="8.54">ク</tspan><tspan class="cls-10" x="9.74" y="8.54">ン</tspan><tspan class="cls-12" x="16.5" y="8.54">を</tspan><tspan x="23.39" y="8.54">配布</tspan></text>
    <text class="cls-6" transform="translate(180.29 30.11)"><tspan class="cls-13" x="0" y="0">ト</tspan><tspan class="cls-1" x="6.62" y="0">ー</tspan><tspan class="cls-9" x="13.41" y="0">ク</tspan><tspan class="cls-8" x="19.67" y="0">ン</tspan><tspan class="cls-11" x="26.17" y="0">で</tspan><tspan x="32.95" y="0">投票</tspan></text>
    <ellipse class="cls-17" cx="37.41" cy="72.97" rx="27.96" ry="9.23"/>
    <text class="cls-5" transform="translate(15.85 75.91)"><tspan x="0" y="0">選挙管理委員会</tspan></text>
  </g>
</svg>