<?xml version="1.0" encoding="UTF-8"?>
<svg id="_レイヤー_2" data-name="レイヤー 2" xmlns="http://www.w3.org/2000/svg" viewBox="0 0 288.85 93.83">
  <defs>
    <style>
      .cls-1 {
        letter-spacing: -.08em;
      }

      .cls-2 {
        letter-spacing: -.04em;
      }

      .cls-3 {
        letter-spacing: -.05em;
      }

      .cls-4 {
        stroke-dasharray: 0 0 3.97 7.94;
      }

      .cls-4, .cls-5 {
        stroke: #e2e1e0;
        stroke-linecap: round;
        stroke-linejoin: round;
        stroke-width: 4px;
      }

      .cls-4, .cls-5, .cls-6 {
        fill: none;
      }

      .cls-7 {
        fill: #231815;
        font-size: 5.03px;
      }

      .cls-7, .cls-8 {
        font-family: NotoSansJP-Bold-83pv-RKSJ-H, 'Noto Sans JP';
        font-weight: 700;
      }

      .cls-9 {
        letter-spacing: -.08em;
      }

      .cls-10 {
        letter-spacing: -.02em;
      }

      .cls-11 {
        letter-spacing: -.09em;
      }

      .cls-12 {
        letter-spacing: -.09em;
      }

      .cls-13 {
        letter-spacing: -.06em;
      }

      .cls-14 {
        letter-spacing: -.12em;
      }

      .cls-15 {
        letter-spacing: -.12em;
      }

      .cls-16 {
        letter-spacing: -.03em;
      }

      .cls-17 {
        letter-spacing: -.01em;
      }

      .cls-18 {
        letter-spacing: -.11em;
      }

      .cls-19 {
        letter-spacing: -.05em;
      }

      .cls-20 {
        letter-spacing: -.17em;
      }

      .cls-21 {
        letter-spacing: -.11em;
      }

      .cls-22 {
        letter-spacing: -.05em;
      }

      .cls-23 {
        letter-spacing: -.05em;
      }

      .cls-24 {
        letter-spacing: -.12em;
      }

      .cls-25 {
        letter-spacing: -.02em;
      }

      .cls-6 {
        stroke: #040000;
        stroke-miterlimit: 10;
        stroke-width: 2px;
      }

      .cls-26 {
        letter-spacing: -.03em;
      }

      .cls-27 {
        letter-spacing: -.11em;
      }

      .cls-28 {
        letter-spacing: -.04em;
      }

      .cls-29 {
        letter-spacing: -.09em;
      }

      .cls-30 {
        letter-spacing: -.27em;
      }

      .cls-31 {
        letter-spacing: -.08em;
      }

      .cls-32 {
        letter-spacing: -.25em;
      }

      .cls-8 {
        font-size: 5.54px;
      }

      .cls-8, .cls-33 {
        fill: #fff;
      }

      .cls-34 {
        fill: #f7c263;
      }

      .cls-34, .cls-35, .cls-36, .cls-37, .cls-38, .cls-39, .cls-40, .cls-41, .cls-42, .cls-43, .cls-33, .cls-44, .cls-45, .cls-46 {
        stroke-width: 0px;
      }

      .cls-35 {
        fill: #524644;
      }

      .cls-36 {
        fill: #3c84c1;
      }

      .cls-37 {
        fill: #1b82bd;
      }

      .cls-38 {
        fill: #a8a7a3;
      }

      .cls-39 {
        fill: #241412;
      }

      .cls-40 {
        fill: #96c5e6;
      }

      .cls-41 {
        fill: #6bb65f;
      }

      .cls-42 {
        fill: #8b8580;
      }

      .cls-43 {
        fill: #807873;
      }

      .cls-44 {
        fill: #e2e1e0;
      }

      .cls-45 {
        fill: #eaeaea;
      }

      .cls-46 {
        fill: #040000;
      }

      .cls-47 {
        letter-spacing: -.07em;
      }

      .cls-48 {
        letter-spacing: -.03em;
      }
    </style>
  </defs>
  <g id="Working">
    <path class="cls-33" d="m154.29,18.87c.34-.31.79-.48,1.25-.46.59-.02,1.15.29,1.44.8.49.85.47,2.42.14,3.39-.23.69-.61,1.74-1.54,2.49-.41.34-.94.49-1.47.42l-.14-.02c-.14.47-.31.93-.51,1.37-.4,1.08-2.7,5.01-5.53,6.19v1.57c-1.35,1.06-4.01,3.16-4.27,3.34h-.79c-.25-.18-2.83-2.2-4.2-3.28v-1.58c-1.38-.55-2.59-1.53-3.74-2.91-1.15-1.38-2-2.99-2.5-4.71-.56.12-1.15-.03-1.59-.4-.92-.75-1.3-1.8-1.54-2.49-.33-.97-.35-2.54.14-3.39.3-.51.85-.82,1.44-.8.46-.02.91.14,1.25.46,0,0-2.19-10.58,11.07-10.58,13.55,0,11.07,10.58,11.07,10.58Z"/>
    <path class="cls-43" d="m143.01,60.71c-1.56-3.84-1.96-5.1-3.17-8.84-1.64-5.04-3.17-10.58-4.33-15.76-.52.34-1.18.8-1.85,1.32l-.51.2-1.71.67c-4.15,1.74-8.06,3.55-9.97,6.46-1.36,2.07-2.54,6.66-2.92,10.24-.6,5.6-.69,7.8-1.51,18.9h52.45c-.81-11.1-.91-13.3-1.51-18.9-.38-3.58-1.56-8.17-2.92-10.24-1.91-2.91-5.82-4.72-9.97-6.46l-1.71-.67-.51-.2c-.67-.53-1.33-.99-1.85-1.32-1.17,5.18-2.69,10.72-4.33,15.76-1.22,3.73-1.62,5-3.17,8.84"/>
    <path class="cls-42" d="m129.16,11.63c-.03.27-.06.52-.07.73-.2,2.47.36,4.44,1.12,6.2.22-.09.45-.13.68-.14.46-.02.91.14,1.25.46l.54.52.02-.23c.06-.85.19-1.7.37-2.54.2-.93.44-1.89,1.28-2.65l1.81-1.27c.48-.03,1.05-.1,1.43-.09,3.46.11,6.98-.54,9.65-1.8l2.13,1.24c1.36,1.17,2.48,2.58,3.32,4.17.27.51.9,2.25,1.34,2.94.33-.5.89-.78,1.49-.75.24,0,.48.05.71.15.87-4.55,1.05-7.31-.71-10.85-.36-.69-.8-1.33-1.3-1.92-.9-.99-2.02-1.76-3.27-2.25l-2.4-1.04c-2.4-2.34-6.74-2.34-9.72-1.24-2.8,1.04-4.31,2.5-6.13,3.87-.64.52-1.39.89-2.19,1.1l-.68,2.43c-.33.58-.56,1.95-.69,2.97Z"/>
    <path class="cls-39" d="m141.17,28.21c.67.35,1.41.52,2.16.5.78.03,1.54-.19,2.18-.64.21-.21.21-.56,0-.77-.22-.21-.56-.21-.77,0,.16-.13.03-.03,0,0s-.09.05-.13.08c-.04.02-.2.08-.05.03-.06.02-.12.05-.19.07-.17.05-.34.09-.52.12.08-.01-.03,0-.05,0-.05,0-.1,0-.15.01-.12,0-.25.01-.37.01-.11,0-.22,0-.33-.01-.05,0-.1,0-.15-.01,0,0-.18-.02-.08,0-.16-.03-.33-.06-.48-.11-.07-.02-.13-.05-.2-.07-.02,0-.04-.01-.06-.03.11.07.06.03.01,0-.08-.04-.16-.08-.25-.12-.26-.15-.59-.06-.75.2-.15.26-.06.59.2.75h0Z"/>
    <path class="cls-39" d="m143.06,23.1c.1.36.18.73.24,1.1l-.02-.15c0,.05,0,.1,0,.15l.02-.15s0,.05-.02.07l.06-.13s-.01.03-.02.04l.09-.11s-.02.02-.04.04l.11-.09s-.06.03-.09.05l.13-.06s-.1.03-.15.04l.15-.02s-.09,0-.14,0l.15.02c-.05,0-.1-.02-.15-.03-.14-.03-.29-.01-.42.06-.26.15-.35.49-.2.75,0,0,0,0,0,0,.07.12.19.22.33.25.12.02.23.05.35.05.18,0,.35-.04.51-.12.2-.09.35-.27.41-.48.04-.17.03-.35,0-.52-.06-.35-.14-.7-.23-1.05-.08-.29-.38-.46-.67-.38-.29.08-.46.38-.38.67h0Z"/>
    <path class="cls-39" d="m137.22,20c-.18.6-.06,1.97,1.06,2.08,1.49,0,1.57-1.67,1.07-2.44-.41-.64-1.62-.9-2.13.36Z"/>
    <path class="cls-39" d="m149.21,20c.18.6.06,1.97-1.06,2.08-1.49,0-1.57-1.67-1.07-2.45.41-.64,1.62-.9,2.13.36Z"/>
    <path class="cls-39" d="m132.53,18.49c-.74-.66-1.8-.8-2.68-.37-.62.34-1.05.94-1.18,1.63-.35,1.64-.02,3.35.92,4.75.67.99,1.63,1.72,2.88,1.55.29-.08.46-.38.38-.67-.09-.29-.38-.45-.67-.38-.87.12-1.55-.81-1.9-1.48-.36-.65-.57-1.36-.64-2.1-.04-.41-.02-.82.05-1.22.05-.29.16-.57.31-.82-.04.05.08-.08.09-.1.03-.04.07-.07.11-.1.14-.1.3-.16.47-.19.39-.08.79.02,1.09.28.52.47,1.29-.3.77-.77h0Z"/>
    <path class="cls-39" d="m154.67,19.26c.53-.45,1.32-.39,1.78.13-.07-.09.03.05.04.07.04.07.08.14.11.22.06.17.11.34.14.51.07.4.09.81.05,1.22-.06.72-.28,1.42-.62,2.06-.35.68-1.03,1.64-1.92,1.51-.29-.07-.58.1-.67.38-.08.29.09.59.38.67,2.01.27,3.18-1.71,3.7-3.36.25-.85.31-1.75.16-2.62-.08-.71-.43-1.35-.99-1.79-.91-.6-2.12-.51-2.94.22-.52.47.25,1.24.77.77h0Z"/>
    <path class="cls-39" d="m153.66,24.53c-.1.49-.24.96-.41,1.43-.05.15-.14.39-.18.48s-.08.18-.12.27c0,.02-.06.15-.02.07.04-.09-.02.05-.03.07-.02.05-.04.09-.06.14-.06.12-.11.23-.18.35-.14.26-.28.51-.44.76-.79,1.33-1.79,2.52-2.97,3.52-.64.55-1.39.94-2.21,1.15-.68.16-.39,1.21.29,1.05,1.67-.39,3.07-1.61,4.16-2.88.94-1.06,1.73-2.25,2.34-3.52.06-.13.11-.26.16-.39-.07.17.09-.21.1-.22.05-.11.09-.22.13-.33.21-.54.37-1.09.5-1.66.07-.29-.1-.59-.38-.67-.29-.08-.59.09-.67.38h0Z"/>
    <path class="cls-39" d="m131.69,24.79c.37,1.64,1.03,3.21,1.96,4.61,1,1.5,2.31,2.9,3.9,3.78.81.45,1.7.75,2.62.89.29.07.58-.1.67-.38.08-.29-.09-.59-.38-.67-3.29-.49-5.75-3.33-6.99-6.26-.31-.73-.55-1.49-.72-2.26-.16-.69-1.21-.4-1.05.29h0Z"/>
    <path class="cls-39" d="m150.83,4.07c1.78.72,3.25,2.05,4.16,3.75.88,1.65,1.35,3.48,1.36,5.35,0,1.14-.1,2.29-.3,3.42-.07.29.1.58.38.67.29.08.59-.09.67-.38.33-2.12.51-4.26.04-6.37-.45-2.01-1.4-4.04-2.88-5.5-.91-.86-1.97-1.54-3.14-1.99-.29-.08-.59.09-.67.38-.07.29.1.59.38.67h0Z"/>
    <path class="cls-39" d="m148.96,2.11c-1.93-1.85-4.81-2.33-7.39-2.03-1.4.16-2.76.55-4.04,1.14-1.27.61-2.46,1.36-3.56,2.24-.56.43-1.11.88-1.68,1.3-.58.42-1.23.74-1.92.94-.67.2-.38,1.26.29,1.05.63-.18,1.23-.44,1.79-.78.54-.35,1.03-.76,1.53-1.15.99-.82,2.05-1.55,3.17-2.2,2.24-1.23,4.88-1.84,7.43-1.41,1.33.22,2.62.72,3.6,1.67.51.49,1.28-.28.77-.77h0Z"/>
    <path class="cls-39" d="m129.38,8.39c-.35.65-.49,1.42-.61,2.14-.14.78-.22,1.57-.26,2.36-.05,1.89.31,3.77,1.05,5.52.09.28.38.45.67.38.29-.08.46-.38.38-.67-.7-1.62-1.04-3.36-1.01-5.12.03-.73.1-1.46.23-2.18.1-.62.23-1.39.5-1.87.34-.62-.61-1.17-.94-.55h0Z"/>
    <path class="cls-39" d="m146.98,10.34c-1.66.74-3.41,1.25-5.21,1.49-.95.14-1.9.22-2.86.24-.48.01-.95-.01-1.42,0-.44,0-.88.06-1.32.09-.7.04-.7,1.14,0,1.09.45-.03.9-.09,1.36-.09.48,0,.96.02,1.44,0,1.04-.03,2.07-.12,3.1-.27,1.89-.27,3.73-.81,5.47-1.6.26-.15.35-.49.2-.75-.16-.25-.49-.34-.75-.2Z"/>
    <path class="cls-39" d="m133.97,13.59c-.78.74-1.16,1.71-1.39,2.74-.2.93-.34,1.88-.42,2.83,0,.3.25.54.55.55.3,0,.54-.25.55-.55.07-.83.2-1.65.37-2.47.19-.88.45-1.7,1.12-2.34.51-.48-.26-1.25-.77-.77h0Z"/>
    <path class="cls-39" d="m149,12.44c1.08.94,2.02,2.04,2.78,3.26.63,1.03,1,2.18,1.54,3.26.15.26.49.35.75.2.26-.16.34-.49.2-.75-.54-1.11-.93-2.28-1.58-3.34-.79-1.27-1.77-2.41-2.9-3.4-.53-.46-1.3.31-.77.77h0Z"/>
    <path class="cls-33" d="m143.52,60.71c1.56-3.84,1.96-5.1,3.17-8.84,1.51-4.63,2.91-9.68,4.04-14.48.09-.49-.05-.98-.37-1.36-.51-.59-1.14-1.43-1.66-2.01-.22.18-4.7,3.71-5.04,3.95h-.79c-.34-.24-4.82-3.77-5.04-3.95-.52.58-1.15,1.43-1.66,2.01-.32.37-.46.87-.37,1.36,1.12,4.81,2.53,9.86,4.04,14.48,1.22,3.73,1.62,5,3.17,8.84h.5Z"/>
    <path class="cls-36" d="m144.87,57.25c-.36.97-.78,2.04-1.35,3.46h-.5c-1.43-3.53-1.88-4.89-2.9-7.99.49-4.21,1.14-9.21,1.14-9.35-.01-.27-.05-.53-.12-.79-.03-.12-.06-.23-.08-.35-.13-.58-.15-.88-.3-1.5v-.03c.71-.97,1.59-2.13,2.12-2.73h.79c.53.59,1.39,1.73,2.11,2.7-.04.11-.07.19-.07.19-.16.39-.28.79-.37,1.2-.16.45-.26.92-.29,1.39,0,.25.68,4.99,1.31,9.45-.57,1.76-.97,2.95-1.48,4.35Z"/>
    <path class="cls-39" d="m128.18,73.91c-.01-2.68-.04-5.36-.07-8.04-.03-3.5-.07-6.99-.12-10.49-.02-1.5-.04-3-.07-4.5-.01-.7-1.11-.7-1.09,0,.06,2.99.09,5.99.13,8.99.04,3.41.07,6.82.1,10.22.01,1.27.02,2.55.03,3.82,0,.7,1.1.7,1.09,0h0Z"/>
    <path class="cls-39" d="m139.64,60.6c-2.79-4.84-5.55-9.71-8.13-14.67-.17-.33-.37-.66-.52-1.01-.06-.14-.06-.12.05-.24.13-.15.27-.29.41-.43.57-.59,1.16-1.15,1.76-1.71.21-.22.21-.57,0-.78-.03-.03-.07-.06-.1-.08l-1.11-.63-.53-.3c-.1-.05-.19-.11-.29-.16l-.1-.05c-.08-.05-.08-.05.02.02l.07.28c-.03.06-.03.07-.01.03.01-.03.03-.05.04-.08.02-.05.05-.09.08-.14.06-.1.13-.2.2-.3.13-.19.28-.37.44-.55.39-.44.81-.85,1.26-1.23.82-.72,1.7-1.38,2.62-1.97l-.8-.33c.81,3.57,1.72,7.12,2.75,10.64.91,3.12,1.89,6.23,2.96,9.3.55,1.57,1.16,3.12,1.79,4.66.09.28.38.45.67.38.29-.08.46-.38.38-.67-1.08-2.67-2.04-5.37-2.93-8.11-1.13-3.47-2.17-6.96-3.1-10.49-.52-1.99-1.01-3.99-1.47-6-.08-.29-.39-.46-.68-.38-.04.01-.08.03-.12.05-1.39.87-2.68,1.91-3.83,3.08-.28.3-.55.61-.79.94-.23.28-.41.59-.51.94-.14.63.47.89.91,1.15l1.54.88-.11-.86c-.56.52-1.11,1.05-1.65,1.59-.52.54-1.18,1.1-.84,1.92.27.65.65,1.27.97,1.9.34.65.69,1.31,1.04,1.96,1.39,2.59,2.82,5.16,4.27,7.72.81,1.44,1.64,2.87,2.46,4.3.35.61,1.3.06.94-.55h0Z"/>
    <path class="cls-39" d="m117.59,73.91c.24-3.27.47-6.53.71-9.8.15-2,.3-4,.49-5.99.26-2.75.56-5.48,1.26-8.17.39-1.49.85-3.01,1.59-4.38.71-1.31,1.83-2.36,3.04-3.21,2.51-1.77,5.42-2.94,8.27-4.06l.36-.14c.29-.09.45-.38.38-.67-.08-.29-.38-.46-.67-.38-2.67,1.05-5.36,2.12-7.82,3.61-1.45.88-2.81,1.93-3.85,3.29-.91,1.2-1.45,2.67-1.91,4.09-.94,2.97-1.35,6.02-1.65,9.11-.19,1.97-.35,3.95-.5,5.93-.23,3.04-.44,6.09-.66,9.14-.04.54-.08,1.09-.12,1.63,0,.3.25.54.55.55.3,0,.54-.25.55-.55h0Z"/>
    <path class="cls-39" d="m159.45,73.91c.02-2.68.04-5.36.07-8.04.03-3.5.07-6.99.12-10.49.02-1.5.04-3,.07-4.5.01-.7-1.08-.7-1.09,0-.06,2.99-.09,5.99-.13,8.99-.04,3.41-.07,6.82-.1,10.22-.01,1.27-.02,2.55-.03,3.82,0,.7,1.09.7,1.09,0h0Z"/>
    <path class="cls-39" d="m141.43,43.46c1.17,0,2.33-.02,3.5-.03.3,0,.55-.24.55-.55s-.24-.55-.55-.55c-1.17,0-2.33.02-3.5.03-.3,0-.55.24-.55.55s.24.55.55.55h0Z"/>
    <path class="cls-39" d="m140.22,40.87c.11.46.18.93.28,1.4.11.36.18.74.2,1.11-.01.33-.08.66-.12.99-.2,1.63-.41,3.27-.61,4.9-.14,1.15-.28,2.3-.41,3.46,0,.3.25.54.55.55.3,0,.54-.25.55-.55.23-1.99.47-3.98.72-5.96.14-1.11.34-2.24.41-3.36,0-.41-.07-.81-.19-1.2-.12-.54-.2-1.09-.33-1.63-.16-.68-1.22-.39-1.05.29h0Z"/>
    <path class="cls-39" d="m146.85,52.54c-.27-1.93-.55-3.86-.82-5.78-.1-.72-.2-1.45-.3-2.17,0-.04-.02-.18-.02-.16l-.02-.14c-.01-.11-.03-.21-.04-.32-.02-.14-.04-.29-.05-.43,0-.3.04-.61.13-.9.11-.51.26-1.02.45-1.51.14-.26.06-.59-.2-.75-.26-.15-.59-.06-.75.2-.18.47-.34.94-.46,1.43-.17.46-.26.95-.28,1.45.02.3.06.61.11.91.22,1.62.45,3.25.68,4.87.17,1.2.34,2.4.51,3.59.08.29.38.46.67.38.29-.09.45-.38.38-.67h0Z"/>
    <path class="cls-39" d="m147.83,61.15c2.92-5.06,5.81-10.15,8.49-15.36.2-.39.44-.78.33-1.24-.09-.39-.42-.68-.69-.96-.6-.63-1.24-1.23-1.87-1.83l-.11.86,1.54-.88c.44-.25,1.05-.51.91-1.15-.11-.34-.28-.66-.51-.94-.24-.33-.51-.65-.79-.94-1.15-1.17-2.44-2.21-3.83-3.08-.26-.15-.6-.06-.75.2-.02.04-.04.08-.05.12-.81,3.57-1.72,7.12-2.75,10.64-.91,3.12-1.89,6.23-2.96,9.3-.55,1.57-1.16,3.12-1.79,4.66-.08.29.09.59.38.67.29.07.59-.1.67-.38,1.08-2.67,2.04-5.37,2.93-8.11,1.13-3.47,2.17-6.96,3.1-10.49.52-1.99,1.01-3.99,1.47-6l-.8.33c.92.59,1.79,1.25,2.62,1.97.43.38.85.78,1.23,1.2.17.18.32.37.46.57.06.09.12.18.18.28.03.05.06.11.09.16l.03.05c.04.07.04.07,0,0l.07-.28c.08-.06.1-.07.05-.03-.04.03-.08.05-.12.07-.1.06-.19.11-.29.16l-.53.3-1.11.63c-.26.16-.35.49-.19.76.02.04.05.07.08.1.53.5,1.06,1,1.57,1.52.13.13.25.26.38.39.09.09.25.2.3.32.06.15-.22.53-.31.71-.63,1.23-1.28,2.45-1.94,3.67-1.34,2.48-2.7,4.94-4.1,7.39-.77,1.36-1.55,2.71-2.33,4.07-.35.61.59,1.16.94.55h0Z"/>
    <path class="cls-39" d="m148.31,34.41c.3.34.58.69.86,1.04.26.33.55.64.8.98.1.14.17.3.21.47.02.06.02.12.03.18,0,.04-.03.23.01.12-.05.11-.12.22-.19.33-.6,1-1.27,1.96-2.01,2.86-.24.29-.48.56-.74.82-.11.11-.23.22-.35.33-.09.08-.18.15-.29.21l.75.2c-1.1-1.46-2.13-2.99-3.34-4.36l-.11.86c.64-.46,1.24-.96,1.86-1.44.87-.68,1.74-1.37,2.61-2.05.23-.18.46-.36.68-.54.21-.21.21-.56,0-.77-.22-.21-.56-.21-.77,0-1.41,1.14-2.84,2.25-4.27,3.36l-.26.2-.11.09c-.07.06.09-.07-.02.01-.09.07-.17.13-.26.2-.26.16-.34.5-.18.77.02.03.04.06.07.09,1.15,1.3,2.13,2.75,3.17,4.14.16.26.49.34.75.2,1.18-.77,2.05-2.04,2.84-3.17.33-.47.65-.95.95-1.44.08-.13.16-.26.22-.4.16-.47.13-1-.09-1.44-.21-.49-.62-.88-.95-1.29-.35-.44-.7-.88-1.08-1.31-.47-.53-1.24.25-.77.77Z"/>
    <path class="cls-39" d="m137.45,33.64c-.33.37-.64.77-.96,1.16-.3.37-.64.72-.9,1.12-.43.6-.47,1.4-.12,2.04.66,1.11,1.4,2.16,2.22,3.16.47.61,1.02,1.15,1.65,1.59.26.14.59.06.75-.2,1.04-1.39,2.02-2.84,3.17-4.14.21-.22.2-.57-.02-.79-.03-.03-.06-.05-.09-.07-.07-.05-.14-.1-.2-.15l-.08-.06c-.07-.05.09.07,0,0-.08-.06-.15-.12-.23-.18-.4-.31-.79-.62-1.19-.93-.85-.67-1.7-1.34-2.55-2.01-.22-.18-.45-.35-.67-.53-.22-.2-.56-.2-.77,0-.21.21-.21.56,0,.77,1.43,1.15,2.88,2.28,4.33,3.4.27.21.54.43.82.63l-.11-.86c-1.21,1.37-2.24,2.9-3.34,4.36l.75-.2s-.1-.06-.14-.1,0,0,0,0c-.03-.02-.06-.05-.08-.07-.11-.09-.22-.19-.33-.29-.23-.22-.44-.46-.65-.7-.42-.49-.81-1.01-1.19-1.55-.32-.46-.63-.92-.92-1.39-.08-.13-.16-.27-.24-.4-.01-.02-.02-.04-.03-.05.02.06,0,.01,0-.05,0-.15.03-.31.08-.45.17-.41.56-.76.84-1.1.32-.4.64-.81.99-1.19.46-.52-.31-1.3-.77-.77Z"/>
    <path class="cls-39" d="m138.13,33.5v.87c0,.14.06.28.16.39.21.21.56.21.77,0,.1-.1.16-.24.16-.39v-.87c0-.14-.06-.28-.16-.39-.21-.21-.56-.21-.77,0-.1.1-.16.24-.16.39Z"/>
    <path class="cls-39" d="m147.39,33.45v.9c0,.14.06.28.16.39.21.21.56.21.77,0h0c.1-.1.16-.24.16-.39v-.05c0-.14-.06-.28-.16-.39-.21-.21-.56-.21-.77,0h0c-.1.1-.16.24-.16.39v.05h1.09v-.9c0-.14-.06-.28-.16-.39-.21-.21-.56-.21-.77,0h0c-.1.1-.16.24-.16.39h0Z"/>
    <path class="cls-39" d="m170.03,73.91c-.24-3.31-.47-6.61-.72-9.92-.15-2.02-.3-4.05-.5-6.06-.27-2.89-.6-5.76-1.36-8.57-.42-1.54-.91-3.11-1.71-4.5-.8-1.4-2.03-2.51-3.34-3.44-2.58-1.82-5.59-3.01-8.51-4.16l-.38-.15c-.29-.08-.59.09-.67.38-.07.29.1.59.38.67,2.58,1.01,5.18,2.06,7.56,3.5,1.35.82,2.66,1.8,3.59,3.09.85,1.18,1.34,2.6,1.76,3.98.51,1.7.9,3.44,1.15,5.2.17,1.16.27,2.33.38,3.5.19,1.94.34,3.88.49,5.82.22,3.02.44,6.05.66,9.07.04.53.08,1.05.12,1.58,0,.3.25.54.55.55.3,0,.54-.25.55-.55Z"/>
    <path class="cls-34" d="m152.58,44.23c-.65-.01-1.18.5-1.19,1.15,0,.01,0,.03,0,.04-.03.64.46,1.18,1.09,1.21.03,0,.07,0,.1,0,.63.03,1.16-.45,1.2-1.08,0-.04,0-.09,0-.13,0-.65-.51-1.18-1.15-1.19-.01,0-.03,0-.04,0Z"/>
    <path class="cls-39" d="m152.58,43.69c-.76,0-1.43.49-1.66,1.22-.21.69.01,1.44.57,1.9.58.44,1.37.49,2,.14.62-.39.94-1.12.8-1.84-.15-.82-.87-1.42-1.71-1.41-.3,0-.55.24-.55.55s.24.55.55.55c.03,0,.07,0,.1,0,.12,0-.13-.03-.01,0,.05.01.11.02.16.04.02,0,.04.02.06.02l-.07-.03s.04.02.06.03c.05.03.1.07.16.1-.11-.05-.06-.05-.02,0,.01.01.03.03.04.04.02.02.04.05.06.07-.08-.05-.06-.08-.02-.03.03.05.06.09.08.14.02.04,0,.07-.02-.05,0,.04.03.08.04.12.01.05.02.1.03.15-.04-.12,0-.09,0-.04,0,.03,0,.05,0,.08,0,.05,0,.11,0,.16-.02-.11.01-.09,0-.02,0,.03-.02.07-.03.1,0,.02-.01.05-.02.07-.02.06-.06.07.01-.02-.03.04-.04.09-.07.13-.01.02-.03.04-.04.06-.04.06.09-.11.02-.03-.04.04-.09.08-.12.12.08-.1.07-.05.02-.02-.02.01-.03.02-.05.03-.02.01-.05.03-.08.04-.09.05.1-.03.04-.01-.05.01-.1.04-.16.05-.02,0-.04,0-.06.01-.06,0-.04,0,.05,0-.02,0-.04,0-.06,0-.06,0-.11,0-.17,0-.03,0-.06,0-.1,0,.01,0,.14.03.05,0-.05-.01-.11-.02-.16-.04-.02,0-.05-.02-.07-.03.15.04.06.02.01,0s-.09-.06-.13-.09c.11.06.07.06.04.03-.02-.02-.04-.04-.06-.06-.02-.02-.03-.04-.05-.05-.05-.05.08.12.02.03-.03-.05-.06-.1-.09-.15-.05-.1.04.13,0,.02,0-.02-.01-.04-.02-.06,0-.06-.02-.12-.04-.18,0,0,.01.14,0,.05,0-.03,0-.07,0-.1v-.08c0-.06.04-.14,0,0,.02-.06.02-.12.04-.18.01-.03.02-.06.03-.09,0,.06-.05.1,0,.02.03-.05.07-.1.1-.15-.06.12-.05.06,0,.02.02-.02.04-.04.06-.06.04-.04.1-.05-.02,0,.03-.02.05-.03.08-.05.03-.02.05-.03.08-.05.02,0,.04-.02.06-.03l-.07.03c.06-.01.13-.03.18-.06h.03c.06-.02.04-.01-.05,0,.05,0,.09,0,.14,0,.3,0,.55-.24.55-.55s-.24-.55-.55-.55h0Z"/>
    <g>
      <circle class="cls-37" cx="162.9" cy="68.09" r="13.07"/>
      <path class="cls-33" d="m170.19,67.54v-2.21c0-1.04-.72-1.91-1.7-2.14-.09-1.13-1.04-2.02-2.2-2.02h-7.93c-1.66,0-3.02,1.22-3.27,2.81h-.04v7.73c0,1.83,1.48,3.31,3.31,3.31h9.61c1.22,0,2.21-.99,2.21-2.21v-1.4c.31-.09.54-.37.54-.71v-2.44c0-.34-.23-.62-.54-.71Zm-.74,5.26c0,.41-.16.77-.43,1.04-.27.27-.63.43-1.04.43h-9.61c-.71,0-1.35-.29-1.82-.75-.47-.47-.75-1.11-.75-1.82v-7.34c.07-1.37,1.19-2.46,2.57-2.45h7.93c.73,0,1.33.53,1.44,1.22h-10.66c-.2,0-.37.17-.37.37s.17.37.37.37h11.02c.75.07,1.35.7,1.35,1.47v2.18h-3.42c-.54,0-1.03.22-1.39.57h0c-.35.35-.58.85-.57,1.39,0,.54.22,1.03.57,1.39h0c.35.35.85.58,1.39.57h3.42v1.37h0Zm.54-2.11h-3.96c-.34,0-.64-.13-.86-.36-.22-.22-.36-.52-.36-.86,0-.34.13-.64.36-.86h0s0,0,0,0h0c.22-.22.52-.36.86-.36h3.96v2.44Z"/>
      <path class="cls-33" d="m165.53,69.47c0,.29.24.53.53.53s.53-.24.53-.53-.24-.53-.53-.53c-.29,0-.53.24-.53.53Z"/>
    </g>
    <path class="cls-44" d="m233.39,50.06c.34-.45.64-.93.9-1.43.27-.54.41-1.13.41-1.73,0-.58-.07-1.16-.11-1.73-.04-.57-.07-1.13-.1-1.7-.05-1.08-.09-2.15-.09-3.23,0-.45.01-.9.04-1.36.01-.19.02-.38.04-.57.02-.2.03-.28.06-.44.04-.25.11-.5.21-.74.14-.38.26-.76.36-1.15.23-.93.41-1.87.54-2.82.14-.92.25-1.84.33-2.76.02-.18.04-.36.05-.54,0-.02,0-.04,0-.06,0,0,0,.05,0,0,0-.04.02-.09.03-.13.03-.1.06-.19.1-.28.2-.47.51-.88.73-1.34.47-1.05.82-2.15,1.04-3.28.12-.55.19-1.14.39-1.67.14-.37.48-.81.93-.77.21.04.4.14.54.3.35.34.88-.19.53-.53-.4-.39-.96-.63-1.52-.46-.55.17-.94.63-1.15,1.14-.23.55-.3,1.15-.42,1.73-.12.57-.26,1.13-.43,1.69-.16.55-.36,1.08-.61,1.59-.23.47-.54.9-.74,1.39-.13.39-.21.79-.22,1.2-.04.45-.09.89-.14,1.34-.22,1.81-.47,3.66-1.12,5.37-.24.62-.25,1.35-.28,2.01-.05,1.02-.03,2.03,0,3.05.04,1.16.11,2.32.19,3.48.04.59.15,1.23.04,1.82-.12.55-.36,1.07-.68,1.52-.16.24-.32.48-.49.72-.1.18-.04.41.13.51.18.1.41.04.51-.13h0Z"/>
    <path class="cls-44" d="m245.51,56.53s.04-.03.06-.05c-.08.06,0,0,.01,0,.04-.03.09-.06.13-.09.12-.08.24-.16.36-.24.29-.19.59-.37.9-.55.53-.31,1.06-.61,1.58-.94,1.52-.95,2.97-2.01,4.33-3.18.61-.53,1.18-1.1,1.72-1.69.32-.36-.2-.89-.53-.53-2.08,2.29-4.67,4.03-7.31,5.59-.6.36-1.25.7-1.78,1.15-.14.15-.14.38,0,.53.15.14.38.14.53,0h0Z"/>
    <path class="cls-44" d="m262.33,17.95c.32-.25.66-.47,1.01-.68.27-.14.57-.21.88-.2.26-.02.52.06.72.24.19.19.31.43.36.69.12.67-.25,1.37-.6,1.91-.42.65-.87,1.27-1.35,1.87-.43.57-.92,1.09-1.47,1.54-.15.15-.15.38,0,.53.15.14.38.14.53,0,.55-.45,1.04-.97,1.47-1.54.56-.69,1.08-1.41,1.55-2.17.43-.7.76-1.54.58-2.37-.13-.74-.73-1.32-1.47-1.43-.43-.06-.87-.01-1.28.14-.47.18-.91.52-1.3.82-.17.11-.23.33-.13.51.11.18.33.24.51.13Z"/>
    <path class="cls-44" d="m262.33,24.89c.28-.21.57-.4.86-.58.24-.14.52-.21.81-.2.23-.02.45.04.64.17.18.17.31.39.35.63.13.6-.21,1.23-.52,1.72-.38.6-.79,1.17-1.24,1.73-.39.53-.85,1.01-1.35,1.43-.14.15-.14.38,0,.53.15.14.38.14.53,0,.51-.43.97-.92,1.37-1.46.52-.63.99-1.3,1.42-2,.39-.65.69-1.44.5-2.21-.15-.69-.73-1.21-1.43-1.29-.39-.05-.79,0-1.16.15-.41.19-.8.44-1.15.73-.17.11-.23.33-.13.51.11.18.33.24.51.13h0Z"/>
    <path class="cls-44" d="m262.33,31.47c.25-.19.52-.37.79-.53.23-.13.5-.2.77-.19.21-.02.41.05.58.18.16.16.27.37.3.59.1.55-.21,1.11-.49,1.56-.35.55-.73,1.08-1.14,1.59-.37.49-.79.94-1.26,1.34-.14.15-.14.38,0,.53.15.14.38.14.53,0,.48-.41.91-.87,1.29-1.37.48-.59.92-1.21,1.32-1.86.36-.61.63-1.33.47-2.04-.13-.65-.66-1.15-1.32-1.25-.38-.05-.76,0-1.12.13-.39.18-.76.41-1.09.68-.17.11-.23.33-.13.51.11.18.33.24.51.13h0Z"/>
    <path class="cls-33" d="m243.75,5.43h14.72c2.03,0,3.67,1.64,3.67,3.67h0v36.76c0,2.03-1.64,3.67-3.67,3.67h-14.72c-2.03,0-3.67-1.64-3.67-3.67V9.1c0-2.03,1.64-3.67,3.67-3.67Z"/>
    <path class="cls-39" d="m257.99,5.43s-.39.13-.39.51v.58c0,.82-.67,1.49-1.49,1.5-1.42,0-3.55,0-4.99,0-1.44,0-3.57,0-4.99,0-.82,0-1.49-.67-1.49-1.5v-.58c-.01-.22-.15-.42-.35-.51"/>
    <path class="cls-39" d="m257.8,5.1c-.14.08-.28.19-.39.31-.19.24-.18.52-.18.81.02.26-.01.52-.1.77-.1.21-.25.38-.45.49-.2.11-.44.17-.67.15h-.88s-1.93,0-1.93,0c-1.19,0-2.38,0-3.57,0h-1.95s-.91,0-.91,0c-.27.02-.55.01-.82-.01-.52-.08-.91-.51-.95-1.03-.02-.32.06-.69-.07-1-.05-.13-.14-.25-.24-.34-.05-.04-.1-.08-.15-.11-.04-.02-.13-.09,0,.02-.15-.14-.38-.14-.53,0-.14.15-.14.38,0,.53.05.04.11.08.16.11.04.03-.05-.04,0,0,.02.02.04.03.05.05.02.02.03.05.03.08.04.27-.02.57.02.85.08.6.45,1.12.99,1.4.54.27,1.15.21,1.74.21h1.98c1.24,0,2.48,0,3.73,0h2.01s.92,0,.92,0c.29.02.59,0,.88-.05.67-.16,1.2-.67,1.38-1.32.09-.34.05-.68.07-1.03,0-.04,0-.07.02-.1,0,0,.07-.07.03-.04.05-.03.11-.05.15-.08.17-.11.23-.33.13-.51-.11-.18-.33-.24-.51-.13h0Z"/>
    <path class="cls-39" d="m258.47,49.15h-14.58c-.41,0-.82-.05-1.21-.18-.84-.3-1.52-.91-1.9-1.72-.45-.93-.31-2.11-.31-3.12V9.25c-.03-.95.34-1.86,1.01-2.53.62-.59,1.44-.92,2.29-.93.13,0,.26,0,.39,0h13.45c.7,0,1.39-.03,2.06.22,1.27.51,2.11,1.74,2.1,3.11v34.48c0,.77.01,1.54,0,2.3-.05,1.79-1.51,3.22-3.3,3.23-.48,0-.48.75,0,.75,2.04-.02,3.75-1.54,4.01-3.56.03-.33.04-.67.03-1.01V11.76c0-.88,0-1.76,0-2.65-.01-1.7-1.07-3.21-2.65-3.81-.72-.27-1.46-.25-2.22-.25h-13.54c-.16,0-.32,0-.47,0-.99.03-1.93.43-2.65,1.1-.83.8-1.29,1.9-1.27,3.05v36.39c-.03.79.16,1.57.53,2.26.75,1.28,2.14,2.06,3.63,2.04h14.6c.48,0,.48-.75,0-.75Z"/>
    <path class="cls-35" d="m248.83,7.14c.96,0,1.93,0,2.89,0,.48,0,.48-.75,0-.75-.96,0-1.93,0-2.89,0-.48,0-.48.75,0,.75Z"/>
    <path class="cls-35" d="m253.4,7.21c.56,0,.56-.87,0-.87s-.56.87,0,.87Z"/>
    <path class="cls-5" d="m242.75,21.71h.31"/>
    <path class="cls-4" d="m244.3,21.71h14.24"/>
    <path class="cls-5" d="m259.16,21.71h.31"/>
    <path class="cls-5" d="m242.75,35.33h.31"/>
    <path class="cls-4" d="m244.3,35.33c3.42,0,11.44,0,14.24,0"/>
    <path class="cls-5" d="m259.16,35.33h.31"/>
    <path class="cls-45" d="m242.33,10.33c.01,2.08.07,7.03.08,9.24.02.38.33.68.72.67,2.08,0,6.89.01,9.1.02.38.01.7-.29.72-.67,0,0,0,0,0,0,0-2.33-.05-7.25-.06-9.27-.02-.38-.34-.68-.72-.67-2.07,0-7,0-9.12.01-.38-.01-.7.29-.72.67,0,0,0,0,0,0Z"/>
    <path class="cls-45" d="m242.33,23.85c.01,2.08.07,7.03.08,9.24.02.38.33.68.72.67,2.08,0,6.89.02,9.1.02.38.01.7-.29.72-.67,0,0,0,0,0,0,0-2.33-.05-7.25-.06-9.27-.02-.38-.34-.68-.72-.67-2.07,0-7,0-9.12.01-.38-.01-.7.29-.72.67,0,0,0,0,0,0Z"/>
    <path class="cls-44" d="m254.33,24.84c1.61,0,3.22,0,4.83,0,.48,0,.48-.75,0-.75-1.61,0-3.22,0-4.83,0-.48,0-.48.75,0,.75h0Z"/>
    <path class="cls-44" d="m254.33,26.79c.92,0,1.83-.02,2.75-.02.48,0,.48-.75,0-.75-.92,0-1.83.02-2.75.02-.48,0-.48.75,0,.75Z"/>
    <path class="cls-41" d="m254.33,38.42c1.61,0,3.22,0,4.83,0,.48,0,.48-.75,0-.75-1.61,0-3.22,0-4.83,0-.48,0-.48.75,0,.75h0Z"/>
    <path class="cls-41" d="m254.33,40.37c.92,0,1.83-.02,2.75-.02.48,0,.48-.75,0-.75-.92,0-1.83.02-2.75.02-.48,0-.48.75,0,.75Z"/>
    <path class="cls-44" d="m254.33,11.18c1.61,0,3.22,0,4.83,0,.48,0,.48-.75,0-.75-1.61,0-3.22,0-4.83,0-.48,0-.48.75,0,.75h0Z"/>
    <path class="cls-44" d="m254.33,13.13c.95,0,1.89-.02,2.84-.02.48,0,.48-.75,0-.75-.95,0-1.89.02-2.84.02-.48,0-.48.75,0,.75Z"/>
    <path class="cls-45" d="m242.33,37.68c.01,2.08.07,7.03.08,9.24.02.38.33.68.72.67,2.08,0,6.89.02,9.1.02.38.01.7-.29.72-.67,0,0,0,0,0,0,0-2.33-.05-7.25-.06-9.27-.02-.38-.34-.68-.72-.67-2.07,0-7,0-9.12.01-.38-.01-.7.29-.72.67,0,0,0,0,0,0Z"/>
    <path class="cls-44" d="m254.37,33.21c1.14.02,2.28,0,3.42,0,.21,0,.37-.17.37-.37v-3.41c0-.21-.17-.37-.37-.37-1.14,0-2.28.02-3.42,0-.21,0-.37.17-.37.37v3.41c0,.48.75.48.75,0v-3.41l-.37.37c1.14.02,2.28,0,3.42,0l-.37-.37v3.41l.37-.37c-1.14,0-2.28.02-3.42,0-.48,0-.48.74,0,.75Z"/>
    <path class="cls-44" d="m254.33,19.69c1.18.02,2.36,0,3.54,0,.21,0,.37-.17.37-.37v-3.52c0-.21-.17-.37-.37-.37-1.18,0-2.36.02-3.54,0-.21,0-.37.17-.37.37v3.52c0,.48.75.48.75,0v-3.52l-.37.37c1.18.02,2.36,0,3.54,0l-.37-.37v3.52l.37-.37c-1.18,0-2.36.02-3.54,0-.48,0-.48.74,0,.75Z"/>
    <path class="cls-41" d="m257.74,43.26c-1.44,0-2.8,0-3.37,0v3.41c.57,0,2.09,0,3.54,0-.38-1.05-.53-2.47-.16-3.41Z"/>
    <path class="cls-41" d="m257.74,42.89c-1.12,0-2.25,0-3.37,0-.21,0-.37.17-.37.37v3.41c0,.21.17.37.37.37,1.18,0,2.36,0,3.54,0,.21,0,.38-.17.37-.38,0-.03,0-.06-.01-.09-.35-.99-.55-2.2-.16-3.21.05-.2-.06-.4-.26-.46-.2-.05-.4.07-.46.26-.2.56-.27,1.16-.21,1.76.04.63.17,1.25.38,1.85l.36-.47c-1.18,0-2.36,0-3.54,0l.37.37v-3.41l-.37.37c1.12,0,2.25,0,3.37,0,.48,0,.48-.75,0-.75Z"/>
    <path class="cls-33" d="m254.65,45.29c.2.2.39.4.58.59.15.14.38.14.53,0,.4-.4.8-.8,1.2-1.2.15-.15.15-.38,0-.53-.15-.15-.38-.15-.53,0-.4.4-.79.8-1.2,1.2h.53c-.2-.2-.39-.4-.58-.59-.15-.15-.38-.15-.53,0s-.15.38,0,.53h0Z"/>
    <path class="cls-38" d="m250.92,18.68c0-1.24-.79-2.4-2.12-2.44.22-.06,1.19-1.02,1.19-2.19,0-.83-.69-2.2-2.41-2.2s-2.41,1.37-2.41,2.2c0,1.17.97,2.13,1.19,2.19-.9-.02-2.01,1.2-2.01,2.44h6.57Z"/>
    <path class="cls-38" d="m244.34,32.2h0c0-1.24,1.1-2.46,2.01-2.44-.22-.06-1.19-1.02-1.19-2.19,0-.83.69-2.2,2.41-2.2s2.41,1.37,2.41,2.2c0,1.17-.97,2.13-1.19,2.19,1.33.04,2.12,1.2,2.12,2.44h-6.57Z"/>
    <path class="cls-38" d="m244.35,46.03c0-1.24,1.1-2.46,2.01-2.44-.22-.06-1.19-1.02-1.19-2.19,0-.83.69-2.2,2.41-2.2,1.72,0,2.41,1.37,2.41,2.2,0,1.17-.97,2.13-1.19,2.19,1.33.04,2.12,1.2,2.12,2.44h-6.57Z"/>
    <path class="cls-33" d="m277.63,77.71c-2.63-3.04-5.35-3.09-8.23-4.53-2.65-1.32-3.94-4.07-5.04-6.82-.46-1.13-.92-2.31-.88-3.53s.95-2.99,2.04-3.88l.08-.07c-1.98-3.67-3.31-6.67-5.31-10.99-.36-.77-.95-2.14-1.01-2.98-.11-1.44.5-2.05,1.39-2.13.27-.03,1.5.16,2.33,1.54,2.02,3.36,3.73,6.36,5.23,8.86-.26-2.02,1.59-1.93,2.48-1.69.77.21,1.29.71,1.74,1.36.4.57.79,1.13,1.17,1.7-.13-1.4.45-2.06,1.5-2.27.56-.11,1.38.02,1.82.53.26.3.5.59.73.87.67-.73,1.84-.79,2.74-.41.9.38,1.6,1.11,2.25,1.83,1.75,1.96,3.38,4.15,3.96,6.7.77,3.34-.12,7.92,1.85,10.72l-10.85,5.19Z"/>
    <path class="cls-39" d="m267.53,63.98c-.19-1.58-.62-3.13-1.27-4.59-.29-.66-.67-1.29-1-1.93-.36-.69-.71-1.38-1.05-2.07-.69-1.4-1.35-2.82-2.01-4.24-.36-.79-.73-1.57-1.09-2.36-.32-.69-.65-1.38-.94-2.09-.24-.61-.51-1.29-.54-1.94-.02-.3,0-.61.09-.9.06-.2.18-.38.34-.51.05-.04-.07.04.03-.02.02-.01.04-.03.06-.04.03-.02.12-.07.12-.06.1-.04.21-.07.32-.09.06-.01,0,0,.07,0,.02,0,.05,0,.07,0s.05,0,.08,0c.08,0-.07-.01-.02,0,.02,0,.04,0,.06.01.46.09.88.31,1.22.63.27.26.5.56.68.88.24.4.48.81.73,1.21.46.77.92,1.55,1.37,2.32.81,1.39,1.62,2.78,2.44,4.17,1.26,2.13,2.52,4.29,4.02,6.26.15.2.31.4.47.59.15.14.38.14.53,0,.14-.15.14-.38,0-.53-1.49-1.83-2.76-4-3.99-6.06-.83-1.39-1.64-2.79-2.45-4.18-.45-.77-.91-1.54-1.36-2.32-.24-.41-.49-.82-.73-1.23-.22-.4-.46-.79-.73-1.17-.6-.79-1.65-1.52-2.7-1.32-.54.1-1,.45-1.24.94-.3.63-.29,1.38-.15,2.05.17.71.42,1.41.73,2.08.33.76.69,1.51,1.04,2.27.7,1.51,1.39,3.03,2.11,4.53.69,1.45,1.41,2.88,2.16,4.29.33.6.63,1.22.88,1.85.28.76.51,1.54.69,2.34.09.39.16.79.2,1.19,0,.2.17.37.37.37.21,0,.37-.17.37-.37h0Z"/>
    <path class="cls-39" d="m268.59,52.55c.02-.13.06-.25.13-.37.05-.08.12-.16.19-.22.09-.06.18-.11.28-.14.05-.02.1-.03.15-.04.03,0,.07-.01.1-.02.02,0,.04,0,.06,0,.51-.07,1.04.02,1.5.25.67.34,1.07.96,1.49,1.56.47.67.93,1.35,1.39,2.03.57.85,1.15,1.69,1.73,2.53.11.17.33.23.51.13.18-.11.24-.33.13-.51-1.08-1.54-2.12-3.12-3.19-4.67-.49-.7-.99-1.41-1.78-1.77-.57-.26-1.21-.36-1.84-.29-.77.1-1.42.55-1.58,1.35-.05.2.07.4.26.46.2.05.4-.06.46-.26h0Z"/>
    <path class="cls-39" d="m273.99,53.8c.08-.48.31-.85.77-1.04.47-.2,1-.21,1.47-.02.25.12.46.31.62.53.22.26.44.52.66.78.41.5.82,1.01,1.21,1.52.5.66.98,1.33,1.44,2.01.27.4.92.02.65-.38-.88-1.28-1.81-2.52-2.8-3.71-.46-.56-.89-1.21-1.59-1.48-.6-.22-1.27-.22-1.86.02-.68.25-1.17.85-1.29,1.57-.05.2.07.4.26.46.2.05.4-.06.46-.26h0Z"/>
    <path class="cls-39" d="m277.95,53.91c.49-.5,1.24-.6,1.9-.44.8.19,1.45.74,2.01,1.31,1.2,1.21,2.25,2.56,3.13,4.02.81,1.37,1.32,2.89,1.5,4.47.17,1.56.15,3.12.28,4.68.14,1.65.42,3.37,1.39,4.75.11.17.33.23.51.13.18-.11.24-.33.13-.51-.86-1.22-1.14-2.73-1.27-4.19-.15-1.61-.12-3.23-.29-4.83-.07-.8-.23-1.59-.46-2.36-.27-.85-.64-1.66-1.09-2.43-.46-.77-.97-1.52-1.53-2.22-.55-.71-1.14-1.39-1.77-2.04-.67-.68-1.47-1.32-2.42-1.52-.9-.19-1.89-.02-2.55.65-.34.34.19.87.53.53h0Z"/>
    <path class="cls-39" d="m277.89,77.44c-.62-.72-1.34-1.36-2.14-1.89-.68-.44-1.4-.81-2.15-1.11-1.45-.6-3-.99-4.36-1.77-1.42-.81-2.44-2.12-3.22-3.54-.4-.74-.76-1.5-1.07-2.28-.37-.9-.77-1.82-.98-2.77-.12-.49-.16-1-.11-1.51.06-.39.17-.77.33-1.14.34-.86.89-1.62,1.59-2.22.14-.15.14-.38,0-.53-.15-.14-.38-.14-.53,0-.66.57-1.19,1.27-1.56,2.05-.36.74-.62,1.55-.6,2.38.03,1.07.4,2.09.79,3.08.33.83.67,1.66,1.06,2.46.74,1.53,1.68,3.01,3.04,4.07,1.34,1.04,2.99,1.53,4.56,2.11.85.29,1.66.67,2.44,1.12.9.55,1.7,1.23,2.38,2.03.32.36.84-.17.53-.53h0Z"/>
    <g>
      <line class="cls-6" x1="59.97" y1="63.21" x2="98.37" y2="62.79"/>
      <polygon class="cls-46" points="96.32 70.09 108.85 62.68 96.16 55.54 96.32 70.09"/>
    </g>
    <g>
      <line class="cls-6" x1="178.2" y1="43.14" x2="216.59" y2="42.72"/>
      <polygon class="cls-46" points="214.54 50.02 227.07 42.6 214.38 35.46 214.54 50.02"/>
    </g>
    <path class="cls-33" d="m42.44,8.71v-.09H.53c0,.84.07,52.52.07,62.72h42.09c0-5.04-.25-56.06-.25-62.63Z"/>
    <path class="cls-39" d="m42.23,60.3H.99c-.69,0-.69,1.07,0,1.07h41.24c.69,0,.69-1.07,0-1.07h0Z"/>
    <path class="cls-39" d="m42.23,55.59H.99c-.69,0-.69,1.07,0,1.07h41.24c.69,0,.69-1.07,0-1.07h0Z"/>
    <path class="cls-39" d="m42.23,43.75H.99c-.69,0-.69,1.07,0,1.07h41.24c.69,0,.69-1.07,0-1.07h0Z"/>
    <path class="cls-39" d="m42.23,39.04H.99c-.69,0-.69,1.07,0,1.07h41.24c.69,0,.69-1.07,0-1.07h0Z"/>
    <path class="cls-40" d="m19.56,16.97c-.58,0-12.41.01-13.37.01v6.03h13.34c0-.96.03-5.77.03-6.04Z"/>
    <path class="cls-39" d="m19.56,16.44c-1.5,0-3.01,0-4.51,0h-6.88c-.66,0-1.32,0-1.98,0-.29,0-.53.24-.53.53v6.03c0,.29.24.53.53.53h13.34c.29,0,.53-.24.53-.53,0-1.76.01-3.53.02-5.29,0-.25,0-.5,0-.76,0-.69-1.07-.69-1.07,0,0,1.64-.02,3.29-.02,4.93,0,.37,0,.74,0,1.11l.53-.53H6.19l.53.53v-6.03l-.53.53c1.59,0,3.19,0,4.78,0h6.8c.59,0,1.19,0,1.78,0,.68,0,.69-1.07,0-1.07Z"/>
    <path class="cls-40" d="m37.53,16.97c-.58,0-12.41.01-13.37.01v6.03h13.34c0-.96.03-5.77.03-6.04Z"/>
    <path class="cls-39" d="m37.53,16.44c-1.5,0-3.01,0-4.51,0h-6.88c-.66,0-1.32,0-1.98,0-.29,0-.53.24-.53.53v6.03c0,.29.24.53.53.53h13.34c.29,0,.53-.24.53-.53,0-1.76.01-3.53.02-5.29,0-.25,0-.5,0-.76,0-.69-1.07-.69-1.07,0,0,1.64-.02,3.29-.02,4.93,0,.37,0,.74,0,1.11l.53-.53h-13.34l.53.53v-6.03l-.53.53c1.59,0,3.19,0,4.78,0h6.8c.59,0,1.19,0,1.78,0,.69,0,.69-1.07,0-1.07Z"/>
    <path class="cls-40" d="m19.56,33.32c-.58,0-12.41.01-13.37.01v6.04h13.34c0-.96.03-5.78.03-6.05Z"/>
    <path class="cls-39" d="m19.56,32.78c-1.5,0-3.01,0-4.51,0h-6.88c-.66,0-1.32,0-1.98,0-.29,0-.53.24-.53.53v6.04c0,.29.24.53.53.53h13.34c.29,0,.53-.24.53-.53,0-1.76.01-3.53.02-5.29,0-.25,0-.5,0-.76,0-.69-1.07-.69-1.07,0,0,1.64-.02,3.29-.02,4.93,0,.37,0,.74,0,1.11l.53-.53H6.19l.53.53v-6.04l-.53.53c1.59,0,3.19,0,4.78,0h6.8c.59,0,1.19,0,1.78,0,.68,0,.69-1.07,0-1.07Z"/>
    <path class="cls-40" d="m37.53,33.32c-.58,0-12.41.01-13.37.01v6.04h13.34c0-.96.03-5.78.03-6.05Z"/>
    <path class="cls-39" d="m37.53,32.78c-1.5,0-3.01,0-4.51,0h-6.88c-.66,0-1.32,0-1.98,0-.29,0-.53.24-.53.53v6.04c0,.29.24.53.53.53h13.34c.29,0,.53-.24.53-.53,0-1.76.01-3.53.02-5.29,0-.25,0-.5,0-.76,0-.69-1.07-.69-1.07,0,0,1.64-.02,3.29-.02,4.93,0,.37,0,.74,0,1.11l.53-.53h-13.34l.53.53v-6.04l-.53.53c1.59,0,3.19,0,4.78,0h6.8c.59,0,1.19,0,1.78,0,.69,0,.69-1.07,0-1.07Z"/>
    <path class="cls-40" d="m19.56,50.11c-.58,0-12.41.01-13.37.01v6.04h13.34c0-.96.03-5.77.03-6.05Z"/>
    <path class="cls-39" d="m19.56,49.58c-1.5,0-3.01,0-4.51,0h-6.88c-.66,0-1.32,0-1.98,0-.29,0-.53.24-.53.53v6.04c0,.29.24.53.53.53h13.34c.29,0,.53-.24.53-.53,0-1.76.01-3.53.02-5.29,0-.25,0-.5,0-.76,0-.69-1.07-.69-1.07,0,0,1.64-.02,3.29-.02,4.93,0,.37,0,.74,0,1.11l.53-.53H6.19l.53.53v-6.04l-.53.53c1.59,0,3.19,0,4.78,0h6.8c.59,0,1.19,0,1.78,0,.68,0,.69-1.07,0-1.07Z"/>
    <path class="cls-40" d="m37.53,50.11c-.58,0-12.41.01-13.37.01v6.04h13.34c0-.96.03-5.77.03-6.05Z"/>
    <path class="cls-39" d="m37.53,49.58c-1.5,0-3.01,0-4.51,0h-6.88c-.66,0-1.32,0-1.98,0-.29,0-.53.24-.53.53v6.04c0,.29.24.53.53.53h13.34c.29,0,.53-.24.53-.53,0-1.76.01-3.53.02-5.29,0-.25,0-.5,0-.76,0-.69-1.07-.69-1.07,0,0,1.64-.02,3.29-.02,4.93,0,.37,0,.74,0,1.11l.53-.53h-13.34l.53.53v-6.04l-.53.53c1.59,0,3.19,0,4.78,0h6.8c.59,0,1.19,0,1.78,0,.69,0,.69-1.07,0-1.07Z"/>
    <path class="cls-39" d="m42.23,27.2H.99c-.69,0-.69,1.07,0,1.07h41.24c.69,0,.69-1.07,0-1.07h0Z"/>
    <path class="cls-39" d="m42.23,22.49H.99c-.69,0-.69,1.07,0,1.07h41.24c.69,0,.69-1.07,0-1.07h0Z"/>
    <path class="cls-39" d="m42.23,10.68H.99c-.69,0-.69,1.07,0,1.07h41.24c.69,0,.69-1.07,0-1.07h0Z"/>
    <path class="cls-39" d="m42.97,8.71v-.09c0-.29-.24-.53-.53-.53H.53c-.29,0-.53.24-.53.53,0,.54,0,1.08,0,1.62,0,1.33,0,2.67,0,4v5.88c.01,2.41.01,4.82.02,7.23v8.11s.02,8.41.02,8.41c0,2.74,0,5.48,0,8.22,0,2.51,0,5.02,0,7.53,0,2.11,0,4.23,0,6.34,0,1.53,0,3.05,0,4.58v.8c0,.29.24.53.53.53h42.09c.29,0,.53-.24.53-.53,0-.9,0-1.8,0-2.7,0-1.61-.01-3.23-.02-4.84,0-2.15-.02-4.29-.03-6.44-.01-2.53-.02-5.06-.03-7.58-.01-2.72-.02-5.44-.04-8.16-.01-2.76-.02-5.51-.04-8.27-.01-2.63-.02-5.27-.03-7.9,0-2.32-.02-4.64-.03-6.96,0-1.86-.01-3.72-.02-5.58,0-1.22,0-2.43-.01-3.65v-.54c0-.69-1.07-.69-1.07,0,0,1.03,0,2.07,0,3.1,0,1.72.01,3.44.02,5.16,0,2.22.02,4.45.03,6.67.01,2.58.02,5.15.03,7.73l.04,8.22.04,8.23c.01,2.59.02,5.19.03,7.78,0,2.25.02,4.5.03,6.76,0,1.76.01,3.52.02,5.28,0,1.09,0,2.18,0,3.26v.44l.53-.53H.6l.53.53c0-1.37,0-2.74,0-4.1,0-1.98,0-3.96,0-5.94v-7.28c-.01-2.7-.01-5.4-.02-8.1,0-2.82,0-5.63,0-8.44v-8.21s-.02-7.49-.02-7.49c0-2.08,0-4.17,0-6.25,0-1.51,0-3.02,0-4.52,0-.75,0-1.49,0-2.24v-.15l-.53.53h41.91l-.53-.53v.09c0,.69,1.07.69,1.07,0Z"/>
    <path class="cls-39" d="m30.32,17.78v5.24c0,.69,1.07.69,1.07,0v-5.24c0-.69-1.07-.69-1.07,0Z"/>
    <path class="cls-39" d="m30.32,33.67v5.24c0,.69,1.07.69,1.07,0v-5.24c0-.69-1.07-.69-1.07,0Z"/>
    <path class="cls-39" d="m30.32,50.46v5.24c0,.69,1.07.69,1.07,0v-5.24c0-.69-1.07-.69-1.07,0Z"/>
    <text class="cls-7" transform="translate(71.93 76.48)"><tspan x="0" y="0">③個人認証</tspan><tspan class="cls-10" x="-17.42" y="6.04">④</tspan><tspan class="cls-18" x="-12.49" y="6.04">ウ</tspan><tspan class="cls-24" x="-8" y="6.04">ォ</tspan><tspan class="cls-15" x="-3.58" y="6.04">レ</tspan><tspan class="cls-20" x=".84" y="6.04">ッ</tspan><tspan class="cls-29" x="4.99" y="6.04">ト</tspan><tspan class="cls-27" x="9.57" y="6.04">ア</tspan><tspan class="cls-1" x="14.05" y="6.04">ド</tspan><tspan class="cls-31" x="18.69" y="6.04">レ</tspan><tspan class="cls-25" x="23.34" y="6.04">ス</tspan><tspan class="cls-28" x="28.3" y="6.04">宛</tspan><tspan class="cls-11" x="33.1" y="6.04">て</tspan><tspan class="cls-26" x="37.71" y="6.04">に</tspan><tspan class="cls-47" x="-4.5" y="12.08">ト</tspan><tspan class="cls-3" x=".18" y="12.08">ー</tspan><tspan class="cls-14" x="4.98" y="12.08">ク</tspan><tspan class="cls-22" x="9.41" y="12.08">ン</tspan><tspan class="cls-16" x="14.19" y="12.08">を</tspan><tspan x="19.06" y="12.08">送付</tspan></text>
    <text class="cls-7" transform="translate(179.38 32.2)"><tspan class="cls-18" x="0" y="0">⑤</tspan><tspan class="cls-47" x="4.49" y="0">ト</tspan><tspan class="cls-3" x="9.17" y="0">ー</tspan><tspan class="cls-14" x="13.98" y="0">ク</tspan><tspan class="cls-12" x="18.4" y="0">ン</tspan><tspan class="cls-23" x="23" y="0">で</tspan><tspan x="27.79" y="0">投票</tspan></text>
    <ellipse class="cls-37" cx="32.2" cy="70.89" rx="24.06" ry="7.94"/>
    <text class="cls-8" transform="translate(13.64 73.42)"><tspan x="0" y="0">選挙管理委員会</tspan></text>
    <g>
      <line class="cls-6" x1="105.87" y1="29.9" x2="67.47" y2="29.9"/>
      <polygon class="cls-46" points="69.6 22.62 56.99 29.9 69.6 37.18 69.6 22.62"/>
    </g>
    <text class="cls-7" transform="translate(61.45 5.99)"><tspan x="0" y="0">①選挙参加</tspan><tspan class="cls-17" x="25.17" y="0">の</tspan><tspan class="cls-13" x="30.14" y="0">申し</tspan><tspan class="cls-28" x="39.6" y="0">立</tspan><tspan class="cls-9" x="44.41" y="0">て</tspan><tspan x="0" y="6.04">②個人情</tspan><tspan class="cls-32" x="20.14" y="6.04">報</tspan><tspan class="cls-30" x="23.92" y="6.04">・</tspan><tspan class="cls-21" x="27.59" y="6.04">ウ</tspan><tspan class="cls-24" x="32.08" y="6.04">ォ</tspan><tspan class="cls-15" x="36.49" y="6.04">レ</tspan><tspan class="cls-20" x="40.91" y="6.04">ッ</tspan><tspan class="cls-19" x="45.07" y="6.04">ト</tspan><tspan class="cls-2" x="0" y="12.08">　</tspan><tspan class="cls-27" x="4.85" y="12.08">ア</tspan><tspan class="cls-1" x="9.33" y="12.08">ド</tspan><tspan class="cls-31" x="13.97" y="12.08">レ</tspan><tspan class="cls-48" x="18.62" y="12.08">ス</tspan><tspan class="cls-16" x="23.53" y="12.08">を</tspan><tspan x="28.41" y="12.08">送付</tspan></text>
  </g>
</svg>