<?xml version="1.0" encoding="UTF-8"?>
<svg id="_レイヤー_2" data-name="レイヤー 2" xmlns="http://www.w3.org/2000/svg" xmlns:xlink="http://www.w3.org/1999/xlink" viewBox="0 0 297.64 148.82">
  <defs>
    <style>
      .cls-1 {
        letter-spacing: .05em;
      }

      .cls-2 {
        clip-path: url(#clippath);
      }

      .cls-3, .cls-4 {
        fill: none;
      }

      .cls-3, .cls-5, .cls-6, .cls-7, .cls-8, .cls-9, .cls-10, .cls-11, .cls-12, .cls-13, .cls-14 {
        stroke-width: 0px;
      }

      .cls-15 {
        letter-spacing: .04em;
      }

      .cls-16 {
        letter-spacing: .02em;
      }

      .cls-17 {
        letter-spacing: .02em;
      }

      .cls-18 {
        letter-spacing: .04em;
      }

      .cls-19 {
        fill: #2a81bc;
        font-family: NotoSansJP-Bold-83pv-RKSJ-H, 'Noto Sans JP';
        font-size: 8.17px;
        font-weight: 700;
      }

      .cls-20 {
        clip-path: url(#clippath-1);
      }

      .cls-21 {
        clip-path: url(#clippath-4);
      }

      .cls-22 {
        clip-path: url(#clippath-3);
      }

      .cls-23 {
        clip-path: url(#clippath-2);
      }

      .cls-24 {
        clip-path: url(#clippath-7);
      }

      .cls-25 {
        clip-path: url(#clippath-8);
      }

      .cls-26 {
        clip-path: url(#clippath-6);
      }

      .cls-27 {
        clip-path: url(#clippath-5);
      }

      .cls-28 {
        clip-path: url(#clippath-9);
      }

      .cls-4 {
        stroke: #221e1f;
        stroke-linecap: round;
        stroke-miterlimit: 10;
        stroke-width: 1px;
      }

      .cls-29 {
        letter-spacing: .05em;
      }

      .cls-30 {
        clip-path: url(#clippath-10);
      }

      .cls-31 {
        clip-path: url(#clippath-11);
      }

      .cls-32 {
        letter-spacing: .01em;
      }

      .cls-33 {
        letter-spacing: -.11em;
      }

      .cls-34 {
        letter-spacing: .05em;
      }

      .cls-35 {
        letter-spacing: .05em;
      }

      .cls-36 {
        letter-spacing: -.04em;
      }

      .cls-37 {
        letter-spacing: .06em;
      }

      .cls-38 {
        letter-spacing: 0em;
      }

      .cls-5 {
        fill: #6d6e70;
      }

      .cls-6 {
        fill: #808284;
      }

      .cls-7 {
        fill: #221e1f;
      }

      .cls-8 {
        fill: #d1d3d4;
      }

      .cls-9 {
        fill: #ab846e;
      }

      .cls-10 {
        fill: #a7a9ab;
      }

      .cls-11 {
        fill: #939497;
      }

      .cls-12 {
        fill: #f1f2f3;
      }

      .cls-13 {
        fill: #fff;
      }

      .cls-14 {
        fill: #e7e7e8;
      }

      .cls-39 {
        letter-spacing: .02em;
      }
    </style>
    <clipPath id="clippath">
      <rect class="cls-3" x="23.15" y="12" width="52.91" height="83.51"/>
    </clipPath>
    <clipPath id="clippath-1">
      <rect class="cls-3" x="23.15" y="12" width="52.91" height="83.51"/>
    </clipPath>
    <clipPath id="clippath-2">
      <rect class="cls-3" x="23.15" y="12" width="52.91" height="83.51"/>
    </clipPath>
    <clipPath id="clippath-3">
      <rect class="cls-3" x="252.92" y="27.09" width="36.38" height="59.91"/>
    </clipPath>
    <clipPath id="clippath-4">
      <rect class="cls-3" x="252.92" y="27.09" width="36.38" height="59.91"/>
    </clipPath>
    <clipPath id="clippath-5">
      <rect class="cls-3" x="252.92" y="27.09" width="36.38" height="59.91"/>
    </clipPath>
    <clipPath id="clippath-6">
      <rect class="cls-3" x="208.11" y="25.93" width="38.03" height="61.07"/>
    </clipPath>
    <clipPath id="clippath-7">
      <rect class="cls-3" x="208.11" y="25.93" width="38.03" height="61.07"/>
    </clipPath>
    <clipPath id="clippath-8">
      <rect class="cls-3" x="208.11" y="25.93" width="38.03" height="61.07"/>
    </clipPath>
    <clipPath id="clippath-9">
      <rect class="cls-3" x="122.06" y="21.83" width="56.9" height="66.66"/>
    </clipPath>
    <clipPath id="clippath-10">
      <rect class="cls-3" x="122.06" y="21.83" width="56.9" height="66.66"/>
    </clipPath>
    <clipPath id="clippath-11">
      <rect class="cls-3" x="122.06" y="21.83" width="56.9" height="66.66"/>
    </clipPath>
  </defs>
  <g id="Working">
    <g>
      <rect class="cls-12" width="99.21" height="148.82"/>
      <rect class="cls-13" x="99.21" width="99.21" height="148.82"/>
      <rect class="cls-12" x="198.43" width="99.21" height="148.82"/>
      <g>
        <path class="cls-13" d="m59.87,29.28s-1.77.07-2.35.14c-1.51.17-5.13.81-6.17,1.87-.71.72-.89,1.9-.92,2.7-.14,3.96-.48,11.05.1,15.01.17,1.14.62,2.42,2.66,2.72.39.06,1.99.13,2.38.15l1.08.05,3.22-22.65h0Z"/>
        <path class="cls-13" d="m67.65,53.85c1.56,0,2.84-.01,3.47-.02.24,0,.43-.2.43-.44-.04-1.71-.19-6.28-.19-6.28l.65-.86c.62.38,1.58.47,2.32.09.97-.49,1.51-1.65,1.3-3.48-.03-.3-.07-.61-.11-.92-.18-2.02-1.31-5.89-1.7-6.63-.2-.38-.57-.93-.92-1.29-.4-.42-.8-.77-1.29-1.09-1.34-.9-2.47-1.58-3.95-2.34,0,0-.1-.05-.2-.1-.16.23-.32.46-.32.46-.22.31-1.07.55-1.45.61-1.27.19-2.43-.14-3.64-.54-1.02-.33-1.62-.66-2.51-1.3-1.66.8-3.45,1.84-4.88,2.91-.58.43-.96.81-1.35,1.45-.27.45-.52,1.06-.62,1.57-.29,1.55-.52,2.49-.66,4.26-.05,1.02-.23,2.64-.23,3.66,0,1.18.05,2.4.6,3.44.55,1.04,1.9,1.23,3.04.94.26-.07.5-.16.71-.29,0,0-.06,4.58-.08,5.89,0,.19.15.34.34.34,1.46,0,7.24-.04,11.22-.07h0Z"/>
        <path class="cls-13" d="m72.08,39.38c-.21-1.24-.88-4.67-1.01-5.33-.73.08-3.7.47-4.72.69.25,2.37.91,7.27,1.15,9.04.62-.09,1.63-.25,2.32-.38l2.27-4.02h0Z"/>
        <path class="cls-13" d="m38.36,87.91c0-.06.01-.12.02-.19-.02,0-.03,0-.05,0-1.09.05-2.27-.02-2.98-.15,0,.23,0,.43,0,.43,0,.2,0,1.14-.27,1.35.3.16.66.38.94.56.24.16.49,0,.66-.22.42-.56.99-.91,1.35-.92,0,0,.1,0,.24,0,0-.03,0-.07,0-.07.01-.21.04-.41.08-.62,0,0,0-.07.01-.18h0Z"/>
        <path class="cls-13" d="m65.09,86.95c.8.26,1.9.3,2.94.25-.02.17-.04.28-.04.28-.05.22-.08.44-.09.66,0,0,0,.04-.02.1-.2,0-.34,0-.34,0-.39,0-1.17.16-1.45.98-.1.29-.45.41-.71.24-.3-.2-.7-.45-1.03-.61,0-.01.02-.02.02-.02.21-.28.24-.61.25-.93l.47-.94h0Z"/>
        <path class="cls-13" d="m70.98,22.37c-.04.55-.07,1.09-.11,1.61-.11,1.55-.53,2.96-1.58,3.88-.86.75-1.77,1.18-2.81,1.29v.07c0,.38,0,.55,0,.93,0,.06,0,.13.03.18.03.04.07.07.11.09.19.12.39.23.58.34.11.41-1.04.74-1.49.81-1.27.19-2.43-.14-3.64-.54-.99-.32-1.58-.64-2.42-1.24.26-.11.56-.25.56-.25.38-.34.45-.63.46-.91,0-.32.02-1.1.02-1.69,0,0,0,0,0-.02-.34-.34-.62-.69-.89-1.05,0,0-.29-.42-.42-.66,0,0-.02-.05-.05-.12-.34-.04-.66-.2-.8-.3-.48-.37-.67-.84-.79-1.18-.08-.23-.13-.53-.12-.82-1.1-2.13-1.1-5.06.14-7.13.38-.63.69-.91,1.35-1.61,1.31-1.12,3.02-1.64,4.81-1.65,2.07-.01,4.22.79,5.47,2.25.59.69,1.28,1.49,1.6,3.1.13.65.29,1.59.09,3.4-.04.41-.07.82-.1,1.22h0Z"/>
        <path class="cls-5" d="m70.83,17.07c.06.21.12.43.17.67.13.65.29,1.59.09,3.4,0,0-.01.11-.02.22-.01-.07-.03-.14-.03-.14-.13-.63-1.4-2.34-2.3-2.81-.1-.05-.24.02-.28.19-.04.17-.04.3-.03.42.02.18-.16.32-.31.23-.64-.35-1.87-1.35-3.21-1.6,0,0-.05,0-.15-.03-.59.07-1.07.24-1.07.24-.38.17-2.16.85-3.42,3.26l-1.06.61c-.19-.17-.44-.23-.65-.23-.46.02-.66.25-.75.4-.13.22-.19.53-.2.85-1.1-2.13-1.1-5.06.14-7.13.25-.42.48-.69.79-1.02l.93-.88c1.25-.91,2.81-1.34,4.44-1.35,2.07-.01,4.22.79,5.47,2.25.5.58,1.08,1.25,1.43,2.43h0Z"/>
        <path class="cls-11" d="m32.04,20.24c1.47-1.09,2.84-1.38,4.23-1.35,2.19.06,3.98.86,5.19,2.22.7.79,1.22,1.94,1.43,2.98.2.97.24,2.45.01,3.68l-.85,5.39c.02.66.27,1.59.34,1.91.19.83-.77,1.6-1.55,1.84l-7.79-3.9c-.32-.46-2.05-1.49-2.07-2.05-.05-1.2-1.53-2.14-1.62-2.89-.08-.67-.24-1.31-.27-1.99-.03-.63.04-1.26.2-1.87.31-1.21.84-2.27,1.76-3.12"/>
        <path class="cls-13" d="m40.61,25.14c.1.53.17,1.04-.09.96-1.67-.48-3.02-1.46-4.08-2.84-.21.8-.5,1.8-.76,2.28-.37.69-1.53,2.23-2.49,2.52h-1.56c-.18-.15-.41-.21-.62-.2-.44.01-.63.24-.71.38-.24.4-.23,1.13-.07,1.59.11.32.29.77.75,1.12.13.1.43.25.75.28.03.07.06.12.06.12.12.23.4.63.4.63.26.36.53.69.86,1.02,0,.56-.01,1.3-.02,1.61,0,.27-.07.55-.44.87,0,0-.36.16-.62.27.76.37,1.33.69,2.27,1.05,1.22.47,2.64.78,3.87.6.45-.07,1.22-.26,1.24-.72-.22-.12-.43-.24-.64-.37-.04-.02-.08-.05-.1-.09-.03-.05-.03-.11-.03-.17,0-.36,0-.53,0-.89v-.07c.98-.11,1.84-.52,2.64-1.23,1-.88,1.4-2.22,1.5-3.69.06-.77.1-1.6.17-2.43.06-.32.1-.66.12-1-.85-.75-1.73-1.59-2.55-2.39.02.21.09.49.14.78h0Z"/>
        <path class="cls-7" d="m58.94,22.03c-.15-.12-.36-.14-.54-.09-.07.02-.07.02-.11.04-.01,0-.09.07-.04.02-.03.03-.06.06-.09.09.06-.07.01-.02,0,0-.18.33-.2.8-.1,1.2.09.4.27.78.58,1.07.24.23.67.42,1.04.3.47-.15.67.59.2.74-.47.15-1.03.02-1.45-.23-.44-.26-.75-.71-.94-1.17-.19-.44-.29-.9-.25-1.37.03-.43.14-.9.49-1.19.51-.42,1.26-.37,1.75.04.16.13.14.4,0,.54-.16.16-.38.13-.54,0h0Z"/>
        <path class="cls-7" d="m68.07,26.4c.13-.09.02-.02-.02.02-.07.06-.14.11-.22.15-.23.12-.48.17-.73.18-.49.02-.97-.12-1.35-.42-.16-.12-.14-.41,0-.54.17-.15.37-.13.54,0-.12-.1-.04-.03,0-.01.03.02.05.03.08.05.03.02.07.04.11.05.06.03-.07-.02-.02,0,.02,0,.04.02.07.03.05.02.1.03.15.05.04.01.11.04.15.03-.09,0,0,0,.02,0,.03,0,.06,0,.1,0,.07,0,.13,0,.2,0,.03,0,.06,0,.09,0-.02,0-.03,0-.05,0,.02,0,.03,0,.05,0,.04,0,.08-.02.13-.03.02,0,.04-.01.06-.02.06-.02-.01,0-.03.01.03-.02.06-.03.09-.05.03-.01.05-.03.07-.05.07-.05-.08.07-.01,0,.05-.04.1-.08.15-.12.16-.12.43-.03.52.14.11.2.04.4-.14.52h0Z"/>
        <path class="cls-7" d="m64.28,22.15c-.11.3-.09,1.02.49,1.11.77.04.86-.81.63-1.23-.19-.34-.81-.52-1.12.12h0Z"/>
        <path class="cls-7" d="m68.6,22.19c-.09.31-.05,1.04.46,1.11.68,0,.73-.87.52-1.29-.18-.34-.72-.49-.97.18h0Z"/>
        <path class="cls-7" d="m61.07,26.93c0,.47,0,.94-.02,1.4,0,.4-.02.79-.27,1.13-.11.15-.25.33-.42.42-.1.05-.2.09-.31.13-.19.09-.39.17-.58.26-.19.08-.41.06-.52-.14-.1-.16-.05-.44.14-.52.18-.08.35-.16.53-.23.11-.05.21-.09.32-.14.02-.01.05-.02.07-.03-.07.04,0-.01.03-.04.03-.03.07-.07.08-.09.03-.03.05-.07.07-.11.01-.02.03-.05.04-.07-.01.03-.01.03,0-.01.01-.03.02-.07.03-.1,0-.02,0-.04.01-.07,0,.05,0,.05,0,0,0-.16,0-.31.01-.47,0-.44.01-.88.02-1.32,0-.49.77-.49.77,0h0Z"/>
        <path class="cls-7" d="m67.73,23.53c.1.2.2.4.28.6-.01-.03-.03-.06-.04-.09.05.11.09.21.09.33,0,.15-.06.29-.18.38-.09.07-.18.13-.29.15-.07.01-.14.01-.21.02-.09,0-.21-.05-.27-.11-.07-.07-.12-.18-.11-.27,0-.1.04-.2.11-.27.03-.02.05-.04.08-.06.06-.03.12-.05.19-.05.03,0,.06,0,.1,0-.03,0-.07,0-.1.01.02,0,.04,0,.07-.02-.03.01-.06.03-.09.04.02-.01.04-.02.06-.04-.03.02-.05.04-.08.06.01-.01.03-.02.04-.04-.02.03-.04.05-.06.08,0,0,.01-.02.02-.03-.01.03-.03.06-.04.09,0,0,0-.01,0-.02,0,.03,0,.07-.01.1,0-.01,0-.03,0-.04,0,.03,0,.07.01.1,0-.03-.01-.06-.03-.09.01.03.03.06.04.09-.02-.05-.04-.09-.06-.14.01.03.03.06.04.09-.07-.17-.15-.33-.24-.49-.05-.09-.07-.2-.04-.3.02-.09.09-.19.18-.23.09-.05.2-.07.3-.04.09.03.18.09.23.18h0Z"/>
        <path class="cls-7" d="m61.13,27.82c-.49-.39-.93-.83-1.32-1.31-.28-.35-.56-.72-.77-1.11-.09-.18-.05-.42.14-.52.18-.09.42-.05.52.14.1.19.23.38.35.56.12.17.21.29.32.43.38.48.82.91,1.3,1.28.16.12.14.41,0,.54-.17.15-.37.13-.54,0h0Z"/>
        <g class="cls-2">
          <path class="cls-7" d="m63.11,28.17c1.52.63,3.28.94,4.82.17.71-.36,1.36-.88,1.78-1.55.42-.68.63-1.47.74-2.26.15-1.12.16-2.25.26-3.37.02-.21.16-.38.38-.38.19,0,.4.18.38.38-.1,1.08-.12,2.18-.25,3.26-.1.9-.31,1.79-.75,2.58-.87,1.58-2.67,2.53-4.45,2.57-1.08.03-2.13-.24-3.12-.65-.19-.08-.33-.25-.27-.47.05-.18.28-.35.47-.27h0Z"/>
          <path class="cls-7" d="m70.7,21.15c.22-1.98.12-4.06-1.14-5.71-.65-.84-1.41-1.51-2.38-1.96-1.09-.51-2.31-.74-3.51-.7-1.43.04-2.83.45-4,1.29-.17.12-.43.03-.52-.14-.11-.19-.03-.4.14-.52,2.17-1.56,5.24-1.8,7.71-.84,2.22.86,3.92,2.78,4.38,5.12.23,1.15.22,2.3.09,3.45-.02.21-.16.38-.38.38-.19,0-.41-.18-.38-.38h0Z"/>
        </g>
        <path class="cls-7" d="m63.89,18.21c-.33.14-.64.29-.95.49-.28.18-.46.31-.69.51-.29.25-.55.52-.79.81-.33.4-.61.85-.86,1.32-.23.44-.89.05-.66-.39.7-1.33,1.75-2.52,3.11-3.2.15-.07.3-.14.45-.2.19-.08.41-.06.52.14.09.16.05.44-.14.52h0Z"/>
        <path class="cls-7" d="m70.66,21.33c-.04-.18-.09-.27-.19-.45-.13-.23-.27-.44-.42-.65-.32-.45-.7-.87-1.12-1.22-.07-.06-.15-.11-.22-.16-.1-.06-.19-.06,0-.1.21-.05.09-.04.1.05,0,.03,0,.08,0,.11,0,.34-.08.66-.46.75-.28.07-.53-.12-.75-.26-.24-.15-.47-.31-.71-.46-.65-.4-1.32-.76-2.08-.9-.48-.09-.28-.83.2-.74.72.14,1.39.46,2.02.83.27.16.53.33.79.49.11.07.21.14.32.2.02.01.14.07.14.08,0-.05-.2.07-.19.07-.04.07-.05.07-.04-.01,0-.02,0-.04,0-.06,0-.35.12-.78.5-.87.3-.07.58.16.8.33.48.37.88.83,1.24,1.31.32.43.7.92.82,1.46.11.48-.63.68-.74.2h0Z"/>
        <path class="cls-7" d="m67.82,31.5c-.48-.23-.97-.48-1.42-.77-.18-.12-.28-.28-.3-.49-.01-.12,0-.24,0-.36,0-.22,0-.44,0-.67,0-.2.18-.39.38-.38.21,0,.38.17.38.38,0,.2,0,.41,0,.61,0,.11,0,.22,0,.33,0,.02.02.09,0,.04-.01-.03-.01-.06-.04-.09-.03-.04-.03-.03,0,0,.03.02.05.03.08.05.42.25.86.48,1.3.7.18.09.24.36.14.52-.12.19-.33.23-.52.14h0Z"/>
        <path class="cls-13" d="m40.3,86.56c.15-4.5.67-11.97.78-16.21.07-2.72.16-5.81.24-8.75,0,0,.13-5.46.2-8.69-.14,0-.22,0-.22,0-.37.01-7.07.03-10.34.05h-2.99c.08,4.05.21,10.74.21,10.74.19,9.45.6,21.78.64,23.48.41.39,1.88.58,2.88.63,1.08.06,2.17.07,3.28-.32.9.27,3.48.38,4.93.03.2-.05.35-.22.36-.42,0-.17.01-.35.02-.53h0Z"/>
        <path class="cls-13" d="m23.83,61.51c.4-1.12,1.06-2.11,1.42-3.24.06-.19.13-.47.19-.77.07-.33.12-.68.14-.92.87.34,1.73.55,2.53.68v.5c-.15,1.04-.09,1.65-.12,2.65-.02.61.11,1.22,0,1.8-.05.26-.14.45-.35.52-.18.06-.38.03-.52-.14-.13-.18-.38-.44-.51-.92-.29.79-.68,1.35-1.21,1.94-.21.24-.59.55-.88.61-.5.1-.84-.03-.95-.61-.11-.57.07-1.57.25-2.09h0Z"/>
        <path class="cls-13" d="m31.58,89.68c.28-.2.54-.32.75-.32.06,0,.13,0,.18,0,0-.31-.01-.63-.02-.94,0,0,0-.28,0-.59-.26,0-.53-.02-.79-.03-.68-.04-1.58-.13-2.22-.32,0,.39,0,.79,0,.79,0,.16,0,.33-.01.49,0,.15,0,.31-.05.46-.04.15-.12.29-.24.38,0,0-.08.06-.2.15.31.11.9.46,1.31.73.24.16.48,0,.66-.22.19-.24.4-.44.6-.6h0Z"/>
        <path class="cls-8" d="m32.34,35.94c.59.3,1.12.57,1.9.87,1.22.47,2.64.78,3.87.6.37-.05.95-.19,1.16-.5,0,0,.07-.1.18-.26.72.35,1.55.74,2.06,1.07,1.43.91,2.09,1.94,2.86,3.7.56,1.31,1.26,3.08,1.42,4.18.1.68.11,1.38-.15,2.03-.26.65-.81,1.26-1.61,1.55-.73.26-1.6.23-2.36.01-.05,1.04-.06,2.15-.08,3.69,0,0,0,.01,0,.03-.14,0-.29,0-.29,0-.37.01-7.07.03-10.34.05h-1.34c-.02.35-.03.68-.05.99-.05.95-.16,2.1-.31,3.44-1.32-.09-3.01-.42-4.62-1.22.29-4.2,1.21-13.76,1.19-13.59.21-1.77.45-3.1,1.82-4.29.45-.39.98-.68,1.51-.97.94-.51,1.89-1.03,2.83-1.54.11.06.23.11.33.16h0Z"/>
        <path class="cls-7" d="m41.34,46.64c.05.69.12,1.5.17,2.19.34-.03.7-.05,1.06-.05-.06-.73-.12-1.46-.18-2.19,0,0-.66-5.59-.66-5.69.02-.71-.12-1.28-.36-2.23-.11-.43-.28-1.02-.46-1.48-.03-.09-.1-.15-.19-.18l-.86-.33c-.08-.03-.15.05-.12.13.24.64.43,1.67.59,2.16.16.95.24,1.32.39,2.35l.63,5.32h0Z"/>
        <path class="cls-10" d="m70.13,85.91c.19-5.04,1.13-25.16,1.03-30.48,0,0-.02-.79-.04-1.6-2.26,0-12.66.07-14.68.08h-.24c.29,10.25.54,22.64.83,32.88,1.28.43,2.6.6,3.95.67.73.04,1.85-.16,2.6-.48.01-.11.02-.22.03-.33.51.1,1.49.29,1.49.29,1.25.4,3.25.27,4.6.11.23-.03.41-.22.42-.46,0-.18.01-.42.02-.7h0Z"/>
        <path class="cls-7" d="m58.82,14.89c-1.89,2.01-2.11,5.28-.87,7.69.22.44-.44.83-.66.39-1.39-2.73-1.14-6.35.99-8.62.34-.36.88.18.54.54h0Z"/>
        <path class="cls-7" d="m36.79,23.44c-.28,1.04-.57,2.07-1.2,2.96-.57.8-1.32,1.72-2.3,2.04-.47.15-.67-.59-.2-.74.39-.13.71-.42.99-.7.34-.33.64-.7.91-1.09.56-.8.81-1.74,1.05-2.68.13-.48.87-.27.74.2h0Z"/>
        <path class="cls-7" d="m36.72,23.01c.77.99,1.71,1.8,2.84,2.34.28.13.56.24.85.33.04.01.18.04.22.07-.11-.02-.21.02-.29.13,0,.01-.01.03-.02.04,0-.04.01-.04,0,0,0-.01,0-.02,0-.04,0-.05,0-.1,0-.15-.03-.46-.17-.91-.22-1.36-.04-.35.44-.48.65-.27,1.06,1.04,2.14,2.07,3.29,3.01.38.31-.16.85-.54.54-1.15-.94-2.23-1.97-3.29-3.01.22-.09.44-.18.65-.27.06.46.26,1.04.22,1.55-.02.28-.17.57-.49.58-.3.01-.65-.16-.93-.28-1.39-.56-2.58-1.49-3.5-2.67-.13-.16-.16-.38,0-.54.13-.13.41-.16.54,0h0Z"/>
        <path class="cls-7" d="m38.97,35.98c1.12.58,2.32,1.05,3.33,1.83.94.73,1.59,1.69,2.1,2.75.6,1.25,1.13,2.57,1.52,3.9.37,1.27.56,2.79-.26,3.93-1,1.39-2.83,1.61-4.37,1.07-.46-.16-.26-.9.2-.74,1.18.41,2.66.38,3.48-.69.75-.97.52-2.31.19-3.41-.36-1.22-.84-2.43-1.39-3.58-.45-.96-1-1.85-1.83-2.54-.99-.82-2.24-1.29-3.38-1.87-.44-.23-.05-.89.39-.66h0Z"/>
        <path class="cls-7" d="m39.61,37.11c-.39.5-1.05.64-1.65.71-.74.08-1.5,0-2.22-.16-1.43-.31-2.7-.96-4.01-1.59-.44-.21-.06-.88.39-.66,1.14.55,2.25,1.12,3.49,1.44.64.16,1.29.26,1.95.24.27,0,.55-.04.81-.1.17-.04.46-.1.58-.25.13-.16.33-.25.52-.14.16.09.26.36.14.52h0Z"/>
        <path class="cls-7" d="m33.44,33c0,.45,0,.89-.02,1.34,0,.39-.02.76-.26,1.09-.1.15-.24.32-.41.4-.1.05-.19.09-.29.13-.19.08-.37.16-.56.25-.19.08-.41.06-.52-.14-.1-.16-.05-.44.14-.52.17-.07.34-.15.51-.22.1-.04.2-.09.3-.13.02,0,.05-.02.07-.03-.08.04,0,0,.02-.03.02-.02.03-.04.05-.05.03-.04.04-.05.03-.03.03-.03.05-.07.07-.1.01-.02.02-.04.04-.07-.01.04-.01.03,0,0,0-.03.02-.06.03-.1,0-.02,0-.04.01-.06,0,.05,0,.05,0,0,0-.15,0-.3.01-.45,0-.42.01-.84.01-1.26,0-.49.77-.49.77,0h0Z"/>
        <path class="cls-7" d="m39.86,37.38c-.46-.22-.93-.45-1.35-.73-.18-.12-.28-.27-.3-.48-.01-.11,0-.23,0-.34,0-.21,0-.42,0-.64,0-.2.18-.39.38-.38.21,0,.38.17.38.38,0,.19,0,.39,0,.58,0,.1,0,.21,0,.31,0,.02.02.09,0,.04-.01-.04-.01-.07-.04-.1-.03-.04-.04-.03,0,0,.03.02.05.03.08.05.4.24.82.46,1.24.66.18.09.24.36.14.52-.12.19-.33.23-.52.14h0Z"/>
        <path class="cls-7" d="m40.75,36.54c.54-.17,1.34-.68,1.29-1.3-.02-.26-.13-.57-.19-.84-.09-.41-.16-.82-.17-1.24-.02-.49.75-.49.77,0,.01.43.1.85.2,1.27.08.37.21.72.14,1.1-.15.87-1.04,1.49-1.83,1.74-.47.15-.67-.59-.2-.74h0Z"/>
        <path class="cls-7" d="m31.85,19.91c1.03-.76,2.21-1.25,3.49-1.37,1.14-.11,2.34.03,3.43.39,1.02.34,1.97.9,2.73,1.67.85.86,1.43,2,1.71,3.17.32,1.32.3,2.77.06,4.1-.04.2-.29.32-.47.27-.22-.06-.3-.27-.27-.47.37-2.11.13-4.62-1.35-6.29-1.37-1.54-3.44-2.19-5.46-2.11-1.29.05-2.46.53-3.5,1.29-.17.12-.43.03-.52-.14-.11-.19-.03-.4.14-.52h0Z"/>
        <path class="cls-7" d="m31.37,28.36c-.14-.12-.33-.12-.5-.08-.03,0-.06.02-.08.03.03-.01.02,0-.02.01-.02.01-.09.06-.04.02-.03.03-.06.06-.08.08.07-.07.01-.02,0,0-.16.31-.18.75-.1,1.12.09.38.25.73.55,1.01.12.11.25.19.4.24.2.07.38.1.58.04.47-.15.67.59.2.74-.45.15-.99.02-1.39-.22-.42-.25-.72-.68-.9-1.12-.18-.42-.27-.86-.24-1.31.03-.42.14-.87.47-1.15.49-.41,1.22-.36,1.69.04.16.13.14.4,0,.54-.16.16-.38.13-.54,0h0Z"/>
        <path class="cls-7" d="m40.08,32.61c.13-.09.03-.02-.01.02-.07.05-.14.11-.21.15-.22.12-.46.17-.71.18-.47.02-.93-.11-1.3-.4-.16-.12-.14-.41,0-.54.17-.15.37-.13.54,0-.12-.1-.04-.03-.01-.01.03.02.05.03.08.05.03.02.07.03.1.05.06.03-.07-.02-.02,0,.02,0,.04.02.06.02.05.02.09.03.14.04.04.01.11.04.15.03-.05,0-.06,0-.02,0,0,0,.02,0,.03,0,.03,0,.06,0,.09,0,.06,0,.12,0,.19,0,.02,0,.07,0,.08,0-.02,0-.03,0-.05,0,.02,0,.03,0,.05,0,.04,0,.08-.02.12-.03.02,0,.04-.01.06-.02.06-.02-.01,0-.03.01.03-.02.06-.03.09-.04.02-.01.05-.03.07-.05.03-.02.06-.06-.04.03,0,0,.02-.01.02-.02.05-.04.09-.08.14-.12.16-.12.43-.03.52.14.11.2.04.4-.14.52h0Z"/>
        <path class="cls-7" d="m36.46,28.55c-.11.29-.09.97.46,1.06.73.04.82-.77.6-1.17-.18-.33-.77-.49-1.06.12h0Z"/>
        <path class="cls-7" d="m40.57,28.59c-.09.3-.05.99.43,1.06.64,0,.7-.83.49-1.22-.17-.32-.69-.47-.92.17h0Z"/>
        <path class="cls-7" d="m39.76,29.86c.1.19.19.38.27.58-.01-.03-.03-.06-.04-.09.05.11.09.2.09.32,0,.14-.06.28-.17.37-.08.07-.18.13-.28.15-.07.01-.13.01-.2.02-.09,0-.21-.05-.27-.11-.07-.07-.12-.18-.11-.27,0-.1.04-.2.11-.27.03-.02.05-.04.08-.06.06-.03.12-.05.19-.05.03,0,.06,0,.09,0-.03,0-.07,0-.1.01.02,0,.04,0,.06-.02-.03.01-.06.03-.09.04.02,0,.04-.02.06-.04-.03.02-.05.04-.08.06.01-.01.03-.02.04-.04-.02.03-.04.05-.06.08,0,0,.01-.02.01-.03-.01.03-.03.06-.04.09,0,0,0-.01,0-.02,0,.03,0,.07-.01.1,0-.01,0-.03,0-.04,0,.03,0,.07.01.1,0-.03-.01-.06-.03-.09.01.03.03.06.04.09-.02-.04-.04-.09-.06-.13.01.03.03.06.04.09-.07-.16-.14-.31-.22-.46-.05-.09-.07-.2-.04-.3.02-.09.09-.19.18-.23.09-.05.2-.07.3-.04.09.03.18.09.23.18h0Z"/>
        <path class="cls-7" d="m33.45,33.87c-.47-.37-.89-.79-1.26-1.25-.27-.33-.53-.69-.73-1.06-.09-.18-.05-.42.14-.52.18-.09.42-.05.52.14.1.19.22.36.33.53.03.04.06.08.09.12.04.06.09.12.13.17-.03-.04,0,0,.02.02.02.03.04.06.07.08.36.45.78.86,1.23,1.22.16.12.14.41,0,.54-.17.15-.37.13-.54,0h0Z"/>
        <path class="cls-7" d="m35.35,34.16c1.45.6,3.13.9,4.59.15.67-.34,1.28-.84,1.68-1.48.4-.65.6-1.42.69-2.17.13-1.05.14-2.11.24-3.16.02-.21.16-.38.38-.38.19,0,.4.18.38.38-.1,1.03-.12,2.06-.23,3.08-.1.86-.29,1.72-.72,2.48-.83,1.5-2.54,2.41-4.23,2.46-1.04.03-2.04-.23-2.99-.62-.19-.08-.33-.25-.27-.47.05-.18.28-.35.47-.27h0Z"/>
        <path class="cls-7" d="m28.92,27.63c-.1-.63-.22-1.27-.21-1.91.01-.62.11-1.24.28-1.84.33-1.16.91-2.23,1.8-3.06.36-.34.9.2.54.54h0c-.73.69-1.23,1.55-1.53,2.5-.17.55-.29,1.1-.32,1.68-.03.61.06,1.2.16,1.8.09.57.17,1.14.21,1.71"/>
        <path class="cls-7" d="m41.31,53.3c-.92.03-1.83.01-2.75.02-1.68,0-3.37.01-5.05.02-.85,0-1.69,0-2.54,0-.49,0-.49-.76,0-.77,3.1-.01,6.19-.02,9.29-.04.35,0,.7,0,1.05,0,.49-.01.49.75,0,.77h0Z"/>
        <path class="cls-7" d="m41.35,40.9c-.09-.96-.26-1.89-.54-2.82-.07-.24-.17-.48-.25-.73,0,.01.09.03,0,0-.05-.02-.1-.04-.15-.06-.14-.05-.28-.1-.41-.16-.06-.02-.11-.04-.17-.06-.03-.01-.11-.02-.03-.02.06-.02.13-.03.19-.05-.02,0-.03.02-.05.03.05-.05.09-.09.14-.14,0,.02-.02.03-.03.05.02-.06.03-.13.05-.19,0,.06.06.16.08.22.03.09.05.17.08.26.05.19.1.39.15.58.08.35.18.69.26,1.04.09.37.14.76.2,1.14.07.41.13.82.19,1.23.03.2-.05.41-.27.47-.18.05-.44-.06-.47-.27-.11-.77-.22-1.55-.38-2.31-.15-.7-.32-1.42-.55-2.09-.07-.2-.09-.42.08-.59.13-.13.33-.16.5-.11.2.06.4.15.6.22.24.09.49.16.63.39.11.17.17.4.23.59.08.23.15.46.21.69.25.88.38,1.77.47,2.68.05.49-.72.49-.77,0h0Z"/>
        <g class="cls-20">
          <path class="cls-7" d="m67.49,31.15c-.35.46-1,.65-1.55.76-.79.16-1.61.1-2.39-.07-.78-.16-1.57-.4-2.31-.71-.67-.27-1.27-.64-1.85-1.06-.17-.12-.25-.33-.14-.52.1-.17.36-.26.52-.14.51.37,1.05.72,1.63.97.64.28,1.33.48,2.01.65.71.18,1.46.28,2.19.17.24-.03.47-.1.7-.18.15-.05.45-.16.53-.26.13-.16.33-.25.52-.14.16.09.26.36.14.52h0Z"/>
          <path class="cls-7" d="m72.21,45.92c.6.35,1.41.39,2.02.04.44-.25.74-.67.9-1.15.24-.74.18-1.51.09-2.27-.07-.64-.15-1.27-.27-1.9-.25-1.28-.57-2.54-.96-3.78-.08-.24-.15-.49-.24-.73-.03-.1-.07-.19-.1-.28-.02-.04-.03-.09-.05-.13,0-.02-.01-.03-.02-.05-.04-.1.03.07,0-.02-.27-.61-.7-1.14-1.17-1.6-.69-.67-1.52-1.17-2.34-1.68-.84-.52-1.7-1-2.58-1.45-.44-.23-.05-.89.39-.66.83.43,1.64.88,2.44,1.37.8.49,1.62.98,2.32,1.6.62.55,1.18,1.19,1.55,1.94.2.4.34.84.47,1.26.42,1.32.78,2.68,1.04,4.04.13.7.21,1.41.29,2.12.1.82.13,1.66-.13,2.45-.22.67-.65,1.27-1.29,1.61-.84.45-1.93.42-2.75-.07-.42-.25-.04-.91.39-.66h0Z"/>
        </g>
        <path class="cls-13" d="m60.29,89.4c-.26.14-.51.38-.64.77-.1.29-.45.41-.71.24-.44-.29-1.07-.67-1.41-.79.11-.08.22-.16.22-.16.13-.1.22-.25.26-.41.04-.16.04-.63.05-.8v-1.18c.99.23,2,.34,3.03.39.06,0,.12,0,.18,0,0,.13,0,.26,0,.26,0,.19.01.99.02,1.46-.11,0-.19,0-.19,0-.2,0-.52.05-.81.21h0Z"/>
        <path class="cls-13" d="m68.53,93.93c.63.19,1.98.44,2.69.32,1.35-.22,1.73-.82,1.87-1.8.08-.54-.32-1.17-.76-1.51-.51-.4-1.78-.96-2.45-1.39-.74-.48-1.05-1.29-2.35-1.3-.39,0-1.17.16-1.45.98-.1.29-.45.41-.71.24-.46-.31-1.13-.7-1.45-.8-.4.32-.53,1.37-.55,2.14-.01.39.19.77.53.96.44.26.9.51,1.32.64,1.3.4,2.04,1.13,3.23,1.51.02,0,.05.02.08.02h0Z"/>
        <path class="cls-7" d="m68.63,93.56c.54.16,1.11.26,1.67.31.54.05,1.1.02,1.61-.21.39-.18.61-.47.73-.88.06-.23.12-.47.05-.71-.08-.3-.27-.56-.49-.77-.4-.37-.96-.6-1.44-.85-.5-.26-1.02-.52-1.45-.89-.34-.29-.63-.66-1.06-.83-.42-.17-.89-.18-1.28.01-.25.12-.4.31-.51.56-.14.34-.41.59-.8.6-.37,0-.68-.28-.99-.46-.27-.16-.54-.34-.84-.43.12-.03.25-.07.37-.1-.16.14-.23.38-.29.6-.08.31-.11.62-.14.93-.02.27-.06.55.12.78.2.27.62.43.92.57.33.16.69.25,1.03.39.33.13.64.29.95.46.6.33,1.18.69,1.84.89.47.14.27.88-.2.74-1.03-.31-1.88-.99-2.87-1.38-.96-.38-2.43-.72-2.56-1.95-.05-.49.04-1.04.14-1.51.08-.38.23-.92.59-1.13.22-.13.47.02.67.12.23.11.46.24.68.37.11.06.21.13.31.2.05.03.18.15.24.14.13-.02.17-.28.22-.38.43-.76,1.33-1,2.14-.88.44.07.82.26,1.16.53.27.22.5.48.78.69.72.55,1.62.85,2.38,1.34.41.26.75.62.96,1.06.22.46.22.91.1,1.4-.54,2.18-3.31,1.86-4.97,1.38-.47-.14-.27-.88.2-.74h0Z"/>
        <path class="cls-7" d="m58.44,88.26c0,.21,0,.42-.02.63-.01.13-.03.26-.07.38-.04.09-.07.18-.13.26-.08.11-.16.19-.27.27-.07.06-.21.06-.3.04-.09-.02-.19-.09-.23-.18-.05-.09-.07-.2-.04-.3.03-.1.09-.17.18-.23,0,0,.01,0,.02-.01-.03.02-.05.04-.08.06.04-.03.07-.07.11-.11-.02.03-.04.05-.06.08.04-.05.07-.11.09-.16-.01.03-.03.06-.04.09.03-.07.05-.13.06-.2,0,.03,0,.07-.01.1.03-.24.03-.48.03-.72,0-.2.17-.39.38-.38.2,0,.39.17.38.38h0Z"/>
        <path class="cls-7" d="m61.65,87.73c.01.37.02.74.03,1.1,0,.2-.18.39-.38.38-.21,0-.38-.17-.38-.38-.01-.37-.02-.74-.03-1.1,0-.2.18-.39.38-.38.21,0,.38.17.38.38h0Z"/>
        <path class="cls-7" d="m65,87.89c0,.39-.06.8-.3,1.13-.06.08-.12.15-.23.18-.09.03-.21.01-.3-.04-.08-.05-.15-.13-.18-.23-.02-.09-.02-.21.04-.3.05-.07.1-.15.13-.23-.01.03-.03.06-.04.09.05-.11.08-.23.09-.35,0,.03,0,.07-.01.1.02-.12.02-.23.02-.35,0-.1.04-.2.11-.27.07-.07.18-.12.27-.11.2,0,.39.17.38.38h0Z"/>
        <path class="cls-7" d="m68.36,87.59c-.02.11-.04.22-.06.33,0-.03,0-.07.01-.1-.01.11-.03.22-.03.33,0,.1-.04.2-.11.27-.07.07-.18.12-.27.11-.1,0-.2-.04-.27-.11-.07-.07-.12-.17-.11-.27.02-.26.05-.51.1-.76.02-.09.1-.18.18-.23.08-.05.2-.07.3-.04.09.03.18.09.23.18.05.09.06.19.04.3h0Z"/>
        <path class="cls-7" d="m71.54,55.43c.03,1.9-.02,3.8-.08,5.7-.07,2.72-.17,5.45-.27,8.17-.11,2.84-.22,5.68-.34,8.52-.09,2.22-.19,4.44-.28,6.65-.03.65-.05,1.3-.07,1.94,0,.23-.02.45-.15.65-.27.42-.79.41-1.23.45-.94.09-1.89.14-2.83.05-.44-.04-.88-.11-1.31-.24-.47-.15-.27-.89.2-.74.86.27,1.78.28,2.67.25.46-.02.91-.05,1.37-.09.11-.01.39.01.47-.07.04-.04.03-.1.04-.16.02-.6.04-1.21.07-1.81.09-2.12.18-4.24.27-6.36.12-2.76.23-5.53.34-8.29.1-2.73.2-5.46.28-8.19.06-1.99.12-3.98.1-5.96,0-.16,0-.31,0-.47,0-.49.76-.49.77,0h0Z"/>
        <path class="cls-7" d="m65.24,60.96c-.06,3.35-.16,6.69-.29,10.04-.14,3.53-.31,7.05-.56,10.57-.13,1.81-.27,3.61-.45,5.41-.02.19-.11.3-.28.37-.96.4-2.03.53-3.06.47-1.26-.08-2.51-.27-3.71-.67-.47-.15-.27-.89.2-.74,1.13.38,2.31.57,3.5.64.97.06,1.95-.06,2.85-.44-.09.12-.19.25-.28.37.33-3.32.55-6.66.73-9.99.19-3.53.33-7.06.43-10.59.05-1.82.1-3.63.13-5.45,0-.49.78-.49.77,0h0Z"/>
        <path class="cls-7" d="m56.58,53.89c.12,4.24.22,8.48.33,12.71.11,4.38.21,8.76.32,13.14.06,2.33.12,4.66.19,6.99.01.49-.75.49-.77,0-.12-4.24-.22-8.48-.33-12.71-.11-4.38-.21-8.76-.32-13.14-.06-2.33-.12-4.66-.19-6.99-.01-.49.75-.49.77,0h0Z"/>
        <path class="cls-7" d="m41.71,61.6c-.11,3.66-.17,7.33-.32,10.99-.14,3.23-.34,6.46-.5,9.68-.08,1.61-.16,3.21-.21,4.82-.01.49-.78.49-.77,0,.09-3.05.28-6.1.44-9.15.17-3.14.31-6.27.4-9.41.06-2.31.13-4.62.2-6.94.01-.49.78-.49.77,0h0Z"/>
        <path class="cls-7" d="m29.14,57.76c-1.62-.13-3.22-.54-4.68-1.26-.11-.06-.2-.21-.19-.33.15-2.13.34-4.25.53-6.38.18-2,.36-4,.55-5.99.04-.4.1-.82.11-1.22.22.09.44.18.65.27h0c.03-.06.07-.11.1-.17,0-.03,0-.07.01-.1-.03.21-.16.38-.38.38-.19,0-.41-.18-.38-.38.14-1.14.29-2.32.89-3.33.31-.52.73-.99,1.2-1.37.59-.47,1.26-.8,1.92-1.16.8-.43,1.6-.87,2.39-1.3.43-.24.82.43.39.66-.85.46-1.71.93-2.56,1.39-.75.41-1.51.8-2.11,1.42-.97,1.01-1.2,2.35-1.36,3.69h-.77c.01-.11.04-.18.11-.27.21-.26.66-.04.65.27,0,.32-.06.65-.09.97-.08.82-.15,1.64-.23,2.46-.21,2.27-.42,4.54-.61,6.81-.09,1.12-.19,2.23-.26,3.35-.06-.11-.13-.22-.19-.33,1.33.66,2.81,1.04,4.29,1.16.49.04.49.8,0,.77h0Z"/>
        <path class="cls-7" d="m30.43,42.91c-.13,3.64-.29,7.28-.46,10.92-.06,1.18-.18,2.35-.32,3.53-.02.21-.16.38-.38.38-.19,0-.41-.18-.38-.38.43-3.79.51-7.61.66-11.42.04-1.01.08-2.02.12-3.03.02-.49.78-.49.77,0h0Z"/>
        <path class="cls-13" d="m38.02,88.78c-.36,0-.94.36-1.35.92-.17.23-.42.38-.66.22-.43-.29-1.05-.65-1.35-.75-.37.3-.49,1.28-.52,2-.01.37.18.71.49.9.41.24.84.47,1.23.59,1.22.37,1.91,1.06,3.01,1.41.55.18,1.54.33,2.23.22,1.26-.21,1.86-.83,1.99-1.75.07-.51-.54-1.03-.95-1.35-.48-.37-1.31-.79-1.93-1.19-.69-.45-.98-1.21-2.19-1.22"/>
        <path class="cls-7" d="m38.02,89.16c-.24.01-.52.22-.7.39-.29.26-.49.67-.89.78-.41.12-.72-.16-1.05-.36-.26-.16-.54-.34-.83-.43.12-.03.25-.07.37-.1-.16.14-.22.37-.27.57-.07.3-.11.61-.13.92-.02.26-.03.53.18.72.25.23.63.38.93.52.34.15.69.24,1.03.39.3.13.58.29.87.45.55.31,1.08.61,1.7.77.58.14,1.22.23,1.81.14.5-.08,1.05-.26,1.38-.67.12-.15.2-.34.25-.53.07-.25.04-.4-.11-.61-.36-.48-.91-.81-1.41-1.11-.59-.35-1.19-.66-1.69-1.13-.43-.41-.81-.69-1.43-.7-.49-.01-.49-.78,0-.77.43,0,.85.1,1.22.31.3.17.54.42.79.65.61.57,1.42.88,2.1,1.35.67.46,1.48,1.12,1.32,2.02-.13.71-.58,1.3-1.23,1.61-.83.4-1.75.42-2.65.28-.89-.14-1.65-.52-2.42-.95-.4-.22-.8-.44-1.23-.59-.51-.17-.99-.39-1.45-.66-.39-.23-.66-.61-.71-1.07-.05-.43.03-.92.11-1.35.07-.39.2-.84.51-1.11.23-.2.49-.06.73.05.23.11.44.23.66.36.12.07.38.31.49.26.09-.04.18-.2.24-.28.09-.1.18-.2.28-.29.35-.31.77-.58,1.25-.61.49-.03.49.74,0,.77h0Z"/>
        <path class="cls-7" d="m35.71,88c0,.23,0,.46-.04.7-.02.17-.04.34-.1.5-.05.15-.12.32-.25.42-.08.07-.16.11-.27.11-.09,0-.21-.04-.27-.11-.13-.14-.17-.41,0-.54.02-.01.03-.03.04-.04.04-.04-.06.09-.03.04,0,0,.01-.02.02-.03.01-.02.02-.04.03-.06-.07.12-.02.04,0,0,.04-.12.06-.24.08-.36,0,.03,0,.07-.01.1.03-.24.04-.48.04-.73,0-.2.17-.39.38-.38.21,0,.38.17.38.38h0Z"/>
        <path class="cls-7" d="m38.71,88.19c-.02.1-.04.2-.05.31,0-.03,0-.07.01-.1-.01.1-.02.21-.03.31,0,.1-.04.2-.11.27-.07.07-.18.12-.27.11-.1,0-.2-.04-.27-.11-.07-.07-.12-.17-.11-.27.01-.24.05-.48.1-.72.02-.09.1-.18.18-.23.08-.05.2-.07.3-.04.09.03.18.09.23.18.01.03.03.06.04.09.02.07.02.14,0,.2h0Z"/>
        <path class="cls-13" d="m32.34,89.36c-.36,0-.9.34-1.35.92-.18.23-.42.38-.66.22-.43-.29-1.05-.65-1.35-.75-.37.3-.49,1.28-.52,2-.01.37.18.71.49.9.41.24.84.47,1.23.59,1.22.37,1.91,1.06,3.01,1.41.55.18,1.54.33,2.23.22,1.26-.21,1.86-.83,1.99-1.75.07-.51-.54-1.03-.95-1.35-.48-.37-1.31-.79-1.93-1.19-.69-.45-.98-1.21-2.19-1.22"/>
        <path class="cls-7" d="m28.57,63.7c.08,3.86.18,7.72.29,11.57.09,3.13.18,6.26.28,9.39.03.84.05,1.68.08,2.51-.04-.09-.07-.18-.11-.27.06.06-.02,0,.03.02.03.01.06.04.09.06.06.03.12.06.19.08.19.06.38.11.57.15.44.09.89.15,1.33.18,1.11.09,2.25.12,3.33-.2.47-.14.68.6.2.74-1.27.37-2.65.33-3.95.19-.53-.06-1.07-.13-1.58-.29-.36-.11-.85-.28-.87-.72-.05-1-.06-2.01-.09-3.01-.13-4.14-.25-8.29-.36-12.43-.07-2.66-.14-5.32-.19-7.98,0-.49.76-.49.77,0h0Z"/>
        <path class="cls-7" d="m28.71,57.36c-.08,1.01-.15,2.03-.17,3.05-.02,1.09,0,2.19.03,3.28,0,.49-.76.49-.77,0-.02-1.09-.06-2.19-.03-3.28.02-1.02.09-2.03.17-3.05.04-.49.81-.49.77,0h0Z"/>
        <path class="cls-7" d="m36.8,60.75c-.01,1.23-.08,2.46-.13,3.68-.09,2.12-.19,4.24-.29,6.35-.12,2.39-.24,4.78-.36,7.17-.11,2.07-.22,4.15-.35,6.22-.07,1.13-.11,2.28-.25,3.41,0,.08-.02.16-.03.23-.04.2-.29.32-.47.27-.22-.06-.3-.27-.27-.47.03-.15,0,.08,0-.05,0-.07.02-.15.02-.22.02-.21.04-.42.05-.63.05-.66.09-1.32.14-1.98.13-1.99.24-3.98.34-5.97.13-2.38.25-4.77.37-7.15.11-2.17.21-4.35.3-6.52.06-1.36.12-2.73.15-4.09,0-.08,0-.16,0-.25,0-.49.77-.49.77,0h0Z"/>
        <path class="cls-7" d="m29.89,88.29c0,.27,0,.54-.03.8-.02.18-.06.33-.14.49-.07.15-.19.26-.32.36-.07.06-.21.06-.3.04-.09-.02-.19-.09-.23-.18-.05-.09-.07-.2-.04-.3.03-.1.09-.17.18-.23-.09.07-.03.03-.01,0,.01-.01.03-.03.04-.05-.04.05-.05.06-.02.03,0,0,0-.01.01-.02.01-.02.02-.04.03-.06.02-.03-.03.09,0,.01,0-.02.01-.04.02-.06.01-.05.02-.1.03-.15,0,.03,0,.07-.01.1.03-.26.03-.54.03-.8,0-.2.17-.39.38-.38.2,0,.39.17.38.38h0Z"/>
        <path class="cls-7" d="m32.88,88.42c0,.32.01.63.02.95,0,.2-.18.39-.38.38-.21,0-.38-.17-.38-.38,0-.32-.01-.63-.02-.95,0-.2.18-.39.38-.38.21,0,.38.17.38.38h0Z"/>
        <path class="cls-7" d="m32.34,89.74c-.23.01-.5.21-.69.38-.29.26-.5.67-.9.79-.41.12-.72-.16-1.05-.36-.26-.16-.54-.34-.83-.43.12-.03.25-.07.37-.1-.16.14-.22.37-.27.57-.07.3-.11.61-.13.92-.02.26-.03.53.18.72.25.23.63.38.93.52.34.15.69.24,1.03.39.3.13.58.29.87.45.55.31,1.08.61,1.7.77.58.14,1.22.23,1.81.14.5-.08,1.05-.26,1.38-.67.12-.15.2-.34.25-.53.07-.25.04-.4-.11-.61-.36-.48-.91-.81-1.41-1.11-.59-.35-1.19-.66-1.69-1.13-.43-.41-.81-.69-1.43-.7-.49-.01-.49-.78,0-.77.43,0,.85.1,1.22.31.3.17.54.42.79.65.61.57,1.42.88,2.1,1.35.67.46,1.48,1.12,1.32,2.02-.13.71-.58,1.3-1.23,1.61-.83.4-1.75.42-2.65.28-.89-.14-1.65-.52-2.42-.95-.4-.22-.8-.44-1.23-.59-.51-.17-.99-.39-1.45-.66-.39-.23-.66-.61-.71-1.07-.05-.43.03-.92.11-1.35.07-.39.2-.84.51-1.11.23-.2.49-.06.73.05.23.11.44.23.66.36.11.06.21.13.31.2.08.05.09.1.17.06.1-.04.18-.2.25-.28.09-.1.18-.2.28-.29.34-.31.76-.57,1.23-.6.49-.03.49.74,0,.77h0Z"/>
        <path class="cls-7" d="m40.66,87.2c-.09.63-.73.73-1.24.81-.54.08-1.09.11-1.63.12-.93.01-1.92,0-2.82-.24-.48-.12-.27-.86.2-.74.75.19,1.56.21,2.33.22.46,0,.93-.01,1.39-.06.21-.02.42-.05.62-.08.18-.03.38-.02.4-.22.03-.21.29-.32.47-.27.22.06.3.27.27.47h0Z"/>
        <path class="cls-7" d="m42.06,49.18c-.05,1.23-.06,2.46-.08,3.69,0,.49-.77.49-.77,0,.01-1.23.02-2.46.08-3.69.02-.49.79-.49.77,0h0Z"/>
        <path class="cls-13" d="m45.47,58.6c.11.67-.11,1.04-.52,1.23-.82.38-2.67.72-3.67.02-.6-.6-.38-7.68-.28-10.31.01-.39.32-.71.71-.74.41-.03.85-.05,1.24-.03.37,0,.68.27.77.63.64,2.72,1.46,7.49,1.75,9.2h0Z"/>
        <path class="cls-7" d="m45.84,58.5c.09.6,0,1.19-.51,1.56-.39.28-.94.4-1.4.48-.58.11-1.17.14-1.76.05-.41-.06-1.03-.21-1.26-.6-.28-.46-.28-1.13-.32-1.64-.07-.89-.08-1.79-.09-2.68-.01-1.91.04-3.83.1-5.74.02-.53.07-1.02.56-1.33.3-.19.66-.18,1-.19.35-.02.75-.06,1.09.03.29.08.55.28.71.54.14.23.18.51.24.77.12.55.24,1.11.35,1.66.44,2.19.83,4.38,1.21,6.58.03.17.06.33.08.5.03.2-.05.41-.27.47-.18.05-.44-.06-.47-.27-.31-1.87-.64-3.75-1-5.61-.2-1.03-.4-2.06-.63-3.08-.05-.2-.06-.47-.17-.65-.13-.22-.37-.21-.6-.21-.31,0-.67-.02-.98.04-.2.04-.31.19-.33.39-.06.72-.05,1.45-.07,2.17-.02.93-.04,1.86-.05,2.79,0,.89,0,1.78.03,2.67.01.38.03.76.06,1.14.01.16.03.32.04.48.02.15.01.15.05.33.02.11.04.22.07.33.01.03.05.2.01.06,0,.01.01.03.02.04.05.07-.03-.01-.02-.02-.01.02.02-.02-.01,0,.03,0,.17.1.2.12.12.05.24.09.37.12.26.06.53.08.79.08.54,0,1.09-.1,1.61-.27.17-.06.36-.11.49-.25.16-.17.16-.43.12-.65-.03-.2.05-.41.27-.47.18-.05.44.06.47.27h0Z"/>
        <path class="cls-7" d="m42.77,46.59c.06.72.12,1.43.17,2.15.02.2-.19.39-.38.38-.22,0-.37-.17-.38-.38-.06-.72-.12-1.43-.17-2.15-.02-.2.19-.39.38-.38.22,0,.37.17.38.38h0Z"/>
        <path class="cls-7" d="m41.72,46.64c.06.72.11,1.45.17,2.17.02.2-.19.39-.38.38-.22,0-.37-.17-.38-.38-.06-.72-.11-1.45-.17-2.17-.02-.2.19-.39.38-.38.22,0,.37.17.38.38h0Z"/>
        <path class="cls-7" d="m56.56,47.68c-.02,1.69-.04,3.38-.07,5.07,0,.2,0,.41,0,.61,0,.07,0,.14,0,.21,0-.05-.06-.03-.03-.04.02,0,.06,0,.08,0,.28,0,.56,0,.84,0,.87,0,1.73-.01,2.6-.02,2.27-.01,4.53-.03,6.8-.04.96,0,1.91-.01,2.87-.02.35,0,.69,0,1.04,0,.13,0,.25,0,.38,0,.07,0,.09.02.11-.05.03-.08,0-.22,0-.3-.05-1.95-.11-3.9-.18-5.85,0-.05,0-.09,0-.14-.02-.49.75-.49.77,0,.06,1.85.12,3.7.17,5.55.02.57.13,1.32-.56,1.53-.3.09-.68.03-.99.04-.89,0-1.79,0-2.68.01-2.35.01-4.69.03-7.04.04-.97,0-1.94.01-2.9.02-.33,0-.66,0-.99,0-.14,0-.29.01-.43-.01-.39-.06-.6-.39-.61-.77-.02-1.89.05-3.79.07-5.69,0-.05,0-.1,0-.15,0-.49.77-.49.77,0h0Z"/>
        <path class="cls-7" d="m60.46,41.71c-.21,1.3-.64,2.67-1.39,3.77-.29.43-.63.84-.98,1.22-.49.55-1.05,1.06-1.74,1.34-.19.08-.42-.08-.47-.27-.06-.22.07-.39.27-.47.59-.24,1.06-.75,1.46-1.21.2-.23.38-.46.56-.69.04-.05.08-.1.11-.15.02-.02.09-.12.02-.02.05-.06.09-.12.13-.19.69-1.05,1.07-2.31,1.27-3.53.03-.2.29-.32.47-.27.22.06.3.27.27.47h0Z"/>
        <path class="cls-13" d="m43.05,46.08c.54-.26.97-1.3.89-2.16-.08-.8-.21-1.54-.81-2.14-.55-.55-1.26-.67-2.04-.61-.11.01-.32.04-.32.04-.38.04-.73.17-.87.47-.14.3-.04.67.26.84-.33.12-.55.3-.56.62s.11.57.4.64c-.2.09-.25.39-.21.59.04.2.17.54.42.56-.17.13-.12.41-.05.66.05.18.28.44.62.57.88.33,1.76.2,2.29-.05h0Z"/>
        <path class="cls-7" d="m42.85,45.75c.52-.27.71-1.09.71-1.62,0-.65-.14-1.4-.56-1.91-.46-.57-1.14-.72-1.85-.68-.25.02-.57.02-.79.15-.18.11-.23.36-.03.48.3.18.21.59-.09.7-.12.05-.25.1-.28.24-.03.12,0,.24.12.28.31.08.38.54.09.7-.05.03-.03.16-.02.21.01.07.04.12.07.18,0,.03.02.05.05.06-.05-.02-.04-.02.03,0,.29.05.37.45.17.64-.02.02-.02-.08,0,.05,0,.05.01.09.03.14.02.09.02.12.09.19.17.21.47.28.73.34.5.11,1.08.07,1.55-.14.19-.09.41-.05.52.14.1.16.05.44-.14.52-.8.36-1.76.41-2.58.09-.34-.13-.67-.36-.83-.7-.17-.36-.22-.87.1-1.17.06.21.11.43.17.64-.77-.15-.98-1.47-.3-1.85.03.23.06.47.09.7-.47-.13-.72-.56-.68-1.04.04-.51.4-.79.84-.96-.03.23-.06.47-.09.7-.68-.42-.66-1.4.03-1.8.28-.16.61-.2.93-.24.38-.04.75-.04,1.13.02.79.13,1.46.63,1.83,1.33.34.64.5,1.48.45,2.19-.06.74-.37,1.7-1.08,2.07-.44.23-.83-.43-.39-.66h0Z"/>
        <path class="cls-7" d="m40.04,42.13c.32-.04.64-.06.96-.07.31,0,.65-.01.95.06.19.05.33.28.27.47-.07.2-.26.32-.47.27-.02,0-.05-.01-.08-.02-.08-.02.1.01.01,0-.07,0-.13-.01-.2-.02-.16,0-.32,0-.48,0-.16,0-.32,0-.48.02-.07,0-.13,0-.2.01-.03,0-.06,0-.09,0-.01,0-.03,0-.04,0-.06,0,.11-.02.05,0-.11.02-.2.02-.3-.04-.08-.05-.16-.14-.18-.23-.04-.18.06-.44.27-.47h0Z"/>
        <path class="cls-7" d="m39.98,43.4c.58-.12,1.21-.16,1.8-.11.2.02.39.16.38.38,0,.19-.17.4-.38.38-.28-.02-.57-.02-.86,0-.14,0-.28.02-.43.03-.03,0-.07,0-.1.01.03,0,.08-.01.02,0-.02,0-.03,0-.05,0-.06,0-.12.02-.18.03-.2.04-.42-.06-.47-.27-.04-.19.06-.43.27-.47h0Z"/>
        <path class="cls-7" d="m40.09,44.54c.25-.08.52-.1.78-.11.28-.02.57-.01.85.02.1.01.19.04.27.11.07.07.12.18.11.27,0,.19-.17.41-.38.38-.27-.03-.55-.03-.82-.02-.06,0-.13,0-.19.01-.03,0-.06,0-.09,0-.02,0-.04,0-.06,0-.05,0,.03,0,.04,0-.1.02-.21.03-.31.07-.19.06-.43-.07-.47-.27-.05-.21.06-.41.27-.47h0Z"/>
        <path class="cls-7" d="m56.01,40.42c-.56.66-1.12,1.31-1.67,1.99-.13.16-.41.14-.54,0-.15-.17-.14-.38,0-.54.55-.67,1.11-1.33,1.67-1.99.13-.15.41-.14.54,0,.15.16.14.38,0,.54h0Z"/>
        <path class="cls-7" d="m59.51,30.17c-1,.5-1.98,1.04-2.93,1.64-.82.51-1.7,1.04-2.37,1.75-.65.69-1,1.57-1.17,2.49-.17.87-.35,1.74-.46,2.63-.12.94-.17,1.88-.24,2.82-.07.92-.13,1.84-.1,2.76.02.5.05,1,.16,1.49.1.45.24.94.52,1.31.47.61,1.34.72,2.06.63.47-.06.92-.22,1.3-.51.43-.32.76-.77,1.08-1.2.61-.85,1.11-1.77,1.64-2.67.25-.42.91-.04.66.39-.51.86-.98,1.73-1.56,2.55-.62.87-1.3,1.73-2.36,2.06-.85.27-1.85.26-2.65-.14-.91-.45-1.3-1.47-1.47-2.41-.18-1.01-.18-2.06-.12-3.09.06-.97.13-1.95.21-2.91.09-1,.24-2,.43-2.98.1-.5.17-1.02.31-1.52.14-.5.36-1,.64-1.44.63-1,1.61-1.66,2.57-2.29,1.12-.74,2.29-1.4,3.49-1.99.44-.22.83.44.39.66h0Z"/>
        <path class="cls-13" d="m73.15,44.44c.56-.27,1-1.35.92-2.25-.08-.83-.22-1.6-.84-2.22-.57-.57-1.31-.7-2.11-.64-.11.01-.34.04-.34.04-.39.04-.76.18-.9.49-.14.31-.04.7.27.87-.35.12-.57.31-.59.64-.02.33.12.6.42.66-.2.09-.26.4-.22.61.04.21.18.56.43.58-.18.14-.13.42-.05.69.05.18.29.46.64.59.91.34,1.83.2,2.37-.05h0Z"/>
        <path class="cls-7" d="m72.96,44.11c.53-.27.73-1.09.74-1.63.01-.68-.14-1.49-.57-2.04-.48-.61-1.2-.77-1.94-.72-.25.02-.54.03-.77.13-.23.1-.34.4-.09.55.3.18.21.59-.09.7-.13.05-.27.11-.3.26-.03.13,0,.27.13.31.31.08.38.54.09.7-.07.04-.04.19-.02.25.01.06.03.12.07.17.02.03.02.04.04.06.04.04-.07-.01.04,0,.29.05.37.45.17.64-.02.02,0,.15.03.24.02.07.03.1.09.17.19.23.51.3.79.36.52.1,1.11.07,1.59-.15.19-.09.41-.05.52.14.1.16.05.44-.14.52-.81.37-1.78.42-2.62.11-.37-.13-.73-.37-.9-.74-.17-.37-.22-.89.1-1.19.06.21.11.43.17.64-.79-.14-1-1.51-.31-1.89.03.23.06.47.09.7-.49-.13-.74-.6-.69-1.09.05-.5.42-.78.86-.95-.03.23-.06.47-.09.7-.72-.44-.66-1.5.09-1.87.31-.15.64-.18.98-.22.38-.04.76-.03,1.14.04.8.14,1.48.67,1.85,1.38.18.35.3.73.36,1.12.07.39.12.79.09,1.19-.07.75-.38,1.71-1.11,2.08-.44.23-.83-.44-.39-.66h0Z"/>
        <path class="cls-7" d="m70.04,40.36c.33-.05.66-.06.99-.07.32,0,.67-.01.98.07.19.05.33.28.27.47-.07.2-.26.32-.47.27-.03,0-.05-.01-.08-.02-.08-.02.1,0,0,0-.07,0-.14-.01-.21-.02-.17,0-.33,0-.5,0-.16,0-.33,0-.49.02-.07,0-.14,0-.21.02-.03,0-.06,0-.09,0-.01,0-.03,0-.04,0-.06,0,.11-.02.05,0-.11.02-.2.02-.3-.04-.08-.05-.16-.14-.18-.23-.04-.18.06-.44.27-.47h0Z"/>
        <path class="cls-7" d="m69.98,41.68c.6-.13,1.25-.16,1.86-.11.2.02.39.16.38.38,0,.19-.17.4-.38.38-.29-.03-.59-.02-.89,0-.15,0-.29.02-.44.04-.03,0-.07,0-.1.01.04,0,.07-.01.01,0-.02,0-.03,0-.05,0-.06.01-.13.02-.19.04-.2.04-.42-.06-.47-.27-.04-.19.06-.43.27-.47h0Z"/>
        <path class="cls-7" d="m70.09,42.86c.26-.08.54-.1.81-.12.29-.02.59-.01.88.02.1.01.19.04.27.11.07.07.12.18.11.27,0,.19-.17.41-.38.38-.28-.03-.57-.03-.85-.02-.07,0-.13,0-.2.01-.03,0-.06,0-.09,0-.02,0-.04,0-.06,0-.05,0,.02,0,.04,0-.11.02-.21.04-.32.07-.19.06-.43-.07-.47-.27-.05-.21.06-.41.27-.47h0Z"/>
        <path class="cls-7" d="m71.71,39.48c-.3-1.78-.67-3.55-1.01-5.33.12.09.25.19.37.28-1.54.17-3.1.35-4.62.67.09-.12.19-.25.28-.37.27,2.48.6,4.95.93,7.43.07.5.14,1.01.2,1.51-.16-.09-.31-.18-.47-.27.77-.11,1.55-.24,2.32-.38.48-.09.69.65.2.74-.77.14-1.54.27-2.32.38-.18.03-.44-.04-.47-.27-.33-2.41-.65-4.83-.94-7.25-.08-.63-.15-1.26-.22-1.9-.02-.16.13-.34.28-.37.82-.17,1.66-.28,2.5-.4.77-.11,1.55-.22,2.32-.3.15-.02.34.13.37.28.34,1.78.71,3.55,1.01,5.33.03.2-.05.41-.27.47-.18.05-.44-.06-.47-.27h0Z"/>
        <path class="cls-7" d="m55.57,52.26c-.95-.06-1.93-.02-2.86-.24-1.12-.26-1.98-.98-2.35-2.08-.16-.46-.21-.95-.27-1.44-.07-.57-.12-1.14-.15-1.71-.09-1.33-.11-2.67-.11-4.01,0-2.64.1-5.27.19-7.9.04-1.2.04-2.51.78-3.53.62-.86,1.72-1.23,2.69-1.52,1.08-.32,2.2-.55,3.32-.71.92-.13,1.85-.18,2.78-.22.1,0,.19,0,.29-.01.49-.02.49.75,0,.77-.77.03-1.54.05-2.3.13-.92.1-1.9.28-2.84.5-.97.23-2.04.49-2.88,1.06-.86.59-1.02,1.86-1.05,2.87-.09,2.46-.19,4.91-.21,7.37-.02,2.42-.05,4.9.31,7.3.13.86.42,1.66,1.23,2.1.25.14.53.23.81.29.09.02.18.04.27.05,0,0,.13.02.05,0-.06,0,0,0,0,0,.1.01.2.02.29.03.5.04.99.06,1.49.09.17,0,.34.02.52.03.49.03.49.8,0,.77h0Z"/>
        <path class="cls-7" d="m51.63,33.28c-.11,0-.22,0-.32.01.03,0,.07,0,.1-.01-.14.02-.28.06-.41.11.03-.01.06-.03.09-.04-.07.03-.14.06-.2.1-.17.1-.43.04-.52-.14-.1-.19-.05-.41.14-.52.33-.2.74-.3,1.13-.28.1,0,.2.04.27.11.07.07.12.18.11.27,0,.1-.04.2-.11.27-.07.07-.17.12-.27.11h0Z"/>
        <g class="cls-23">
          <path class="cls-13" d="m61.86,94.8s.1.03.15.05c.59.19,1.64.35,2.39.23,1.35-.22,1.99-.88,2.13-1.87.08-.54-.58-1.1-1.02-1.45-.51-.4-1.4-.85-2.07-1.28-.74-.48-1.05-1.29-2.35-1.3-.39,0-1.17.16-1.45.98-.1.29-.45.41-.71.24-.46-.31-1.13-.7-1.45-.8-.4.32-.53,1.37-.55,2.14-.01.39.19.77.53.96.44.26.9.51,1.32.64,1.24.38,1.98,1.07,3.08,1.46h0Z"/>
          <path class="cls-7" d="m61.96,94.44c1.04.36,2.38.52,3.38-.05.36-.21.62-.52.74-.92.06-.21.1-.39-.02-.59-.15-.26-.39-.47-.62-.66-.89-.74-2.01-1.13-2.86-1.93-.33-.31-.65-.58-1.1-.67-.4-.08-.79-.05-1.13.19-.25.18-.28.43-.44.67-.18.29-.53.44-.87.38-.33-.06-.61-.32-.89-.48-.25-.15-.5-.3-.77-.4.12-.03.25-.07.37-.1-.35.31-.38,1.02-.42,1.47-.02.27-.07.56.07.8.17.28.56.42.83.57.34.17.69.27,1.04.41.32.12.63.27.93.43.58.31,1.13.67,1.75.89.46.17.26.91-.2.74-.96-.35-1.77-.98-2.72-1.34-.54-.21-1.06-.4-1.58-.68-.48-.27-.84-.63-.9-1.2-.05-.46.03-.96.11-1.41.07-.4.19-.84.48-1.15.35-.37.88.02,1.23.22.2.12.4.24.6.37.08.05.2.18.29.09.07-.07.1-.25.15-.34.05-.09.11-.18.18-.26.13-.16.3-.3.48-.4.3-.16.64-.25.97-.26.44-.02.9.09,1.28.3.32.18.58.43.85.68.67.63,1.55.98,2.31,1.5.4.28.79.6,1.09.99.3.4.39.81.27,1.29-.53,2.18-3.39,2.2-5.09,1.61-.46-.16-.26-.9.2-.74h0Z"/>
          <path class="cls-7" d="m28.48,57.76c-.08.66-.09,1.32-.1,1.98,0,.37-.02.75,0,1.12.02.37.06.75.02,1.13-.03.31-.08.65-.31.89-.21.22-.53.31-.83.24-.3-.07-.45-.3-.61-.52-.18-.24-.31-.51-.4-.81-.14-.47.6-.68.74-.2.06.21.16.4.29.58.05.07.12.24.21.21.13-.04.14-.36.14-.47.02-.3,0-.6-.02-.9-.03-.55,0-1.09,0-1.64,0-.54.03-1.07.1-1.6.03-.21.16-.38.38-.38.19,0,.41.18.38.38h0Z"/>
          <path class="cls-7" d="m25.97,56.58c-.05.71-.21,1.44-.46,2.11-.32.85-.78,1.64-1.13,2.47-.28.67-.47,1.41-.44,2.14,0,.21.04.51.25.55.29.04.56-.14.76-.33.63-.57,1.09-1.35,1.36-2.15.16-.47.9-.27.74.2-.29.87-.75,1.63-1.37,2.3-.5.54-1.44,1.1-2.12.5-.61-.54-.4-1.68-.26-2.37.2-.94.68-1.8,1.09-2.66.42-.87.73-1.79.81-2.76.04-.49.8-.49.77,0h0Z"/>
        </g>
        <path class="cls-13" d="m59.14,30.65c.69,1.85.96,4.05,1.02,5.67,0,0,0,.12.01.31-.06-.01-.13-.01-.2-.01-.33.01-.79.09-1.11.16-.88.21-1.15.44-1.4.85,0-.1-.01-.16-.01-.16-.09-1.15-.2-3.68-1.02-5.94-.04-.12,0-.25.11-.3l2.06-1.29c.11-.05.24,0,.28.1.09.2.17.4.25.6h0Z"/>
        <path class="cls-7" d="m59.78,36.32c-.05-1.19-.18-2.37-.42-3.53-.13-.63-.3-1.25-.51-1.85-.05-.15-.11-.29-.17-.44-.02-.06-.07-.13-.08-.19,0-.01-.01-.02-.02-.03-.06-.1.02-.1.22,0-.02.04-.14.09-.18.11-.55.34-1.1.69-1.65,1.03-.05.03-.16.13-.21.13,0,0-.01.01-.01,0,.25.08-.06-.32.09-.06.08.14.11.33.16.49.2.64.35,1.3.46,1.96.2,1.16.3,2.34.38,3.51.04.49-.73.49-.77,0-.08-1.12-.16-2.24-.36-3.35-.13-.72-.29-1.43-.52-2.12-.11-.34-.28-.71.04-1,.07-.06.16-.11.24-.16.59-.37,1.19-.74,1.78-1.11.34-.21.77-.26.99.17.32.62.51,1.32.69,1.99.37,1.45.56,2.95.62,4.44.02.49-.75.49-.77,0h0Z"/>
        <path class="cls-13" d="m59.98,36.62c.52-.02.87.34.95.57.09.25.08.67-.06.89.35.03.69.32.73.58.05.32.01.68-.12.88.22.16.24.53.23.71,0,.21-.22.58-.32.65.04.6-.24,1.08-.47,1.17-.27.11-.56.11-.85.09-.03,0-.07,0-.1,0-.22-.04-.37.06-.47.26-.25.39-.69.83-1.07,1.09-.53-.27-1.14-.59-1.56-1-.45-.44-.71-1.12-.82-1.69.25-.86.77-1.98,1.09-2.57.49-.81.51-1.16,1.76-1.46.31-.07.78-.15,1.11-.16h0Z"/>
        <path class="cls-7" d="m59.98,36.24c.49,0,.97.23,1.23.65.24.39.21.99,0,1.39-.08-.19-.15-.38-.23-.56.41.06.82.35.97.74.14.39.08.93-.13,1.28-.02-.15-.04-.31-.06-.46.52.46.42,1.47-.09,1.9.04-.09.07-.18.11-.27.02.41-.07.84-.31,1.18-.26.37-.66.46-1.1.47-.11,0-.22,0-.33,0-.04,0-.13-.03-.16-.02-.04.02-.06.07-.08.11-.06.1-.14.19-.21.29-.28.35-.61.66-.98.91-.12.08-.27.06-.39,0-.73-.37-1.48-.77-1.96-1.45-.23-.32-.39-.69-.5-1.06-.05-.17-.13-.38-.11-.56.02-.2.12-.42.19-.61.26-.7.56-1.4.92-2.06.25-.45.49-.93.91-1.24.63-.45,1.55-.57,2.3-.61.49-.02.49.74,0,.77-.53.03-1.11.12-1.61.33-.34.14-.48.33-.66.64-.54.93-1.01,1.91-1.32,2.94v-.2c.11.54.31,1.09.7,1.49.42.43.99.7,1.51.97h-.39c.22-.15.41-.33.59-.52.18-.19.3-.42.47-.61.17-.19.4-.28.65-.27.25,0,.56.07.8-.04.1-.04.17-.18.21-.31.09-.27,0-.57.18-.8.16-.2.33-.59.08-.81-.12-.11-.14-.33-.06-.46.1-.16.14-.46.07-.63-.07-.17-.29-.24-.45-.26-.25-.04-.34-.37-.23-.56.25-.45-.07-.88-.56-.88-.49,0-.49-.77,0-.77h0Z"/>
        <path class="cls-7" d="m60.76,38.46c-.39,0-.77,0-1.16.01-.2,0-.39-.18-.38-.38,0-.21.17-.38.38-.38.39-.01.77,0,1.16-.01.2,0,.39.18.38.38,0,.21-.17.38-.38.38h0Z"/>
        <path class="cls-7" d="m61.34,39.92c-.5,0-1-.02-1.5-.01-.2,0-.39-.18-.38-.38,0-.21.17-.38.38-.38.5,0,1,.01,1.5.01.2,0,.39.18.38.38,0,.21-.17.38-.38.38h0Z"/>
        <path class="cls-7" d="m61.22,41.28c-.45,0-.89.04-1.34.03-.2,0-.39-.17-.38-.38,0-.2.17-.39.38-.38.45,0,.89-.02,1.34-.03.2,0,.39.18.38.38,0,.21-.17.38-.38.38h0Z"/>
      </g>
      <g>
        <g>
          <path class="cls-9" d="m265.51,48.9c-.69-.39-1.32-.94-1.9-1.63-.79-.94-1.23-2-1.5-2.92-.18-.03-.29-.05-.29-.05-.33-.05-.65-.2-.9-.41-.21-.17-.38-.37-.52-.59-.05.2-.1.41-.13.64-.03.28-.05.59-.05.92,0,.06,0,.13,0,.19.04.67.19,1.36.23,2.03.03.73-.16,1.45-.85,1.69-.03,0-.03.1-.03.12,0,.06.03.11.06.16.09.13.22.23.36.31.78.48,1.98.76,3.24.57.95-.14,1.78-.54,2.29-1.04h0Z"/>
          <path class="cls-7" d="m260.37,42.38c-.48.94-.59,2.03-.48,3.07.06.57.18,1.13.2,1.7.01.35-.02.76-.25,1.04-.09.11-.21.18-.34.24-.31.13-.37.48-.22.77.21.41.73.64,1.14.8.97.39,2.07.46,3.1.26,1-.19,2.04-.68,2.62-1.54.27-.39-.37-.76-.64-.37-.56.82-1.73,1.19-2.67,1.26-.59.05-1.17,0-1.74-.17-.24-.07-.47-.15-.69-.27-.11-.06-.23-.12-.33-.19-.04-.03-.07-.07-.11-.1-.05-.03,0-.04-.02,0-.03.05-.06.11-.09.16,0,0,.01-.01.02-.02-.05.03-.11.06-.16.09,1.2-.43,1.19-1.75,1.05-2.81-.16-1.21-.31-2.45.26-3.58.21-.42-.42-.8-.64-.37h0Z"/>
          <path class="cls-13" d="m277.04,39.58c.24-.22.59-.32.92-.27.33.05.63.25.78.52.11.19.14.41.16.62.07.84-.09,1.69-.47,2.45-.18.37-.42.73-.76,1-.26.2-.57.36-.9.41,0,0-.06,0-.15.02-.07.28-.16.51-.2.64-.28.75-1.9,3.47-3.9,4.23.02.16.05.33.08.49.09.53.06,1,.8,1.27.05.02,2.26.8,2.34.83,0,0-1.36,4.42-6.86,4.42s-6.34-4.52-6.34-4.52c.14-.05,2.24-.71,2.29-.73.74-.27.71-.74.8-1.27.04-.22.07-.45.1-.67-.76-.39-1.46-.98-2.09-1.74-.79-.94-1.23-2-1.5-2.92-.18-.03-.29-.05-.29-.05-.33-.05-.65-.2-.9-.41-.33-.27-.57-.63-.76-1-.38-.76-.54-1.61-.47-2.45.02-.21.05-.43.16-.62.15-.27.45-.47.78-.52.33-.05.68.05.92.27,0,0-.43-6.7,7.54-6.7s7.95,6.7,7.95,6.7h0Z"/>
          <path class="cls-8" d="m278.11,52.6c-.67-.35-1.35-.66-2.07-.97-4.08,2.94-10.34,2.41-13.7-.09-1.46.62-2.73,1.22-4.1,2.12-.95.62-2.47,1.89-3.29,3.91-.92,2.33-1.66,7.25-1.65,9.85,0,1.14.65,2.8,1.65,3.44,1.32.84,2.88,1.1,4.32.54.17-.06.38-.15.63-.26,0,.06,0,.1,0,.1,0,.32-.01,3.28-.01,3.72l23.95.11c-.09-4.53-.05-10-.31-14.36-.06-1.01-.13-2.06-.38-3.03-.22-.58-.43-1.18-.75-1.72-.59-.97-1.53-1.67-2.48-2.29-.62-.4-1.21-.75-1.81-1.06h0Z"/>
          <path class="cls-13" d="m253.62,86.64c0-.53.02-5.62.01-6.85,0-.06.02-.12.05-.17.81-1.31,3.85-6.01,4.33-6.61,2.02,0,3.73.03,5.78.03.51,0,2.35,0,3.84,0l7.1.03c2.58,0,5.8.01,7.41.01,1.21,0,2.17.03,3.06.03.38.69,2.99,5.57,3.66,6.77.03.05.04.1.04.15,0,1.17.02,6.1.02,6.58l-35.31.03h0Z"/>
          <g class="cls-22">
            <path class="cls-7" d="m255.3,57.67c.45-1.11,1.19-2.09,2.08-2.89.85-.76,1.87-1.36,2.9-1.89.73-.37,1.48-.71,2.23-1.03h-.37c1.47,1.08,3.27,1.71,5.06,1.98,1.99.3,4.05.2,5.98-.4,1.08-.34,2.12-.83,3.04-1.49h-.37c1.47.64,2.91,1.35,4.23,2.26.62.42,1.21.89,1.69,1.48.48.59.8,1.35,1.02,2.08.25.79.29,1.68.34,2.5.05.77.09,1.55.12,2.32.07,1.65.1,3.3.12,4.94.03,1.86.04,3.72.07,5.58,0,.47.74.48.74,0-.05-3.71-.05-7.42-.21-11.12-.04-.9-.08-1.81-.17-2.71-.05-.49-.12-.98-.23-1.47-.1-.45-.29-.88-.47-1.31-.35-.83-.88-1.53-1.56-2.12-.67-.58-1.42-1.07-2.18-1.52-.77-.46-1.56-.85-2.38-1.22-.21-.09-.42-.19-.63-.28-.12-.05-.23-.12-.36-.1-.13.02-.22.1-.32.17-.3.21-.62.4-.95.57-1.27.67-2.69,1.06-4.11,1.19-2.7.26-5.65-.27-7.9-1.85-.18-.13-.32-.24-.56-.14-.24.1-.47.2-.7.31-.4.18-.8.36-1.2.56-.79.39-1.56.82-2.28,1.31-1.13.76-2.11,1.76-2.81,2.93-.22.37-.4.75-.56,1.14-.08.18.08.41.26.45.21.06.38-.07.45-.26h0Z"/>
            <path class="cls-7" d="m274.73,73.44c2.7,0,5.4,0,8.1.02.79,0,1.58.03,2.37.03-.11-.06-.21-.12-.32-.18.95,1.74,1.88,3.49,2.82,5.23.22.4.44.81.66,1.21.04.07.08.14.12.22.02.03.03.05.05.08.01.03.01.05,0,0,0,.02,0,.04,0,.06-.01.17,0,.34,0,.51,0,1.09,0,2.18,0,3.27,0,.91,0,1.83,0,2.74,0,.47.74.48.74,0,0-1.92-.01-3.84-.02-5.76,0-.4.07-.87-.13-1.23-.2-.36-.39-.71-.59-1.07-.56-1.04-1.12-2.07-1.68-3.11-.45-.84-.9-1.68-1.36-2.51-.06-.11-.19-.18-.32-.18-1.31,0-2.63-.03-3.94-.03-1.35,0-2.7,0-4.05,0-.83,0-1.65,0-2.48,0-.47,0-.48.74,0,.74h0Z"/>
            <path class="cls-7" d="m253.99,86.64c0-1.95.01-3.9.01-5.85,0-.22,0-.44,0-.66,0-.08,0-.15,0-.23,0-.11,0-.08.04-.17.23-.37.46-.73.69-1.1.65-1.01,1.3-2.02,1.96-3.03.34-.51.67-1.02,1.01-1.53.12-.18.25-.36.37-.54.04-.06.09-.13.13-.19.02-.03.04-.05.06-.08.06-.08-.05.06,0,0-.09.04-.17.07-.26.11,2.48.01,4.97.03,7.45.04.72,0,1.45,0,2.17,0,.47,0,.48-.74,0-.74-2.26,0-4.52,0-6.78-.02-.67,0-1.33-.01-2-.01-.17,0-.34,0-.51,0-.18,0-.4-.04-.56.08-.08.07-.14.17-.21.25-.34.47-.65.95-.97,1.42-.91,1.37-1.8,2.75-2.68,4.14-.16.25-.32.5-.47.75-.11.17-.19.32-.2.53,0,.11,0,.21,0,.32,0,.7,0,1.41,0,2.11,0,1.41-.01,2.81-.01,4.22,0,.06,0,.12,0,.18,0,.47.74.48.74,0h0Z"/>
          </g>
          <path class="cls-13" d="m267.77,67.52c0,2.65.02,6.56.02,8.91v.04c1.06,0,1.76,0,3.26,0,1.7,0,.85,0,3.49,0,.02.6-.04-3.28-.04-4.17,0-1,.01-5.42.01-5.62-.25,0-5.7.02-6.74.02,0,.26,0,.53,0,.82h0Z"/>
          <path class="cls-7" d="m258.22,80.6c1.31,0,2.62,0,3.93,0,1.81,0,3.62,0,5.43,0,1.23,0,2.46,0,3.69,0,1.73,0,3.47,0,5.2,0,2.25,0,4.51,0,6.76,0h.76c.47,0,.48-.74,0-.74-2.24,0-4.47,0-6.71,0-1.87,0-3.74,0-5.61,0-1.17,0-2.34,0-3.5,0-1.8,0-3.59,0-5.39,0-1.43,0-2.85,0-4.28,0-.1,0-.19,0-.29,0-.47,0-.48.74,0,.74h0Z"/>
          <path class="cls-7" d="m268.16,76.43c0-2.6-.01-5.2-.02-7.79,0-.65,0-1.3,0-1.95-.12.12-.25.25-.37.37,1.97,0,3.94,0,5.91-.01.27,0,.55,0,.82,0-.12-.12-.25-.25-.37-.37,0,1.21,0,2.42,0,3.63,0,1.3,0,2.6.02,3.9,0,.75.03,1.51.03,2.26,0,.47.74.48.74,0,0-1.37-.04-2.74-.05-4.12,0-1.38,0-2.75,0-4.13,0-.51,0-1.02,0-1.53,0-.2-.17-.37-.37-.37-1.84,0-3.67,0-5.51.01-.41,0-.82,0-1.23,0-.2,0-.37.17-.37.37,0,2.6.01,5.19.02,7.79,0,.65,0,1.3,0,1.95,0,.47.74.48.74,0h0Z"/>
          <path class="cls-7" d="m266.36,76.84c1.75,0,3.5-.01,5.26,0,.57,0,1.13,0,1.7,0,.96,0,1.91,0,2.87,0,.47,0,.48-.74,0-.74-1.24,0-2.48,0-3.72,0-.97,0-1.94,0-2.9,0-1.07,0-2.13,0-3.2,0-.47,0-.48.74,0,.74h0Z"/>
          <path class="cls-7" d="m265.33,49.1c-.03.24-.07.47-.11.7-.01.08-.02.16-.04.24,0,.04-.02.08-.03.12,0,.02-.04.12-.03.1.01-.03-.03.06-.04.07-.01.02-.02.04-.04.06.01-.02.04-.04,0,0-.07.07-.1.09-.2.15-.06.03-.13.06-.2.08-.53.17-1.06.34-1.6.51-.2.06-.41.13-.61.2-.19.06-.31.25-.26.45.05.18.26.32.45.26.5-.17,1.01-.32,1.52-.48.57-.18,1.28-.31,1.59-.87.11-.2.16-.42.19-.64.05-.31.1-.62.14-.93.03-.2-.19-.37-.37-.37-.22,0-.34.17-.37.37h0Z"/>
          <path class="cls-7" d="m272.15,49.19c.04.28.08.56.13.84.03.21.08.41.17.6.18.36.53.56.9.69.55.2,1.11.39,1.66.59.21.07.42.14.62.22.19.07.41-.08.45-.26.06-.21-.07-.38-.26-.45-.45-.18-.91-.32-1.36-.48-.26-.09-.52-.18-.78-.27-.21-.07-.4-.14-.53-.28-.04-.04.03.04,0,0-.02-.02-.03-.05-.04-.07,0-.01-.02-.03-.02-.04-.02-.04.01.05,0-.02-.03-.09-.05-.19-.07-.28-.04-.25-.09-.51-.12-.77-.02-.2-.15-.37-.37-.37-.18,0-.39.17-.37.37h0Z"/>
          <path class="cls-7" d="m277.51,60.68c0,1.44-.01,2.88-.02,4.32-.01,1.83-.03,3.67-.04,5.5,0,.85,0,1.71,0,2.56,0,.47.74.48.74,0,0-1.63.01-3.27.02-4.9.01-1.78.03-3.56.04-5.34,0-.71,0-1.42,0-2.14,0-.47-.74-.48-.74,0h0Z"/>
          <path class="cls-7" d="m259.53,71.24c0,.56-.01,1.13-.01,1.69,0,.19.17.38.37.37.2,0,.37-.16.37-.37,0-.56.01-1.13.01-1.69,0-.19-.17-.38-.37-.37-.2,0-.37.16-.37.37h0Z"/>
          <g class="cls-21">
            <path class="cls-11" d="m278.27,34.81c-.03-.19-.06-.36-.09-.51-.8-3.94-4.77-7.06-8.92-6.83-4.15-.23-8.12,2.89-8.92,6.83-.22,1.06-.2,2.91,0,3.76,0,0,.18.64.35,1.25.39-.04.81.13,1.02.45,1.66-1.15,4.32-3.05,5.72-4.26-.12.74-.54,1.99,0,1.86,2.22-.51,4.34-1.55,5.63-3.16.27.95.72,2.24,1.05,2.81.44.76,1.68,2.41,2.77,2.8.2-.36.67-.55,1.1-.49.08.01.16.03.24.06.46-1.33.28-3.29.06-4.57h0Z"/>
            <path class="cls-7" d="m260.69,37.96c-.1-.44-.12-.89-.14-1.36-.02-.56,0-1.12.06-1.67.1-.99.45-1.96.95-2.82,1.04-1.81,2.78-3.22,4.76-3.87.5-.16,1.01-.29,1.53-.36.54-.07,1.08-.04,1.63-.06,1.06-.03,2.11.17,3.1.55,1.94.75,3.61,2.24,4.57,4.09.45.88.69,1.82.83,2.8.16,1.06.24,2.2.06,3.27-.04.25-.1.5-.18.75-.15.45.56.64.71.2.37-1.11.34-2.35.23-3.51-.1-1.05-.27-2.12-.67-3.1-.85-2.1-2.51-3.85-4.54-4.84-1.04-.51-2.16-.83-3.31-.91-.29-.02-.57-.03-.86-.02-.28,0-.55,0-.83,0-.58.02-1.16.1-1.73.23-2.22.52-4.2,1.91-5.51,3.76-.64.9-1.11,1.93-1.34,3.01-.24,1.09-.25,2.27-.13,3.38.03.23.06.46.11.68.1.46.82.27.71-.2h0Z"/>
          </g>
          <path class="cls-7" d="m272.72,34.41c.16.55.34,1.1.54,1.64.16.42.33.85.57,1.24.48.78,1.08,1.54,1.77,2.14.39.34.83.66,1.33.78.46.12.66-.6.2-.71-.77-.19-1.43-.95-1.93-1.56-.5-.61-.9-1.25-1.19-1.98-.22-.57-.41-1.16-.59-1.75-.13-.45-.84-.26-.71.2h0Z"/>
          <path class="cls-7" d="m272.81,33.9c-.73.92-1.68,1.61-2.72,2.13-.55.28-1.13.5-1.72.69-.29.09-.59.17-.89.25-.04,0-.08.02-.12.03-.08.02,0,0,.01,0-.05-.02.08.02.1.04.02.01.1.12.07.07-.02-.03,0-.02,0,.01,0-.03,0-.05,0-.08,0-.46.18-.97.26-1.45.06-.36-.33-.61-.62-.36-1.45,1.24-3.02,2.34-4.57,3.44-.41.29-.82.57-1.22.86-.16.11-.24.32-.13.5.09.16.34.25.5.13,1.63-1.13,3.24-2.28,4.8-3.49.39-.3.77-.61,1.14-.93-.21-.12-.41-.24-.62-.36-.09.52-.26,1.04-.28,1.57,0,.24.03.49.23.65.24.19.54.09.81.02,1.35-.35,2.69-.88,3.84-1.68.62-.43,1.19-.94,1.66-1.53.12-.16.15-.37,0-.52-.13-.13-.4-.16-.52,0h0Z"/>
          <path class="cls-7" d="m277.3,39.84c.32-.27.86-.22,1.1.13.14.21.15.51.15.75,0,.27,0,.55-.06.82-.18,1-.71,2.22-1.82,2.41-.2.03-.31.28-.26.45.06.21.26.29.45.26,1.17-.2,1.87-1.3,2.2-2.36.17-.56.25-1.16.21-1.74-.04-.58-.21-1.13-.75-1.43-.57-.32-1.26-.22-1.76.2-.15.13-.13.39,0,.52.15.15.37.13.52,0h0Z"/>
          <path class="cls-7" d="m276.4,43.45c-.01.34-.09.66-.19.98-.04.12-.07.23-.11.35-.01.04-.02.07-.04.11-.02.07-.01.04,0,.01-.15.32-.32.63-.51.93-.55.88-1.23,1.72-2.05,2.37-.45.36-.96.64-1.52.77-.46.11-.27.82.2.71,1.15-.27,2.12-1.1,2.89-1.97.62-.71,1.21-1.52,1.61-2.39.26-.58.44-1.24.46-1.88.02-.47-.72-.47-.74,0h0Z"/>
          <path class="cls-7" d="m261.82,39.32c-.42-.36-1.01-.5-1.54-.3-.57.22-.87.7-.95,1.3-.14,1.12.16,2.38.83,3.3.38.52.91.93,1.56,1.04.2.03.4-.05.45-.26.05-.18-.06-.42-.26-.45-1.12-.19-1.64-1.41-1.82-2.41-.05-.27-.06-.54-.06-.82,0-.25,0-.54.15-.75.24-.35.78-.4,1.1-.13.15.13.37.15.52,0,.13-.13.15-.39,0-.52h0Z"/>
          <path class="cls-7" d="m261.51,43.34c.42,2.43,1.74,4.8,3.98,5.98.62.32,1.28.52,1.97.59.2.02.37-.18.37-.37,0-.22-.17-.35-.37-.37-2.3-.24-4.1-2.3-4.82-4.38-.19-.54-.32-1.09-.42-1.65-.03-.2-.27-.31-.45-.26-.21.06-.29.26-.26.45h0Z"/>
          <g class="cls-27">
            <path class="cls-7" d="m259.55,60.68c-.06,1.23-.07,2.47-.17,3.7-.01.2.18.37.37.37.21,0,.35-.17.37-.37.09-1.23.1-2.47.17-3.7.02-.47-.71-.47-.74,0h0Z"/>
            <path class="cls-7" d="m265.78,68.07c-1.15.63-2.38,1.14-3.58,1.68-.69.31-1.39.61-2.09.91-.08.03-.08.03-.17.07-.07.03-.14.06-.21.09-.12.05-.24.1-.35.14-.4.16-.81.29-1.23.34-1.06.11-2.14-.19-3.03-.77-.7-.46-1.11-1.36-1.32-2.15-.2-.75-.14-1.53-.09-2.3.06-.9.16-1.79.28-2.69.25-1.77.56-3.56,1.14-5.25.05-.16.11-.32.17-.48.07-.19-.08-.4-.26-.45-.21-.06-.38.07-.45.26-.65,1.66-.97,3.47-1.24,5.22-.15.97-.27,1.94-.35,2.91-.07.82-.15,1.67-.02,2.48.15.94.56,1.9,1.2,2.6.34.38.79.64,1.24.85.54.25,1.1.42,1.7.49.56.07,1.13.03,1.68-.1.35-.08.68-.22,1.01-.36.68-.28,1.36-.57,2.03-.87,1.36-.6,2.72-1.19,4.05-1.86.09-.04.17-.09.26-.13.42-.23.04-.87-.37-.64h0Z"/>
          </g>
          <path class="cls-7" d="m259.94,64.69s.18-.08.08-.04c.07-.03.13-.05.2-.08.16-.06.32-.12.48-.17.41-.14.83-.28,1.25-.4.94-.29,1.89-.55,2.84-.79.43-.11.87-.21,1.3-.29.2-.04.31-.27.26-.45-.06-.21-.26-.29-.45-.26-.86.16-1.71.39-2.55.62-.92.25-1.84.53-2.75.84-.35.12-.7.24-1.03.4-.18.09-.23.34-.13.5.11.18.32.22.5.13h0Z"/>
          <path class="cls-13" d="m271.77,66.6c-.04-.23.03-.84-.04-1.22-.11-.87-.23-1.48-.46-2.02"/>
          <path class="cls-13" d="m268.32,61.79c-.91.26-1.83.6-2.18.9-.69.58-.86.85-1.2,1.69-.26.63-.28,1.71-.03,2.15.32.57.51.89,1.2,1.06.44.11,2.26-.19,2.46-.75.24.28.63.38.87.38.08,0,.48,0,.88-.26.04.13.07.23.11.28.17.24.48.39.8.35.33-.04.59-.21.59-.61.04.13.1.25.2.35.26.26.85.19,1.05-.18.33-.61.34-1.59.31-2.24-.04-.77-.11-1.32-.34-1.98-.12-.35-.5-.71-.82-.84-.28-.11-.84-.4-1.14-.46-.65-.12-1.26-.12-2.22.06-.1.02-.32.07-.53.13h0Z"/>
          <path class="cls-7" d="m272.17,66.71c-.01-.07,0,.05,0,0,0-.02,0-.05,0-.07,0-.06,0-.12-.01-.18,0-.14-.02-.28-.02-.43-.02-.32-.03-.63-.07-.95-.07-.6-.21-1.17-.47-1.71-.09-.18-.34-.23-.5-.13-.18.11-.22.32-.13.5.21.44.33.99.39,1.51.06.55.04,1.11.13,1.66.03.2.28.31.45.26.21-.06.29-.26.26-.45h0Z"/>
          <path class="cls-7" d="m268.22,61.43c-.56.16-1.11.34-1.65.58-.41.18-.75.43-1.07.74-.57.56-.97,1.37-1.09,2.16-.07.46-.08.95.02,1.4.09.37.31.73.55,1.02.47.57,1.18.68,1.86.59.41-.05.83-.14,1.22-.29.36-.14.7-.33.85-.71-.21.05-.41.11-.62.16.58.62,1.51.59,2.19.17-.18-.07-.36-.15-.54-.22.09.29.22.52.48.69.23.15.51.23.79.2.55-.06.94-.41.96-.98-.24.03-.48.07-.72.1.15.43.45.74.92.77.4.02.8-.17,1-.51.4-.68.39-1.61.36-2.38-.02-.45-.06-.91-.15-1.35-.09-.45-.21-.92-.5-1.28-.26-.33-.61-.51-.94-.66-.33-.15-.68-.33-1.04-.4-.96-.17-1.95-.06-2.89.19-.46.13-.26.84.2.71.68-.19,1.4-.3,2.11-.24.56.04,1.12.27,1.59.52.62.33.74,1.06.83,1.7.09.67.12,1.39.03,2.07-.04.25-.1.71-.31.84-.21.13-.41.07-.49-.17-.13-.39-.71-.33-.72.1,0,.18-.09.23-.28.24-.13.01-.26-.03-.36-.11-.09-.07-.1-.14-.14-.25-.07-.22-.33-.35-.54-.22-.41.25-.93.33-1.3-.05-.21-.22-.52-.08-.62.16.04-.11,0,0,0,0,.05-.02.03-.03,0,0-.02.02-.04.03-.05.05.06-.06-.02.01-.03.02-.12.07-.23.13-.32.16-.28.11-.58.18-.88.23-.2.03-.46.04-.71.04-.08,0,.07.02.02,0-.03,0-.06-.01-.08-.02-.07-.02-.14-.04-.21-.07-.15-.06-.24-.13-.34-.23-.18-.19-.38-.51-.43-.74-.09-.33-.08-.7-.03-1.04.08-.63.38-1.31.8-1.75.3-.31.53-.5.91-.68.5-.24,1.04-.4,1.57-.55.46-.13.26-.84-.2-.71h0Z"/>
          <path class="cls-7" d="m269.19,64.12c.19.4.34.87.46,1.33.14.52.22,1.05.3,1.58.03.2.28.31.45.26.21-.06.29-.26.26-.45-.17-1.06-.37-2.11-.84-3.09-.09-.18-.34-.23-.5-.13-.18.11-.22.32-.13.5h0Z"/>
          <path class="cls-7" d="m265.39,40.78c-.13.41-.04,1.36.73,1.44,1.03,0,1.08-1.15.74-1.69-.28-.44-1.12-.62-1.47.25h0Z"/>
          <path class="cls-7" d="m273.63,40.78c.13.41.04,1.36-.73,1.44-1.03,0-1.08-1.15-.74-1.69.28-.44,1.12-.62,1.47.25h0Z"/>
          <path class="cls-7" d="m267.77,46.07c.44.43,1.14.56,1.73.56.59,0,1.29-.13,1.73-.56.34-.33-.18-.85-.52-.52-.01.01-.09.08-.04.04.05-.04,0,0-.01,0-.02.01-.04.03-.06.04-.04.02-.08.05-.12.07-.03.01-.05.03-.08.04.05-.02.01,0-.02,0-.3.11-.57.15-.88.15-.3,0-.57-.03-.86-.14,0,0-.11-.05-.03-.01-.02-.01-.05-.02-.07-.03-.04-.02-.09-.05-.13-.07-.03-.02-.06-.04-.09-.06.1.06,0,0-.02-.02-.34-.33-.86.19-.52.52h0Z"/>
          <path class="cls-7" d="m269.4,42.83c.07.25.13.5.17.76,0-.03,0-.07-.01-.1,0,.03,0,.07,0,.1,0-.03,0-.07.01-.1,0,.02,0,.03-.01.05.01-.03.02-.06.04-.09,0,.01,0,.02-.02.03.02-.02.04-.05.06-.07,0,0-.02.02-.02.02.02-.02.05-.04.07-.06-.02.01-.04.02-.06.03.03-.01.06-.02.09-.04-.03.01-.07.02-.1.03.03,0,.07,0,.1-.01-.03,0-.06,0-.09,0,.03,0,.07,0,.1.01-.04,0-.07-.01-.11-.02-.1-.01-.19-.02-.28.04-.08.04-.15.13-.17.22-.02.09-.02.2.04.28.05.07.13.16.22.17.08.01.16.03.24.03.12,0,.24-.03.35-.08.14-.06.24-.18.28-.33.03-.12.02-.23,0-.36-.04-.24-.1-.49-.16-.72-.05-.19-.27-.32-.45-.26-.19.06-.31.25-.26.45h0Z"/>
        </g>
        <g>
          <g>
            <path class="cls-13" d="m229.51,49.25c-.06-.51-.1-1.05-.1-1.51,1.67-1.03,2.96-3.22,3.21-3.88.04-.12.12-.36.2-.64.1-.02.16-.02.16-.02.33-.05.65-.2.91-.41.33-.27.57-.63.76-1,.38-.76.54-1.61.47-2.45-.02-.21-.05-.43-.16-.62-.15-.27-.45-.47-.78-.52-.33-.05-.69.05-.92.27,0,0,.77-7.29-7.87-7.29s-7.63,7.29-7.63,7.29c-.24-.22-.59-.32-.92-.27-.33.05-.63.25-.78.52-.11.19-.14.41-.16.62-.07.84.09,1.69.47,2.45.18.37.42.73.76,1,.26.2.57.36.91.41,0,0,.11.02.3.05.26.93.71,1.98,1.5,2.92.56.67,1.17,1.21,1.83,1.59-.01.43-.05.95-.1,1.43,0,0,0,.02,0,.03,0,0,0,0,0,.01,0,0,2.3,5.59,4.02,5.59,1.9,0,3.96-5.57,3.96-5.57h0Z"/>
            <path class="cls-7" d="m221.89,49.23c.05-.49.09-.98.1-1.47,0-.19-.17-.37-.36-.36-.2,0-.35.16-.36.36-.01.49-.05.98-.1,1.47-.02.19.18.37.36.36.21,0,.34-.16.36-.36h0Z"/>
            <path class="cls-7" d="m229.05,47.77c0,.49.04.99.1,1.48.01.1.03.18.11.25.06.06.16.11.25.11.18,0,.38-.16.36-.36-.06-.49-.09-.98-.1-1.48,0-.19-.16-.37-.36-.36-.19,0-.36.16-.36.36h0Z"/>
            <path class="cls-5" d="m223.01,26.42c.12-.02.24-.03.37-.05.6-.07,1.2-.09,1.77-.07,2.37.07,4.22,1,5.33,2.53l1.13.81c.96.42,2.17,1.91,2.68,3.33.68,1.89.65,3.87.18,5.32-.1-.05-.2-.08-.31-.09-.41-.06-.85.11-1.07.44-.57-1.21-1.44-2.52-2.52-3.44-.64-.55-1.36-.97-2.12-1.14,0,0-.92-.16-1.55-.27-1,.62-2.3,1.42-2.42,1.37-.1-.04-.52-1.09-.53-1.22-1.9,1.49-3.07,2.31-5.22,4.32l-.99.2c-.24-.22-.59-.32-.92-.27-.12.02-.23.06-.34.11-.51-2.33-.35-4.3.13-5.7.42-1.24,1.35-2.65,2.52-3.38-.33-.28-.69-.59-.69-.59,1.34-1.35,2.97-1.98,4.58-2.22h0Z"/>
            <path class="cls-7" d="m233.49,38.73c.33-.28.87-.23,1.12.13.14.21.15.5.15.75,0,.28,0,.56-.06.83-.18,1.01-.71,2.22-1.83,2.42-.19.03-.3.27-.25.44.06.2.25.28.44.25,1.16-.2,1.86-1.29,2.19-2.34.17-.55.25-1.15.22-1.73-.03-.59-.2-1.14-.74-1.45-.57-.32-1.26-.22-1.75.19-.15.13-.13.38,0,.51.15.15.36.13.51,0h0Z"/>
            <path class="cls-7" d="m232.6,42.34c-.01.33-.09.66-.18.98-.04.12-.08.24-.12.36-.01.03-.02.07-.04.1-.02.07-.01.04,0,.01-.15.32-.32.63-.51.94-.55.88-1.23,1.73-2.05,2.37-.45.36-.96.64-1.52.77-.45.1-.26.79.19.69,1.16-.27,2.12-1.1,2.89-1.97.62-.71,1.21-1.52,1.6-2.39.26-.58.44-1.24.46-1.87.02-.46-.7-.46-.72,0h0Z"/>
            <path class="cls-7" d="m217.99,38.22c-.42-.36-1.01-.5-1.54-.29-.57.22-.86.7-.93,1.29-.14,1.12.16,2.38.83,3.29.38.52.91.92,1.56,1.03.19.03.39-.05.44-.25.05-.17-.06-.41-.25-.44-1.12-.19-1.65-1.41-1.83-2.42-.05-.27-.06-.55-.06-.83,0-.25.01-.54.15-.75.24-.36.8-.41,1.12-.13.15.13.36.14.51,0,.13-.13.15-.38,0-.51h0Z"/>
            <path class="cls-7" d="m217.71,42.23c.42,2.42,1.73,4.8,3.97,5.97.62.32,1.28.52,1.97.59.19.02.36-.18.36-.36,0-.21-.17-.34-.36-.36-2.31-.24-4.12-2.32-4.84-4.41-.18-.53-.32-1.08-.41-1.63-.03-.19-.27-.3-.44-.25-.2.06-.28.25-.25.44h0Z"/>
            <path class="cls-7" d="m231.43,29.95c.46.21.83.55,1.17.92.41.45.75.95,1.03,1.49.61,1.17.86,2.56.82,3.87-.02.68-.13,1.35-.34,2-.14.44.55.63.69.19.43-1.31.45-2.74.21-4.09-.25-1.41-.84-2.7-1.76-3.79-.4-.48-.89-.95-1.47-1.21-.18-.08-.39-.05-.49.13-.09.15-.05.41.13.49h0Z"/>
            <g class="cls-26">
              <path class="cls-7" d="m216.82,38.22c-.56-2.62-.45-5.58,1.38-7.7.45-.53,1-1.01,1.66-1.25.18-.07.31-.24.25-.44-.05-.17-.26-.32-.44-.25-1.34.5-2.34,1.68-2.98,2.92-.64,1.24-.89,2.63-.89,4.02,0,.97.12,1.95.33,2.9.1.45.79.26.69-.19h0Z"/>
              <path class="cls-7" d="m230.78,28.65c-1.06-1.43-2.66-2.3-4.4-2.58-1.78-.29-3.74-.14-5.43.52-1.04.41-1.98,1.01-2.78,1.8-.33.33.18.83.51.51,1.26-1.25,2.92-1.96,4.67-2.16,1.64-.19,3.4-.09,4.89.67.75.38,1.42.93,1.92,1.61.11.16.31.23.49.13.15-.09.24-.33.13-.49h0Z"/>
            </g>
            <path class="cls-7" d="m227.11,33.24c-.81.49-1.6,1.02-2.43,1.46-.06.03-.13.07-.2.1-.07.04.07-.04,0,0-.02,0-.05,0-.06.02.04-.03.3.09.28.07.03.02.04.07.01.01-.03-.07-.07-.13-.1-.2-.08-.17-.13-.28-.2-.47-.03-.07-.06-.15-.08-.22-.02-.04-.06-.24-.04-.07-.04-.32-.35-.46-.61-.25-.84.66-1.69,1.3-2.52,1.96-.93.75-1.83,1.54-2.7,2.36-.34.32.17.82.51.51.87-.82,1.77-1.61,2.7-2.36.83-.67,1.68-1.31,2.52-1.96-.2-.08-.41-.17-.61-.25.04.3.18.58.3.86.1.24.22.63.5.7.25.07.53-.13.74-.24.36-.19.7-.41,1.05-.62.43-.26.86-.53,1.29-.8.39-.24.03-.86-.36-.62h0Z"/>
            <path class="cls-7" d="m228.36,34.41c1.09.25,1.99.97,2.72,1.79.72.81,1.3,1.75,1.75,2.73.08.18.33.22.49.13.18-.11.21-.31.13-.49-.49-1.06-1.13-2.06-1.91-2.92-.8-.89-1.81-1.66-3-1.93-.45-.1-.64.59-.19.69h0Z"/>
            <path class="cls-7" d="m236.69,73.26c0-1.7.01-3.4.02-5.1,0-1.74,0-3.48,0-5.22,0-.65,0-1.3,0-1.94,0-.46-.72-.46-.72,0,0,1.36,0,2.71,0,4.07,0,1.84,0,3.67-.01,5.51,0,.89,0,1.79-.01,2.68,0,.46.71.46.72,0h0Z"/>
            <path class="cls-7" d="m219.78,50.06c-1.63.77-3.3,1.45-4.88,2.31-1.58.86-3.08,1.91-4.17,3.36-.63.83-1.08,1.78-1.34,2.78-.12.45.57.64.69.19.44-1.69,1.47-3.08,2.81-4.18,1.36-1.11,2.97-1.89,4.56-2.62.9-.41,1.8-.8,2.69-1.23.17-.08.22-.33.13-.49-.1-.18-.31-.21-.49-.13h0Z"/>
            <g class="cls-24">
              <path class="cls-7" d="m220.85,68.44c-.5.27-1.02.49-1.54.72-.74.32-1.49.63-2.24.94-.7.29-1.41.57-2.12.85-.26.1-.53.22-.8.3-.43.12-.86.19-1.31.18-1.62-.02-3.09-1.04-3.67-2.57-.31-.79-.35-1.62-.34-2.47.01-.92.09-1.84.2-2.76.22-1.82.55-3.67,1.15-5.41.06-.17.12-.34.19-.51.07-.18-.08-.39-.25-.44-.2-.06-.37.07-.44.25-.68,1.72-1.01,3.59-1.27,5.41-.14.99-.24,1.98-.28,2.98-.03.89-.04,1.8.2,2.66.48,1.74,1.88,3.16,3.69,3.48.86.15,1.8.1,2.62-.23.65-.25,1.3-.52,1.95-.78,1.45-.59,2.92-1.17,4.33-1.86.09-.05.19-.09.28-.15.4-.22.04-.84-.36-.62h0Z"/>
            </g>
            <path class="cls-7" d="m215.04,64.88c.05-.03.11-.05.16-.07.06-.03,0,0-.01,0,.02,0,.03-.01.05-.02.04-.02.09-.04.13-.05.17-.07.34-.13.51-.19.45-.16.9-.31,1.35-.46,1.04-.33,2.08-.64,3.14-.91.48-.12.95-.24,1.44-.33.19-.04.3-.27.25-.44-.05-.2-.25-.29-.44-.25-.95.18-1.89.44-2.81.71-1.01.29-2.01.6-3,.95-.38.13-.76.27-1.13.44-.17.08-.22.33-.13.49.1.18.31.21.49.13h0Z"/>
            <path class="cls-7" d="m214.21,61.81c0,.54.03,1.07.07,1.6.02.3.07.62.04.92-.02.19.18.36.36.36.21,0,.34-.16.36-.36.02-.3-.02-.62-.04-.92-.04-.53-.07-1.07-.07-1.6,0-.19-.16-.36-.36-.36s-.36.16-.36.36h0Z"/>
            <path class="cls-7" d="m231.14,50.82c1.64.81,3.37,1.46,4.98,2.34.77.43,1.52.91,2.18,1.5.65.57,1.29,1.25,1.67,2.03.69,1.44.96,3.08,1.13,4.66.2,1.88.23,3.78.26,5.67.03,2.09.02,4.18.21,6.26.02.19.15.36.36.36.18,0,.38-.16.36-.36-.34-3.8-.07-7.63-.42-11.43-.15-1.7-.4-3.44-1.06-5.02-.16-.39-.33-.76-.58-1.1-.28-.39-.6-.77-.94-1.11-.65-.66-1.4-1.22-2.19-1.71-1.77-1.08-3.74-1.79-5.59-2.7-.17-.09-.39-.05-.49.13-.09.16-.05.4.13.49h0Z"/>
            <path class="cls-7" d="m214.68,71.52c0,.55,0,1.11,0,1.66,0,.19.16.37.36.36.19,0,.36-.16.36-.36,0-.55,0-1.11,0-1.66,0-.19-.16-.37-.36-.36-.19,0-.36.16-.36.36h0Z"/>
            <g class="cls-25">
              <path class="cls-13" d="m209.97,86.65c0-.52.02-5.46.01-6.66,0-.06.02-.11.05-.16.79-1.27,3.74-5.84,4.21-6.43,1.96,0,5.12.03,7.11.03.5,0,2.29,0,3.74,0l6.9.03c2.51,0,5.64.01,7.21.01,1.18,0,2.11.03,2.98.03.37.67,2.91,5.41,3.56,6.58.03.05.04.1.04.15,0,1.13.02,5.93.02,6.39l-35.82.03h0Z"/>
              <path class="cls-7" d="m231.99,73.82c2.63,0,5.25,0,7.88.02.77,0,1.54.03,2.3.02-.1-.06-.21-.12-.31-.18.92,1.69,1.83,3.39,2.74,5.08.21.39.43.79.64,1.18.04.07.08.14.12.21.01.03.03.05.04.08.01.02.01.05,0,0,0,.02,0,.04,0,.06-.01.16,0,.33,0,.49,0,1.06,0,2.12,0,3.18,0,.89,0,1.78,0,2.66,0,.46.72.46.72,0,0-1.87-.01-3.73-.02-5.6,0-.39.07-.85-.13-1.2-.19-.35-.38-.69-.57-1.04-.55-1.01-1.09-2.02-1.63-3.02-.44-.81-.87-1.63-1.32-2.44-.06-.11-.19-.18-.31-.18-1.28,0-2.55-.03-3.83-.03-1.31,0-2.63,0-3.94,0-.8,0-1.61,0-2.41,0-.46,0-.46.72,0,.72h0Z"/>
              <path class="cls-7" d="m210.33,86.65c0-1.9.01-3.79.01-5.69,0-.21,0-.43,0-.64,0-.07,0-.15,0-.22,0-.11,0-.08.04-.16.22-.36.45-.71.68-1.07.63-.99,1.26-1.97,1.91-2.94.33-.5.65-.99.99-1.49.12-.18.24-.35.36-.53.04-.06.09-.12.13-.18.02-.03.04-.05.06-.08.06-.08-.05.06,0,0-.08.04-.17.07-.25.11,2.73.01,5.45.03,8.18.03.89,0,1.78,0,2.66,0,.46,0,.46-.72,0-.72-2.16,0-4.32,0-6.49-.02-1.2,0-2.39-.01-3.59-.02-.25,0-.5-.02-.74,0-.22.01-.31.14-.42.3-.14.2-.28.4-.41.6-.94,1.39-1.86,2.81-2.77,4.23-.2.31-.4.62-.59.93-.17.27-.43.58-.44.91-.02.65,0,1.3,0,1.95,0,1.5-.01,3-.01,4.51,0,.06,0,.13,0,.19,0,.46.72.46.72,0h0Z"/>
            </g>
            <path class="cls-13" d="m224.91,68.06c0,2.58.02,6.38.02,8.67v.04c1.03,0,1.71,0,3.17,0,1.65,0,.83,0,3.39,0,.02.58-.04-3.19-.04-4.05,0-.97.01-5.27.01-5.47-.25,0-5.54.02-6.55.02,0,.25,0,.52,0,.8h0Z"/>
            <path class="cls-7" d="m214.93,80.78c1.28,0,2.57,0,3.85,0,1.89,0,3.78,0,5.67,0,1.39,0,2.78,0,4.18,0,1.61,0,3.23,0,4.84,0,2.41,0,4.81,0,7.22,0,.26,0,.53,0,.79,0,.46,0,.46-.72,0-.72-2.38,0-4.77,0-7.15,0-1.81,0-3.62,0-5.43,0-1.26,0-2.53,0-3.79,0-1.89,0-3.78,0-5.66,0-1.42,0-2.83,0-4.25,0-.09,0-.17,0-.26,0-.46,0-.46.72,0,.72h0Z"/>
            <path class="cls-7" d="m225.29,76.73c0-2.53-.01-5.05-.02-7.58,0-.63,0-1.26,0-1.89-.12.12-.24.24-.36.36,1.92,0,3.83,0,5.75-.01.27,0,.53,0,.8,0-.12-.12-.24-.24-.36-.36,0,1.18,0,2.35,0,3.53,0,1.26,0,2.52.02,3.79,0,.73.03,1.46.03,2.2,0,.46.72.46.72,0,0-1.33-.04-2.67-.05-4,0-1.34,0-2.68,0-4.02,0-.5,0-.99,0-1.49,0-.19-.16-.36-.36-.36-1.78,0-3.57,0-5.36.01-.4,0-.8,0-1.19,0-.19,0-.36.16-.36.36,0,2.52.01,5.05.02,7.57,0,.63,0,1.26,0,1.9,0,.46.72.46.72,0h0Z"/>
            <path class="cls-7" d="m222.36,77.12c2.09,0,4.17-.01,6.26,0,.67,0,1.34,0,2.01,0,1.14,0,2.28,0,3.41,0,.46,0,.46-.72,0-.72-1.47,0-2.95,0-4.42,0-1.15,0-2.3,0-3.44,0-1.27,0-2.55,0-3.82,0-.46,0-.46.72,0,.72h0Z"/>
            <path class="cls-13" d="m224.22,62.19c-.95.27-1.92.63-2.28.94-.72.61-.9.89-1.25,1.76-.27.66-.29,1.79-.04,2.25.33.6.54.93,1.26,1.11.46.11,2.37-.19,2.57-.78.26.29.66.4.91.39.08,0,.5,0,.92-.28.04.13.08.24.11.29.18.25.5.4.83.36.34-.04.62-.22.62-.63.04.13.11.26.21.36.27.27.89.19,1.1-.18.35-.63.36-1.66.32-2.35-.04-.81-.12-1.38-.36-2.07-.13-.37-.52-.74-.86-.88-.29-.12-.88-.42-1.2-.48-.68-.13-1.32-.12-2.32.06-.11.02-.34.07-.55.13h0Z"/>
            <path class="cls-7" d="m228.22,67.35c-.01-.07,0,.04,0,0,0-.02,0-.05,0-.07,0-.06-.01-.13-.01-.19,0-.15-.02-.3-.02-.45-.02-.33-.04-.66-.08-.99-.08-.62-.21-1.21-.49-1.78-.08-.17-.33-.22-.49-.13-.18.1-.21.32-.13.49.23.48.35,1.05.41,1.59.06.57.04,1.16.13,1.73.03.19.27.3.44.25.2-.06.28-.25.25-.44h0Z"/>
            <path class="cls-7" d="m224.12,61.85c-.58.16-1.15.35-1.7.6-.42.18-.76.43-1.09.74-.29.28-.53.59-.71.95-.21.42-.39.86-.46,1.32-.07.47-.09.96.01,1.43.08.4.33.79.59,1.1.26.32.66.53,1.06.61.3.06.61.03.91-.01.41-.06.83-.14,1.21-.3.37-.15.72-.34.87-.73-.2.05-.4.11-.6.16.6.64,1.56.61,2.26.17-.18-.07-.35-.14-.53-.21.09.29.22.52.47.7.23.17.54.25.82.22.56-.06.96-.42.98-.99-.23.03-.47.06-.7.1.16.45.48.77.97.79.4.01.81-.19,1-.55.41-.74.4-1.69.36-2.51-.02-.47-.07-.94-.16-1.41-.1-.47-.22-.94-.53-1.31-.14-.17-.32-.33-.51-.45-.09-.05-.18-.09-.27-.13.06.03-.07-.03-.06-.03-.04-.02-.09-.04-.13-.06-.36-.16-.72-.35-1.1-.41-.99-.17-2-.05-2.96.21-.44.12-.26.81.19.69.71-.2,1.46-.31,2.2-.26.59.04,1.15.28,1.66.54.68.34.82,1.14.91,1.83.09.7.13,1.46.02,2.16-.04.26-.1.72-.32.88-.1.07-.24.09-.32.07-.03,0-.06-.01-.08-.02.04.01-.05-.03-.02,0-.08-.05-.12-.15-.15-.23-.13-.38-.69-.32-.7.1,0,.1-.03.17-.07.2-.05.04-.15.07-.25.08-.13.01-.25-.02-.36-.09-.12-.08-.15-.16-.19-.3-.07-.22-.32-.34-.53-.21-.44.27-1,.35-1.39-.06-.2-.21-.51-.08-.6.16.04-.1,0,0,0,0-.07.04.05-.05,0,0-.02.02-.04.04-.06.06.06-.05-.02.01-.03.02-.12.07-.24.14-.34.17-.3.11-.62.19-.93.24-.21.03-.47.06-.73.05-.1,0,.05.02-.03,0-.1-.04-.21-.05-.31-.1-.15-.06-.24-.13-.34-.24-.1-.1-.17-.21-.25-.35-.1-.16-.17-.28-.21-.42-.1-.36-.09-.75-.04-1.12.08-.68.42-1.41.87-1.88.07-.07.14-.14.21-.2.04-.04.08-.07.12-.11.03-.03.06-.05.09-.08.05-.04.06-.05.03-.03.16-.12.35-.22.54-.3.51-.24,1.06-.4,1.6-.56.44-.13.25-.82-.19-.69h0Z"/>
            <path class="cls-7" d="m225.15,64.62c.45.93.64,2.02.81,3.05.03.19.27.3.44.25.2-.06.28-.25.25-.44-.18-1.1-.39-2.21-.88-3.22-.08-.17-.33-.22-.49-.13-.18.1-.21.32-.13.49h0Z"/>
            <path class="cls-7" d="m224.14,45.44c.46.24.96.34,1.48.34.53,0,1.06-.11,1.48-.44.15-.12.13-.38,0-.51-.15-.15-.35-.12-.51,0,.11-.08.02-.02,0,0-.03.02-.06.04-.09.05-.02.01-.13.06-.04.02-.04.02-.08.03-.13.05-.27.09-.46.1-.76.1-.08,0-.15,0-.23,0-.03,0-.07,0-.1,0,0,0-.12-.02-.06,0-.11-.02-.22-.04-.33-.07-.05-.01-.09-.03-.14-.05-.01,0-.03-.01-.04-.02.09.03.03.01,0,0-.06-.03-.11-.05-.17-.08-.17-.09-.39-.04-.49.13-.09.16-.04.4.13.49h0Z"/>
            <path class="cls-7" d="m225.45,41.94c.06.25.13.5.16.75,0-.03,0-.06-.01-.1,0,.03,0,.07,0,.1,0-.03,0-.06.01-.1,0,.02,0,.03-.01.05.01-.03.02-.06.04-.09,0,.01-.01.02-.02.03.02-.02.04-.05.06-.07,0,0-.02.02-.02.02.02-.02.05-.04.07-.06-.02.01-.04.02-.06.03.03-.01.06-.02.09-.04-.03.01-.07.02-.1.03.03,0,.06,0,.1-.01-.03,0-.06,0-.09,0,.03,0,.06,0,.1.01-.04,0-.07-.01-.11-.02-.1-.01-.19-.02-.28.04-.07.04-.15.13-.16.21-.02.09-.02.19.04.28.05.07.12.15.21.16.08.01.15.03.23.03.12,0,.23-.03.34-.08.13-.06.24-.18.27-.32.03-.12.02-.23,0-.35-.04-.24-.1-.48-.16-.72-.05-.18-.26-.31-.44-.25-.19.06-.3.25-.25.44h0Z"/>
            <path class="cls-7" d="m221.43,39.81c-.13.41-.04,1.35.73,1.43,1.02,0,1.08-1.14.73-1.68-.28-.44-1.11-.62-1.46.25h0Z"/>
            <path class="cls-7" d="m229.63,39.81c.13.41.04,1.35-.73,1.43-1.02,0-1.08-1.14-.73-1.68.28-.44,1.11-.62,1.46.25h0Z"/>
          </g>
          <path class="cls-4" d="m229.51,49.61l1.79.81c0,2.12-2.55,4.4-5.7,4.4s-5.7-2.29-5.7-4.4l1.62-.83"/>
        </g>
      </g>
      <path class="cls-7" d="m158.76,59.39c-.15,2.83-.38,5.65-.54,8.48-.03.57.86.57.89,0,.15-2.83.39-5.65.54-8.48.03-.57-.86-.57-.89,0h0Z"/>
      <g>
        <g>
          <path class="cls-13" d="m143.2,88h-2.71c.88-4.48,1.93-9.55,2.54-12.67h14.86c.38,1.96.9,4.62.9,4.62.37,1.84,1.12,5.52,1.62,8.05h-17.21Z"/>
          <path class="cls-13" d="m158.71,36.2c.27-.26.64-.36.95-.35.68.03.97.4,1.09.62.37.65.35,1.85.1,2.6-.18.53-.47,1.33-1.17,1.9-.32.26-.8.42-1.25.29-.32,1.08-.88,2.36-1.87,3.56-.72.87-1.4,1.44-2.2,1.86,0,.62,0,1.08,0,1.08,0,.23,0,.48.09.71.11.29.27.55.52.75.52.42,1.06.62,1.72.87,0,0,.3.12.55.22-1.49,1.19-4.14,2.15-6.9,2.16-2.74,0-5.38-.95-6.87-2.13.27-.1.62-.24.62-.24.66-.25,1.2-.45,1.72-.87.25-.2.4-.45.52-.75.09-.22.09-.48.09-.71,0-.36,0-.65,0-.88-.88-.44-1.68-1.14-2.44-2.06-1-1.22-1.57-2.53-1.88-3.62-.43.11-.9-.05-1.21-.31-.7-.58-.98-1.39-1.16-1.91-.25-.74-.26-1.94.12-2.59.13-.22.42-.59,1.1-.61.31,0,.68.09.95.35,0,0-1.42-7.38,8.67-7.38,9.35,0,8.15,7.44,8.15,7.44h0Z"/>
          <g class="cls-28">
            <path class="cls-6" d="m140.56,29.13c-.74,2.02-.79,4.4-.04,6.71.12-.04.25-.06.41-.07.31-.01.68.09.95.35h0c.5.04.99-.15,1.34-.51h0c1.01-1.14,2.79-2.85,4.04-3.51.15-.08.33.03.39.27.06.24.06.42.04.59-.03.26.22.45.43.33.89-.5,2.48-1.51,3.61-1.98l1.67.21c.54.24.95.46,1.54.98,1.01.88,1.99,2.09,2.42,3.18h0c.3.43.84.61,1.33.44h0c.27-.26.64-.36.95-.35.18,0,.33.04.46.08.82-3.31.33-7.59-2.24-9.64l-1.12-1.17c-1.27-1.67-3.33-2.58-6.28-2.71-3.83-.13-6.66,1.59-7.91,3.18l.25.27c-1.01.88-1.78,2.04-2.25,3.34h0Z"/>
            <path class="cls-7" d="m142.92,25.87c1.11-1.4,2.79-2.28,4.5-2.72,1.17-.3,2.39-.38,3.59-.29,1.01.08,2.04.28,2.98.67.9.38,1.73.97,2.33,1.75.16.21.43.33.68.18.21-.12.34-.47.18-.68-.62-.8-1.38-1.46-2.28-1.92-1.03-.53-2.15-.8-3.3-.94-2.41-.3-4.93.1-7.06,1.3-.88.5-1.71,1.14-2.34,1.93-.17.21-.21.5,0,.7.17.17.54.21.7,0h0Z"/>
          </g>
          <path class="cls-7" d="m141,35.71c-.84-2.62-.7-5.59.78-7.95.38-.61.85-1.15,1.39-1.63.48-.42-.22-1.13-.7-.7-2.21,1.94-3.18,5-2.95,7.88.07.91.25,1.8.52,2.66.2.61,1.16.35.96-.27h0Z"/>
          <path class="cls-7" d="m148.69,43.97c.52.28,1.09.4,1.69.39.61,0,1.23-.13,1.71-.51.21-.16.18-.54,0-.7-.22-.2-.49-.17-.7,0,.15-.12.05-.04,0-.01-.03.02-.07.04-.1.06-.04.02-.16.06-.02.02-.05.01-.09.04-.14.05-.13.04-.26.07-.39.09.07-.01.03,0-.02,0-.04,0-.08,0-.12,0-.09,0-.19,0-.28,0-.08,0-.17,0-.25,0-.04,0-.08,0-.11,0-.02,0-.16-.03-.04,0-.12-.02-.25-.05-.37-.08-.05-.02-.1-.03-.15-.05-.12-.04.09.04-.02,0-.06-.03-.13-.06-.19-.09-.23-.12-.55-.07-.68.18-.12.23-.07.55.18.68h0Z"/>
          <path class="cls-7" d="m150.1,40.01c.07.28.14.56.18.84,0-.04-.01-.09-.02-.13,0,.04,0,.08,0,.12,0-.04.01-.09.02-.13,0,.02,0,.03-.01.05.02-.04.03-.08.05-.12,0,.01-.01.02-.02.03l.08-.1s-.02.02-.03.03c.03-.03.07-.05.1-.08-.02.01-.04.02-.07.04.04-.02.08-.03.12-.05-.04.02-.07.03-.11.03.04,0,.09-.01.13-.02-.04,0-.07,0-.1,0,.04,0,.09.01.13.02-.04,0-.08-.02-.12-.02-.07-.02-.13-.02-.2,0-.07,0-.13.02-.19.06-.1.06-.2.18-.23.3-.03.13-.02.27.05.38.06.1.17.21.3.23.1.01.19.04.29.04.15,0,.29-.04.43-.1.17-.08.3-.24.35-.42.04-.16.02-.29,0-.44-.05-.27-.11-.54-.18-.81-.03-.12-.12-.24-.23-.3-.11-.06-.26-.09-.38-.05-.26.08-.42.34-.35.61h0Z"/>
          <path class="cls-7" d="m145.75,37.61c-.14.46-.05,1.51.81,1.6,1.13,0,1.19-1.28.81-1.87-.31-.49-1.23-.69-1.62.28h0Z"/>
          <path class="cls-7" d="m154.83,37.61c.14.46.05,1.51-.81,1.6-1.13,0-1.19-1.28-.81-1.87.31-.49,1.23-.69,1.62.28h0Z"/>
          <path class="cls-7" d="m157.52,26.56c2.04,1.65,2.58,4.5,2.44,6.99-.04.73-.15,1.45-.33,2.17-.15.62.81.89.96.27.67-2.72.56-5.91-.88-8.38-.39-.66-.89-1.27-1.48-1.75-.21-.17-.5-.2-.7,0-.18.18-.21.53,0,.7h0Z"/>
          <path class="cls-7" d="m153.16,31.96c.84.37,1.52.91,2.15,1.57.63.66,1.24,1.44,1.58,2.29.1.25.33.43.61.35.24-.07.45-.36.35-.61-.4-1-1.05-1.89-1.79-2.67-.69-.73-1.47-1.37-2.4-1.78-.25-.11-.54-.07-.68.18-.12.21-.07.57.18.68h0Z"/>
          <path class="cls-7" d="m143.58,35.96c1-1.11,2.1-2.21,3.33-3.06.13-.09.26-.17.39-.25.03-.02.08-.04.11-.06.07-.06.08.02-.04-.01-.19-.05-.19-.17-.16.05.03.18-.02.36.01.55.05.23.18.43.38.55.39.23.76.03,1.1-.17.32-.18.63-.37.95-.56.76-.45,1.53-.9,2.35-1.25.25-.11.3-.47.18-.68-.15-.26-.43-.29-.68-.18-.73.31-1.42.71-2.1,1.11-.33.19-.66.39-.99.58-.14.08-.28.16-.42.24-.01,0-.1.06-.1.06.04,0,.07,0,.11,0,.07-.03.12-.01.15.05.15.05,0,.08.05.02.02-.02,0-.15,0-.17,0-.44-.13-.99-.6-1.15-.38-.13-.71.11-1.02.31-.67.43-1.28.95-1.87,1.48-.64.58-1.26,1.2-1.84,1.85-.43.48.28,1.18.7.7h0Z"/>
          <path class="cls-7" d="m141.44,40.68c.38,1.7,1.16,3.3,2.29,4.63,1.09,1.28,2.49,2.31,4.18,2.57.27.04.54-.07.61-.35.06-.24-.08-.57-.35-.61-1.54-.24-2.75-1.14-3.74-2.31-1.02-1.2-1.7-2.66-2.03-4.19-.14-.63-1.1-.36-.96.27h0Z"/>
          <path class="cls-7" d="m158.13,40.42c-.31,1.41-.91,2.76-1.8,3.9-.44.56-.94,1.1-1.53,1.51-.56.39-1.17.67-1.82.88-.61.2-.35,1.16.27.96.73-.24,1.43-.54,2.06-.98.66-.47,1.23-1.04,1.73-1.67,1-1.27,1.71-2.76,2.05-4.34.14-.63-.82-.89-.96-.27h0Z"/>
          <path class="cls-7" d="m159.06,36.55c.2-.18.46-.23.71-.19.13.02.26.06.37.14-.04-.03.17.18.1.09.32.42.32,1.06.28,1.56-.04.54-.23,1.08-.48,1.56-.25.47-.73,1.18-1.36,1.09-.27-.04-.54.06-.61.35-.06.23.08.58.35.61,1.59.22,2.51-1.32,2.93-2.63.34-1.09.35-2.78-.71-3.49-.7-.47-1.68-.35-2.29.2-.48.43.23,1.13.7.7h0Z"/>
          <path class="cls-7" d="m142.24,35.78c-.57-.52-1.4-.64-2.1-.32-.51.24-.82.72-.96,1.25-.34,1.24-.03,2.69.67,3.76.47.72,1.23,1.38,2.15,1.26.27-.03.5-.2.5-.5,0-.24-.23-.53-.5-.5-.69.09-1.14-.48-1.44-1.03-.26-.48-.46-1.04-.5-1.59-.04-.51-.03-1.15.28-1.58.02-.03.02-.02-.01.02.02-.02.04-.05.06-.07,0,0,.11-.09.06-.05.1-.07.21-.11.33-.13.27-.05.54,0,.75.19.47.43,1.18-.27.7-.7h0Z"/>
          <path class="cls-7" d="m153.86,46.68v.87c0,.35-.01.72.1,1.05.23.65.7,1.09,1.29,1.42.69.38,1.47.62,2.2.91.25.1.55-.11.61-.35.08-.28-.1-.51-.35-.61-.61-.24-1.25-.45-1.81-.73-.23-.11-.47-.25-.65-.41-.17-.15-.31-.35-.36-.55-.07-.27-.05-.57-.05-.85v-.74c0-.64-1-.64-1,0h0Z"/>
          <path class="cls-7" d="m145.91,46.88v.79c0,.15,0,.3-.01.45,0,.05-.05.21-.07.25-.11.23-.2.36-.37.49-.21.17-.45.3-.69.41-.52.25-1.15.46-1.73.69-.25.1-.42.33-.35.61.07.24.36.45.61.35.71-.28,1.45-.52,2.12-.87.56-.3,1.05-.69,1.31-1.29.25-.59.17-1.27.17-1.89,0-.27-.23-.5-.5-.5s-.5.23-.5.5h0Z"/>
          <path class="cls-13" d="m143.71,72.59c-1.84.53-9.19,2.64-9.19,2.64l-1.33-.68c-1.64-.7-2.99-2.2-2.9-4.3.07-1.73.55-3.62.83-4.71.85-3.33,2.39-8.36,3.18-9.63.87-1.41,2.22-2.65,3.64-3.36,1.48-.75,3.08-1.42,5.07-2.07.15-.05.3-.1.45-.16.04.03.06.04.06.04,1.5,1.17,4.12,2.1,6.84,2.11,2.72,0,5.34-.94,6.84-2.11,0,0,.03-.03.08-.06.35.13.71.26.96.35,1.82.7,3.51,1.34,5.04,2.16,1.4.75,2.62,1.84,3.5,3.23.48.75,1.2,2.49,1.48,3.32.63,1.9,1.16,4,1.88,6.57.3,1.08.61,2.64.68,4.37.09,2.1-1.18,3.83-2.88,4.32l-1.64.62-8.58-2.77c-4.21,0-9.41,0-13.56.01,0,0-.15.04-.42.12h0Z"/>
          <path class="cls-7" d="m134.27,69.11c1.02-.44,2.2-.73,3.29-.8.27-.02.5-.22.5-.5,0-.26-.23-.52-.5-.5-1.31.09-2.59.42-3.79.94-.25.11-.3.47-.18.68.15.26.43.29.68.18h0Z"/>
          <path class="cls-7" d="m144.12,72.97c3.55,0,7.09,0,10.64,0,.98,0,1.95,0,2.93,0,.64,0,.64-1,0-1-3.56,0-7.11,0-10.67,0-.97,0-1.93,0-2.9,0-.64,0-.64,1,0,1h0Z"/>
          <path class="cls-7" d="m156.21,50.43c.89.37,1.81.67,2.7,1.02,1.13.44,2.27.88,3.36,1.42.98.48,1.89,1.03,2.69,1.78.71.67,1.3,1.44,1.73,2.32.86,1.72,1.4,3.55,1.92,5.4.32,1.15.63,2.3.96,3.45.29,1.03.51,2.08.63,3.15.13,1.15.23,2.33-.33,3.39-.44.85-1.17,1.5-2.09,1.77-.61.18-.35,1.14.27.96,2.02-.59,3.28-2.58,3.25-4.64-.03-2.5-.76-4.88-1.42-7.26-.56-2.02-1.1-4.03-1.95-5.95-.42-.94-.9-1.79-1.57-2.58-.74-.87-1.65-1.61-2.64-2.17-1.24-.7-2.57-1.24-3.89-1.76-1.11-.44-2.24-.81-3.34-1.27-.25-.1-.55.11-.61.35-.08.29.1.51.35.61h0Z"/>
          <path class="cls-7" d="m137.37,59.13c.14,2.09.35,4.18.49,6.27.02.27.22.5.5.5.26,0,.52-.23.5-.5-.15-2.09-.35-4.18-.49-6.27-.02-.27-.22-.5-.5-.5-.26,0-.52.23-.5.5h0Z"/>
          <g class="cls-30">
            <path class="cls-7" d="m144.31,49.46c-1.24.44-2.49.86-3.72,1.34-1.11.44-2.24.9-3.28,1.5-1.06.61-2.02,1.44-2.78,2.4-.53.67-.91,1.34-1.23,2.12-.77,1.86-1.34,3.81-1.9,5.74-.61,2.13-1.23,4.29-1.51,6.49-.17,1.29-.16,2.55.5,3.72.57,1,1.5,1.76,2.54,2.21.25.11.53.07.68-.18.12-.21.07-.57-.18-.68-.83-.36-1.59-.91-2.08-1.68-.56-.88-.63-1.83-.53-2.84.2-2.11.8-4.18,1.38-6.21.54-1.93,1.12-3.85,1.83-5.72.23-.6.42-1.12.8-1.69.63-.96,1.46-1.8,2.41-2.45,1.02-.69,2.19-1.18,3.33-1.64,1.32-.53,2.67-.99,4-1.46.25-.09.42-.34.35-.61-.07-.25-.36-.44-.61-.35h0Z"/>
            <path class="cls-7" d="m122.54,72.99c2.6,0,5.2-.01,7.8-.01.64,0,.64-1,0-1-2.6,0-5.2.01-7.8.01-.64,0-.64,1,0,1h0Z"/>
            <path class="cls-7" d="m170.52,72.99c2.07,0,4.14,0,6.22,0,.58,0,1.16,0,1.75,0,.64,0,.64-1,0-1-2.26,0-4.51,0-6.77,0-.4,0-.8,0-1.19,0-.64,0-.64,1,0,1h0Z"/>
          </g>
          <path class="cls-7" d="m143.15,50.71c1.52,1.18,3.43,1.84,5.33,2.11,2.14.3,4.33.09,6.36-.66.97-.36,1.88-.82,2.69-1.45.21-.16.17-.53,0-.7-.21-.21-.49-.17-.7,0-1.36,1.06-3.16,1.61-4.84,1.85-1.93.28-3.92.04-5.76-.61-.83-.3-1.67-.69-2.37-1.24-.21-.16-.5-.21-.7,0-.17.17-.21.54,0,.7h0Z"/>
          <path class="cls-13" d="m161.07,79.63c-.11.08-.23.17-.34.24-.26.16-.86.37-1.25.17-.25-.12-.38-.34-.41-.57-.02.01-.03.02-.03.02-.5.33-1.32.53-1.81.15-.28-.22-.48-.85-.18-1.34.04-.08.1-.17.17-.26-.26.12-.76.28-1.08-.3-.21-.39-.08-1.02.38-1.5.17-.18.53-.65.88-1,.08-.07.15-.15.23-.22-.19-.02-.34-.03-.34-.03-.25.03-.56-.19-.7-.42-.12-.2-.1-.51-.04-.72.14-.47.9-1.02,1.68-1.49.84-.5,1.44-.72,2.34-.89.85-.13,1.44-.18,2.3-.09.78.08,1.35.41,1.92.75.35.2,1.1.93,1.3,1.29.35.66.55,1.27.54,1.89-.03,1.02-.25,1.6-.85,2.29-.35.4-.96,1.02-1.35,1.37-.56.49-1.11.58-1.53.43-.33-.12-.4-.74-.29-.99,0,0,.01-.02.02-.05,0,0-.01,0-.01,0-.13.1-.24.18-.32.25-.29.23-.75.66-1.22,1.01h0Z"/>
          <path class="cls-7" d="m159.8,74.82c-.61.53-1.19,1.09-1.77,1.65-.51.49-1.12.99-1.45,1.64-.35.69-.18,1.67.54,2.05.68.35,1.55.15,2.16-.24.54-.35.04-1.21-.5-.86-.21.14-.45.24-.69.28-.08.01-.25.02-.3,0-.06,0-.12-.02-.17-.05.05.02-.14-.1-.07-.04-.03-.02-.08-.1-.1-.14-.05-.12-.07-.24-.05-.37.03-.18.18-.38.28-.5.38-.46.84-.86,1.27-1.28.51-.49,1.02-.97,1.55-1.44.2-.18.18-.52,0-.7-.2-.2-.5-.18-.7,0h0Z"/>
          <path class="cls-7" d="m156.87,77.63s-.15.03-.04.02c-.04,0-.07,0-.11,0,.01,0-.03,0-.03-.01-.03-.03-.06-.06-.09-.1-.01-.02-.03-.04-.04-.06.01.04.01.04,0,0-.02-.04-.03-.08-.03-.12.01.08,0-.08,0-.08.01-.35.31-.67.56-.96.68-.81,1.47-1.49,2.27-2.18.21-.17.18-.53,0-.7-.2-.2-.5-.18-.7,0-.95.81-1.87,1.63-2.64,2.61-.38.48-.63,1.17-.39,1.78.25.63.85.95,1.51.78.62-.16.36-1.13-.27-.96h0Z"/>
          <path class="cls-7" d="m161.56,75.87c-.66.58-1.33,1.16-1.96,1.77-.56.54-1.25,1.24-.99,2.09.3.97,1.39,1.03,2.18.67.37-.17.69-.45,1.01-.71.29-.23.56-.48.85-.71.56-.45,1.15-.87,1.69-1.35.2-.18.18-.52,0-.7-.2-.2-.5-.18-.7,0-.42.37-.87.71-1.32,1.06-.47.37-.91.76-1.38,1.13-.23.18-.48.38-.75.46-.21.06-.48.11-.6-.06-.1-.15-.04-.28.1-.48.19-.27.44-.51.68-.74.61-.59,1.26-1.14,1.89-1.71.2-.18.18-.52,0-.7-.2-.2-.5-.18-.71,0h0Z"/>
          <g class="cls-31">
            <path class="cls-7" d="m157.28,74.48c-.21,0-.31-.2-.28-.39.02-.19.2-.37.37-.53.54-.49,1.22-.89,1.88-1.19.61-.28,1.29-.42,1.95-.49.7-.08,1.46-.1,2.14.1.52.16,1.1.47,1.47.79.46.4.79.76,1.03,1.3.27.61.34,1.26.21,1.92-.11.54-.38.98-.75,1.38-.24.27-.49.53-.75.78-.25.25-.5.52-.81.69-.12.07-.25.12-.39.13-.04,0-.14,0-.16,0-.02,0-.16-.05-.09,0,.05.03-.01-.01-.03-.06.02.04-.02-.11-.02-.09-.02-.12-.02-.14.03-.26.1-.25-.11-.55-.35-.61-.29-.08-.51.1-.61.35-.13.31-.08.7.04,1.01.15.37.44.59.83.65.92.15,1.63-.45,2.24-1.06.55-.54,1.16-1.12,1.5-1.82.36-.74.46-1.63.32-2.44-.27-1.58-1.48-2.77-2.9-3.4-.87-.38-1.84-.45-2.78-.36-.91.08-1.79.27-2.62.65-.47.21-.92.49-1.35.78-.42.28-.84.6-1.14,1.02-.26.37-.35.89-.19,1.32.17.48.7.86,1.21.85.64-.02.64-1.02,0-1h0Z"/>
            <path class="cls-7" d="m158.32,80.07c.55,2.68,1.09,5.37,1.62,8.05.05.26.37.42.61.35.28-.08.4-.35.35-.61-.52-2.69-1.07-5.37-1.62-8.05-.05-.26-.37-.42-.61-.35-.27.08-.4.35-.35.61h0Z"/>
            <path class="cls-7" d="m140.5,88.49h19.92c.64,0,.64-1,0-1h-19.92c-.64,0-.64,1,0,1h0Z"/>
            <path class="cls-7" d="m140.98,88.13c.63-3.19,1.28-6.37,1.92-9.55.15-.76.3-1.51.45-2.27.05-.26-.08-.54-.35-.61-.25-.07-.56.08-.61.35-.6,3.02-1.22,6.04-1.83,9.06-.18.92-.37,1.84-.55,2.76-.05.26.07.54.35.61.24.07.56-.08.61-.35h0Z"/>
          </g>
          <path class="cls-7" d="m145.6,75.82h10.68c.64,0,.64-1,0-1h-10.68c-.64,0-.64,1,0,1h0Z"/>
          <path class="cls-7" d="m143.27,70.98c-1.05-1.88-2.23-4.01-2.67-4.71-.2-.32-.45-.4-.67-.36-.22.04-.52.18-.65.34-.21.26-.17.54-.04.75,1.37,2.18,2.66,4.27,3.28,5.31.61,1.02,2.3,3.8,3.1,5.08.16.25.49.32.73.16.23-.15.31-.45.18-.69-.64-1.21-1.92-3.47-3.26-5.88h0Z"/>
          <path class="cls-13" d="m143.44,70.71c-.43-.3-.9-.45-1.03-.48-.29-.07-.54-.13-.84-.12-.36,0-.72.04-1.08.09-.39.05-1.33.14-2.04.1-.36-.02-.93-.01-1.23.19-.49.34-.92.72-1.2,1.15-.61.9-.86,1.51-1.22,2.54-.12.34-.08,1.05.22,1.26.61.42,2.05,1.96,2.88,2.34.3.14.69.25,1.02.25.44,0,1-.23.99-.96.33.25.57.32,1.03.32.2,0,.44-.07.61-.17.24-.14.48-.6.44-1,0,0,0-.03,0-.07.07.06.14.11.22.17.51.4,1.29.21,1.55-.05.2-.21.46-.86.28-1.31,0,0,0-.02-.02-.06.04.04.09.08.14.12.2.17.46.26.71.31.25.05.53.02.74-.13.31-.22.4-.66.31-1.03-.09-.37-.31-.69-.53-1-.46-.64-1.36-1.92-1.92-2.43"/>
          <path class="cls-7" d="m138.12,76.12c.36.37.73.72,1.13,1.05.35.29.7.58,1.16.66.48.09,1.03.06,1.44-.24.42-.3.66-.88.63-1.39-.02-.27-.22-.5-.5-.5-.26,0-.52.23-.5.5,0,.04,0,.09,0,.13,0,.05.01-.02,0,.05-.01.04-.02.09-.04.13,0,.02-.05.11-.02.05-.02.05-.05.09-.08.13-.02.03-.04.05,0,.01-.01.02-.11.1-.02.04-.02.02-.05.03-.08.04-.1.05.03,0-.08.03-.04,0-.07.02-.11.03-.05.01-.09.02-.19.02-.05,0-.11,0-.16,0-.04,0-.07,0-.01,0-.08-.01-.16-.03-.23-.06-.07-.02.1.06-.02,0-.03-.02-.07-.03-.1-.05-.06-.03-.15-.09-.17-.12-.11-.08-.28-.23-.41-.34-.32-.28-.63-.57-.93-.88-.19-.19-.52-.19-.7,0-.19.19-.19.51,0,.71h0Z"/>
          <path class="cls-7" d="m139.62,74.75c.48.44.96.88,1.47,1.3.44.37.9.85,1.48.95.52.09,1.16-.02,1.54-.42.41-.44.58-1.21.39-1.77-.09-.25-.34-.42-.61-.35-.25.07-.43.36-.35.61.07.2.05.33-.02.54-.03.1-.03.11-.1.22,0,.01-.08.11-.03.06.06-.07-.09.08-.01.01.05-.05-.05.03-.07.04-.02.01-.04.02-.06.03.04-.02.05-.02.01,0-.09.03-.18.06-.27.07.08-.01-.06,0-.08,0-.05,0-.11,0-.16,0,.07.01-.09-.03-.08-.02-.12-.03.02.02-.09-.03-.17-.09-.33-.24-.49-.37-.18-.14-.35-.29-.53-.44-.42-.36-.83-.73-1.23-1.1-.47-.43-1.18.27-.7.7h0Z"/>
          <path class="cls-7" d="m139.41,77.09c-.02.15-.05.27-.16.34-.09.06-.22.08-.31.08-.38,0-.76-.13-1.08-.34-.63-.4-1.17-.95-1.72-1.45-.25-.23-.5-.46-.77-.66-.02-.02-.04-.03-.07-.05.08.06,0,0,0,0,.01.03-.02-.07-.03-.11-.03-.14-.04-.33-.02-.46.05-.35.26-.79.41-1.13.18-.42.4-.82.65-1.2.26-.4.57-.74.95-1.03.15-.12.29-.22.48-.26.2-.04.4-.04.6-.03.88.03,1.73-.06,2.61-.14.8-.08,1.76-.01,2.35.61.55.58,1.01,1.23,1.47,1.88.26.36.63.76.68,1.22.04.47-.34.53-.71.4-.26-.09-.44-.29-.64-.46-.22-.2-.45-.4-.67-.6-.48-.43-.95-.87-1.44-1.29-.2-.18-.5-.2-.7,0-.18.18-.21.53,0,.7.51.44,1.01.9,1.51,1.35.46.42.93.96,1.51,1.19.55.22,1.24.26,1.7-.18.44-.41.52-1.09.33-1.64-.17-.5-.51-.92-.81-1.34-.3-.41-.6-.82-.91-1.22-.28-.36-.57-.77-.95-1.03-.41-.28-.9-.47-1.39-.57-.33-.07-.65-.09-.99-.07-.15,0-.3.02-.44.04-.08,0-.16.02-.24.03.04,0-.33.04-.19.03-.5.06-1.01.1-1.51.1-.52,0-1.06-.08-1.57.09-.54.18-1.04.64-1.4,1.06-.75.85-1.21,1.94-1.57,3-.15.43-.16.94,0,1.36.09.25.23.41.44.57.07.05.01,0,0,0,.04.03.07.06.11.09.08.06.15.13.23.19.75.66,1.47,1.44,2.34,1.94.52.3,1.19.48,1.79.37.57-.11,1.02-.55,1.11-1.12.04-.27-.07-.54-.35-.61-.24-.07-.57.08-.61.35h0Z"/>
        </g>
        <g>
          <g>
            <g>
              <polyline class="cls-14" points="115.99 32.23 123.4 42.13 123.4 74.53 115.99 83.86"/>
              <polygon class="cls-7" points="116.04 84.27 115.58 83.91 123.11 74.43 123.11 42.23 115.58 32.17 116.05 31.82 123.69 42.04 123.69 74.64 116.04 84.27"/>
            </g>
            <g>
              <polyline class="cls-8" points="115.99 32.23 112.29 32.23 112.29 83.86 115.99 83.86"/>
              <polygon class="cls-7" points="116.28 84.15 112 84.15 112 31.93 116.28 31.93 116.28 32.52 112.58 32.52 112.58 83.57 116.28 83.57 116.28 84.15"/>
            </g>
          </g>
          <rect class="cls-7" x="115.7" y="36.57" width=".58" height="43.53"/>
        </g>
        <g>
          <g>
            <g>
              <polyline class="cls-14" points="182.99 32.23 175.58 42.13 175.58 74.53 182.99 83.86"/>
              <polygon class="cls-7" points="182.95 84.27 175.29 74.64 175.29 42.04 182.93 31.82 183.4 32.17 175.88 42.23 175.88 74.43 183.4 83.91 182.95 84.27"/>
            </g>
            <g>
              <polyline class="cls-8" points="182.99 32.23 186.7 32.23 186.7 83.86 182.99 83.86"/>
              <polygon class="cls-7" points="186.99 84.15 182.7 84.15 182.7 83.57 186.4 83.57 186.4 32.52 182.7 32.52 182.7 31.93 186.99 31.93 186.99 84.15"/>
            </g>
          </g>
          <rect class="cls-7" x="182.7" y="36.57" width=".58" height="43.53"/>
        </g>
      </g>
      <text class="cls-19" transform="translate(145.41 111.11)"><tspan class="cls-1"><tspan x="0" y="0">②</tspan></tspan><tspan class="cls-1" x="-17.01" y="11.67">投票用</tspan><tspan class="cls-34" x="8.71" y="11.67">紙</tspan><tspan class="cls-16" x="17.25" y="11.67">に</tspan><tspan class="cls-1" x="-34.08" y="23.33">候補</tspan><tspan class="cls-29" x="-16.92" y="23.33">者</tspan><tspan class="cls-18" x="-8.36" y="23.33">の</tspan><tspan class="cls-1" x=".11" y="23.33">名</tspan><tspan class="cls-15" x="8.69" y="23.33">前</tspan><tspan class="cls-39" x="17.18" y="23.33">を</tspan><tspan class="cls-1" x="25.5" y="23.33">記入</tspan></text>
      <text class="cls-19" transform="translate(45.52 111.11)"><tspan class="cls-1"><tspan x="0" y="0">①</tspan></tspan><tspan class="cls-1" x="-25.67" y="11.67">指定（近隣</tspan><tspan class="cls-29" x="17.21" y="11.67">）</tspan><tspan class="cls-18" x="25.78" y="11.67">の</tspan><tspan class="cls-1" x="-20.26" y="23.33">投票</tspan><tspan class="cls-35" x="-3.11" y="23.33">所</tspan><tspan class="cls-17" x="5.44" y="23.33">に</tspan><tspan class="cls-36" x="13.77" y="23.33">行</tspan><tspan class="cls-33" x="21.58" y="23.33">く</tspan></text>
      <text class="cls-19" transform="translate(243.78 111.11)"><tspan class="cls-1"><tspan x="0" y="0">③</tspan></tspan><tspan class="cls-1" x="-16.98" y="11.67">投票用</tspan><tspan class="cls-15" x="8.74" y="11.67">紙</tspan><tspan class="cls-39" x="17.24" y="11.67">を</tspan><tspan class="cls-1" x="-25.27" y="23.33">投票</tspan><tspan class="cls-35" x="-8.12" y="23.33">箱</tspan><tspan class="cls-17" x=".42" y="23.33">に</tspan><tspan class="cls-37" x="8.76" y="23.33">入</tspan><tspan class="cls-32" x="17.41" y="23.33">れ</tspan><tspan class="cls-38" x="25.67" y="23.33">る</tspan></text>
    </g>
  </g>
</svg>